/* XPM */
static char *_f867db3fc184f0eceec7fbefc333a93fHodADqmXQOx0DKZ[] = {
/* columns rows colors chars-per-pixel */
"128 128 3 1 ",
"  c #421D17",
". c #663931",
"X c #9D4232",
/* pixels */
"                                                                                                                                ",
"                                                                                                                                ",
"  .............. XXXXXXXXXXXXXXXXXXXXXXXXXXXXX ............................ XXXXXXXXXXXXXXXXXXXXXXXXXXXXX ....................  ",
"  .............. XXXXXXXXXXXXXXXXXXXXXXXXXXXXX ............................ XXXXXXXXXXXXXXXXXXXXXXXXXXXXX ....................  ",
"  .............. XXXXXXXXXXXXXXXXXXXXXXXXXXXXX ............................ XXXXXXXXXXXXXXXXXXXXXXXXXXXXX ....................  ",
"  .............. XXXXXXXXXXXXXXXXXXXXXXXXXXXXX ............................ XXXXXXXXXXXXXXXXXXXXXXXXXXXXX ....................  ",
"  .............. XXXXXXXXXXXXXXXXXXXXXXXXXXXXX ............................ XXXXXXXXXXXXXXXXXXXXXXXXXXXXX ....................  ",
"  .............. XXXXXXXXXXXXXXXXXXXXXXXXXXXXX ............................ XXXXXXXXXXXXXXXXXXXXXXXXXXXXX ....................  ",
"  .............. XXXXXXXXXXXXXXXXXXXXXXXXXXXXX ............................ XXXXXXXXXXXXXXXXXXXXXXXXXXXXX ....................  ",
"  .............. XXXXXXXXXXXXXXXXXXXXXXXXXXXXX ............................ XXXXXXXXXXXXXXXXXXXXXXXXXXXXX ....................  ",
"  .............. XXXXXXXXXXXXXXXXXXXXXXXXXXXXX ............................ XXXXXXXXXXXXXXXXXXXXXXXXXXXXX ....................  ",
"  .............. XXXXXXXXXXXXXXXXXXXXXXXXXXXXX ............................ XXXXXXXXXXXXXXXXXXXXXXXXXXXXX ....................  ",
"  .............. XXXXXXXXXXXXXXXXXXXXXXXXXXXXX ............................ XXXXXXXXXXXXXXXXXXXXXXXXXXXXX ....................  ",
"  .............. XXXXXXXXXXXXXXXXXXXXXXXXXXXXX ............................ XXXXXXXXXXXXXXXXXXXXXXXXXXXXX ....................  ",
"  .............. XXXXXXXXXXXXXXXXXXXXXXXXXXXXX ............................ XXXXXXXXXXXXXXXXXXXXXXXXXXXXX ....................  ",
"                                                                                                                                ",
"                                                                                                                                ",
"  XXXXXXXXXXXXXXXXXXXXXXXXXXXXX ............................. XXXXXXXXXXXXXXXXXXXXXXXXXXXX ............................. XXXXX  ",
"  XXXXXXXXXXXXXXXXXXXXXXXXXXXXX ............................. XXXXXXXXXXXXXXXXXXXXXXXXXXXX ............................. XXXXX  ",
"  XXXXXXXXXXXXXXXXXXXXXXXXXXXXX ............................. XXXXXXXXXXXXXXXXXXXXXXXXXXXX ............................. XXXXX  ",
"  XXXXXXXXXXXXXXXXXXXXXXXXXXXXX ............................. XXXXXXXXXXXXXXXXXXXXXXXXXXXX ............................. XXXXX  ",
"  XXXXXXXXXXXXXXXXXXXXXXXXXXXXX ............................. XXXXXXXXXXXXXXXXXXXXXXXXXXXX ............................. XXXXX  ",
"  XXXXXXXXXXXXXXXXXXXXXXXXXXXXX ............................. XXXXXXXXXXXXXXXXXXXXXXXXXXXX ............................. XXXXX  ",
"  XXXXXXXXXXXXXXXXXXXXXXXXXXXXX ............................. XXXXXXXXXXXXXXXXXXXXXXXXXXXX ............................. XXXXX  ",
"  XXXXXXXXXXXXXXXXXXXXXXXXXXXXX ............................. XXXXXXXXXXXXXXXXXXXXXXXXXXXX ............................. XXXXX  ",
"  XXXXXXXXXXXXXXXXXXXXXXXXXXXXX ............................. XXXXXXXXXXXXXXXXXXXXXXXXXXXX ............................. XXXXX  ",
"  XXXXXXXXXXXXXXXXXXXXXXXXXXXXX ............................. XXXXXXXXXXXXXXXXXXXXXXXXXXXX ............................. XXXXX  ",
"  XXXXXXXXXXXXXXXXXXXXXXXXXXXXX ............................. XXXXXXXXXXXXXXXXXXXXXXXXXXXX ............................. XXXXX  ",
"  XXXXXXXXXXXXXXXXXXXXXXXXXXXXX ............................. XXXXXXXXXXXXXXXXXXXXXXXXXXXX ............................. XXXXX  ",
"  XXXXXXXXXXXXXXXXXXXXXXXXXXXXX ............................. XXXXXXXXXXXXXXXXXXXXXXXXXXXX ............................. XXXXX  ",
"  XXXXXXXXXXXXXXXXXXXXXXXXXXXXX ............................. XXXXXXXXXXXXXXXXXXXXXXXXXXXX ............................. XXXXX  ",
"                                                                                                                                ",
"                                                                                                                                ",
"  .............. XXXXXXXXXXXXXXXXXXXXXXXXXXXXX ............................ XXXXXXXXXXXXXXXXXXXXXXXXXXXXX ....................  ",
"  .............. XXXXXXXXXXXXXXXXXXXXXXXXXXXXX ............................ XXXXXXXXXXXXXXXXXXXXXXXXXXXXX ....................  ",
"  .............. XXXXXXXXXXXXXXXXXXXXXXXXXXXXX ............................ XXXXXXXXXXXXXXXXXXXXXXXXXXXXX ....................  ",
"  .............. XXXXXXXXXXXXXXXXXXXXXXXXXXXXX ............................ XXXXXXXXXXXXXXXXXXXXXXXXXXXXX ....................  ",
"  .............. XXXXXXXXXXXXXXXXXXXXXXXXXXXXX ............................ XXXXXXXXXXXXXXXXXXXXXXXXXXXXX ....................  ",
"  .............. XXXXXXXXXXXXXXXXXXXXXXXXXXXXX ............................ XXXXXXXXXXXXXXXXXXXXXXXXXXXXX ....................  ",
"  .............. XXXXXXXXXXXXXXXXXXXXXXXXXXXXX ............................ XXXXXXXXXXXXXXXXXXXXXXXXXXXXX ....................  ",
"  .............. XXXXXXXXXXXXXXXXXXXXXXXXXXXXX ............................ XXXXXXXXXXXXXXXXXXXXXXXXXXXXX ....................  ",
"  .............. XXXXXXXXXXXXXXXXXXXXXXXXXXXXX ............................ XXXXXXXXXXXXXXXXXXXXXXXXXXXXX ....................  ",
"  .............. XXXXXXXXXXXXXXXXXXXXXXXXXXXXX ............................ XXXXXXXXXXXXXXXXXXXXXXXXXXXXX ....................  ",
"  .............. XXXXXXXXXXXXXXXXXXXXXXXXXXXXX ............................ XXXXXXXXXXXXXXXXXXXXXXXXXXXXX ....................  ",
"  .............. XXXXXXXXXXXXXXXXXXXXXXXXXXXXX ............................ XXXXXXXXXXXXXXXXXXXXXXXXXXXXX ....................  ",
"  .............. XXXXXXXXXXXXXXXXXXXXXXXXXXXXX ............................ XXXXXXXXXXXXXXXXXXXXXXXXXXXXX ....................  ",
"  .............. XXXXXXXXXXXXXXXXXXXXXXXXXXXXX ............................ XXXXXXXXXXXXXXXXXXXXXXXXXXXXX ....................  ",
"                                                                                                                                ",
"                                                                                                                                ",
"  XXXXXXXXXXXXXXXXXXXXXXXXXXXXX ............................. XXXXXXXXXXXXXXXXXXXXXXXXXXXX ............................. XXXXX  ",
"  XXXXXXXXXXXXXXXXXXXXXXXXXXXXX ............................. XXXXXXXXXXXXXXXXXXXXXXXXXXXX ............................. XXXXX  ",
"  XXXXXXXXXXXXXXXXXXXXXXXXXXXXX ............................. XXXXXXXXXXXXXXXXXXXXXXXXXXXX ............................. XXXXX  ",
"  XXXXXXXXXXXXXXXXXXXXXXXXXXXXX ............................. XXXXXXXXXXXXXXXXXXXXXXXXXXXX ............................. XXXXX  ",
"  XXXXXXXXXXXXXXXXXXXXXXXXXXXXX ............................. XXXXXXXXXXXXXXXXXXXXXXXXXXXX ............................. XXXXX  ",
"  XXXXXXXXXXXXXXXXXXXXXXXXXXXXX ............................. XXXXXXXXXXXXXXXXXXXXXXXXXXXX ............................. XXXXX  ",
"  XXXXXXXXXXXXXXXXXXXXXXXXXXXXX ............................. XXXXXXXXXXXXXXXXXXXXXXXXXXXX ............................. XXXXX  ",
"  XXXXXXXXXXXXXXXXXXXXXXXXXXXXX ............................. XXXXXXXXXXXXXXXXXXXXXXXXXXXX ............................. XXXXX  ",
"  XXXXXXXXXXXXXXXXXXXXXXXXXXXXX ............................. XXXXXXXXXXXXXXXXXXXXXXXXXXXX ............................. XXXXX  ",
"  XXXXXXXXXXXXXXXXXXXXXXXXXXXXX ............................. XXXXXXXXXXXXXXXXXXXXXXXXXXXX ............................. XXXXX  ",
"  XXXXXXXXXXXXXXXXXXXXXXXXXXXXX ............................. XXXXXXXXXXXXXXXXXXXXXXXXXXXX ............................. XXXXX  ",
"  XXXXXXXXXXXXXXXXXXXXXXXXXXXXX ............................. XXXXXXXXXXXXXXXXXXXXXXXXXXXX ............................. XXXXX  ",
"  XXXXXXXXXXXXXXXXXXXXXXXXXXXXX ............................. XXXXXXXXXXXXXXXXXXXXXXXXXXXX ............................. XXXXX  ",
"  XXXXXXXXXXXXXXXXXXXXXXXXXXXXX ............................. XXXXXXXXXXXXXXXXXXXXXXXXXXXX ............................. XXXXX  ",
"                                                                                                                                ",
"                                                                                                                                ",
"  .............. XXXXXXXXXXXXXXXXXXXXXXXXXXXXX ............................ XXXXXXXXXXXXXXXXXXXXXXXXXXXXX ....................  ",
"  .............. XXXXXXXXXXXXXXXXXXXXXXXXXXXXX ............................ XXXXXXXXXXXXXXXXXXXXXXXXXXXXX ....................  ",
"  .............. XXXXXXXXXXXXXXXXXXXXXXXXXXXXX ............................ XXXXXXXXXXXXXXXXXXXXXXXXXXXXX ....................  ",
"  .............. XXXXXXXXXXXXXXXXXXXXXXXXXXXXX ............................ XXXXXXXXXXXXXXXXXXXXXXXXXXXXX ....................  ",
"  .............. XXXXXXXXXXXXXXXXXXXXXXXXXXXXX ............................ XXXXXXXXXXXXXXXXXXXXXXXXXXXXX ....................  ",
"  .............. XXXXXXXXXXXXXXXXXXXXXXXXXXXXX ............................ XXXXXXXXXXXXXXXXXXXXXXXXXXXXX ....................  ",
"  .............. XXXXXXXXXXXXXXXXXXXXXXXXXXXXX ............................ XXXXXXXXXXXXXXXXXXXXXXXXXXXXX ....................  ",
"  .............. XXXXXXXXXXXXXXXXXXXXXXXXXXXXX ............................ XXXXXXXXXXXXXXXXXXXXXXXXXXXXX ....................  ",
"  .............. XXXXXXXXXXXXXXXXXXXXXXXXXXXXX ............................ XXXXXXXXXXXXXXXXXXXXXXXXXXXXX ....................  ",
"  .............. XXXXXXXXXXXXXXXXXXXXXXXXXXXXX ............................ XXXXXXXXXXXXXXXXXXXXXXXXXXXXX ....................  ",
"  .............. XXXXXXXXXXXXXXXXXXXXXXXXXXXXX ............................ XXXXXXXXXXXXXXXXXXXXXXXXXXXXX ....................  ",
"  .............. XXXXXXXXXXXXXXXXXXXXXXXXXXXXX ............................ XXXXXXXXXXXXXXXXXXXXXXXXXXXXX ....................  ",
"  .............. XXXXXXXXXXXXXXXXXXXXXXXXXXXXX ............................ XXXXXXXXXXXXXXXXXXXXXXXXXXXXX ....................  ",
"  .............. XXXXXXXXXXXXXXXXXXXXXXXXXXXXX ............................ XXXXXXXXXXXXXXXXXXXXXXXXXXXXX ....................  ",
"                                                                                                                                ",
"                                                                                                                                ",
"  XXXXXXXXXXXXXXXXXXXXXXXXXXXXX ............................. XXXXXXXXXXXXXXXXXXXXXXXXXXXX ............................. XXXXX  ",
"  XXXXXXXXXXXXXXXXXXXXXXXXXXXXX ............................. XXXXXXXXXXXXXXXXXXXXXXXXXXXX ............................. XXXXX  ",
"  XXXXXXXXXXXXXXXXXXXXXXXXXXXXX ............................. XXXXXXXXXXXXXXXXXXXXXXXXXXXX ............................. XXXXX  ",
"  XXXXXXXXXXXXXXXXXXXXXXXXXXXXX ............................. XXXXXXXXXXXXXXXXXXXXXXXXXXXX ............................. XXXXX  ",
"  XXXXXXXXXXXXXXXXXXXXXXXXXXXXX ............................. XXXXXXXXXXXXXXXXXXXXXXXXXXXX ............................. XXXXX  ",
"  XXXXXXXXXXXXXXXXXXXXXXXXXXXXX ............................. XXXXXXXXXXXXXXXXXXXXXXXXXXXX ............................. XXXXX  ",
"  XXXXXXXXXXXXXXXXXXXXXXXXXXXXX ............................. XXXXXXXXXXXXXXXXXXXXXXXXXXXX ............................. XXXXX  ",
"  XXXXXXXXXXXXXXXXXXXXXXXXXXXXX ............................. XXXXXXXXXXXXXXXXXXXXXXXXXXXX ............................. XXXXX  ",
"  XXXXXXXXXXXXXXXXXXXXXXXXXXXXX ............................. XXXXXXXXXXXXXXXXXXXXXXXXXXXX ............................. XXXXX  ",
"  XXXXXXXXXXXXXXXXXXXXXXXXXXXXX ............................. XXXXXXXXXXXXXXXXXXXXXXXXXXXX ............................. XXXXX  ",
"  XXXXXXXXXXXXXXXXXXXXXXXXXXXXX ............................. XXXXXXXXXXXXXXXXXXXXXXXXXXXX ............................. XXXXX  ",
"  XXXXXXXXXXXXXXXXXXXXXXXXXXXXX ............................. XXXXXXXXXXXXXXXXXXXXXXXXXXXX ............................. XXXXX  ",
"  XXXXXXXXXXXXXXXXXXXXXXXXXXXXX ............................. XXXXXXXXXXXXXXXXXXXXXXXXXXXX ............................. XXXXX  ",
"  XXXXXXXXXXXXXXXXXXXXXXXXXXXXX ............................. XXXXXXXXXXXXXXXXXXXXXXXXXXXX ............................. XXXXX  ",
"                                                                                                                                ",
"                                                                                                                                ",
"  .............. XXXXXXXXXXXXXXXXXXXXXXXXXXXXX ............................ XXXXXXXXXXXXXXXXXXXXXXXXXXXXX ....................  ",
"  .............. XXXXXXXXXXXXXXXXXXXXXXXXXXXXX ............................ XXXXXXXXXXXXXXXXXXXXXXXXXXXXX ....................  ",
"  .............. XXXXXXXXXXXXXXXXXXXXXXXXXXXXX ............................ XXXXXXXXXXXXXXXXXXXXXXXXXXXXX ....................  ",
"  .............. XXXXXXXXXXXXXXXXXXXXXXXXXXXXX ............................ XXXXXXXXXXXXXXXXXXXXXXXXXXXXX ....................  ",
"  .............. XXXXXXXXXXXXXXXXXXXXXXXXXXXXX ............................ XXXXXXXXXXXXXXXXXXXXXXXXXXXXX ....................  ",
"  .............. XXXXXXXXXXXXXXXXXXXXXXXXXXXXX ............................ XXXXXXXXXXXXXXXXXXXXXXXXXXXXX ....................  ",
"  .............. XXXXXXXXXXXXXXXXXXXXXXXXXXXXX ............................ XXXXXXXXXXXXXXXXXXXXXXXXXXXXX ....................  ",
"  .............. XXXXXXXXXXXXXXXXXXXXXXXXXXXXX ............................ XXXXXXXXXXXXXXXXXXXXXXXXXXXXX ....................  ",
"  .............. XXXXXXXXXXXXXXXXXXXXXXXXXXXXX ............................ XXXXXXXXXXXXXXXXXXXXXXXXXXXXX ....................  ",
"  .............. XXXXXXXXXXXXXXXXXXXXXXXXXXXXX ............................ XXXXXXXXXXXXXXXXXXXXXXXXXXXXX ....................  ",
"  .............. XXXXXXXXXXXXXXXXXXXXXXXXXXXXX ............................ XXXXXXXXXXXXXXXXXXXXXXXXXXXXX ....................  ",
"  .............. XXXXXXXXXXXXXXXXXXXXXXXXXXXXX ............................ XXXXXXXXXXXXXXXXXXXXXXXXXXXXX ....................  ",
"  .............. XXXXXXXXXXXXXXXXXXXXXXXXXXXXX ............................ XXXXXXXXXXXXXXXXXXXXXXXXXXXXX ....................  ",
"  .............. XXXXXXXXXXXXXXXXXXXXXXXXXXXXX ............................ XXXXXXXXXXXXXXXXXXXXXXXXXXXXX ....................  ",
"                                                                                                                                ",
"                                                                                                                                ",
"  XXXXXXXXXXXXXXXXXXXXXXXXXXXXX ............................. XXXXXXXXXXXXXXXXXXXXXXXXXXXX ............................. XXXXX  ",
"  XXXXXXXXXXXXXXXXXXXXXXXXXXXXX ............................. XXXXXXXXXXXXXXXXXXXXXXXXXXXX ............................. XXXXX  ",
"  XXXXXXXXXXXXXXXXXXXXXXXXXXXXX ............................. XXXXXXXXXXXXXXXXXXXXXXXXXXXX ............................. XXXXX  ",
"  XXXXXXXXXXXXXXXXXXXXXXXXXXXXX ............................. XXXXXXXXXXXXXXXXXXXXXXXXXXXX ............................. XXXXX  ",
"  XXXXXXXXXXXXXXXXXXXXXXXXXXXXX ............................. XXXXXXXXXXXXXXXXXXXXXXXXXXXX ............................. XXXXX  ",
"  XXXXXXXXXXXXXXXXXXXXXXXXXXXXX ............................. XXXXXXXXXXXXXXXXXXXXXXXXXXXX ............................. XXXXX  ",
"  XXXXXXXXXXXXXXXXXXXXXXXXXXXXX ............................. XXXXXXXXXXXXXXXXXXXXXXXXXXXX ............................. XXXXX  ",
"  XXXXXXXXXXXXXXXXXXXXXXXXXXXXX ............................. XXXXXXXXXXXXXXXXXXXXXXXXXXXX ............................. XXXXX  ",
"  XXXXXXXXXXXXXXXXXXXXXXXXXXXXX ............................. XXXXXXXXXXXXXXXXXXXXXXXXXXXX ............................. XXXXX  ",
"  XXXXXXXXXXXXXXXXXXXXXXXXXXXXX ............................. XXXXXXXXXXXXXXXXXXXXXXXXXXXX ............................. XXXXX  ",
"  XXXXXXXXXXXXXXXXXXXXXXXXXXXXX ............................. XXXXXXXXXXXXXXXXXXXXXXXXXXXX ............................. XXXXX  ",
"  XXXXXXXXXXXXXXXXXXXXXXXXXXXXX ............................. XXXXXXXXXXXXXXXXXXXXXXXXXXXX ............................. XXXXX  ",
"  XXXXXXXXXXXXXXXXXXXXXXXXXXXXX ............................. XXXXXXXXXXXXXXXXXXXXXXXXXXXX ............................. XXXXX  ",
"                                                                                                                                ",
"                                                                                                                                "
};
