/* XPM */
static char *collectible[] = {
/* columns rows colors chars-per-pixel */
"128 128 10 1"
"  c None"
". c #4C3E24"
"X c #676633"
"o c #E83B3B"
"O c #FB6B1D"
"+ c #966C6C"
"@ c #F9C22B"
"# c #97866F"
"$ c #D4A488"
"% c #FBFF86"
/* pixels */
"                                                                                                                                "
"                                                                                                                                "
"                                                                                                                                "
"                                                                                                                                "
"                                        oooo                                                                                    "
"                                        oooo                                                                                    "
"                                        oooo                                                                                    "
"                                        oooo                                                                                    "
"                                    oooooooooooo                                                                                "
"                                    oooooooooooo                                                                                "
"                                    oooooooooooo                                                                                "
"                                    oooooooooooo                                                                                "
"                                    oooooooooooo                                                                                "
"                                    oooooooooooo                                                                                "
"                                    oooooooooooo                                                                                "
"                                    oooooooooooo                                                                                "
"                                    oooooooooooo        oooo                                                                    "
"                                    oooooooooooo        oooo                                                                    "
"                                    oooooooooooo        oooo                                                                    "
"                                    oooooooooooo        oooo                                                                    "
"                                    ooooOOOOoooo    oooooooooooo                                                                "
"                                    ooooOOOOoooo    oooooooooooo                                                                "
"                                    ooooOOOOoooo    oooooooooooo                                                                "
"                                    ooooOOOOoooo    oooooooooooo                                                                "
"                                    ooooOOOOoooo    oooooooooooo                                                                "
"                                    ooooOOOOoooo    oooooooooooo                                                                "
"                                    ooooOOOOoooo    oooooooooooo                                                                "
"                                    ooooOOOOoooo    oooooooooooo                                                                "
"                                    oooo@@@@oooo    ooooOOOOoooo                                                                "
"                                    oooo@@@@oooo    ooooOOOOoooo                                                                "
"                                    oooo@@@@oooo    ooooOOOOoooo                                                                "
"                                    oooo@@@@oooo    ooooOOOOoooo                                                                "
"            oooooooo                oooo@@@@oooo    ooooOOOOoooo                                                                "
"            oooooooo                oooo@@@@oooo    ooooOOOOoooo                                                                "
"            oooooooo                oooo@@@@oooo    ooooOOOOoooo                                                                "
"            oooooooo                oooo@@@@oooo    ooooOOOOoooo                                                                "
"        ooooOOOO$$$$oooo            oooo@@@@oooooooooooo@@@@oooo                                                                "
"        ooooOOOO$$$$oooo            oooo@@@@oooooooooooo@@@@oooo                                                                "
"        ooooOOOO$$$$oooo            oooo@@@@oooooooooooo@@@@oooo                                                                "
"        ooooOOOO$$$$oooo            oooo@@@@oooooooooooo@@@@oooo                                                                "
"        ooooOOOO$$$$oooo            oooo@@@@OOOOOOOOOOOO@@@@oooo                                                                "
"        ooooOOOO$$$$oooo            oooo@@@@OOOOOOOOOOOO@@@@oooo                                                                "
"        ooooOOOO$$$$oooo            oooo@@@@OOOOOOOOOOOO@@@@oooo                                                                "
"        ooooOOOO$$$$oooo            oooo@@@@OOOOOOOOOOOO@@@@oooo                                                                "
"        ooooOOOO@@@@oooo        oooooooo@@@@@@@@OOOO@@@@@@@@oooo                                                                "
"        ooooOOOO@@@@oooo        oooooooo@@@@@@@@OOOO@@@@@@@@oooo                                                                "
"        ooooOOOO@@@@oooo        oooooooo@@@@@@@@OOOO@@@@@@@@oooo                                                                "
"        ooooOOOO@@@@oooo        oooooooo@@@@@@@@OOOO@@@@@@@@oooo                                                                "
"        ooooOOOO@@@@oooo    ooooOOOOOOOO@@@@@@@@@@@@@@@@@@@@OOOOoooo                                                            "
"        ooooOOOO@@@@oooo    ooooOOOOOOOO@@@@@@@@@@@@@@@@@@@@OOOOoooo                                                            "
"        ooooOOOO@@@@oooo    ooooOOOOOOOO@@@@@@@@@@@@@@@@@@@@OOOOoooo                                                            "
"        ooooOOOO@@@@oooo    ooooOOOOOOOO@@@@@@@@@@@@@@@@@@@@OOOOoooo                                                            "
"            oooooooo    ooooOOOOOOOO@@@@@@@@%%%%%%%%%%%%@@@@@@@@OOOOoooo                                                        "
"            oooooooo    ooooOOOOOOOO@@@@@@@@%%%%%%%%%%%%@@@@@@@@OOOOoooo                                                        "
"            oooooooo    ooooOOOOOOOO@@@@@@@@%%%%%%%%%%%%@@@@@@@@OOOOoooo                                                        "
"            oooooooo    ooooOOOOOOOO@@@@@@@@%%%%%%%%%%%%@@@@@@@@OOOOoooo                                                        "
"                        ooooOOOO@@@@@@@@%%%%%%%%%%%%%%%%%%%%@@@@@@@@OOOOoooo                                                    "
"                        ooooOOOO@@@@@@@@%%%%%%%%%%%%%%%%%%%%@@@@@@@@OOOOoooo                                                    "
"                        ooooOOOO@@@@@@@@%%%%%%%%%%%%%%%%%%%%@@@@@@@@OOOOoooo                                                    "
"                        ooooOOOO@@@@@@@@%%%%%%%%%%%%%%%%%%%%@@@@@@@@OOOOoooo                                                    "
"                        ooooOOOO@@@@%%%%%%%%%%%%%%%%%%%%%%%%%%%%@@@@OOOOoooo                                                    "
"                        ooooOOOO@@@@%%%%%%%%%%%%%%%%%%%%%%%%%%%%@@@@OOOOoooo                                                    "
"                        ooooOOOO@@@@%%%%%%%%%%%%%%%%%%%%%%%%%%%%@@@@OOOOoooo                                                    "
"                        ooooOOOO@@@@%%%%%%%%%%%%%%%%%%%%%%%%%%%%@@@@OOOOoooo                                                    "
"                        ooooOOOO@@@@%%%%%%%%%%%%%%%%%%%%%%%%%%%%@@@@OOOOoooo        oooo                                        "
"                        ooooOOOO@@@@%%%%%%%%%%%%%%%%%%%%%%%%%%%%@@@@OOOOoooo        oooo                                        "
"                        ooooOOOO@@@@%%%%%%%%%%%%%%%%%%%%%%%%%%%%@@@@OOOOoooo        oooo                                        "
"                        ooooOOOO@@@@%%%%%%%%%%%%%%%%%%%%%%%%%%%%@@@@OOOOoooo        oooo                                        "
"                        ooooOOOO@@@@%%%%%%%%%%%%%%%%%%%%%%%%%%%%@@@@OOOOoooo    oooo$$$$oooo                                    "
"                        ooooOOOO@@@@%%%%%%%%%%%%%%%%%%%%%%%%%%%%@@@@OOOOoooo    oooo$$$$oooo                                    "
"                        ooooOOOO@@@@%%%%%%%%%%%%%%%%%%%%%%%%%%%%@@@@OOOOoooo    oooo$$$$oooo                                    "
"                        ooooOOOO@@@@%%%%%%%%%%%%%%%%%%%%%%%%%%%%@@@@OOOOoooo    oooo$$$$oooo                                    "
"                        ooooOOOOOOOO@@@@%%%%%%%%%%%%%%%%%%%%@@@@OOOOOOOOoooo    oooo@@@@oooo                                    "
"                        ooooOOOOOOOO@@@@%%%%%%%%%%%%%%%%%%%%@@@@OOOOOOOOoooo    oooo@@@@oooo                                    "
"                        ooooOOOOOOOO@@@@%%%%%%%%%%%%%%%%%%%%@@@@OOOOOOOOoooo    oooo@@@@oooo                                    "
"                        ooooOOOOOOOO@@@@%%%%%%%%%%%%%%%%%%%%@@@@OOOOOOOOoooo    oooo@@@@oooo                                    "
"                        ooooOOOOOOOOOOOO@@@@%%%%%%%%%%%%@@@@ooooooooOOOOoooo    ooooOOOOoooo                                    "
"                        ooooOOOOOOOOOOOO@@@@%%%%%%%%%%%%@@@@ooooooooOOOOoooo    ooooOOOOoooo                                    "
"                        ooooOOOOOOOOOOOO@@@@%%%%%%%%%%%%@@@@ooooooooOOOOoooo    ooooOOOOoooo                                    "
"                        ooooOOOOOOOOOOOO@@@@%%%%%%%%%%%%@@@@ooooooooOOOOoooo    ooooOOOOoooo                                    "
"                            ooooOOOOOOOOOOOO@@@@@@@@@@@@oooooooooooooooooooo        oooo                                        "
"                            ooooOOOOOOOOOOOO@@@@@@@@@@@@oooooooooooooooooooo        oooo                                        "
"                            ooooOOOOOOOOOOOO@@@@@@@@@@@@oooooooooooooooooooo        oooo                                        "
"                            ooooOOOOOOOOOOOO@@@@@@@@@@@@oooooooooooooooooooo        oooo                                        "
"                                ooooOOOOOOOOOOOOOOOOOOOOooooooooooooooooXXXX                                                    "
"                                ooooOOOOOOOOOOOOOOOOOOOOooooooooooooooooXXXX                                                    "
"                                ooooOOOOOOOOOOOOOOOOOOOOooooooooooooooooXXXX                                                    "
"                                ooooOOOOOOOOOOOOOOOOOOOOooooooooooooooooXXXX                                                    "
"                                    ooooOOOOOOOOOOOOOOOOOOOOoooooooo########XXXX                                                "
"                                    ooooOOOOOOOOOOOOOOOOOOOOoooooooo########XXXX                                                "
"                                    ooooOOOOOOOOOOOOOOOOOOOOoooooooo########XXXX                                                "
"                                    ooooOOOOOOOOOOOOOOOOOOOOoooooooo########XXXX                                                "
"                                        ooooooooooooooooooooooooXXXX++++########XXXX                                            "
"                                        ooooooooooooooooooooooooXXXX++++########XXXX                                            "
"                                        ooooooooooooooooooooooooXXXX++++########XXXX                                            "
"                                        ooooooooooooooooooooooooXXXX++++########XXXX                                            "
"                                                                    XXXX++++########....                                        "
"                                                                    XXXX++++########....                                        "
"                                                                    XXXX++++########....                                        "
"                                                                    XXXX++++########....                                        "
"                                                                        XXXX++++########....                                    "
"                                                                        XXXX++++########....                                    "
"                                                                        XXXX++++########....                                    "
"                                                                        XXXX++++########....                                    "
"                                                                            ....++++########....                                "
"                                                                            ....++++########....                                "
"                                                                            ....++++########....                                "
"                                                                            ....++++########....                                "
"                                                                                ....++++########....                            "
"                                                                                ....++++########....                            "
"                                                                                ....++++########....                            "
"                                                                                ....++++########....                            "
"                                                                                    ....++++########....                        "
"                                                                                    ....++++########....                        "
"                                                                                    ....++++########....                        "
"                                                                                    ....++++########....                        "
"                                                                                        ....++++++++....                        "
"                                                                                        ....++++++++....                        "
"                                                                                        ....++++++++....                        "
"                                                                                        ....++++++++....                        "
"                                                                                            ........                            "
"                                                                                            ........                            "
"                                                                                            ........                            "
"                                                                                            ........                            "
"                                                                                                                                "
"                                                                                                                                "
"                                                                                                                                "
"                                                                                                                                "
};
