/* XPM */
static char *_ced477edda44d55ed844e7b890f88d09OLYT3TqEOhyZocj[] = {
/* columns rows colors chars-per-pixel */
"32 32 10 1 ",
"  c None",
". c #4C3E24",
"X c #676633",
"o c #E83B3B",
"O c #FB6B1D",
"+ c #966C6C",
"@ c #F9C22B",
"# c #97866F",
"$ c #D4A488",
"% c #FBFF86",
/* pixels */
"                                ",
"          o                     ",
"         ooo                    ",
"         ooo                    ",
"         ooo  o                 ",
"         oOo ooo                ",
"         oOo ooo                ",
"         o@o oOo                ",
"   oo    o@o oOo                ",
"  oO$o   o@ooo@o                ",
"  oO$o   o@OOO@o                ",
"  oO@o  oo@@O@@o                ",
"  oO@o oOO@@@@@Oo               ",
"   oo oOO@@%%%@@Oo              ",
"      oO@@%%%%%@@Oo             ",
"      oO@%%%%%%%@Oo             ",
"      oO@%%%%%%%@Oo  o          ",
"      oO@%%%%%%%@Oo o$o         ",
"      oOO@%%%%%@OOo o@o         ",
"      oOOO@%%%@ooOo oOo         ",
"       oOOO@@@ooooo  o          ",
"        oOOOOOooooX             ",
"         oOOOOOoo##X            ",
"          ooooooX+##X           ",
"                 X+##.          ",
"                  X+##.         ",
"                   .+##.        ",
"                    .+##.       ",
"                     .+##.      ",
"                      .++.      ",
"                       ..       ",
"                                "
};
