/* XPM */
static char *b85398a1fa7e474dcf70cf2128068f80R39DQqpMmtk3paAn[] = {
/* columns rows colors chars-per-pixel */
"128 128 2 1 ",
"  c #37946E",
". c #306082",
/* pixels */
"................................................................................................................................",
"................................................................................................................................",
"................................................................................................................................",
"...                                                                                                                          ...",
"...                                                                                                                          ...",
"...                                                                                                                          ...",
"...                                                                                                                          ...",
"...                                                                                                                          ...",
"...                                                                                                                          ...",
"...                                                                                                                          ...",
"...                                                                                                                          ...",
"...                                                                                                                          ...",
"...                                                                                                                          ...",
"...                                                                                                                          ...",
"...                                                                                                                          ...",
"...                                                                                                                          ...",
"...                                                                                                                          ...",
"...                                                                                                                          ...",
"...                                                                                                                          ...",
"...                                                                                                                          ...",
"...                                                                                                                          ...",
"...                                                                                                                          ...",
"...                                                                                                                          ...",
"...                                                                                                                          ...",
"...                                                                                                                          ...",
"...                                                                                                                          ...",
"...                                                                                                                          ...",
"...                                                                                                                          ...",
"...                                                                                                                          ...",
"...                                                                                                                          ...",
"...                                                                                                                          ...",
"...                                                                                                                          ...",
"...                                                                                                                          ...",
"...                                              ................................                                            ...",
"...                                              ................................                                            ...",
"...                                              ................................                                            ...",
"...                                              ................................                                            ...",
"...                                              ................................                                            ...",
"...                                              ................................                                            ...",
"...                                              ....                                                                        ...",
"...                                              ....                                                                        ...",
"...                                              ....                                                                        ...",
"...                                              ....                                                                        ...",
"...                                              ....                                                                        ...",
"...                                              ....                                                                        ...",
"...                                              ....                                                                        ...",
"...                                              ....                                                                        ...",
"...                                              ....                                                                        ...",
"...                                              ....                                                                        ...",
"...                                              ....                                                                        ...",
"...                                              ....                                                                        ...",
"...                                              ....                                                                        ...",
"...                                              ....                                                                        ...",
"...                                              ....                                                                        ...",
"...                                              ....                                                                        ...",
"...                                              ....                                                                        ...",
"...                                              ....                                                                        ...",
"...                                              ....                                                                        ...",
"...                                              ....                                                                        ...",
"...                                              ....                                                                        ...",
"...                                              ..........................                                                  ...",
"...                                              ..........................                                                  ...",
"...                                              ..........................                                                  ...",
"...                                              ..........................                                                  ...",
"...                                              ..........................                                                  ...",
"...                                              ..........................                                                  ...",
"...                                              ..........................                                                  ...",
"...                                              ..........................                                                  ...",
"...                                              ....                                                                        ...",
"...                                              ....                                                                        ...",
"...                                              ....                                                                        ...",
"...                                              ....                                                                        ...",
"...                                              ....                                                                        ...",
"...                                              ....                                                                        ...",
"...                                              ....                                                                        ...",
"...                                              ....                                                                        ...",
"...                                              ....                                                                        ...",
"...                                              ....                                                                        ...",
"...                                              ....                                                                        ...",
"...                                              ....                                                                        ...",
"...                                              ....                                                                        ...",
"...                                              ....                                                                        ...",
"...                                              ....                                                                        ...",
"...                                              ....                                                                        ...",
"...                                              ....                                                                        ...",
"...                                              ....                                                                        ...",
"...                                              ....                                                                        ...",
"...                                              ....                                                                        ...",
"...                                              ....                                                                        ...",
"...                                              ................................                                            ...",
"...                                              ................................                                            ...",
"...                                              ................................                                            ...",
"...                                              ................................                                            ...",
"...                                              ................................                                            ...",
"...                                              ................................                                            ...",
"...                                                                                                                          ...",
"...                                                                                                                          ...",
"...                                                                                                                          ...",
"...                                                                                                                          ...",
"...                                                                                                                          ...",
"...                                                                                                                          ...",
"...                                                                                                                          ...",
"...                                                                                                                          ...",
"...                                                                                                                          ...",
"...                                                                                                                          ...",
"...                                                                                                                          ...",
"...                                                                                                                          ...",
"...                                                                                                                          ...",
"...                                                                                                                          ...",
"...                                                                                                                          ...",
"...                                                                                                                          ...",
"...                                                                                                                          ...",
"...                                                                                                                          ...",
"...                                                                                                                          ...",
"...                                                                                                                          ...",
"...                                                                                                                          ...",
"...                                                                                                                          ...",
"...                                                                                                                          ...",
"...                                                                                                                          ...",
"...                                                                                                                          ...",
"...                                                                                                                          ...",
"...                                                                                                                          ...",
"...                                                                                                                          ...",
"...                                                                                                                          ...",
"...                                                                                                                          ...",
"................................................................................................................................",
"................................................................................................................................",
"................................................................................................................................"
};
