/* XPM */
static char *exit1754595505[] = {
/* columns rows colors chars-per-pixel */
"128 128 52 1 ",
"  c #35380D",
". c #363A0D",
"X c #383B0C",
"o c #3D3E0F",
"O c #353328",
"+ c #363429",
"@ c #3A382C",
"# c #403035",
"$ c #404212",
"% c #444515",
"& c #636917",
"* c #656C17",
"= c #686F16",
"- c #72751B",
"; c #564020",
": c #56452A",
"> c #44443D",
", c #695922",
"< c #784A36",
"1 c #787B21",
"2 c #484741",
"3 c #484743",
"4 c #4B4A46",
"5 c #4C4B46",
"6 c #4E4D49",
"7 c #574745",
"8 c #5F5E5A",
"9 c #64604B",
"0 c #A2783C",
"q c #916B48",
"w c #807F72",
"e c #7F8124",
"r c #7F8226",
"t c #A2814F",
"y c #BD9842",
"u c #B68E55",
"i c #87857C",
"p c #87867D",
"a c #88867D",
"s c #88867E",
"d c #C6A740",
"f c #CBA45C",
"g c #DCB05D",
"h c #CDB364",
"j c #C9B07B",
"k c #8D8B83",
"l c #AF9B98",
"z c #9CA8AD",
"x c #B3B0A9",
"c c #D1BCB9",
"v c #E6D0CD",
"b c #F6E5DF",
/* pixels */
"--------------------------------------oooooooooooooooooooooooooooooooooooooooooooooooo------------------------------------------",
"-------------------------------------oooooooooooooooooooooooooooooooooooooooooooooooooo-----r11---------------------------------",
"-----------------------------------ooooooooooo77777777777777777777777777777777777777ooooo----111--wwwwwwwwwwww------------------",
"----------------------------------oooooooooo%o77777777777777777777777777777777777777oooooo----**-awwwwwwwwwwwwa-----------------",
"---------------------------------o77777777777777llccvvvvvvvvvvbbbbvvvvvvbbvvvvll77777777ooo------awwwwwwwwwwwwa-----------------",
"--------------------------------oo77777777777777llccvvvvvvvvvvbbbbvvvvvvbbvvvvll77777777oooo-----awwwwwwwwwwwwa-----------------",
"------------------------777777777777llccvvvvvvvvvvvvbbvvbbbbbbbbbbbbvvvvbbvvvvvvvvll7777777777####wwwwwwwwwwwwa-----------------",
"------------------------777777777777llccvvvvvvvvvvvvbbvvbbbbbbbbbbbbvvvvbbvvvvvvvvll7777777777####wwwwwwwwwwwwa-----------------",
"----------------------7777777777llvvvvvvbbvvbbvvvvbbbbbbbbbbbbvvvvbbvvvvbbvvvvvvvvvvcc777777########wwwwwwwwwwa-----------------",
"----------------------7777777777llvvvvvvbbvvbbvvvvbbbbbbbbbbbbvvvvbbvvvvbbvvvvvvvvvvcc777777########wwwwwwwwwwa-----------------",
"-------------------x777777qq77llvvvvbbbbbbbbbbvvbbbbbbbbbbvvvvbbbbbbvvbbbbbbvvvvvvvvccll7777uuqq######wwwwwwwwa-----------------",
"------------------xt777777qq77llvvvvbbbbbbbbbbvvbbbbbbbbbbvvvvbbbbbbvvbbbbbbvvvvvvvvccll7777uuqq######wwwwwwwwa-11--------------",
"------------------&x7777qqgg77vvvvbbbbbbbbbbbbbbbbbbbbvvbbbbbbbbbbvvvvbbbbvvvvvvvvvvccll77ggggggqq####wwwwwwwwar1---------------",
"-------------------&7777qqgg77vvvvbbbbbbbbbbbbbbbbbbbbvvbbbbbbbbbbvvvvbbbbvvvvvvvvvvccll77ggggggqq####kwwwwwwwa1*---------------",
"--------------------7777uuggqqvvvvvvvvvvbbvvbbbbbbbbbbbbbbbbbbbbbbbbbbbbvvvvvvvvcccccclluuffgggguu####9kwwwwwwa1*---------------",
"--------------------7777uuggqqvvvvvvvvvvbbvvbbbbbbbbbbbbbbbbbbbbbbbbbbbbvvvvvvvvcccccclluuffgggguu####-9kkkkkk-1*---------------",
"--------------------7777uuffuuccvvvvvvvvbbbbbbbbbbbbbbbbbbbbbbbbbbvvvvvvcccccccclllllllluugggggguu####--999999-*----------------",
"-------------------w7777uuffuuccvvvvvvvvbbbbbbbbbbbbbbbbbbbbbbbbbbvvvvvvcccccccclllllllluugggggguu####------**-----------------r",
"-------------------w77##uuffuullccccvvvvbbvvvvbbbbbbbbbbvvvvbbvvvvvvvvvvvvvvvvcccclllluugggggggguu####------------------1rr---r-",
"------------------aw77##uuffuullccccvvvvbbvvvvbbbbbbbbbbvvvvbbvvvvvvvvvvvvvvvvcccclllluugggggggguu####-------------------rzz-rr-",
"------------------aw77##uugggguullccccccccvvvvbbbbvvvvvvvvvvvvvvvvvvvvcccccccclllllluuggggggggggqq####-------------------zttz11-",
"------------------aw77##uugggguullccccccccvvvvbbbbvvvvvvvvvvvvvvvvvvvvcccccccclllllluuggggggggggqq####o------------------&zz&xx-",
"------------------aw####qqgggggguullcccccccccccccccccccccccccccccccccccccccclllllluuuuuuuuqqqqqqqq####o-------------------&&-tx-",
"------------------aw####qqgggggguullcccccccccccccccccccccccccccccccccccccccclllllluuuuuuuuqqqqqqqq####o----------------------&&-",
"------------------aw####qqqqqqqqqqqqqqllcccccccccccclllllllllllllllluuqqqqqqqqqqqqqqqqqqqqqqqqqqqq####o-------------------------",
"------------------aw####qqqqqqqqqqqqqqllcccccccccccclllllllllllllllluuqqqqqqqqqqqqqqqqqqqqqqqqqqqq####oo------------------------",
"------------------aw##<<qqqqqqqquuuuqqqqqqqqqqqqqqqqqqqqqqqqqqqqqqqqqqffffuuuuuuuuuuffffggggggggqq####oo------------------------",
"------------------a>##<<qqqqqqqquuuuqqqqqqqqqqqqqqqqqqqqqqqqqqqqqqqqqqffffuuuuuuuuuuffffggggggggqq####ooo-----------------------",
"------------------a>##qqggggggggggggggggggggggggggggggggggggggggggggggggggggggggggggggggggggggggqq####ooo-----------------------",
"------------------a>##qqggggggggggggggggggggggggggggggggggggggggggggggggggggggggggggggggggggggggqq####ooo-----------------------",
"------------------######qqqqqqqqqqqqqqqqqqqqqqqqqqqqqqqqqqqqqqqqqqqqqqqqqqqqqqqqqqqqqqqqqqqqqqqqqq######oo----------------------",
"------------------######qqqqqqqqqqqqqqqqqqqqqqqqqqqqqqqqqqqqqqqqqqqqqqqqqqqqqqqqqqqqqqqqqqqqqqqqqq######oo----------------------",
"-----------------o####qqqquuhhhhhhhhhhhhhhhhhhhhhhhhhhhhhhhhhhhhhhhhhhhhhhhhhhhhhhhhhhhhhhhhhhuuqqqq####ooo---------------------",
"-----------------o####qqqquuhhhhhhhhhhhhhhhhhhhhhhhhhhhhhhhhhhhhhhhhhhhhhhhhhhhhhhhhhhhhhhhhhhuuqqqq####ooo---------------------",
"-----------------o####uuhhhhhhhhhhhhhhhhhhhhhhhhhhhhhhhhhhhhhhhhhhhhhhhhhhhhhhhhhhhhhhhhhhhhhhhhhhuu####ooo---------------------",
"----------------oo####uuhhhhhhhhhhhhhhhhhhhhhhhhhhhhhhhhhhhhhhhhhhhhhhhhhhhhhhhhhhhhhhhhhhhhhhhhhhuu####oooo--------------------",
"----------------oo####hhhhhhhhhhhhhhhhhhhhhhhhhhhhhhhhhhhhhhhhhhhhhhhhhhhhhhhhhhhhhhhhhhhhhhhhhhhhhh####oooo--------------------",
"----------------oo####hhhhhhhhhhhhhhhhhhhhhhhhhhhhhhhhhhhhhhhhhhhhhhhhhhhhhhhhhhhhhhhhhhhhhhhhhhhhhh####oooo--------------------",
"----------------oo####hhhhhhhhhhhhhhhhhhhhhhhhhhhhhhhhhhhhhhhhhhhhhhhhhhhhhhhhhhhhhhhhhhhhhhhhhhhhhh####oooo--------------------",
"---------------ooo####hhhhhhhhhhhhhhhhhhhhhhhhhhhhhhhhhhhhhhhhhhhhhhhhhhhhhhhhhhhhhhhhhhhhhhhhhhhhhh####ooooo-------------------",
"---------------%oo####hhuuqqqqqqqqqqqqqqqqqqqqqqqqqqqqqqqqqqqqqqqqqqqqqqqqqqqqqqqqqqqqqqqqqqqqqquuhh####ooooo-------------------",
"----------rr1--$$o####hhuuqqqqqqqqqqqqqqqqqqqqqqqqqqqqqqqqqqqqqqqqqqqqqqqqqqqqqqqqqqqqqqqqqqqqqquuhh####oooo%1------------------",
"-----------r11-.$o####qqqquuuuuuuuuuuuuuuuuuuuuuuuuuuuuuuuuuuuuuuuuuuuuuuuuuuuuuuuuuuuuuuuuuuuuuqqqq####$oo$%*------------------",
"-----------*111.o$####qqqquuuuuuuuuuuuuuuuuuuuuuuuuuuuuuuuuuuuuuuuuuuuuuuuuuuuuuuuuuuuuuuuuuuuuuqqqq####$$o$$-------------------",
"----------r1*1$o88####uuhhhhhhhhhhhhhhhhhhhhhhhhhhjjjjjjhhhhhhhhhhhhhhhhhhhhhhhhhhhhhhjjjjhhhhhhhhuu####.$$$.o------------------",
"----------*11*$8::####uuhhhhhhhhhhhhhhhhhhhhhhhhhhjjjjjjhhhhhhhhhhhhhhhhhhhhhhhhhhhhhhjjjjhhhhhhhhuu####.$$.oo------------------",
"-----------*1*..8852##uuhhhhhhhhhhhhhhhhhhhhhhhhhhjjjjhhhhhhhhhhhhhhhhhhhhhhhhhhhhhhhhhhhhhhhhhhhhuu####o.$ooo------------------",
"--------------oo  52##uuhhhhhhhhhhhhhhhhhhhhhhhhhhjjjjhhhhhhhhhhhhhhhhhhhhhhhhhhhhhhhhhhhhhhhhhhhhuu####oooooo------------------",
"------------zzooo852##uuhhhhhhhhjjjjhhhhhhhhhhhhhhhhhhhhhhhhhhhhhhhhhhhhhhhhjjjjjjhhhhhhhhhhhhhhhhuu####oooooo------------------",
"------------tzoo8:52##uuhhhhhhhhjjjjhhhhhhhhhhhhhhhhhhhhhhhhhhhhhhhhhhhhhhhhjjjjjjhhhhhhhhhhhhhhhhuu####oooooo------------------",
"------------&.oo8842##qqhhhhhhhhhhhhhhhhhhhhhhhhhhhhhhhhhhhhhhhhhhhhhhhhhhhhhhhhhhhhhhhhhhhhhhhhhhqq####ooooooo-------------1rr-",
"-------------ooo  42##qqhhhhhhhhhhhhhhhhhhhhhhhhhhhhhhhhhhhhhhhhhhhhhhhhhhhhhhhhhhhhhhhhhhhhhhhhhhqq####ooooooo------------11r--",
"-------------ooooo52##qqhhhhhhhhhhhhjjjjhhhhhhhhjjjjjjjjhhhhhhhhhhhhhhhhhhhhhhhhhhhhhhhhhhhhhhhhhhqq####ooooooo------------11*--",
"-------------ooooo52##qqhhhhhhhhhhhhjjjjhhhhhhhhjjjjjjjjhhhhhhhhhhhhhhhhhhhhhhhhhhhhhhhhhhhhhhhhhhqq####ooooooo------------**---",
"-------------ooooo52##qqhhhhhhhhhhhhhhhhhhhhhhhhhhhhhhhhhhhhhhhhhhjjjjjjjjjjhhhhhhhhjjjjhhhhhhhhhhqq####ooooooo-----------------",
"-------------ooooo52##qqhhhhhhhhhhhhhhhhhhhhhhhhhhhhhhhhhhhhhhhhhhjjjjjjjjjjhhhhhhhhjjjjhhhhhhhhhhqq####ooooooo-----------------",
"-------------ooooo52####hhhhhhhhhhhhhhhhhhhhhhhhhhhhhhhhhhhhhhhhhhhhjjjjjjhhhhhhhhjjjjjjhhhhhhhhhh######ooooooo-----------------",
"-------------ooooo52####hhhhhhhhhhhhhhhhhhhhhhhhhhhhhhhhhhhhhhhhhhhhjjjjjjhhhhhhhhjjjjjjhhhhhhhhhh######ooooooo-----------------",
"-------------ooooo52####hhhhhhhhjjjjhhhhhhhhhhhhhhhhhhhhjjjjhhhhhhhhhhjjjjhhhhhhhhjjjjhhhhhhhhhhhh####ooooooooo-----------------",
"-------------ooooo52####hhhhhhhhjjjjhhhhhhhhhhhhhhhhhhhhjjjjhhhhhhhhhhjjjjhhhhhhhhjjjjhhhhhhhhhhhh####ooooooooo-----------------",
"-------------ooooo@6####hhhhhhhhjjjjhhhhhhhhhhhhhhhhhhhhjjjjjjhhhhhhhhhhhhhhhhhhhhhhhhhhhhhhhhhhhh####ooooooooo-----------------",
"-------------ooooo@6####hhhhhhhhjjjjhhhhhhhhhhhhhhhhhhhhjjjjjjhhhhhhhhhhhhhhhhhhhhhhhhhhhhhhhhhhhh####ooooooooo-----------------",
"-------------oooooo+####hhhhhhhhjjhhhhhhhhhhhhhhhhhhhhhhjjjjjjjjhhhhhhhhhhhhhhhhhhhhhhhhhhjjhhhhhh####ooooooooo-----------------",
"-------------ooooooo####hhhhhhhhjjhhhhhhhhhhhhhhhhhhhhhhjjjjjjjjhhhhhhhhhhhhhhhhhhhhhhhhhhjjhhhhhh####ooooooooo-----------------",
"-------------ooooooo####hhhhhhhhhhhhhhjjjjhhhhhhhhhhhhhhhhhhhhhhhhhhhhhhhhhhhhhhhhhhhhhhhhhhhhhhhh####ooooooooo-----------------",
"-------------ooooooo####hhhhhhhhhhhhhhjjjjhhhhhhhhhhhhhhhhhhhhhhhhhhhhhhhhhhhhhhhhhhhhhhhhhhhhhhhh####ooooooooo-----------------",
"-------------ooooooo####hhhhhhhhhhhhhhjjjjjjjjhhhhhhhhhhhhhhhhhhhhhhhhhhhhhhhhhhhhhhhhhhhhhhhhhhhh####>>>>>>>oo---------1r----rr",
"-------------ooooooo####hhhhhhhhhhhhhhjjjjjjjjhhhhhhhhhhhhhhhhhhhhhhhhhhhhhhhhhhhhhhhhhhhhhhhhhhhh####>>>>>>>3o----------rr--1r-",
"-------------ooooooo####hhhhhhhhhhhhhhhhjjjjjjhhhhhhhhhhhhhhhhhhhhhhhhhhhhhhhhhhhhhhhhhhhhhhhhhhhh####>>>>>>>3o----------11-11*-",
"-------------ooooooo####hhhhhhhhhhhhhhhhjjjjjjhhhhhhhhhhhhhhhhhhhhhhhhhhhhhhhhhhhhhhhhhhhhhhhhhhhh####>>>>>>>3o----------dd-11*-",
"--------------oooooo####hhhhhhhhhhhhhhhhhhhhjjhhhhjjjjjjjjhhhhhhhhhhhhhhhhhhhhhhhhhhhhjjhhhhhhhhhh######>>>>>3----------d00d**--",
"--------------oooooo####hhhhhhhhhhhhhhhhhhhhjjhhhhjjjjjjjjhhhhhhhhhhhhhhhhhhhhhhhhhhhhjjhhhhhhhhhh######>>>>>3----------&dd&----",
"--------------oooooo####hhhhhhhhhhhhhhhhhhhhhhhhhhjjjjjjjjjjhhhhhhhhhhhhhhhhhhhhhhhhjjjjjjhhhhhhhh######>>>>>3-----------&&-----",
"--------------oooooo####hhhhhhhhhhhhhhhhhhhhhhhhhhjjjjjjjjjjhhhhhhhhhhhhhhhhhhhhhhhhjjjjjjhhhhhhhh######>>>>>3------------------",
"--------------oooooo####hhhhhhhhhhjjjjhhhhhhhhhhhhhhhhjjjjjjjjhhhhhhhhhhhhhhhhhhhhhhhhjjjjjjhhhhhh######>>>>>2------------------",
"--------------oooooo####hhhhhhhhhhjjjjhhhhhhhhhhhhhhhhjjjjjjjjhhhhhhhhhhhhhhhhhhhhhhhhjjjjjjhhhhhh######>>>>>2------------------",
"---------------ooooo##qqhhhhhhhhhhjjjjhhhhhhhhhhhhhhhhhhhhjjjjjjhhhhhhhhhhhhhhhhhhhhhhhhjjjjhhhhhhqq####>>>>>a------------------",
"---------------ooooo##qqhhhhhhhhhhjjjjhhhhhhhhhhhhhhhhhhhhjjjjjjhhhhhhhhhhhhhhhhhhhhhhhhjjjjhhhhhhqq####>>>>>a------------------",
"---------------ooooo##qqhhhhhhhhhhjjhhhhhhhhhhhhhhhhhhhhhhhhhhhhhhhhhhhhhhhhhhhhhhhhhhhhhhjjhhhhhhqq####>>>>>a------------------",
"---------------ooooo##qqhhhhhhhhhhjjhhhhhhhhhhhhhhhhhhhhhhhhhhhhhhhhhhhhhhhhhhhhhhhhhhhhhhjjhhhhhhqq####>>>>>k------------------",
"------------yy-oX$Xo##qqhhhhhhhhhhhhhhhhhhhhjjjjhhhhhhhhhhhhhhhhhhhhhhhhhhhhhhhhhhhhhhhhhhhhhhhhhhqq####>>>>>a------------------",
"-----------y00y-,,oo##qqhhhhhhhhhhhhhhhhhhhhjjjjhhhhhhhhhhhhhhhhhhhhhhhhhhhhhhhhhhhhhhhhhhhhhhhhhhqq####>>>6k9------------------",
"-----------*yy*d;,oo##uuhhhhhhhhhhhhhhhhhhhhhhhhhhhhhhhhhhhhhhhhhhhhhhhhjjjjjjjjjjjjjjjjjjhhhhhhhhuu####>>6+9r------------------",
"------------&&-d,Xoo##uuhhhhhhhhhhhhhhhhhhhhhhhhhhhhhhhhhhhhhhhhhhhhhhhhjjjjjjjjjjjjjjjjjjhhhhhhhhuu####>>>+9-------------------",
"---------------&XX####uuhhhhhhhhhhhhjjjjjjjjjjhhhhhhhhhhhhhhhhhhhhhhhhhhhhhhhhhhhhhhhhhhhhhhhhhhhhuu####>5+$--------------------",
"-----------------o####uuhhhhhhhhhhhhjjjjjjjjjjhhhhhhhhhhhhhhhhhhhhhhhhhhhhhhhhhhhhhhhhhhhhhhhhhhhhuu####@+o---------------------",
"-----------------o####uuhhhhhhhhhhhhhhjjjjjjhhhhhhhhhhhhhhjjjjjjhhhhhhhhhhhhhhhhhhhhhhhhhhhhhhhhhhuu####OOo---------------------",
"-----------------o####uuhhhhhhhhhhhhhhjjjjjjhhhhhhhhhhhhhhjjjjjjhhhhhhhhhhhhhhhhhhhhhhhhhhhhhhhhhhuu####ooo---------------------",
"------------------####uuhhhhhhhhhhhhhhhhjjjjhhhhhhhhhhhhhhjjjjjjjjhhhhhhhhhhhhhhhhhhhhhhhhhhhhhhhhuu####oo----------------------",
"------------------####uuhhhhhhhhhhhhhhhhjjjjhhhhhhhhhhhhhhjjjjjjjjhhhhhhhhhhhhhhhhhhhhhhhhhhhhhhhhuu####oX----------------------",
"------------------####uuhhhhhhhhhhhhhhhhhhhhhhhhhhhhhhhhhhhhhhjjjjhhhhhhjjjjhhhhhhhhhhhhhhhhhhhhhhuu####>wwwi-------------------",
"------------------####uuhhhhhhhhhhhhhhhhhhhhhhhhhhhhhhhhhhhhhhjjjjhhhhhhjjjjhhhhhhhhhhhhhhhhhhhhhhuu####>www8r------------------",
"------------------####uuhhhhhhhhhhhhhhhhhhhhhhjjjjjjhhhhhhhhhhhhhhhhjjjjjjjjhhhhhhhhhhhhhhhhhhhhhhuu####>www8k------------------",
"------------------####uuhhhhhhhhhhhhhhhhhhhhhhjjjjjjhhhhhhhhhhhhhhhhjjjjjjjjhhhhhhhhhhhhhhhhhhhhhhuu####wwwwaa------------------",
"-----wwwwwwwwww---####qquuhhhhhhhhhhhhhhhhhhhhhhhhhhhhhhhhhhhhhhhhhhhhhhhhhhhhhhhhhhhhhhhhhhhhhhuuqq####wwwwaa------------------",
"----wwwwwwwwwwwi--####qquuhhhhhhhhhhhhhhhhhhhhhhhhhhhhhhhhhhhhhhhhhhhhhhhhhhhhhhhhhhhhhhhhhhhhhhuuqq####wwwiia------------------",
"--awwwwwwwwwwwwpe-@@##qqqquuuuhhhhhhhhhhhhhhhhhhhhhhhhhhhhhhhhhhhhhhhhhhhhhhhhhhhhhhhhhhhhhhuuuuqqqq####wwwwwi------------------",
"--awwwwwwwwwwwwp=-#@##qqqquuuuhhhghhhhhhhhhhhhhhhhhhhhhhhhhhhhhhhhhhhhhhhhhhhhhhhhhhhhhhhhhhuuuuqqqq####wwwwwi------------------",
"--iwwwwwwwwwwwwp--####qqqqqqqquuuuuuuuuuuuuuuuuuuuuuuuuuuuuuuuuuuuuuuuuuuuuuuuuuuuuuuuuuuuuuqqqqqqqq####wwwwwi------------------",
"--iwwwwwwwwwwwwp-1####qqqqqqqquuuuuuuuuuuuuuuuuuuuuuuuuuuuuuuuuuuuuuuuuuuuuuuuuuuuuuuuuuuuuuqqqqqqqq####wwwwwi------------------",
"--awwwwwwwwwwwwp--####qqqqqqqquuuuuuuuuuuuuuuuuuuuuuuuuuuuuuuuuuuuuuuuuuuuuuuuuuuuuuuuuuuuuuqqqqqqqq####wwwwii------------------",
"--awwwwwwwwwwwwp--####qqqqqqqquuuuuuuuuuuuuuuuuuuuuuuuuuuuuuuuuuuuuuuuuuuuuuuuuuuuuuuuuuuuuuqqqqqqqq####wwwwwi------------------",
"--awwwwwwwwwwwwp--@###qqqqqqqquuuuuuuuuuuuuuuuuuuuuuuuuuuuuuuuuuuuuuuuuuuuuuuuuuuuuuuuuuuuuuqqqqqqqq####wwwwwi------------------",
"--awwwwwwwwwwwwp--####qqqqqqqquuuuuuuuuuuuuuuuuuuuuuuuuuuuuuuuuuuuuuuuuuuuuuuuuuuuuuuuuuuuuuqqqqqqqq####wwwwwi------------1-----",
"--awwwwwwwwwwwwk--####qqqqqqqquuuuuuuuuuuuuuuuuuuuuuuuuuuuuuuuuuuuuuuuuuuuuuuuuuuuuuuuuuuuuuqqqqqqqq####wwwwwi------------e=--ee",
"--awwwwwwwwwkpk9--####qqqqqqqquuuuuuuuuuuuuuuuuuuuuuuuuuuuuuuuuuuuuuuuuuuuuuuuuuuuuuuuuuuuuuqqqqqqqq####wwwwwi--------e-=0=-eee=",
"--awwwwwwwwk999-----####qqqqqquuuuuuuuuuuuuuuuuuuuuuuuuuuuuuuuuuuuuuuuuuuuuuuuuuuuuuuuuuuuuuqqqqqq####wwwwwwwi--------=-r===-e=-",
"--9kkkkkkkk9-=eeq---####qqqqqquuuuuuuuuuuuuuuuuuuuuuuuuuuuuuuuuuuuuuuuuuuuuuuuuuuuuuuuuuuuuuqqqqqq###@wwwwwwia--------=erzzee=ee",
"---99999999--e=e=---######qqqquuuuuuuuuuuuuuuuuuuuuuuuuuuuuuuuuuuuuuuuuuuuuuuuuuuuuuuuuuuuuuqqqq######wwwwwwwi---------=zttz=-0&",
"--------------e*----######qqqquuuuuuuuuuuuuuuuuuuuuuuuuuuuuuuuuuuuuuuuuuuuuuuuuuuuuuuuuuuuuuqqqq######iiwwwiwi----------&zz&*r**",
"--------1e=--e*=----ss##############################################################################aakkaakka9---eee=---===zz==e",
"--------*0e=-*-0---i8s##############################################################################999999999-----e-exx----tze==",
"--------&0r--ee=--iiwwww@@##<<<<<<######################################################<<<<<<##@@99999999999-----=exttx---&&---",
"--------=*1*--=---iwwwww####<<<<<<###################################@##################<<<<<<###+-----------------=&xx&--------",
"--------=e*=e-=---iwwwwwiw@#<<<<<<####oooooooooooooooooooooooooooooooooooooo  oooooo####<<<<<<##---------------------&&---------",
"---------=-=r=----iwwwwwww##<<<<<<####o%%oooo$$ooooooooooooooooooooooooooooooooooooo####<<<<<<##--------------------------------",
"------------------iwwwwwwwwwww##<<<<##oo%$o,,$ooooooooooooooooooo%%ooooooooooooooooo##<<<<##------------------------------------",
"------------------iwwwwwwwwwww##<<<<##ooX$$,#$oooooooooooooo$oo$$%oooooooooooooooooo##<<<<##------------------------------------",
"------------------iwwwwwwwwwww##<<<<##ooX$$ oXoooooooooooooo%% $$.oooooooooooooooooo##<<<<##------------------------------------",
"------------------iiwwwwwwwwww##<<<<##oooXXo$ooooooooooooooo%$$oXooooooooooooooooooo##<<<<##------------------------------------",
"------------------k8ii9iwwii8a########oooooooooooooooooooooo o$ooooooooooooooooooooo########------------------------------------",
"-----------------esiiiiiwwkskk########--oooooooooooooooooooooooooooooooooooooooooooo#######@------------------------------------",
"------------------siwwiiii99999e---------ooooooooooooooooooooooooooooooooooooooooo$---------------------------------------------",
"------------------,iiiaa99-----------------oooooooooooooooooooooooooooooooooooooo-----------------------------------------------",
"-------------------99999---------------------oooooooooooooooooooooooooooooooooo1------------------------------------------------",
"----------------------------------------------oooooooooooooooooooooooooooooooo--------------------------------------------------",
"-------------------------------------------------oooooooooooooooooooooooooo-----------------------------------------------------",
"----------------------------------------------------oooooooooooooooooooo--------------------------------------------------------"
};
