/* XPM */
static char *_154d5a9d7704e3eb5f7aef6c9c54b31zSFQ0tKdVuc44cNa[] = {
/* columns rows colors chars-per-pixel */
"128 128 31 1 ",
"  c #636917",
". c #656C17",
"X c #686F16",
"o c #72751B",
"O c #787B21",
"+ c #605C48",
"@ c #64604B",
"# c #66624D",
"$ c #676455",
"% c #6C6852",
"& c #7C7B6E",
"* c #A2783C",
"= c #807F72",
"- c #7F8226",
"; c #A2814F",
": c #BD9842",
"> c #828175",
", c #848377",
"< c #838279",
"1 c #848279",
"2 c #878679",
"3 c #87857C",
"4 c #88867D",
"5 c #8A8A7D",
"6 c #C6A740",
"7 c #8D8B83",
"8 c #8E8C83",
"9 c #8E8C84",
"0 c #939189",
"q c #9CA8AD",
"w c #B3B0A9",
/* pixels */
"oooooooooooooooooooooooooooooooooooooooooooooooooooooooooooooooooooooooooooooooooooooooooooooooooooooooooooooooooooooooooooooooo",
"oooooooooooooooooooooooooooooooooooooooooooooooooooooooooooooooooooooooooooooooooooooooooooo-OOooooooooooooooooooooooooooooooooo",
"oooooooooooooooooooooooooooooooooooooooooooooooooooooooooooooooooooooooooooooooooooooooooooooOOOoo============oooooooooooooooooo",
"oooooooooooooooooooooooooooooooooooooooooooo-ooooooooooooooooooooooooooooooooooooooooooooooooo..o4============4ooooooooooooooooo",
"ooooooooooooooooooooooooooooooooooooooooooooOOooooooooooooooooooooooooooooooooooooooooooooooooooo4============4ooooooooooooooooo",
"oooooooooooooooooooooooooooooooooooooooo--Oo.Ooooooooooooooooooooooooooooooooo-oooooooooooooooooo4============4ooooooooooooooooo",
"ooooooooooooooooooooooooooooooooooooooooo-OO..o--OoooooooooooooooooooooO--ooo-ooooooooooooooooooo4============4ooooooooooooooooo",
"ooooooooooooooooooooooooooooooooooooooO-o.OOo.OO-ooooooooooooooooooooooo-OOo--ooooooooooooooooooo4============4ooooooooooooooooo",
"ooooooooooooooooooooooooooooooooooooooo-OO.OoOOOoooooooooooooooooooooooo.OOowwooooooooooooooooooo4============4ooooooooooooooooo",
"ooooooooooooooooooooooooooooooooooooooo.OOo..OO.ooooooooooooooooooooooooo.Ow;;woooooooooooooooooo4============4ooooooooooooooooo",
"ooooooooooooooooooowwooooooooooooooooooo.Ooo...ooooooooooooooooooooooooooo. ww oooooooooooooooooo4============4ooooooooooooooooo",
"oooooooooooooooooow;;wooooooooooooooooooo.oOOooooooooooooooooooooooooooooooo  ooooooooooooooooooo4============4oOOoooooooooooooo",
"oooooooooooooooooo ww ooooooooooooooooooooo-.oooooooooooooooooooooooooooooooooooooooooooooooooooo77777========4-Oooooooooooooooo",
"ooooooooooooooooooo  oooooooooooooooooooooo.ooooooooooooooooooooooooooooooooooooooooooooooooooooooo@@@7=======4O.ooooooooooooooo",
"ooooooooooooooooooooooooooooooooooooooooooooooooooooooooooooO--ooooooooooooooooooooooooooooooooooooooo@7======4O.ooooooooooooooo",
"oooooooooooooooooooooooooooooooooooooooooooooooooooooooooooOO-ooooooooooooooooooooooooooooooooooooooooo@777777oO.ooooooooooooooo",
"oooooooooooooooooooooooooooooooooooooooooooooooooooooooooooOO.oooooooooooooooooooooooooowwoooooooooooooo@@@@@@o.oooooooooooooooo",
"ooooooooooooooooooo==================ooooooo&&&&&&&&&&&&&&&&&&ooooooooooooooooooooooooow;;wowwoooooooooooooo..ooooooooooooooooo-",
"ooooooooooooooooooo==================ooooooo&&&&&&&&&&&&&&&&&&ooooooooooooooooooooooooo ww w;wooooooooooooooooooooooooooO--ooo-o",
"oooooooooooooooooo4==================44ooo11&&&&&&&&&&&&&&&&&&1oooooooooooooooooooooooww  oww ooooooooooooooooooooooooooo-qqo--o",
"oooooooooooooooooo4==================44ooo11&&&&&&&&&&&&&&&&&&1ooooooooooooooooooooooo;wooo  ooooooooooooooooooooooooooooq;;qOOo",
"oooooooooooooooooo4==================44ooo11&&&&&&&&&&&&&&&&&&1ooooooooooooooooooooooo  ooooooooooooooooooooooooooooooooo qq wwo",
"oooooooooooooooooo4==================44ooo11&&&&&&&&&&&&&&&&&&1ooooooooooooooooooooooooooooooooooooooooooooooooooooooooooo  o;wo",
"oooooooooooooooooo4==================44ooo11&&&&&&&&&&&&&&&&&&1oooooooooooooooooooooooooooooooooooooooooooooooooooooooooooooo  o",
"oooooooooooooooooo4==================44ooo11&&&&&&&&&&&&&&&&&&1ooooooooooooooooooooooooooooooooooooooooooooooooooooooooooooooooo",
"oooooooooooooooooo4==================44ooo11&&&&&&&&&&&&&&&&&&1ooooooooooooooooooooooooooooooooooooooooooooooooooooooooooooooooo",
"oooooooooooooooooo4==================44ooo11&&&&&&&&&&&&&&&&&&1ooooooooooooooooooooooooooooooooooooooooooooooooooooooooooooooooo",
"oooooooooooooooooo4==================44ooo11&&&&&&&&&&&&&&&&&&1ooooooooo============oooo&&&&&&&&&&&&oooooooooooooooooooooooooooo",
"oooooooooooooooooo4==================44ooo11&&&&&&&&&&&&&&&&&&1oooooooo4============4oo1&&&&&&&&&&&&1ooooooooooooooooooooooooooo",
"oooooooooooooooooo4==================44ooo11&&&&&&&&&&&&&&&&&&1oooooooo4============4oo1&&&&&&&&&&&&1ooooooooooooooooooooooooooo",
"oooooooooooooooooo4==================44ooo11&&&&&&&&&&&&&&&&&&1oooooooo4============4oo1&&&&&&&&&&&&1ooooooooooooooooooooooooooo",
"oooooooooooooooooo4==================44ooo11&&&&&&&&&&&&&&&&&&1oooooooo@@3==========4oo1&&&&&&&&&&&&1ooooooooooooooooooooooooooo",
"oooooooooooooooooo4==================44ooo11&&&&&&&&&&&&&&&&&&1ooooooooo3===========4oo1&&&&&&&&&&&&1ooooooooooooooooooooooooooo",
"oooooooooooooooooo4==================44ooo11&&&&&&&&&&&&&&&&&&1ooooooooo3===========4oo1&&&&&&&&&&&&1ooooooooooooooooooooooooooo",
"oooooooooooooooooo4==================44ooo11&&&&&&&&&&&&&&&&&&1oooooooo3============4oo1&&&&&&&&&&&&1ooooooooooooooooooooooooooo",
"oooooooooooooooooo4==================44ooo11&&&&&&&&&&&&&&&&&&1oooooooo3============4oo1&&&&&&&&&&&&1ooooooooooooooooooooooooooo",
"oooooooooooooooooo4==================44ooo11&&&&&&&&&&&&&&&&&&1oooooooo3============4oo1&&&&&&&&&&&&1ooooooooooooooooooooooooooo",
"oooooooooooooooooo@777777777777777777@@ooo++444444444444444444@oooooooo3============4oo1&&&&&&&&&&&&1ooooooooooooooooooooooooooo",
"ooooooooooooooooooo@@###############@ooooooo+++++++++@@@++++@@ooo-ooooo3===========O-oo1&OO&&&&&&&&&1ooooooooooooooooooooooooooo",
"ooooooooooooooooooo@@###############@ooooooo+++++++++@@@++++@@ooo.ooooo2============--o<OO&&&&&&&&&&4ooooooooooooooooooooooooooo",
"ooooooooooooooo-ooooooooooooooooooooooooooooooooooooooooooooooooo.ooooo@777777777777.OO@OO4444444447oooooooooooooooooooooooooooo",
"oooooooooo--OooOOoo222222222222222222ooooooo==================oooooooooo@@@@@@@@@@@@.OOo..@@@+++++@@oooooooo-Ooooooooooooooooooo",
"ooooooooooo-OOo.Oo822222222222222222288ooo,,==================2oooooooooooooooooooooo..oooooooooooooooo-OooO-.oooooooooooooooooo",
"ooooooooooo.OOO.oO822222222222222222288ooo,,==================2ooooooooo============oooo222222222222ooo.OOoOOooooooooooooooooooo",
"oooooooooo-O.OOoww822222222222222222288ooo22==================3oooooooo>============4oo92222222222229ooo.OOO.ooooooooooooooooooo",
"oooooooooo.OO.Ow;;822222222222222222288ooo33==================3oooooooo3============4oo92222222222229ooo.OO.oooooooooooooooooooo",
"ooooooooooo.O.. ww822222222222222222288ooo33==================3oooooooo3============4oo92222222222229oooo.Oooooooooooooooooooooo",
"oooooooooooooooo  822222222222222222288ooo33==================3oooooooo3============4oo92222222222229ooooooooooooooooooooooooooo",
"ooooooooooooqqooow822222222222222222288ooo33==================3oooooooo3============4oo92222222222229ooooooooooooooooooooooooooo",
"oooooooooooo;qoow;822222222222222222288ooo33==================3oooooooo3============4oo92222222222228ooooooooooooooooooooooooooo",
"oooooooooooo  ooww822222222222222222288ooo44==================3oooooooo3============4oo92222222222228oooooooooooooooooooooooO--o",
"oooooooooooooooo  822222222222222222288ooo44==================3oooooooo3============4oo92222222222228ooooooooooooooooooooooOO-oo",
"oooooooooooooooooo822222222222222222288ooo44==================3oooooooo3============4oo92222222222228ooooooooooooooooooooooOO.oo",
"oooooooooooooooooo822222222222222222288ooo44==================3oooooooo3============4oo92222222222228oooooooooooooooooooooo..ooo",
"oooooooooooooooooo822222222222222222288ooo44==================3oooooooo3============4oo92222O22222228ooooooooooooooooooooooooooo",
"oooooooooooooooooo822222222222222222288ooo44==================3oooooooo3============3oo9222--22222227ooooooooooooooooooooooooooo",
"oooooooooooooooooo822222222222222222288ooo44==================3oooooooo@777777777777@oo@00O-X0000000%ooooooooooooooooooooooooooo",
"oooooooooooooooooo822222222222222222288ooo44==================3ooooooooo@@@@@@@@@@@@oooo@%OO%%%%%%%%oooooooooooooooooooooooooooo",
"oooooooooooooooooo822222222222222222288ooo44==================3ooooooooooooooooooooooooooooooooooooooooooooooooooooooooooooooooo",
"oooooooooooooooooo822222222222222222288ooo44==================3ooooooooooooooooooooooooooooooooooooooooooooooooooooooooooooooooo",
"oooooooooooooooooo%000000000000000000##ooo@@777777777777777777@ooooooooooooooooooooooooooooooooooooooooooooooooooooooooooooooooo",
"oooooooooooooooooo%000000000000000000##ooo@@777777777777777777@ooooooooooooooooooooooooooooooooooooooooooooooooooooooooooooooooo",
"ooooooooooooooooooo###%%%%%%%%%%%####ooooooo@@@@@@@@@@@@@@@@@@oooooooooooooooooooooooooooooooooooooooooooooooooooooooooooooooooo",
"oooooooooooooooooooooooooooooooooooooooooooooooooO-ooooooooooooooooooooooooooooooooooooooooooooooooooooooooooooooooooooooooooooo",
"oooooooooooooooooooooooooooooooooooooooooooooooooo--ooooooooooooooooooooooooooooooooooooooooooXXXooooooooooooooooooooooooooooooo",
"ooooooooooooooooooooooooooooooooooooooooooooooooooooooooooooooooooooooooooooooooooooooooooooooXXXooooooooooooooooooooooooooooooo",
"oooooooooooooooooooooooooooooooooooooooooooooooooo.OO.OO--oooooooo222222222222222222ooooooo==================oooooooooooO-oooo--",
"oooooooooooooooooooooooooooooooooooooooooooooooooooqqOOOooooooooo722222222222222222255ooo33==================4ooooooooooo--ooO-o",
"ooooooooooooooooooooooooooooooooooooooooooooooooooq;qOO.ooooooooo722222222222222222255ooo33==================4oooooooooooOOoOO.o",
"oooooooooooooooooooooooO-ooooOOoooooooooooooooooooqq O.oooooooooo722222222222222222277ooo44==================4ooooooooooo66oOO.o",
"oooooooooooooooooooooooo--ooOOoooooooooooooooooooo  ooooooooooooo822222222222222222277ooo44==================4oooooooooo6**6..oo",
"oooooooooooooooooooooooo.OOoOOooooooooooooooooooooooooooooooooooo822222222222222222277ooo44==================4oooooooooo 66 oooo",
"oooooooooooooooooooooooo.OOoo============oooo============oooooooo822222222222222222288ooo44==================4ooooooooooo  ooooo",
"ooooooooooooooooooooooooo..o4============4oo4============4ooooooo822222222222222222288ooo44==================4oooooooooooooooooo",
"oooooooooooooooooooooooooooo4============4oo4============4oooo-oo822222222222222222288ooo44==================4oooooooooooooooooo",
"oooooooooooooooooooooooooooo4============4oo4============4oooOOoo822222222222222222288ooo44==================4oooooooooooooooooo",
"oooooooooooooooooooooooooooo4============4oo4==========4$$oooOOoo822222222222222222288ooo44==================4oooooooooooooooooo",
"oooooooooooooooooooooooooooo4============4oo4===========4oooo..oo822222222222222222288ooo44==================4oooooooooooooooooo",
"oooooooooooooooooooooooooooo4============4oo4===========4oooooooo822222222222222222288ooo44==================4oooooooooooooooooo",
"oooooooooooooooooooooooooooo4============4oo4============4ooooooo%88222222222222222288ooo44==================7oooooooooooooooooo",
"oooooooooooo::oooooooooooooo4============4oo4============4ooooooo%88222222222222222288ooo44==================7oooooooooooooooooo",
"ooooooooooo:**:o66oooooooooo4============4oo4============4oooooooo%%822222222222222288ooo44================77@oooooooooooooooooo",
"ooooooooooo :: 6*6oooooooooo4============4oo4============4oooooooooo822222222222222288ooo33===============7@@ooooooooooooooooooo",
"oooooooooooo  o66 oooooooooo4============4oo4============4oooooooooo822222222222222288ooo33===============7@@ooooooooooooooooooo",
"ooooooooooooooo  ooooooooooo4==========-O@oo4============4oooooo--oo822222222222222288ooo33=============77@ooooooooooooooooooooo",
"oooooooooooooooooooooooooooo@77777-O77O-.ooo@7777777777777ooooooo-OOO000000000000000@@ooo@@7777777777777@@oooooooooooooooooooooo",
"ooooooooooooooooooooooooooooo@@@@@.OO@OOooooo@@@@@@@@@@@@@ooooooo-OOO000000000000000@@ooo@@7777777777777@@oooooooooooooooooooooo",
"ooooooooooooooooooooooooooooooooooo.OOO.oooooooooooooooooooooooooXOOX%%%%%%%%%%%%%%%ooooooo@@@@@@@@@@@@@oooooooooooooooooooooooo",
"ooooooooooooooooooooooooooooo======.OO.ooooooooo&&&&&&&&&oooooooooXXXooooooooooooooooooooooooooooooooooooooooooooooooooooooooooo",
"oooooooooooooooooooooooooooo4=======.Oooooooooo&&&&&&&&&&<ooooooooXXXooooooooooooooooooooooooooooooooooooooooooooooooooooooooooo",
"oooooooooooooooooooooooooooo4===========oooooo&&&&&&&&&&&<oooooooo===============oooooooooo=========4ooo=====ooooooooooooooooooo",
"oooooooooooooooooooooooooooo4============4oo1&&&&&&&&&&&&<oooooooo===============oooooooooo=========4ooo=====ooooooooooooooooooo",
"oooooooooooooooooooooooooooo4============4oo1&&&&&&&&&&&&<ooooooo3==================ooooo44=========4oo======4oooooooooooooooooo",
"oooooooooooooooooooooooooooo4============1ooO&&&&&&&&&&&&<ooooooo3==================44ooo44=======44@========4oooooooooooooooooo",
"ooooo==========ooooooooooooo4============1o--&&&&&&&&&&&&<ooooooo3==================44ooo44=======44@========4oooooooooooooooooo",
"oooo===========4oooooooooooo4============1O-X&&&&&&&&&&&&<ooooooo3==================44ooo44OOO=444@@o========4oooooooooooooooooo",
"oo4============4oooooooooooo4============1OO1&&&&&&&&&&&&<ooooooo3==================44ooo---444@@@ooo========4oooooooooooooooooo",
"oo4============4oooooooooooo4============4XX1&&&&&&&&&&&&<ooooooo3==================44ooo---444@@@ooo========4oooooooooooooooooo",
"oo4============4oooooooooooo4============4oo1&&&&&&&&&&&&<ooooooo3==================44ooOOOX@@@ooooo=========4oooooooooooooooooo",
"oo4============4oooooooooooo3============4oo1&&&&&&&&&&&47ooooooo3==================44ooOOOXoooooo===========4oooooooooooooooooo",
"oo4============4oooooooooooo3============4oo4&&&&&&&&&&4@@-oooooo3==================44ooOOOXoooooo===========4oooooooooooooooooo",
"oo4============4oooooooooooo@777777777777@oo@7444444444@ooOoo--oo3==================44ooOXXoooo==============4oooooooooooooooooo",
"oo4============4ooooooooooooo@@@@@@@@@@@@oooo@@+++++++@oooXoOO-oo3==================44oooooo=================4oooooooooooooooooo",
"oo4============4oooooooooooooooooooooooooooo  o*:oooooo-OXooOOXoo3==================44oooooo=================4oooooooooooo-ooooo",
"oo4============7oooooooooooooo-oooooooooooooooo  ooooooOO66OOXOoo3==================44ooo44==================4oooooooooooOOooO--",
"oo4=========777@oooooooO--ooo-oooooooooooooooooooooooooo6**6XOOoo3==================44ooo44==================4oooooooo-ooOXoOO-o",
"oo4========7@@@ooooooooo-OOo--oooooooooooooooooooooooooo 66 XOXoo3==================44ooo44==================4ooooooooXOOoXOOOXo",
"oo@77777777@ooO--ooooooo.OOoOOooooooooooooooooooooooooooo  oo::oo3=================777ooo44==================3ooooooooXOOqqOOXO-",
"ooo@@@@@@@@ooOO-ooooooooo.O.O.oooooooooooooooooooo--Oooooooo:**oo3============777OO---ooo44>=================3oooooooooXq;;qXOOX",
"oooooooooooooOO.oooooooooo.o.oooooooooooooooooooooo-OOoooooo ::oo3============777OO---ooo44>=================3oooooooooo qq XOXo",
"ooooooooO-oooO.ooooo===========ooooooooooooooooooooXOOooooo66  oo@777777777777@@@@@-OOOOo@@777777777777777777@ooo--Oooooo  qqooo",
"oooooooo.-Ooo.O-ooo============3ooooooooooooooooooooXXoooo6*6 oooo@@@@@@@@@@@@oooooXOOOOooo@@@@@@@@@@@@@@@@@@ooooo-OOwwoooo;qooo",
"oooooooooOOooOO.oo4============4oooooooooooooooooooooooooo66 ooooo@@@@@@@@@@@@oooooXOOOOooo@@@@@@@@@@@@@@@@@@oooooXOw;;wooo  ooo",
"ooooooooo.O.OO.ooo4============4oooooooooooooooooooooooooo  ooooooooooooooo ww ooooooooooooooooooooooooooooooooooooX ww oooooooo",
"oooooooooo..OO.ooo4============4oooooooooooooooooooooooooooooooooooooooooooo  ooooooooooooooooooooooooooooooooooooooo  ooooooooo",
"ooooooooooooO.oooo4============4ooooooo--ooooOOooooooooooooooooooooooooooooooooooooooooooooooooooooooooooooooooooooooooooooooooo",
"oooooooooooooooooo4============4oooooooo-Oo66Oooooooooooooooooooo--ooooooooooooooooooooooooooooooooooooooooooooooooooooooooooooo",
"oooooooooooooooooo4============4ooooooooXOO6*OooooooooooooooOooOO-oooooooooooooooooooooooooooooooooooooooooooooooooooooooooooooo",
"oooooooooooooooooo4============4ooooooooXOO  Xoooooooooooooo--XOOXoooooooooooooooooooooooooooooooooooooooooooooooooooooooooooooo",
"oooooooooooooooooo4============4oooooooooXXooooooooooooooooo-OOXXooooooooooooooooooooooooooooooooooooooooooooooooooooooooooooooo",
"oooooooooooooooooo4============4ooooooooooooooooooooooooooooXOOooooooooooooooooooooooooooooooooooooooooooooooooooooooooooooooooo",
"oooooooooooooooooo4=======77777ooooooooooooooooooooooooooooooooooooooooooooooooooooooooooooooooooooooooooooooooooooooooooooooooo",
"oooooooooooooooooo4=====77@@@@@ooooooooooooooooooooooooooooooooooooooooooooooooooooooooooooooooooooooooooooooooooooooooooooooooo",
"oooooooooooooooooo@77777@@oooooooooooooooooooooooooooooooooooooooooooooooooooooooooooooooooooooooooooooooooooooooooooooooooooooo",
"ooooooooooooooooooo@@@@@oooooooooooooooooooooooooooooooooooooooooooooooooooooooooooooooooooooooooooooooooooooooooooooooooooooooo",
"oooooooooooooooooooooooooooooooooooooooooooooooooooooooooooooooooooooooooooooooooooooooooooooooooooooooooooooooooooooooooooooooo",
"oooooooooooooooooooooooooooooooooooooooooooooooooooooooooooooooooooooooooooooooooooooooooooooooooooooooooooooooooooooooooooooooo",
"oooooooooooooooooooooooooooooooooooooooooooooooooooooooooooooooooooooooooooooooooooooooooooooooooooooooooooooooooooooooooooooooO"
};
