/* XPM */
static char *player_right1754595505[] = {
/* columns rows colors chars-per-pixel */
"128 128 70 1 ",
"  c #36170C",
". c #35380D",
"X c #383B0C",
"o c #3D3E0F",
"O c #39281B",
"+ c #392A1C",
"@ c #333127",
"# c #353328",
"$ c #550F0A",
"% c #45230D",
"& c #503B2C",
"* c #773421",
"= c #404212",
"- c #444514",
"; c #724113",
": c #636917",
"> c #656C17",
", c #686F16",
"< c #72751B",
"1 c #564020",
"2 c #42423B",
"3 c #44443D",
"4 c #655123",
"5 c #695922",
"6 c #684C3C",
"7 c #787B21",
"8 c #464541",
"9 c #484743",
"0 c #484843",
"q c #494844",
"w c #4B4A46",
"e c #5F5E5A",
"r c #605C48",
"t c #64604B",
"y c #66624D",
"u c #6C6852",
"i c #7C7B6E",
"p c #9B1A0A",
"a c #EF3A0C",
"s c #AB5C1C",
"d c #A2783C",
"f c #EF692F",
"g c #927E6A",
"h c #807F72",
"j c #7F8124",
"k c #7F8226",
"l c #EFAC28",
"z c #A2814F",
"x c #BD9842",
"c c #828175",
"v c #848279",
"b c #878679",
"n c #87867D",
"m c #88867D",
"M c #88877E",
"N c #8A8A7D",
"B c #C6A740",
"V c #EFB775",
"C c #8C8A81",
"Z c #8D8B82",
"A c #8D8B83",
"S c #8D8C82",
"D c #8D8C83",
"F c #8E8C83",
"G c #8E8C84",
"H c #8E8D84",
"J c #939189",
"K c #9CA8AD",
"L c #B3B0A9",
"P c #EFD8A1",
/* pixels */
"<<<<<<<<<<<<<<<<<<<<<<<<<<<<<<<<<<<<<<<<<<<<<<<<<<<<<<<<<<<<<<<<<<<<<<<<<<<<<<<<<<<<<<<<<<<<<<<<<<<<<<<<<<<<<<<<<<<<<<<<<<<<<<<<",
"<<<<<<<<<<<<<<<<<<<<<<<<<<<<<<<<<<<<<<<<<<<<<<<<<<<<<<<<<<<<<<<<<<<<<<<<<<<<<<<<<<<<<<<<<<<<k77<<<<<<<<<<<<<<<<<<<<<<<<<<<<<<<<<",
"<<<<<<<<<<<<<<<<<<<<<<<<<<<<<<<<<<<<<<<<<<<<<<<<<<<<<<<<<<<<<<<<<<<<<<<<<<<<<<<<<<<<<<<<<<<<<777<<hhhhhhhhhhhh<<<<<<<<<<<<<<<<<<",
"<<<<<<<<<<<<<<<<<<<<<<<<<<<<<<<<<<<<<<<<<<<<k<<<<<<<<<<<<<<<<<<<<<<<<<<<<<<<<<<<<<<<<<<<<<<<<<>><mhhhhhhhhhhhhm<<<<<<<<<<<<<<<<<",
"<<<<<<<<<<<<<<<<<<<<<<<<<<<<<<<<<<<<<<<<<<<<77<<<<<<<<<<<<<<<<<<<<<<<<<<<<<<<<<<<<<<<<<<<<<<<<<<<mhhhhhhhhhhhhm<<<<<<<<<<<<<<<<<",
"<<<<<<<<<<<<<<<<<<<<<<<<<<<<<<<<<<<<<<<<kk7<>7<<<<<<<<<<<<<<<<<<<<<<<<<<<<<<<<k<<<<<<<<<<<<<<<<<<mhhhhhhhhhhhhm<<<<<<<<<<<<<<<<<",
"<<<<<<<<<<<<<<<<<<<<<<<<<<<<<<<<<<<<<<<<<k77>><%%%%%%%%%%%%%%%%%%<<%%<<7kk<<<k<<<<<<<<<<<<<<<<<<<mhhhhhhhhhhhhm<<<<<<<<<<<<<<<<<",
"<<<<<<<<<<<<<<<<<<<<<<<<<<<<<<<<<<<<<<7k<>77<>7%%%%%%%%%%%%%%%%%%<<%%<<<k77<kk<<<<<<<<<<<<<<<<<<<mhhhhhhhhhhhhm<<<<<<<<<<<<<<<<<",
"<<<<<<<<<<<<<<<<<<<<<<<<<<<<<<<<<<<<<<<k77>7<++6666++66666666++66%%66++<>77<LL<<<<<<<<<<<<<<<<<<<mhhhhhhhhhhhhm<<<<<<<<<<<<<<<<<",
"<<<<<<<<<<<<<<<<<<<<<<<<<<<<<<<<<<<<<<<>77<>>++6666++66666666++66%%66++<<>7LzzL<<<<<<<<<<<<<<<<<<mhhhhhhhhhhhhm<<<<<<<<<<<<<<<<<",
"<<<<<<<<<<<<<<<<<<<LL<<<<<<<<<<<<<<<<<<<>7<++%%6666++;;66&&++;;66666666%%<>:LL:<<<<<<<<<<<<<<<<<<mhhhhhhhhhhhhm<<<<<<<<<<<<<<<<<",
"<<<<<<<<<<<<<<<<<<LzzL<<<<<<<<<<<<<<<<<<<><++%%6666++;;66&&++;;66666666%%<<<::<<<<<<<<<<<<<<<<<<<mhhhhhhhhhhhhm<77<<<<<<<<<<<<<<",
"<<<<<<<<<<<<<<<<<<:LL:<<<<<<<<<<<<<<<<<<<%%;;666666++66666666++666666666666++<<<<<<<<<<<<<<<<<<<<AAAAAhhhhhhhhmk7<<<<<<<<<<<<<<<",
"<<<<<<<<<<<<<<<<<<<::<<<<<<<<<<<<<<<<<<<<%%;;666666++66666666++666666666666++<<<<<<<<<<<<<<<<<<<<<<tttAhhhhhhhm7><<<<<<<<<<<<<<<",
"<<<<<<<<<<<<<<<<<<<<<<<<<<<<<<<<<<<<<<<++;;6666666666666666++;;66666666666666%%<<<<<<<<<<<<<<<<<<<<<<<tAhhhhhhm7><<<<<<<<<<<<<<<",
"<<<<<<<<<<<<<<<<<<<<<<<<<<<<<<<<<<<<<<<++;;6666666666666666++;;66666666666666%%<<<<<<<<<<<<<<<<<<<<<<<<tAAAAAA<7><<<<<<<<<<<<<<<",
"<<<<<<<<<<<<<<<<<<<<<<<<<<<<<<<<<<<<<%%;;666666666666666666++6666666666666666%%<<<<<<<<<LL<<<<<<<<<<<<<<tttttt<><<<<<<<<<<<<<<<<",
"<<<<<<<<<<<<<<<<<<<hhhhhhhhhhhhhhhhhh%%;;666666666666666666++6666666666666666%%<<<<<<<<LzzL<LL<<<<<<<<<<<<<<>><<<<<<<<<<<<<<<<<k",
"<<<<<<<<<<<<<<<<<<<hhhhhhhhhhhhhhhh  ++;;6666666666666666666666666666666666;;%%<<<<<<<<:LL:LzL<<<<<<<<<<<<<<<<<<<<<<<<<<7kk<<<k<",
"<<<<<<<<<<<<<<<<<<mhhhhhhhhhhhhhhhh  ++;;6666666666666666666666666666666666;;%%<<<<<<<LL::<LL:<<<<<<<<<<<<<<<<<<<<<<<<<<<kKK<kk<",
"<<<<<<<<<<<<<<<<<<mhhhhhhhhhhhhhh%%++++++;;66666666666666666666666666;;%%%%%%;;<<<<<<<zL<<<::<<<<<<<<<<<<<<<<<<<<<<<<<<<<KzzK77<",
"<<<<<<<<<<<<<<<<<<mhhhhhhhhhhhhhh%%++++++;;66666666666666666666666666;;%%%%%%;;<<<<<<<::<<<<<<<<<<<<<<<<<<<<<<<<<<<<<<<<<:KK:LL<",
"<<<<<<<<<<<<<<<<<<mhhhhhhhhhhhhhh  ++++++++;;66;;666666666666666666%%%%llllVVVV66<<<<<<<<<<<<<<<<<<<<<<<<<<<<<<<<<<<<<<<<<::<zL<",
"<<<<<<<<<<<<<<<<<<mhhhhhhhhhhhhhh  ++++++++;;66;;666666666666666666%%%%llllVVVV66<<<<<<<<<<<<<<<<<<<<<<<<<<<<<<<<<<<<<<<<<<<<::<",
"<<<<<<<<<<<<<<<<<<mhhhhhhhhhhhh%%++++++++++++++++++++;;666666;;%%%%66gggg66llVV66<<<<<<<<<<<<<<<<<<<<<<<<<<<<<<<<<<<<<<<<<<<<<<<",
"<<<<<<<<<<<<<<<<<<mhhhhhhhhhhhh%%++++++++++++++++++++;;666666;;%%%%66gggg66llVV66<<<<<<<<<<<<<<<<<<<<<<<<<<<<<<<<<<<<<<<<<<<<<<<",
"<<<<<<<<<<<<<<<<<<mhhhhhhhhhhhh  ++++++++++++++;;;;;;++;;%%%%%%VVllPPPPPPPPggll66<<<<<<<<<<<<<<<<<<<<<<<<<<<<<<<<<<<<<<<<<<<<<<<",
"<<<<<<<<<<<<<<<<<<mhhhhhhhhhhhh  ++++++++++++++;;;;;;++;;%%%%%%VVllPPPPPPPPggll66hhh<<<<iiiiiiiiiiii<<<<<<<<<<<<<<<<<<<<<<<<<<<<",
"<<<<<<<<<<<<<<<<<<mhhhhhhhhhhhh  ++++++++++++++llVVVV;;++VVVVVVllggPPPPPPPPPP66;;hhhm<<viiiiiiiiiiiiv<<<<<<<<<<<<<<<<<<<<<<<<<<<",
"<<<<<<<<<<<<<<<<<<mhhhhhhhhhhhh  ++++++++++++++llVVVV;;++VVVVVVllggPPPPPPPPPP66;;hhhm<<viiiiiiiiiiiiv<<<<<<<<<<<<<<<<<<<<<<<<<<<",
"<<<<<<<<<<<<<<<<<<mhhhhhhhhhhhh  ++++++++++++;;VVVVVVVV;;VVVVll66PPPPPPPPPP    ;;hhhm<<viiiiiiiiiiiiv<<<<<<<<<<<<<<<<<<<<<<<<<<<",
"<<<<<<<<<<<<<<<<<<mhhhhhhhhhhhh  ++++++++++++;;VVVVVVVV;;VVVVll66PPPPPPPPPP    ;;hhhm<<viiiiiiiiiiiiv<<<<<<<<<<<<<<<<<<<<<<<<<<<",
"<<<<<<<<<<<<<<<<<<mhhhhhhhhhhhh  ++++++++++;;ssssVVVVVV;;VVVV66PPPPPPPPPP  PP  ;;hhhN<<viiiiiiiiiiiiv<<<<<<<<<<<<<<<<<<<<<<<<<<<",
"<<<<<<<<<<<<<<<<<<mhhhhhhhhhhhh  ++++++++++;;ssssVVVVVV;;VVVV66PPPPPPPPPP  PP  ;;hhhv<<viiiiiiiiiiiiv<<<<<<<<<<<<<<<<<<<<<<<<<<<",
"<<<<<<<<<<<<<<<<<<mhhhhhhhhhhhh  ++++++++++;;llllssVVVVVVVVVVggPPPPPPPPPP    $$;;hhhA<<viiiiiiiiiiiiv<<<<<<<<<<<<<<<<<<<<<<<<<<<",
"<<<<<<<<<<<<<<<<<<mhhhhhhhhhhhh  ++++++++++;;llllssVVVVVVVVVVggPPPPPPPPPP    $$;;hhhv<<viiiiiiiiiiiiv<<<<<<<<<<<<<<<<<<<<<<<<<<<",
"<<<<<<<<<<<<<<<<<<mhhhhhhhhhhhh  ++++++++++;;VVVVssssVVVVVVVVggPPPPPPPPPP      ;;hhhv<<viiiiiiiiiiiiv<<<<<<<<<<<<<<<<<<<<<<<<<<<",
"<<<<<<<<<<<<<<<<<<tAAAAAAAAAAAA  ++++++++++;;VVVVssssVVVVVVVVggPPPPPPPPPP      ;;hhhA<<viiiiiiiiiiiiv<<<<<<<<<<<<<<<<<<<<<<<<<<<",
"<<<<<<<<<<<<<<<<<<<ttyyyyyyyyyy  ++++++++++;;VVssVVVVssVVVVVVggPPPPPPPPPPPP    ss;;7k<<vi77iiiiiiiiiv<<<<<<<<<<<<<<<<<<<<<<<<<<<",
"<<<<<<<<<<<<<<<<<<<ttyyyyyyyyyy  ++++++++++;;VVssVVVVssVVVVVVggPPPPPPPPPPPP    ss;;hkk<h77iiiiiiiiiim<<<<<<<<<<<<<<<<<<<<<<<<<<<",
"<<<<<<<<<<<<<<<k<<<<<<<<<<<<<<<  ++++++++++;;VVVVVVVVVVVVVVVV66PPPPPPPPPPPPPPggssr6A>77r77mmAbAmmAnA<<<<<<<<<<<<<<<<<<<<<<<<<<<<",
"<<<<<<<<<<kk7<<77<<bbbbbbbbbbbb  ++++++++++;;VVVVVVVVVVVVVVVV66PPPPPPPPPPPPPPggss66r>7d<>>ryrrrrrryr<<<<<<<<k7<<<<<<<<<<<<<<<<<<",
"<<<<<<<<<<<k77<>7<Fbbbbbbbbbbbb  ++++++++++++;;;;;;ssVVVVVVVVss66PPPPPPPPPP66ssssVV66,:,<<<<<<<<<<<<<<<k7<<7k><<<<<<<<<<<<<<<<<<",
"<<<<<<<<<<<>777><7Fbbbbbbbbbbbb  ++++++++++++;;;;;;ssVVVVVVVVss66PPPPPPPPPP66ssssVV66<<,bbbbNbbbbbbb<<<>77<77<<<<<<<<<<<<<<<<<<<",
"<<<<<<<<<<k7>77<LLFbbbbbbbbbbbb  ++++++++++++++++++++VVVVVVVVssssgg66gggg66ssgbVVVV;;<<NbbbbbbbbbbbbF<<<>777><<<<<<<<<<<<<<<<<<<",
"<<<<<<<<<<>77>7LzzFbbbbbbbbbbbb  ++++++++++++++++++++VVVVVVVVssssgg66gggg66ssggVVVV;;<<AbbbbbbbbbbbbF<<<>77><<<<<<<<<<<<<<<<<<<<",
"<<<<<<<<<<<>7>>:LLFbbbbbbbbbbbbbb  ++++++++++++++++++VVVVVVVVVVggssssssssssggVVVVVV;;<<AbbbbbbbbbbbbF<<<<>7<<<<<<<<<<<<<<<<<<<<<",
"<<<<<<<<<<<<<<<<::Fbbbbbbbbbbbbbb  ++++++++++++++++++VVVVVVVVVVggssssssssssggVVVVVV;;<<AbbbbbbbbbbbbH<<<<<<<<<<<<<<<<<<<<<<<<<<<",
"<<<<<<<<<<<<KK<<<LFbbbbbbbbbbbbbb  ++++++++++++++++VVVVVVVVVVVVVVggVVVVVVVVVVVVVVll66<<HbbbbbbbbbbbbH<<<<<<<<<<<<<<<<<<<<<<<<<<<",
"<<<<<<<<<<<<zK<<LzFbbbbbbbbbbbbbb  ++++++++++++++++VVVVVVVVVVVVVVggVVVVVVVVVVVVVVll66<<HbbbbbbbbbbbbG<<<<<<<<<<<<<<<<<<<<<<<<<<<",
"<<<<<<<<<<<<::<<LLFbbbbbbbbbbbbbbbb  ++++++++++++++VVVVVVVVVVVVVVVVVVVVVVVVssffll;;hm<<HbbbbbbbbbbbbG<<<<<<<<<<<<<<<<<<<<<<<7kk<",
"<<<<<<<<<<<<<<<<::Fbbbbbbbbbbbbbbbb  ++++++++++++++VVVVVVVVVVVVVVVVVVVVVVVVssffll;;hm<<AbbbbbbbbbbbbA<<<<<<<<<<<<<<<<<<<<<<77k<<",
"<<<<<<<<<<<<<<<<<<Fbbbbbbbbbbbbbbbb  ++++++++++++VVVVVVVVVVVVVVVVVVVVVVVVVVVVll;;hhhN<<GbbbbbbbbbbbbA<<<<<<<<<<<<<<<<<<<<<<77><<",
"<<<<<<<<<<<<<<<<<<Fbbbbbbbbbbbbbbbb  ++++++++++++VVVVVVVVVVVVVVVVVVVVVVVVVVVVll;;hhhm<<GbbbbbbbbbbbbH<<<<<<<<<<<<<<<<<<<<<<>><<<",
"<<<<<<<<<<<<<<<<<<Fbbbbbbbbbbbbbbbbbb  ++++++++++VVVVVVVVVVVVVVVVVVVVVVVVll66;;chhhhm<<Hbbbb7bbbbbbbA<<<<<<<<<<<<<<<<<<<<<<<<<<<",
"<<<<<<<<<<<<<<<<<<Fbbbbbbbbbbbbbbbbbb  ++++++++++VVVVVVVVVVVVVVVVVVVVVVVVll66;;hhhhhm<<FbbbkkbbbbbbbA<<<<<<<<<<<<<<<<<<<<<<<<<<<",
"<<<<<<<<<<<<<<<<<<FbbbbbbbbbbbbbbbbbbFF    ++++++;;llVVVVVVVVVVVVVV666666;;NNNSSFAAAt<<tJJ7k,JJJJJJJu<<<<<<<<<<<<<<<<<<<<<<<<<<<",
"<<<<<<<<<<<<<<<<<<FbbbbbbbbbbbbbbbbbbFF    ++++++;;llVVVVVVVVVVVVVV666666;;ryyrytytt<<<<ru77uuuuuuuu<<<<<<<<<<<<<<<<<<<<<<<<<<<<",
"<<<<<<<<<<<<<<<<<<FbbbbbbbbbbbbbbbbbbFF%%<m    66hh;;66ssssssssss66<<<<<<<<<<<<<<<<<<<<<<<<<<<<<<<<<<<<<<<<<<<<<<<<<<<<<<<<<<<<<",
"<<<<<<<<<<<<<<<<<<FbbbbbbbbbbbbbbbbbbFF%%<m    66hh;;66ssssssssss66<<<<<<<<<<<<<<<<<<<<<<<<<<<<<<<<<<<<<<<<<<<<<<<<<<<<<<<<<<<<<",
"<<<<<<<<<<<<<<<<<<uJJJJJJJJJJJJJJ%%JJ%%%%gg%%AAAAAAAA  ******ss*****6<<<<<<<<<<<<<<<<<<<<<<<<<<<<<<<<<<<<<<<<<<<<<<<<<<<<<<<<<<<",
"<<<<<<<<<<<<<<<<<<uJJJJJJJJJJJJJJ%%JJ%%%%gg%%AAAAAAAA  ******ss*****p<<<<<<<<<<<<<<<<<<<<<<<<<<<<<<<<<<<<<<<<<<<<<<<<<<<<<<<<<<<",
"<<<<<<<<<<<<<<<<<<<yyyuuuuuuuuu%%%%gg%%6666++++tttt    ssVVVVgg  VVss<<<<<<<<<<<<<<<<<<<<<<<<<<<<<<<<<<<<<<<<<<<<<<<<<<<<<<<<<<<",
"<<<<<<<<<<<<<<<<<<<<<<<<<<<<<<<%%%%gg%%6666++++<<7k    ssVVVVgg  VVss<<<<<<<<<<<<<<<<<<<<<<<<<<<<<<<<<<<<<<<<<<<<<<<<<<<<<<<<<<<",
"<<<<<<<<<<<<<<<<<<<<<<<<<<<<<<<%%666666++++66<<<<<jj<ssVVVVVV**  PP  ss<<<<<<<<<<<<<<<<<<<<<<<,,,<<<<<<<<<<<<<<<<<<<<<<<<<<<<<<<",
"<<<<<<<<<<<<<<<<<<<<<<<<<<<<<<<%%666666++++66<<<<<,,<ssVVVVVV**  PP  ss<<<<<<<<<<<<<<<<<<<<<<<,,,<<<<<<<<<<<<<<<<<<<<<<<<<<<<<<<",
"<<<<<<<<<<<<<<<<<<<<<<<<<<<<<<<%%OOgb66%%++%%<<<<<,d<ssVVVVss      cgssbbbbbbbbbbbbb<<<<<<<icciciicccccihhhhh<<<<<<<<<<<7k<<<<kk",
"<<<<<<<<<<<<<<<<<<<<<<<<<<<<<<<%%OOgg66%%++%%<<<<<<KKssVVVVss      ggssbbbbbbbbbbbbbNN<<<mmhicccccciiicchhhhhN<<<<<<<<<<<kk<<7k<",
"<<<<<<<<<<<<<<<<<<<<<<<<<<<<<<<%%%%++%%%%++<<<<<<<KzKssVVVVss    PP    bbbbbbbbbbbbbNN<<<mmhivciiccccccihhhhhN<<<<<<<<<<<77<77><",
"<<<<<<<<<<<<<<<<<<<<<<<7k<<<<77%%%%++%%%%++<<<<<<<KK>ssVVVVss    PP    bbbbbbbbbbbbbCC<<<mbviccicciicicchhhhhn<<<<<<<<<<<BB<77><",
"<<<<<<<<<<<<<<<<<<<<<<<<kk<<77<<<%%++<<<<<<<<<<<<<,  ssVVVV****          bbbbbbbbbbbCF<<<mmiccccciccicichhhhhn<<<<<<<<<<BddB>><<",
"<<<<<<<<<<<<<<<<<<<<<<<<>77<77<<<%%++<<<<<<<<<<<<<<  ssVVVV****          bbbbbbbbbbbFC<<<mmhciicccicccichhhhhn<<<<<<<<<<:BB:<<<<",
"<<<<<<<<<<<<<<<<<<<<<<<<>77<<hhhciicccicc++++%%ci    **VVVVVVVVss          bbbbbbbbbFF<<<bccciiciicchhhhhhhhhn<<<<<<<<<<<::<<<<<",
"<<<<<<<<<<<<<<<<<<<<<<<<<>><mhhhicccicici++++%%ih    ;*VVVVVVVVss          bbbbbbbbbFF<<<bbccccccccihhhhhhhhhn<<<<<<<<<<<<<<<<<<",
"<<<<<<<<<<<<<<<<<<<<<<<<<<<<mhhhccc%%+O%%%%++66      **VVVVVVVVss            bbbbbbbFF<<<Nbciccicccihhhhhhhhhn<<<<<<<<<<<<<<<<<<",
"<<<<<<<<<<<<<<<<<<<<<<<<<<<<mhhhcii%%++%%%%++66      **VVVVVVVVss            bbbbbbbFF<<<bccicciiicchhhhhhhhhn<<<<<<<<<<<<<<<<<<",
"<<<<<<<<<<<<<<<<<<<<<<<<<<<<mhhhi%%%%6666%%gg66      ssVVVVVVVVVV**            bbbbbGF<<<NNhicccczhhhhhhhhhhhN<<<<<<<<<<<<<<<<<<",
"<<<<<<<<<<<<<<<<<<<<<<<<<<<<mhhhc%%%%6666%%gg66      ssVVVVVVVVVV**            bbbbbFF<<<bmhcciciihhhhhhhhhhhb<<<<<<<<<<<<<<<<<<",
"<<<<<<<<<<<<<<<<<<<<<<<<<<<<mhhhicg;;gbbg66O+        ssssVVVVVVss                bbbGG<<<mmhciciihhhhhhhhhhhhm<<<<<<<<<<<<<<<<<<",
"<<<<<<<<<<<<<<<<<<<<<<<<<<<<mhhhicg;;gggg66O+        ssssVVVVVVss                bbbFF<<<mmhcicciihhhhhhhhhhhA<<<<<<<<<<<<<<<<<<",
"<<<<<<<<<<<<xx<<<<<<<<<<<<<<mhhhc%%%%++++%%%%          **VV****                  bbbNF<<<mmiccicciiciccccccicN<<<<<<<<<<<<<<<<<<",
"<<<<<<<<<<<xddx<BB<<<<<<<<<<mhhhc%%%%++++%%%%          **VV****                  bbbFF<<<mmccicccccccciihicFNt<<<<<<<<<<<<<<<<<<",
"<<<<<<<<<<<:xx:BdB<<<<<<<<<<mhhhcii%%%%++%%                                    PPbbbFF<<<nnhcciiicciciichhFtt<<<<<<<<<<<<<<<<<<<",
"<<<<<<<<<<<<::<BB:<<<<<<<<<<mhhhccc%%%%++%%                                    PPbbbFF<<<nnciccciccicccchhFtt<<<<<<<<<<<<<<<<<<<",
"<<<<<<<<<<<<<<<:><<<<<<<<<<<mhhhicciccc+Or<gc                                zNNbbbNFF<<<nbiciciccicicciNFt<<<<<<<<<<<<<<<<<<<<<",
"<<<<<<<<<<<<<<<<<<<<<<<<<<<<rFGFbbjjNN7+O<<gg%                               bzJJJJJry<<<trHHDHSNNNSAFCFtt<<<<<<<<<<<<<<<<<<<<<<",
"<<<<<<<<<<<<<<<<<<<<<<<<<<<<<ryytt,<<r77<<<%%PPgg                        bbPPHNHJJJJry<<<ttADAFSFSJFFFFNtt<<<<<<<<<<<<<<<<<<<<<<",
"<<<<<<<<<<<<<<<<<<<<<<<<<<<<<<<<<<<,j77,<<<%%PPgg                        czPPuuuuuuu<<<<<<<tttttrtyrtttt<<<<<<<<<<<<<<<<<<<<<<<<",
"<<<<<<<<<<<<<<<<<<<<<<<<<<<<<hhhhhh><%%gg%%%%gg66zbPPggPPgbzgggggPPggPPggj<<<<<<<<<<<<<<<<<<<<<<<<<<<<<<<<<<<<<<<<<<<<<<<<<<<<<<",
"<<<<<<<<<<<<<<<<<<<<<<<<<<<<mhhhhhhh,%%gg%%%%gg66cgPPggPPgbbgggggPPggPPgg%%X==<<<<<<<<<<<<<<<<<<<<<<<<<<<<<<<<<<<<<<<<<<<<<<<<<<",
"<<<<<<<<<<<<<<<<<<<<<<<<<<<<mhhhhhhhh;;gg66%%O%O+++2222223=  66gg    333333333cch<<<<<<<<<<hhhhhccccb<<<ccici<<<<<<<<<<<<<<<<<<<",
"<<<<<<<<<<<<<<<<<<<<<<<<<<<<mhhhhhhhh;;bgr6%%OOO+++2222223%  66gg    333333333333=-%o<<<<<<hhhhhciicm<<<icccc<<<<<<<<<<<<<<<<<<<",
"<<<<<<<<<<<<<<<<<<<<<<<<<<<<mhhhhhhhi%%+++++O&3#+222222223%  66gg%%  333333333333333o<<<<bMihihhhhhhN<<hcciihn<<<<<<<<<<<<<<<<<<",
"<<<<<<<<<<<<<<<<<<<<<<<<<<<<mhhhhhhh3%%+++++O3#++222222223-  66gg%%  333333333333333w3o<<NSccchhhiAmrvhhiccchn<<<<<<<<<<<<<<<<<<",
"<<<<<hhhhhhhhhh<<<<<<<<<<<<<mhhhhhhh3++33++--2092222222233=%%ggaa%%%%33333333333333330=<<SMhicchhhNArhhhiccchm<<<<<<<<<<<<<<<<<<",
"<<<<hhhhhhhhhhhm<<<<<<<<<<<<mhhhhh333++39++-.2222222222233=%%ggaa%%%%333333333333333w0ooobM<77iSANtt<hhhcciicm<<<<<<<<<<<<<<<<<<",
"<<mhhhhhhhhhhhhn<<<<<<<<<<<<nhhhhh33333333--02222222222228o%%cggg%%%%33333333333333399oo=jkkbAntrr<<<hhhhhhhhm<<<<<<<<<<<<<<<<<<",
"<<mhhhhhhhhhhhhn<<<<<<<<<<<<nhhhhh33333333XX32222222222228o%%gggg%%%%33333333333333399oook7kCnAtyy<<<hhhhhhhhm<<<<<<<<<<<<<<<<<<",
"<<mhhhhhhhhhhhhN<<<<<<<<<<<<nhhhhh33333330=o02222222222228o$$pppp$$%%33333333333333399oo=77,rrt<<<<<hhhhhhhhhm<<<<<<<<<<<<<<<<<<",
"<<mhhhhhhhhhhhhn<<<<<<<<<<<<nhhh3333333333oo3222222222220wo$$pppp$$%%33333333333333399oo==-><<<<<<ihhhhhhhhhhm<<<<<<<<<<<<<<<<<<",
"<<mhhhhhhhhhhhhn<<<<<<<<<<<<nhhh3333333330oo022222222220##-$$$$$$$$$$$$333333333333399oo===,<<<<<<hhhhhhhhhhhm<<<<<<<<<<<<<<<<<<",
"<<mhhhhhhhhhhhhn<<<<<<<<<<<<tDDDwwwwwwwww#oo#w00q099000#oo=$$$$$$$$$$$$333333333333399oo=XX<<<<hhhhhhhhhhhhhhm<<<<<<<<<<<<<<<<<<",
"<<mhhhhhhhhhhhhb<<<<<<<<<<<<<ttt#########oooo#####@@@##oo  66ppaaaaff$$$$3333333333399ooooo<hhhhhhhhhhhhhhhhhm<<<<<<<<<<<<<<<<<<",
"<<mhhhhhhhhhhhhN<<<<<<<<<<<<<<<<oooooooo=ooo..o14oooooo-=  66ppaaaaff$$$$3333333333300ooooo<hhhhhhhhhhhhhhhhhm<<<<<<<<<<<<j<<<<<",
"<<mhhhhhhhhhhhhS<<<<<<<,<<<<<<k<ooooooooooooX=XX.oooooo==++6666zggggg++++3333333333399ooo00hhhhhhhhhhhhhhhhhhm<<<<<<<<<7<77<<7jj",
"<<mhhhhhhhhhSNSy<<<<<<<jkk<<<k<<oooooooooooooX=ooooooooo5++6666cggggg++++3333333333399ooo00hhhhhhhhhhhhhhhhhhm<<<<<<<777<7,<77j<",
"<<mhhhhhhhhAttr<<<<<<<<<kkj<kk<<oooooooooooooooooooooooo.55++  ++++++++333333333333399ooo00hhhhhhhhhhhhhhhhhhm<<<<<<<<,77<,777,<",
"<<rGFFFJFFFr<,jjk<<<<<<<><<<<j<<ooooooooooooooooooooooooo..++  ++++++++333333333333wwwooo00hhhhhhhhhhhhhhhhhhm<<<<<<<<:77KK77,7j",
"<<<yryyrrrrj,j<j<<<<<<<<<>j>j><<oooooooooooooooooo--=ooooo=o511oo9333333333333www==---oooq0chhhchhhhhhhhhhhhhm<<<<<<<<<:KddK,77,",
"<<<<<<<<<<<<,jj><<<<<<<<<,:<:,<<ooooooooooooooooooo===oooo%=.54oo9333333333333www==---ooo80chhhihhhhhhhvhhhchm<<<<<<<<<<>KK>,7,<",
"<<<<<<<<dj:,<j:<<<<<hhhhchhhhhc<oooooooooooooooooooX==ooooo55..oo#wwwwwwwwwwww#####-====o##AHAHGFGAGAGAGASSGFy<<<k77<<<<7>>KK<<<",
"<<<<<<<<:dj,<,<j<<<chhhhhhhhhhhMooooooooooooooooooooXXoooo5&5.Xooo############oooooX====oooyyrttyryryryrrtyrr<<<<7777LL<<7<zK<<<",
"<<<<<<<<<77<<77,<<Nhcicccicciicc<<oooooooooooooooooooooooo55.ooooo############oooooX====o<<tttttttttyryyryyry<<<<<>7LzzL<<<::<<<",
"<<<<<<<<<>7>77><<<bhcicicciccccb<<oooooooooooooooooooooooo..ooooooooooooooo.ee.oooooooooo<<<<<<<<<<<<<<<<<<<<<<<<<<>:LL:<<<<<<<<",
"<<<<<<<<<<>>77,<<<nhcciciicchhcb<<oooooooooooooooooooooooooooooooooooooooooo..ooooooooooo<<<<<<<<<<<<<<<<<<<<<<<<<<<<::<<<<<<<<<",
"<<<<<<<<<<<<7><<<<nhiccccccihhcb<<ooooo--oooo==oooooooooooooooooooooooooooooooooooooooooo<<<<<<<<<<<<<<<<<<<<<<<<<<<<<<<<<<<<<<<",
"<<<<<<<<<<<<<<<<<<nciccihhhhhhhb<<<<oooo-=o55=ooooooooooooooooooo--oooooooooooooooooooo<<<<<<<<<<<<<<<<<<<<<<<<<<<<<<<<<<<<<<<<<",
"<<<<<<<<<<<<<<<<<<nciccihhhhhhhb<<<<ooooX==5&=oooooooooooooo=oo==-ooooooooooooooooooooo<<<<<<<<<<<<<<<<<<<<<<<<<<<<<<<<<<<<<<<<<",
"<<<<<<<<<<<<<<<<<<nicccchhhhhhhb<<<<<<<<,77.XX=ooooooooooooo--X==Xoooooooooooooo<<<<<<<<<<<<<<<<<<<<<<<<<<<<<<<<<<<<<<<<<<<<<<<<",
"<<<<<<<<<<<<<<<<<<ncciichhhhhhhb<<<<<<<<<,,o%=oooooooooooooo-==XXooooooooooooooo<<<<<<<<<<<<<<<<<<<<<<<<<<<<<<<<<<<<<<<<<<<<<<<<",
"<<<<<<<<<<<<<<<<<<Mhhhhhhhhhhhhn<<<<<<<<<<<<<oooooooooooooooX==ooooooooooooooo<<<<<<<<<<<<<<<<<<<<<<<<<<<<<<<<<<<<<<<<<<<<<<<<<<",
"<<<<<<<<<<<<<<<<<<MhhhhhhhDDDDD<<<<<<<<<<<<<<ooooooooooooooooooooooooooooooooo<<<<<<<<<<<<<<<<<<<<<<<<<<<<<<<<<<<<<<<<<<<<<<<<<<",
"<<<<<<<<<<<<<<<<<<MhhhhhNNryryr<<<<<<<<<<<<<<<<<<<<ooooooooooooooooooooo<<<<<<<<<<<<<<<<<<<<<<<<<<<<<<<<<<<<<<<<<<<<<<<<<<<<<<<<",
"<<<<<<<<<<<<<<<<<<rHHDDDyy<<<<<<<<<<<<<<<<<<<<<<<<<<<<<<<<<<<<<<<<<<<<<<<<<<<<<<<<<<<<<<<<<<<<<<<<<<<<<<<<<<<<<<<<<<<<<<<<<<<<<<",
"<<<<<<<<<<<<<<<<<<<ryyry<<<<<<<<<<<<<<<<<<<<<<<<<<<<<<<<<<<<<<<<<<<<<<<<<<<<<<<<<<<<<<<<<<<<<<<<<<<<<<<<<<<<<<<<<<<<<<<<<<<<<<<<",
"<<<<<<<<<<<<<<<<<<<<<<<<<<<<<<<<<<<<<<<<<<<<<<<<<<<<<<<<<<<<<<<<<<<<<<<<<<<<<<<<<<<<<<<<<<<<<<<<<<<<<<<<<<<<<<<<<<<<<<<<<<<<<<<<",
"<<<<<<<<<<<<<<<<<<<<<<<<<<<<<<<<<<<<<<<<<<<<<<<<<<<<<<<<<<<<<<<<<<<<<<<<<<<<<<<<<<<<<<<<<<<<<<<<<<<<<<<<<<<<<<<<<<<<<<<<<<<<<<<<",
"<<<<<<<<<<<<<<<<<<<<<<<<<<<<<<<<<<<<<<<<<<<<<<<<<<<<<<<<<<<<<<<<<<<<<<<<<<<<<<<<<<<<<<<<<<<<<<<<<<<<<<<<<<<<<<<<<<<<<<<<<<<<<<<7"
};
