/* XPM */
static char *player_left1754595505[] = {
/* columns rows colors chars-per-pixel */
"128 128 67 1 ",
"  c #36170C",
". c #35380D",
"X c #383B0C",
"o c #3D3E0F",
"O c #392A1C",
"+ c #333127",
"@ c #353328",
"# c #550F0A",
"$ c #45230D",
"% c #773421",
"& c #404212",
"* c #444514",
"= c #724113",
"- c #636917",
"; c #656C17",
": c #686F16",
"> c #72751B",
", c #564020",
"< c #42423B",
"1 c #44443D",
"2 c #655123",
"3 c #695922",
"4 c #684C3C",
"5 c #787B21",
"6 c #464541",
"7 c #484743",
"8 c #484843",
"9 c #4B4A46",
"0 c #5F5E5A",
"q c #605C48",
"w c #64604B",
"e c #66624D",
"r c #6C6852",
"t c #7C7B6E",
"y c #9B1A0A",
"u c #EF3A0C",
"i c #AB5C1C",
"p c #A2783C",
"a c #EF692F",
"s c #927E6A",
"d c #807F72",
"f c #7F8124",
"g c #7F8226",
"h c #EFAC28",
"j c #A2814F",
"k c #BD9842",
"l c #828175",
"z c #848279",
"x c #878679",
"c c #87857C",
"v c #87867D",
"b c #88867D",
"n c #88877E",
"m c #89877F",
"M c #C6A740",
"N c #EFB775",
"B c #8D8B82",
"V c #8D8B83",
"C c #8D8C82",
"Z c #8D8C83",
"A c #8E8C83",
"S c #8E8C84",
"D c #8E8D84",
"F c #939189",
"G c #9CA8AD",
"H c #B3B0A9",
"J c #EFD8A1",
/* pixels */
">>>>>>>>>>>>>>>>>>>>>>>>>>>>>>>>>>>>>>>>>>>>>>>>>>>>>>>>>>>>>>>>>>>>>>>>>>>>>>>>>>>>>>>>>>>>>>>>>>>>>>>>>>>>>>>>>>>>>>>>>>>>>>>>",
">>>>>>>>>>>>>>>>>>>>>>>>>>>>>>>>>>>>>>>>>>>>>>>>>>>>>>>>>>>>>>>>>>>>>>>>>>>>>>>>>>>>>>>>>>>>g55>>>>>>>>>>>>>>>>>>>>>>>>>>>>>>>>>",
">>>>>>>>>>>>>>>>>>>>>>>>>>>>>>>>>>>>>>>>>>>>>>>>>>>>>>>>>>>>>>>>>>>>>>>>>>>>>>>>>>>>>>>>>>>>>555>>dddddddddddd>>>>>>>>>>>>>>>>>>",
">>>>>>>>>>>>>>>>>>>>>>>>>>>>>>>>>>>>>>>>>>>>g>>>>>>>>>>>>>>>>>>>>>>>>>>>>>>>>>>>>>>>>>>>>>>>>>;;>bddddddddddddb>>>>>>>>>>>>>>>>>",
">>>>>>>>>>>>>>>>>>>>>>>>>>>>>>>>>>>>>>>>>>>>55>>>>>>>>>>>>>>>>>>>>>>>>>>>>>>>>>>>>>>>>>>>>>>>>>>>bddddddddddddb>>>>>>>>>>>>>>>>>",
">>>>>>>>>>>>>>>>>>>>>>>>>>>>>>>>>>>>>>>>gg5>;5>>>>>>>>>>>>>>>>>>>>>>>>>>>>>>>>g>>>>>>>>>>>>>>>>>>bddddddddddddb>>>>>>>>>>>>>>>>>",
">>>>>>>>>>>>>>>>>>>>>>>>>>>>>>>>>>>>>>>>>g55;;>gg5>>>>>>>>>>>>>>>>>>>>>5gg>>>g>>>>>>>>>>>>>>>>>>>bddddddddddddb>>>>>>>>>>>>>>>>>",
">>>>>>>>>>>>>>>>>>>>>>>>>>>>>>>>>>>>>>5g>;55>;55g>>>>>>$$>>$$$$$$$$$$$$$$$$$$g>>>>>>>>>>>>>>>>>>>bddddddddddddb>>>>>>>>>>>>>>>>>",
">>>>>>>>>>>>>>>>>>>>>>>>>>>>>>>>>>>>>>>g55;5>555>>>>>>>$$>>$$$$$$$$$$$$$$$$$$H>>>>>>>>>>>>>>>>>>>bddddddddddddb>>>>>>>>>>>>>>>>>",
">>>>>>>>>>>>>>>>>>>>>>>>>>>>>>>>>>>>>>>;55>;;55;>>>>>OO44$$44OO44444444OO4444OO>>>>>>>>>>>>>>>>>>bddddddddddddb>>>>>>>>>>>>>>>>>",
">>>>>>>>>>>>>>>>>>>HH>>>>>>>>>>>>>>>>>>>;5>>;;;>>>>>>OO44$$44OO44444444OO4444OO>>>>>>>>>>>>>>>>>>bddddddddddddb>>>>>>>>>>>>>>>>>",
">>>>>>>>>>>>>>>>>>HjjH>>>>>>>>>>>>>>>>>>>;>55>>>>>>$$44444444==OO444444==OO44==$$OO>>>>>>>>>>>>>>bddddddddddddb>55>>>>>>>>>>>>>>",
">>>>>>>>>>>>>>>>>>-HH->>>>>>>>>>>>>>>>>>>>>g;>>>>>>$$44444444==OO444444==OO44==$$OO>>>>>>>>>>>>>>VVVVVddddddddbg5>>>>>>>>>>>>>>>",
">>>>>>>>>>>>>>>>>>>-->>>>>>>>>>>>>>>>>>>>>>;>>>>>OO444444444444OO44444444OO444444==$$>>>>>>>>>>>>>>wwwVdddddddb5;>>>>>>>>>>>>>>>",
">>>>>>>>>>>>>>>>>>>>>>>>>>>>>>>>>>>>>>>>>>>>>>>>>OO444444444444OO44444444OO444444==$$>>>>>>>>>>>>>>>>>wVddddddb5;>>>>>>>>>>>>>>>",
">>>>>>>>>>>>>>>>>>>>>>>>>>>>>>>>>>>>>>>>>>>>>>>$$44444444444444==OO4444444444444444==OO>>>>>>>>>>>>>>>>wVVVVVV>5;>>>>>>>>>>>>>>>",
">>>>>>>>>>>>>>>>>>>>>>>>>>>>>>>>>>>>>>>>>>>>>>>$$44444444444444==OO4444444444444444==OO>HH>>>>>>>>>>>>>>wwwwww>;>>>>>>>>>>>>>>>>",
">>>>>>>>>>>>>>>>>>>dddddddddddddddddd>>>>>>>ttt$$4444444444444444OO444444444444444444==$$jH>HH>>>>>>>>>>>>>>;;>>>>>>>>>>>>>>>>>g",
">>>>>>>>>>>>>>>>>>>dddddddddddddddddd>>>>>>>ttt$$4444444444444444OO444444444444444444==$$H-HjH>>>>>>>>>>>>>>>>>>>>>>>>>>5gg>>>g>",
">>>>>>>>>>>>>>>>>>bddddddddddddddddddbb>>>zzttt$$==4444444444444444444444444444444444==OO  HH->>>>>>>>>>>>>>>>>>>>>>>>>>>gGG>gg>",
">>>>>>>>>>>>>>>>>>bddddddddddddddddddbb>>>zzttt$$==4444444444444444444444444444444444==OO  -->>>>>>>>>>>>>>>>>>>>>>>>>>>>GjjG55>",
">>>>>>>>>>>>>>>>>>bddddddddddddddddddbb>>>zzttt==$$$$$$==44444444444444444444444444==OOOOOO$$>>>>>>>>>>>>>>>>>>>>>>>>>>>>-GG-HH>",
">>>>>>>>>>>>>>>>>>bddddddddddddddddddbb>>>zzttt==$$$$$$==44444444444444444444444444==OOOOOO$$>>>>>>>>>>>>>>>>>>>>>>>>>>>>>-->jH>",
">>>>>>>>>>>>>>>>>>bddddddddddddddddddbb>>>zzt44NNNNhhhh$$444444444444444444444444==OOOOOOOO  >>>>>>>>>>>>>>>>>>>>>>>>>>>>>>>>-->",
">>>>>>>>>>>>>>>>>>bddddddddddddddddddbb>>>zzt44NNNNhhhh$$444444444444444444444444==OOOOOOOO  >>>>>>>>>>>>>>>>>>>>>>>>>>>>>>>>>>>",
">>>>>>>>>>>>>>>>>>bddddddddddddddddddbb>>>z44NNhh44ssss$$$$$$==444444==OOOO==OOOOOOOOOOOOOO$$$$>>>>>>>>>>>>>>>>>>>>>>>>>>>>>>>>>",
">>>>>>>>>>>>>>>>>>bddddddddddddddddddbb>>>z44NNhh44ssss$$$$$$==444444==OOOO==OOOOOOOOOOOOOO$$$$>>>>>>>>>>>>>>>>>>>>>>>>>>>>>>>>>",
">>>>>>>>>>>>>>>>>>bddddddddddddddddddbb>>>z44hhssJJJJJJ44hhNN$$$$$$==OO====OOOOOOOOOOOOOOOO  ttttttt>>>>>>>>>>>>>>>>>>>>>>>>>>>>",
">>>>>>>>>>>>>>>>>>bddddddddddddddddddbb>>>z44hhssJJJJJJ44hhNN$$$$$$==OO====OOOOOOOOOOOOOOOO  tttttttz>>>>>>>>>>>>>>>>>>>>>>>>>>>",
">>>>>>>>>>>>>>>>>>bddddddddddddddddddbb>>>z==44JJJJJJJJJJsshhNNNNNNOO==NNNN==OOOOOOOOOOOOOO  tttttttz>>>>>>>>>>>>>>>>>>>>>>>>>>>",
">>>>>>>>>>>>>>>>>>bddddddddddddddddddbb>>>z==44JJJJJJJJJJsshhNNNNNNOO==NNNN==OOOOOOOOOOOOOO  tttttttz>>>>>>>>>>>>>>>>>>>>>>>>>>>",
">>>>>>>>>>>>>>>>>>bddddddddddddddddddbb>>>z==    JJJJJJJJJJ44hhNNNN==NNNNNNhh==OOOOOOOOOOOO  tttttttz>>>>>>>>>>>>>>>>>>>>>>>>>>>",
">>>>>>>>>>>>>>>>>>bddddddddddddddddddbb>>>z==    JJJJJJJJJJ44hhNNNN==NNNNNNhh==OOOOOOOOOOOO  tttttttz>>>>>>>>>>>>>>>>>>>>>>>>>>>",
">>>>>>>>>>>>>>>>>>bddddddddddddddddddbb>>>z==  JJ  JJJJJJJJJJ44NNNN==NNNNNNNNii==OOOOOOOOOO  tttttttz>>>>>>>>>>>>>>>>>>>>>>>>>>>",
">>>>>>>>>>>>>>>>>>bddddddddddddddddddbb>>>z==  JJ  JJJJJJJJJJ44NNNN==NNNNNNNNii==OOOOOOOOOO  tttttttz>>>>>>>>>>>>>>>>>>>>>>>>>>>",
">>>>>>>>>>>>>>>>>>bddddddddddddddddddbb>>>z==##    JJJJJJJJJJssNNNNNNNNNNiiiihh==OOOOOOOOOO  tttttttz>>>>>>>>>>>>>>>>>>>>>>>>>>>",
">>>>>>>>>>>>>>>>>>bddddddddddddddddddbb>>>z==##    JJJJJJJJJJssNNNNNNNNNNiiiihh==OOOOOOOOOO  tttttttz>>>>>>>>>>>>>>>>>>>>>>>>>>>",
">>>>>>>>>>>>>>>>>>wVVVVVVVVVVVVVVVVVVww>>>q==      JJJJJJJJJJssNNNNNNNNiiiihhNN==OOOOOOOOOO  tttttttz>>>>>>>>>>>>>>>>>>>>>>>>>>>",
">>>>>>>>>>>>>>>>>>>wweeeeeeeeeeeeeeew>>>>>>==      JJJJJJJJJJssNNNNNNNNiiiihhNN==OOOOOOOOOO  tttttttz>>>>>>>>>>>>>>>>>>>>>>>>>>>",
">>>>>>>>>>>>>>>>>>>wweeeeeeeeeeeeeeew>>>>==ii    JJJJJJJJJJJJssNNNNNNiiNNNNNNNN==OOOOOOOOOO  tttttttb>>>>>>>>>>>>>>>>>>>>>>>>>>>",
">>>>>>>>>>>>>>>g>>>>>>>>>>>>>>>>>>>>>>>>>==ii    JJJJJJJJJJJJssNNNNNNiiNNNNNNNN==OOOOOOOOOO  bbBbVvV>>>>>>>>>>>>>>>>>>>>>>>>>>>>",
">>>>>>>>>>gg5>>55>>xxxxxxxxxxxxxxxxxx>>>>44iissJJJJJJJJJJJJJJ44NNNNNNNNNNNNiiNN==OOOOOOOOOO  qqqqqeq>>>>>>>>g5>>>>>>>>>>>>>>>>>>",
">>>>>>>>>>>g55>;5>AxxxxxxxxxxxxxxxxxxAA>>44iissJJJJJJJJJJJJJJ44NNNNNNNNNNNNiiNN==OOOOOOOOOO  >>>>>>>>>>g5>>5g;>>>>>>>>>>>>>>>>>>",
">>>>>>>>>>>;555;>5AxxxxxxxxxxxxxxxxxxAA44NNiiii44JJJJJJJJJJ44iiNNNNNNNNii==NN==OOOOOOOOOOOO  xxxxxxx>>>;55>55>>>>>>>>>>>>>>>>>>>",
">>>>>>>>>>g5;55>HHAxxxxxxxxxxxxxxxxxxAA44NNiiii44JJJJJJJJJJ44iiNNNNNNNNii==NN==OOOOOOOOOOOO  xxxxxxxA>>>;555;>>>>>>>>>>>>>>>>>>>",
">>>>>>>>>>;55;5HjjAxxxxxxxxxxxxxxxxxxAA==NNNNssii44ssssJJssiiiiNNNNNNNNOOOO==OOOOOOOOOOOOOO  xxxxxxxS>>>;55;>>>>>>>>>>>>>>>>>>>>",
">>>>>>>>>>>;5;;-HHAxxxxxxxxxxxxxxxxxxAA==NNNNssii44ssssJJssiiiiNNNNNNNNOOOO==OOOOOOOOOOOOOO  xxxxxxxS>>>>;5>>>>>>>>>>>>>>>>>>>>>",
">>>>>>>>>>>>>>>>--AxxxxxxxxxxxxxxxxxxAA==NNNNNNssiiiiii44iissNNNNNNNNNNOOOOOOOOOOOOOOOOOO  xxxxxxxxxS>>>>>>>>>>>>>>>>>>>>>>>>>>>",
">>>>>>>>>>>>GG>>>HAxxxxxxxxxxxxxxxxxxAA==NNNNNNssiiiiii44iissNNNNNNNNNNOOOOOOOOOOOOOOOOOO  xxxxxxxxxS>>>>>>>>>>>>>>>>>>>>>>>>>>>",
">>>>>>>>>>>>jG>>HjAxxxxxxxxxxxxxxxxxxAA44hhNNNNNNNNNNNNiissNNNNNNNNNNNNNNOOOOOOOOOOOOOOOO  xxxxxxxxxA>>>>>>>>>>>>>>>>>>>>>>>>>>>",
">>>>>>>>>>>>-->>HHAxxxxxxxxxxxxxxxxxxAA44hhNNNNNNNNNNNNiissNNNNNNNNNNNNNNOOOOOOOOOOOOOOOO  xxxxxxxxxA>>>>>>>>>>>>>>>>>>>>>>>5gg>",
">>>>>>>>>>>>>>>>--AxxxxxxxxxxxxxxxxxxAA==hhaaiiNNNNNNNNNNNNNNNNNNNNNNNNNNOOOOOOOOOOOOOO  xxxxxxxxxxxA>>>>>>>>>>>>>>>>>>>>>>55g>>",
">>>>>>>>>>>>>>>>>>AxxxxxxxxxxxxxxxxxxAA==hhaaiiNNNNNNNNNNNNNNNNNNNNNNNNNNOOOOOOOOOOOOOO  xxxxxxxxxxxA>>>>>>>>>>>>>>>>>>>>>>55;>>",
">>>>>>>>>>>>>>>>>>AxxxxxxxxxxxxxxxxxxAA>>==hhNNNNNNNNNNNNNNNNNNNNNNNNNNNNOOOOOOOOOOOO  SxxxxxxxxxxxxA>>>>>>>>>>>>>>>>>>>>>>;;>>>",
">>>>>>>>>>>>>>>>>>AxxxxxxxxxxxxxxxxxxAA>>==hhNNNNNNNNNNNNNNNNNNNNNNNNNNNNOOOOOOOOOOOO  Sxxxx5xxxxxxxS>>>>>>>>>>>>>>>>>>>>>>>>>>>",
">>>>>>>>>>>>>>>>>>AxxxxxxxxxxxxxxxxxxAA>>>b==44hhNNNNNNNNNNNNNNNNNNNNNNNNOOOOOOOOOO  >>AxxxggxxxxxxxV>>>>>>>>>>>>>>>>>>>>>>>>>>>",
">>>>>>>>>>>>>>>>>>AxxxxxxxxxxxxxxxxxxAA>>>v==44hhNNNNNNNNNNNNNNNNNNNNNNNNOOOOOOO$OO  >>wFF5g:FFFFFFFr>>>>>>>>>>>>>>>>>>>>>>>>>>>",
">>>>>>>>>>>>>>>>>>AxxxxxxxxxxxxxxxxxxAA>>>vvddd==444444NNNNNNNNNNNNNNhh==44OOOO    e>>>>qr55rrrrrrrr>>>>>>>>>>>>>>>>>>>>>>>>>>>>",
">>>>>>>>>>>>>>>>>>AxxxxxxxxxxxxxxxxxxAA>>>vbddd==444444NNNNNNNNNNNNNNhh==44OOOO    >>>>>>>>>>>>>>>>>>>>>>>>>>>>>>>>>>>>>>>>>>>>>",
">>>>>>>>>>>>>>>>>>AxxxxxxxxxxxxxxxxxxAA>>>bbddddddddddd44iiiiiiiiii44==>>44    >>>>>>>>>>>>>>>>>>>>>>>>>>>>>>>>>>>>>>>>>>>>>>>>>",
">>>>>>>>>>>>>>>>>>rFFFFFFFFFFFFFFFFFFee>>>wwVVVVVVVVVVV44iiiiiiiiii44==>>44    >>>>>>>>>>>>>>>>>>>>>>>>>>>>>>>>>>>>>>>>>>>>>>>>>",
">>>>>>>>>>>>>>>>>>rFFFFFFFFFFFFFFFFFFee>>>wwVVVVVVVVV%%%%%%ii%%  %%  >>>>>>>>>>$$$$$$$$>>>>>>>>>>>>>>>>>>>>>>>>>>>>>>>>>>>>>>>>>",
">>>>>>>>>>>>>>>>>>>eeerrrrrrrrrrreeee>>>>>>>wwwwwwwww%%%%%%ii%%  %%  >>>>>>>>>>$$$$$$$$>>>>>>>>>>>>>>>>>>>>>>>>>>>>>>>>>>>>>>>>>",
">>>>>>>>>>>>>>>>>>>>>>>>>>>>>>>>>>>>>>>>>>>>>>>>>5g>>iiNN  ssNNNNii    >>>>>>>>$$4444$$sx$$$$>>>>>>>>>>>>>>>>>>>>>>>>>>>>>>>>>>>",
">>>>>>>>>>>>>>>>>>>>>>>>>>>>>>>>>>>>>>>>>>>>>>>>>>gp>iiNN  ssNNNNii    >>>>>>>>$$4444$$xs$$$$>:::>>>>>>>>>>>>>>>>>>>>>>>>>>>>>>>",
">>>>>>>>>>>>>>>>>>>>>>>>>>>>>>>>>>>>>>>>>>>>>>>>>::iiNN  JJ%%NNNNNNii  >>>>>>OOOO44ls$$4444==>:::>>>>>>>>>>>>>>>>>>>>>>>>>>>>>>>",
">>>>>>>>>>>>>>>>>>>>>>>>>>>>>>>>>>>>>>>>>>>>>>>>>>3iiNN  JJ%%NNNNNNii  xxxxxxOOOO44xs$$4444==tlllllltltlddddd>>>>>>>>>>>ff>>>>ff",
">>>>>>>>>>>>>>>>>>>>>>>>>>>>>>>>>>>>>>>>>>>>>>>>>>>iiNNss    iiNNNNNNiixxxxxxxx$$O$O$44OOOO$O$$tlttllltldddddx>>>>>>>>>>>ff>>>f>",
">>>>>>>>>>>>>>>>>>>>>>>>>>>>>>>>>>>>>>>>>>>>>>>>>>GiiNNss    iiNNNNNNiixxxxxxxx$$OOOO44OOOOOO$$llttllltlddddlx>>>>>>>>>>>55>f>:>",
">>>>>>>>>>>>>>>>>>>>>>>5g>>>>55>>>>>>>>>>>>>>>>>>iiNNNN  JJ    iiNNNNNN%%xxxxxxxx$$OO$$$$OO$$lltlllltltlddddlx>>>>>>>>>>>MM>>f:>",
">>>>>>>>>>>>>>>>>>>>>>>>gg>>55>>>>>>>>>>>>>>>>>>>iiNNNN  JJ    iiNNNNNN%%xxxxxxxx$$OO$$$$OO$$llltlltltllddddlx>>>>>>>>>>MppM;;>>",
">>>>>>>>>>>>>>>>>>>>>>>>;55>55>>>>>>>>>>>>>>>>>>>%=              iiNNNNNNNNiixxxxxxxbV>$$OOllttltlltllltddddlx>>>>>>>>>>-MM;>>>>",
">>>>>>>>>>>>>>>>>>>>>>>>;55>>lddltllttlld>>>>dtld%%              iiNNNNNNNNiixxxxxxxAA>$$OOdlttllllttlllttlllx>>>>>>>>>>>-->>>>>",
">>>>>>>>>>>>>>>>>>>>>>>>>:;>xdddlltlllltdv>>vdlld                ii%%NNNNNNiiiixxxxOOA>>>xxdllllltlllltlllltlx>>>>>>>>>>>>>>>>>>",
">>>>>>>>>>>>>>>>>>>>>>>>>>>>bdddttllllltdv>>blltd                ii%%NNNNNNiiiixxxxOOA>>>xxdtllttltlltltllltll>>>>>>>>>>>>>>>>>>",
">>>>>>>>>>>>>>>>>>>>>>>>>>>>bdddllltttlldv>>b                      NNNNNNNNNN%%%%$$OO$$$$OO$$lltlltlltllttlllx>>>>>>>>>>>>>>>>>>",
">>>>>>>>>>>>>>>>>>>>>>>>>>>>vdddtlllllltdv>>b                      NNNNNNNNNN%%%%$$OO$$$$OO$$ltlltltlltllltlll>>>>>>>>>>>>>>>>>>",
">>>>>>>>>>>>>>>>>>>>>>>>>>>>vdddllttltlldv>                        iiNNNNNNNNii$$44ss$$OO4444$$lllltltllltllll>>>>>>>>>>>>>>>>>>",
">>>>>>>>>>>>>>>>>>>>>>>>>>>>blddltlltltldv>                        iiNNNNNNNNii$$44ss$$OO4444$$ltttlllttllttlx>>>>>>>>>>>>>>>>>>",
">>>>>>>>>>>>>>>>>>>>>>>>>>>>ntddlltllltld                          iiiiNNNN%%%%xx44OO$$44ss==$$tljtttllltllllx>>>>>>>>>>>>>>>>>>",
">>>>>>>>>>>>kk>>>>>>>>>>>>>>nlddttllddddd                          iiiiNNNN%%%%xx44OO$$44ss==$$ldddddddddddddZ>>>>>>>>>>>>>>>>>>",
">>>>>>>>>>>kppk>MM>>>>>>>>>>vdddllltddddd                            %%%%ii%%  $$$$OO$$44OOOO$$ldddddddddddZZw>>>>>>>>>>>>>>>>>>",
">>>>>>>>>>>-kk-MpM>>>>>>>>>>vdddllltddddd                            %%%%ii%%  $$$$OO$$44OOOO$$tddddddddddZww>>>>>>>>>>>>>>>>>>>",
">>>>>>>>>>>>-->MM->>>>>>>>>>vdddttlldddldJJ                                      xxOOS>$$OO$$tllddddddddddZww>>>>>>>>>>>>>>>>>>>",
">>>>>>>>>>>>>>>-;>>>>>>>>>>>xdddlltdddtg5JJ                                      xxOOA>$$OO$$tltdtzdttddZZw>>>>>>>>>>>>>>>>>>>>>",
">>>>>>>>>>>>>>>>>>>>>>>>>>>>qZSSxxg5ZZ5g;>>sl                                ssFFFFFww>>>wwVSAASZZZZVVDZww>>>>>>>>>>>>>>>>>>>>>>",
">>>>>>>>>>>>>>>>>>>>>>>>>>>>>weq3e:f5w55>>>ss                                ssFFFFFww>>>wwASASSVVZZZVZZww>>>>>>>>>>>>>>>>>>>>>>",
">>>>>>>>>>>>>>>>>>>>>>>>>>>>>>>>>>>:555;>>>>>JJjs                        ssJJrrrrrr$$$$$$>>wwwqewwwwwwww>>>>>>>>>>>>>>>>>>>>>>>>",
">>>>>>>>>>>>>>>>>>>>>>>>>>>>>dddlll;55:>>>>>>JJss                        ssJJ>>>>>>$$$$$$>>>>>>>>>>>>>>>>>>>>>>>>>>>>>>>>>>>>>>>",
">>>>>>>>>>>>>>>>>>>>>>>>>>>>xdddttlt:>>>>>>>>>>ttssJJssJJssssssssJJssJJss>>>>>>>>>>OOss==$$ss$$$$>>5>>>>>>>>>>>>>>>>>>>>>>>>>>>>",
">>>>>>>>>>>>>>>>>>>>>>>>>>>>xdddlllllldt>>>>>>tttssJJssJJssssssssJJssJJssdddddddd>>OOss==$$ss$$$$dddZ>>>ddddd>>>>>>>>>>>>>>>>>>>",
">>>>>>>>>>>>>>>>>>>>>>>>>>>>xdddlttlltzttV>>t<11<<<<<  44  4444  o1<1111111111ddd>>OOOOOOOOss==$$tddz>>>ddddd>>>>>>>>>>>>>>>>>>>",
">>>>>>>>>>>>>>>>>>>>>>>>>>>>xlldlltltzddtV>5V<<<<<<<<  44  4q44  7111111111111dddddOOOOOOOOss==$$tttZ>>tddddtc>>>>>>>>>>>>>>>>>>",
">>>>>>>>>>>>>>>>>>>>>>>>>>>>xlddtltldz1166Xoo1<<<<<<<<<    ss%4  811111111111111111OOOOOOOOOOOO$$tBVqtdldddddB>>>>>>>>>>>>>>>>>>",
">>>>>dddddddddd>>>>>>>>>>>>>vlllltlldt<666o*&<<<<<<<<<<    ssqq  711111111111111111OOOOOOOOOOOO$$lSSeddddddddB>>>>>>>>>>>>>>>>>>",
">>>>dddddddddddb>>>>>>>>>>>>llttlllt111<<6&*.<<<<<<<<<<$$$$ssss$$711111111111111111177o>>bbOO5lbBVeq>dddddddtc>>>>>>>>>>>>>>>>>>",
">>bddddddddddddb>>>>>>>>>>>>bddddddd111118o&6<<<<<<<<<<O$$$ssss$$711111111111111111177o>>fgOObbwqq>>>dddltlllx>>>>>>>>>>>>>>>>>>",
">>bddddddddddddb>>>>>>>>>>>>bddddd11111118XX6<<<<<<<<<1 $$$uuyy$$711111111111111111177ooogggbBbweq>>>dddltlttx>>>>>>>>>>>>>>>>>>",
">>bddddddddddddb>>>>>>>>>>>>bddddd11111118oo8<<<<<<<<<1$$$$uuyy$$711111111111111111177oo&55:qew>>>>>ddddlltllv>>>>>>>>>>>>>>>>>>",
">>bddddddddddddb>>>>>>>>>>>>bddddd11111118oo1<<<<<<<<<1$$$$ssss$$711111111111111111177oo&55:>>>>>>tlddddtllldx>>>>>>>>>>>>>>>>>>",
">>bddddddddddddb>>>>>>>>>>>>xddddd11111118oo8<<<<<<<<11$$$$ssjl$$711111111111111111177oo&55:>>>>>>ddddddlltttx>>>>>>>>>>>>>>>>>>",
">>bddddddddddddb>>>>>>>>>>>>qSVS999999999@X&@9818888181####yyyy##711111111111111111177oo&XX>>>>dddddddddtllltB>>>>>>>>>>>>>>>>>>",
">>bddddddddddddb>>>>>>>>>>>>>eqe@@@@@@@@@X&Xo@@+@@@@@@@####yyyy##711111111111111111177ooooo>ddddddddddddtllllB>>>>>>>>>>>>>>>>>>",
">>bddddddddddddV>>>>>>>>>>>>>>>>oooooooo&&X&..o%2oo##############711111111111111111177ooooo>ddddddddddddlltttv>>>>>>>>>>>>g>>>>>",
">>bddddddddddddS>>>>>>>>>>>>>>g>ooooooooooooooo..oo##############711111111111111111177ooo88dddddddddddddddddtZ>>>>>>>>>>>55>>5gf",
">>bdddddddddVSVq>>>>>>>5gg>>>g>>ooooooooooooooooo####aauuuuyy44  711111111111111111177ooo88dddddddddddddddddtv>>>>>>>>f>>5:>55f>",
">>bddddldddVqeq>>>>>>>>>g55>gg>>ooooooooooooooooo####aauuuuyy44  711111111111111111177ooo88ddddddddddddddddddA>>>>>>>>:55>:555:>",
">>qVVAASSSSq>55gg>>>>>>>;55>55>>oooooooooooooooooOOO$xlxxjx4444OO711111111111111111999ooo88dddddddddddddddddtv>>>>>>>>:55GG55:5f",
">>>eqeeqqeq>>55g>>>>>>>>>;5;5;>>oooooooooooooooooOOOOlljssz4444OO7111111111111999&&***ooo88lddddddtlddtlddtldA>>>>>>>>>:GjjG:55:",
">>>>>>>>>>>>>55;>>>>>>>>>>;>;>>>oooooooooooooooooooOOOOOO$O  $Ooo7111111111111999&&***ooo88lddddddltddltddlttz>>>>>>>>>>-GG-:5:>",
">>>>>>>>5g>>>5;>>>>>ddddddddddd>oooooooooooooooooooOOOO.OOO  OOoo@999999999999@@@@@*&&&&o@@VVVAVSSSBSSSZSSAZSq5>>ff5>>>>>--GG>>>",
">>>>>>>>:g5>>:5g>>>ddddddddddddbooooooooooooooooooooXX$&$&3,3X&ooo@@@@@@@@@@@@oooooX&&&&ooowwwwwwwwwwwwwwwwwe>>>>>f55HH>>>>jG>>>",
">>>>>>>>>55>>55;>>bddddddddddddboooooooooooooooooooooooooo33.ooooo@@@@@@@@@@@@oooooX&&&&ooowwwwwwwwwwwwwwwweq>>>>>:5HjjH>>>-->>>",
">>>>>>>>>;5;55;>>>bddddddddddddboooooooooooooooooooooooooo..ooooooooooooooo.00.oooooooooooo>>>>>>>>>>>>>>>>>>>>>>>>:-HH->>>>>>>>",
">>>>>>>>>>;;55;>>>bddddddddddddb>>oooooooooooooooooooooooooooooooooooooooooo..ooooooooooo>>>>>>>>>>>>>>>>>>>>>>>>>>>>-->>>>>>>>>",
">>>>>>>>>>>>5;>>>>bddddddddddddb>>ooooo**oooo&&oooooooooooooooooooooooooooooooooooooooooo>>>>>>>>>>>>>>>>>>>>>>>>>>>>>>>>>>>>>>>",
">>>>>>>>>>>>>>>>>>bddddddddddddb>>oooooo*&o33&ooooooooooooooooooo**oooooooooooooooooooooo>>>>>>>>>>>>>>>>>>>>>>>>>>>>>>>>>>>>>>>",
">>>>>>>>>>>>>>>>>>bddddddddddddb>>ooooooX&&3%&oooooooooooooo&oo&&*ooooooooooooooooooooooo>>>>>>>>>>>>>>>>>>>>>>>>>>>>>>>>>>>>>>>",
">>>>>>>>>>>>>>>>>>bddddddddddddb>>>>ooooX&&..Xoooooooooooooo**X&&Xooooooooooooooooooooo>>>>>>>>>>>>>>>>>>>>>>>>>>>>>>>>>>>>>>>>>",
">>>>>>>>>>>>>>>>>>bddddddddddddb>>>>oooooXXo.Xoooooooooooooo*&&XXoooooooooooooooooooooo>>>>>>>>>>>>>>>>>>>>>>>>>>>>>>>>>>>>>>>>>",
">>>>>>>>>>>>>>>>>>bddddddddddddb>>>>>>>>>>>oooooooooooooooooX&&ooooooooooooooooo>>>>>>>>>>>>>>>>>>>>>>>>>>>>>>>>>>>>>>>>>>>>>>>>",
">>>>>>>>>>>>>>>>>>bdddddddSSVVV>>>>>>>>>>>>ooooooooooooooooooooooooooooooooooooo>>>>>>>>>>>>>>>>>>>>>>>>>>>>>>>>>>>>>>>>>>>>>>>>",
">>>>>>>>>>>>>>>>>>bdddddVSeqeeq>>>>>>>>>>>>>>ooooooooooooooooooooooooooooooooo>>>>>>>>>>>>>>>>>>>>>>>>>>>>>>>>>>>>>>>>>>>>>>>>>>",
">>>>>>>>>>>>>>>>>>wVVVVVqe>>>>>>>>>>>>>>>>>>>ooooooooooooooooooooooooooooooooo>>>>>>>>>>>>>>>>>>>>>>>>>>>>>>>>>>>>>>>>>>>>>>>>>>",
">>>>>>>>>>>>>>>>>>>wqeww>>>>>>>>>>>>>>>>>>>>>>>>>>>ooooooooooooooooooooo>>>>>>>>>>>>>>>>>>>>>>>>>>>>>>>>>>>>>>>>>>>>>>>>>>>>>>>>",
">>>>>>>>>>>>>>>>>>>>>>>>>>>>>>>>>>>>>>>>>>>>>>>>>>>>>>>>>>>>>>>>>>>>>>>>>>>>>>>>>>>>>>>>>>>>>>>>>>>>>>>>>>>>>>>>>>>>>>>>>>>>>>>>",
">>>>>>>>>>>>>>>>>>>>>>>>>>>>>>>>>>>>>>>>>>>>>>>>>>>>>>>>>>>>>>>>>>>>>>>>>>>>>>>>>>>>>>>>>>>>>>>>>>>>>>>>>>>>>>>>>>>>>>>>>>>>>>>>",
">>>>>>>>>>>>>>>>>>>>>>>>>>>>>>>>>>>>>>>>>>>>>>>>>>>>>>>>>>>>>>>>>>>>>>>>>>>>>>>>>>>>>>>>>>>>>>>>>>>>>>>>>>>>>>>>>>>>>>>>>>>>>>>5"
};
