/* XPM */
static char *_bb3ca47baa24657d0798a572a60a7d2BcD7Obvxp09kHQ9f[] = {
/* columns rows colors chars-per-pixel */
"128 128 3 1 ",
"  c None",
". c #D95763",
"X c #D77BBA",
/* pixels */
"                                                                                                                                ",
"                                                                                                                                ",
"                                                                                                                                ",
"                                                                                                                                ",
"                                                                                                                                ",
"                                                                                                                                ",
"                                                                                                                                ",
"                                                                                                                                ",
"                                                                                                                                ",
"                                                                                                                                ",
"                                                                                                                                ",
"                                                                                                                                ",
"                                                                                                                                ",
"                                                                                                                                ",
"                                                                                                                                ",
"                                                                                                                                ",
"                                ................................................................                                ",
"                                ................................................................                                ",
"                                ................................................................                                ",
"                                ................................................................                                ",
"                                ................................................................                                ",
"                                ................................................................                                ",
"                                ................................................................                                ",
"                                ................................................................                                ",
"                                ................................................................                                ",
"                                ................................................................                                ",
"                                ................................................................                                ",
"                                ................................................................                                ",
"                                ................................................................                                ",
"                                ................................................................                                ",
"                                .........XXXXXXXXXXXXXXXXXXXXXXXX...............................                                ",
"                                .........XXXXXXXXXXXXXXXXXXXXXXXXXXX............................                                ",
"                                .........XXXXXXXXXXXXXXXXXXXXXXXXXXXXXXX........................                                ",
"                                .........XXXXXXXXXXXXXXXXXXXXXXXXXXXXXXXXX......................                                ",
"                                .........XXXXXXXXXXXXXXXXXXXXXXXXXXXXXXXXXX.....................                                ",
"                                .........XXXXXXXXXXXXXXXXXXXXXXXXXXXXXXXXXXX....................                                ",
"                                .........XXXXXXXXXXXXXXXXXXXXXXXXXXXXXXXXXXXX...................                                ",
"                                .........XXXXXXXXXXXX..........XXXXXXXXXXXXXX...................                                ",
"                                .........XXXXXXXXXXXX...........XXXXXXXXXXXXX...................                                ",
"                                .........XXXXXXXXXXXX.............XXXXXXXXXXXX..................                                ",
"                                .........XXXXXXXXXXXX.............XXXXXXXXXXXX..................                                ",
"                                .........XXXXXXXXXXXX..............XXXXXXXXXXX..................                                ",
"                                .........XXXXXXXXXXXX...............XXXXXXXXXX..................                                ",
"                                .........XXXXXXXXXXXX...............XXXXXXXXXXX.................                                ",
"                                .........XXXXXXXXXXXX...............XXXXXXXXXXX.................                                ",
"                                .........XXXXXXXXXXXX...............XXXXXXXXXXX.................                                ",
"                                .........XXXXXXXXXXXX...............XXXXXXXXXXX.................                                ",
"                                .........XXXXXXXXXXXX..............XXXXXXXXXXXX.................                                ",
"                                .........XXXXXXXXXXXX..............XXXXXXXXXXX..................                                ",
"                                .........XXXXXXXXXXXX.............XXXXXXXXXXXX..................                                ",
"                                .........XXXXXXXXXXXX............XXXXXXXXXXXXX..................                                ",
"                                .........XXXXXXXXXXXX........XXXXXXXXXXXXXXXX...................                                ",
"                                .........XXXXXXXXXXXXXXXXXXXXXXXXXXXXXXXXXXXX...................                                ",
"                                .........XXXXXXXXXXXXXXXXXXXXXXXXXXXXXXXXXXX....................                                ",
"                                .........XXXXXXXXXXXXXXXXXXXXXXXXXXXXXXXXXX.....................                                ",
"                                .........XXXXXXXXXXXXXXXXXXXXXXXXXXXXXXX........................                                ",
"                                .........XXXXXXXXXXXXXXXXXXXXXXXXXXXX...........................                                ",
"                                .........XXXXXXXXXXXXXXXXXXXXXXXXX..............................                                ",
"                                .........XXXXXXXXXXXXXXXXXXXXX..................................                                ",
"                                .........XXXXXXXX...............................................                                ",
"                                .........XXXXXXXX...............................................                                ",
"                                .........XXXXXXXX...............................................                                ",
"                                .........XXXXXXXX...............................................                                ",
"                                .........XXXXXXXX...............................................                                ",
"                                .........XXXXXXXX...............................................                                ",
"                                .........XXXXXXXX...............................................                                ",
"                                .........XXXXXXXX...............................................                                ",
"                                .........XXXXXXXX...............................................                                ",
"                                .........XXXXXXXX...............................................                                ",
"                                .........XXXXXXXX...............................................                                ",
"                                .........XXXXXXXX...............................................                                ",
"                                .........XXXXXXXX...............................................                                ",
"                                .........XXXXXXXX...............................................                                ",
"                                .........XXXXXXXX...............................................                                ",
"                                .........XXXXXXXX...............................................                                ",
"                                .........XXXXXXXX...............................................                                ",
"                                .........XXXXXXXX...............................................                                ",
"                                .........XXXXXXXX...............................................                                ",
"                                .........XXXXXXXX...............................................                                ",
"                                .........XXXXXXXX...............................................                                ",
"                                .........XXXXXXXX...............................................                                ",
"                                .........XXXXXXXX...............................................                                ",
"                                .........XXXXXXXX...............................................                                ",
"                                .........XXXXXXXX...............................................                                ",
"                                .........XXXXXXXX...............................................                                ",
"                                .........XXXXXXXX...............................................                                ",
"                                .........XXXXXXXX...............................................                                ",
"                                .........XXXXXXXX...............................................                                ",
"                                .........XXXXXXXX...............................................                                ",
"                                .........XXXXXXXX...............................................                                ",
"                                .........XXXXXXXX...............................................                                ",
"                                .........XXXXXXXX...............................................                                ",
"                                .........XXXXXXXX...............................................                                ",
"                                .........XXXXXXXX...............................................                                ",
"                                .........XXXXXXXX...............................................                                ",
"                                .........XXXXXXXX...............................................                                ",
"                                .........XXXXXXXX...............................................                                ",
"                                .........XXXXXXXX...............................................                                ",
"                                .........XXXXXXXX...............................................                                ",
"                                .........XXXXXXXX...............................................                                ",
"                                ................................................................                                ",
"                                ................................................................                                ",
"                                ................................................................                                ",
"                                ................................................................                                ",
"                                ................................................................                                ",
"                                ................................................................                                ",
"                                ................................................................                                ",
"                                ................................................................                                ",
"                                ................................................................                                ",
"                                ................................................................                                ",
"                                ................................................................                                ",
"                                ................................................................                                ",
"                                                                                                                                ",
"                                                                                                                                ",
"                                                                                                                                ",
"                                                                                                                                ",
"                                                                                                                                ",
"                                                                                                                                ",
"                                                                                                                                ",
"                                                                                                                                ",
"                                                                                                                                ",
"                                                                                                                                ",
"                                                                                                                                ",
"                                                                                                                                ",
"                                                                                                                                ",
"                                                                                                                                ",
"                                                                                                                                ",
"                                                                                                                                "
};
