/* XPM */
static char *player_down1754595505[] = {
/* columns rows colors chars-per-pixel */
"128 128 71 1 ",
"  c #36170C",
". c #3D1D0C",
"X c #35380D",
"o c #383B0C",
"O c #3D3E0F",
"+ c #392A1C",
"@ c #333127",
"# c #353328",
"$ c #550F0A",
"% c #45230D",
"& c #773421",
"* c #7D3920",
"= c #404212",
"- c #444514",
"; c #724113",
": c #636917",
"> c #656C17",
", c #686F16",
"< c #72751B",
"1 c #564020",
"2 c #42423B",
"3 c #44443D",
"4 c #655123",
"5 c #695922",
"6 c #644838",
"7 c #684C3C",
"8 c #787B21",
"9 c #464541",
"0 c #484743",
"q c #484843",
"w c #494844",
"e c #4B4A46",
"r c #5F5E5A",
"t c #605C48",
"y c #64604B",
"u c #66624D",
"i c #6C6852",
"p c #7C7B6E",
"a c #9B1A0A",
"s c #EF3A0C",
"d c #AB5C1C",
"f c #964C3A",
"g c #A2783C",
"h c #EF692F",
"j c #927E6A",
"k c #807F72",
"l c #7F8124",
"z c #7F8226",
"x c #EFAC28",
"c c #A2814F",
"v c #BD9842",
"b c #828175",
"n c #848279",
"m c #878679",
"M c #87867D",
"N c #88867D",
"B c #88877E",
"V c #8A8A7D",
"C c #C6A740",
"Z c #EFB775",
"A c #8C8A81",
"S c #8D8B83",
"D c #8D8C82",
"F c #8D8C83",
"G c #8E8C83",
"H c #8E8C84",
"J c #8E8D84",
"K c #939189",
"L c #9CA8AD",
"P c #B3B0A9",
"I c #EFD8A1",
/* pixels */
"<<<<<<<<<<<<<<<<<<<<<<<<<<<<<<<<<<<<<<<<<<<<<<<<<<<<<<<<<<<<<<<<<<<<<<<<<<<<<<<<<<<<<<<<<<<<<<<<<<<<<<<<<<<<<<<<<<<<<<<<<<<<<<<<",
"<<<<<<<<<<<<<<<<<<<<<<<<<<<<<<<<<<<<<<<<<<<<<<<<<<<<<<<<<<<<<<<<<<<<<<<<<<<<<<<<<<<<<<<<<<<<z88<<<<<<<<<<<<<<<<<<<<<<<<<<<<<<<<<",
"<<<<<<<<<<<<<<<<<<<<<<<<<<<<<<<<<<<<<<<<<<<<<<<<<<<<<<<<<<<<<<<<<<<<<<<<<<<<<<<<<<<<<<<<<<<<<888<<kkkkkkkkkkkk<<<<<<<<<<<<<<<<<<",
"<<<<<<<<<<<<<<<<<<<<<<<<<<<<<<<<<<<<<<<<<<<<z<<<<<<<<<<<<<<<<<<<<<<<<<<<<<<<<<<<<<<<<<<<<<<<<<>><NkkkkkkkkkkkkN<<<<<<<<<<<<<<<<<",
"<<<<<<<<<<<<<<<<<<<<<<<<<<<<<<<<<<<<<<<<<<<<88<<<<<<<<<<<<<<<<<<<<<<<<<<<<<<<<<<<<<<<<<<<<<<<<<<<NkkkkkkkkkkkkN<<<<<<<<<<<<<<<<<",
"<<<<<<<<<<<<<<<<<<<<<<<<<<<<<<<<<<<<<<<<zz8<>8<<<<<<<<<<<<<<<<<<<<<<<<<<<<<<<<z<<<<<<<<<<<<<<<<<<NkkkkkkkkkkkkN<<<<<<<<<<<<<<<<<",
"<<<<<<<<<<<<<<<<<<<<<<<<<<<<<<<<<<<<<<<<<z88>><zz8<<<<<<<<<<<<<<<<<<<<<8zz<<<z<<<<<<<<<<<<<<<<<<<NkkkkkkkkkkkkN<<<<<<<<<<<<<<<<<",
"<<<<<<<<<<<<<<<<<<<<<<<<<<<<<<<<<<<<<<8z<>88<>88z<<<<<<<<<<<<<<<<<<<<<<<z88<zz<<<<<<<<<<<<<<<<<<<NkkkkkkkkkkkkN<<<<<<<<<<<<<<<<<",
"<<<<<<<<<<<<<<<<<<<<<<<<<<<<<<<<<<<<<<<z88>8<888<<<<<<<<++%%++++%%++<<<<>88<PP<<<<<<<<<<<<<<<<<<<NkkkkkkkkkkkkN<<<<<<<<<<<<<<<<<",
"<<<<<<<<<<<<<<<<<<<<<<<<<<<<<<<<<<<<<<<>88<>>88><<<<<<<<++%%++++%%++<<<<<>8PccP<<<<<<<<<<<<<<<<<<NkkkkkkkkkkkkN<<<<<<<<<<<<<<<<<",
"<<<<<<<<<<<<<<<<<<<PP<<<<<<<<<<<<<<<<<<<>8<<>>><<<++++%%;;77;;;;77;;%%++++>:PP:<<<<<<<<<<<<<<<<<<NkkkkkkkkkkkkN<<<<<<<<<<<<<<<<<",
"<<<<<<<<<<<<<<<<<<PccP<<<<<<<<<<<<<<<<<<<><88<<<<<++++%%;;77;;;;77;;%%++++<<::<<<<<<<<<<<<<<<<<<<NkkkkkkkkkkkkN<88<<<<<<<<<<<<<<",
"<<<<<<<<<<<<<<<<<<:PP:<<<<<<<<<<<<<<<<<<<<<z><++%%;;777777++++++++777777;;%%++<<<<<<<<<<<<<<<<<<<SSSSSkkkkkkkkNz8<<<<<<<<<<<<<<<",
"<<<<<<<<<<<<<<<<<<<::<<<<<<<<<<<<<<<<<<<<<<><<++%%;;777777++++++++777777;;%%++<<<<<<<<<<<<<<<<<<<<<yyySkkkkkkkN8><<<<<<<<<<<<<<<",
"<<<<<<<<<<<<<<<<<<<<<<<<<<<<<<<<<<<<<<<<<<<<%%;;777777777777;;;;777777777777;;%%<<<<<<<<<<<<<<<<<<<<<<ySkkkkkkN8><<<<<<<<<<<<<<<",
"<<<<<<<<<<<<<<<<<<<<<<<<<<<<<<<<<<<<<<<<<<<<%%;;777777777777;;;;777777777777;;%%<<<<<<<<<<<<<<<<<<<<<<<ySSSSSS<8><<<<<<<<<<<<<<<",
"<<<<<<<<<<<<<<<<<<<<<<<<<<<<<<<<<<<<<<<<<<++;;7777777777++++++++++++7777777777;;++<<<<<<PP<<<<<<<<<<<<<<yyyyyy<><<<<<<<<<<<<<<<<",
"<<<<<<<<<<<<<<<<<<<kkkkkkkkkkkkkkkkkk<<<<<++;;7777777777++++++++++++7777777777;;++<<<<<PccP<PP<<<<<<<<<<<<<<>><<<<<<<<<<<<<<<<<z",
"<<<<<<<<<<<<<<<<<<<kkkkkkkkkkkkkkkkkk<<<%%;;77777777++++7777;;;;7777++++77777777;;%%<<<:PP:PcP<<<<<<<<<<<<<<<<<<<<<<<<<<8zz<<<z<",
"<<<<<<<<<<<<<<<<<<NkkkkkkkkkkkkkkkkkkNN<%%;;77777777++++7777;;;;7777++++77777777;;%%<<PP::<PP:<<<<<<<<<<<<<<<<<<<<<<<<<<<zLL<zz<",
"<<<<<<<<<<<<<<<<<<NkkkkkkkkkkkkkkkkkkN++;;777777++++77777777;;;;77777777++++777777;;++cP<<<::<<<<<<<<<<<<<<<<<<<<<<<<<<<<LccL88<",
"<<<<<<<<<<<<<<<<<<NkkkkkkkkkkkkkkkkkkN++;;777777++++77777777;;;;77777777++++777777;;++::<<<<<<<<<<<<<<<<<<<<<<<<<<<<<<<<<:LL:PP<",
"<<<<<<<<<<<<<<<<<<Nkkkkkkkkkkkkkkkkk%%++777777++77777777;;++%%%%++;;77777777++777777++%%<<<<<<<<<<<<<<<<<<<<<<<<<<<<<<<<<<::<cP<",
"<<<<<<<<<<<<<<<<<<Nkkkkkkkkkkkkkkkkk%%++777777++77777777;;++%%%%++;;77777777++777777++%%<<<<<<<<<<<<<<<<<<<<<<<<<<<<<<<<<<<<<::<",
"<<<<<<<<<<<<<<<<<<Nkkkkkkkkkkkkkkkkk++;;777777777777;;++%%ZZZZZZZZ%%++;;777777777777;;++<<<<<<<<<<<<<<<<<<<<<<<<<<<<<<<<<<<<<<<<",
"<<<<<<<<<<<<<<<<<<Nkkkkkkkkkkkkkkkkk++;;777777777777;;++%%ZZZZZZZZ%%++;;777777777777;;++<<<<<<<<<<<<<<<<<<<<<<<<<<<<<<<<<<<<<<<<",
"<<<<<<<<<<<<<<<<<<Nkkkkkkkkkkkkkkk%%++++7777777777;;%%ZZZZZZZZZZZZZZZZ%%;;7777777777++++%%<<<<<<<<<<<<<<<<<<<<<<<<<<<<<<<<<<<<<<",
"<<<<<<<<<<<<<<<<<<Nkkkkkkkkkkkkkkk%%++++7777777777;;%%ZZZZZZZZZZZZZZZZ%%;;7777777777++++%%pppppppppp<<<<<<<<<<<<<<<<<<<<<<<<<<<<",
"<<<<<<<<<<<<<<<<<<Nkkkkkkkkkkkkkkk++++++++7777;;%%%%ZZZZZZZZZZZZZZZZZZZZ%%%%;;7777++++++++ppppppppppn<<<<<<<<<<<<<<<<<<<<<<<<<<<",
"<<<<<<<<<<<<<<<<<<Nkkkkkkkkkkkkkkk++++++++7777;;%%%%ZZZZZZZZZZZZZZZZZZZZ%%%%;;7777++++++++ppppppppppn<<<<<<<<<<<<<<<<<<<<<<<<<<<",
"<<<<<<<<<<<<<<<<<<Nkkkkkkkkkkkkk;;;;++++++++++%%++jj77xxZZZZZZZZZZZZxx77jj++%%++++++++++;;;;ppppppppn<<<<<<<<<<<<<<<<<<<<<<<<<<<",
"<<<<<<<<<<<<<<<<<<Nkkkkkkkkkkkkk;;;;++++++++++%%++jj77xxZZZZZZZZZZZZxx77jj++%%++++++++++;;;;ppppppppn<<<<<<<<<<<<<<<<<<<<<<<<<<<",
"<<<<<<<<<<<<<<<<<<Nkkkkkkkkkkk;;xxZZ++++++%%%%IIIIIIIIjjxxZZZZZZZZxxjjIIIIIIII%%%%++++++ZZxx;;ppppppn<<<<<<<<<<<<<<<<<<<<<<<<<<<",
"<<<<<<<<<<<<<<<<<<Nkkkkkkkkkkk;;xxZZ++++++%%%%IIIIIIIIjjxxZZZZZZZZxxjjIIIIIIII%%%%++++++ZZxx;;ppppppn<<<<<<<<<<<<<<<<<<<<<<<<<<<",
"<<<<<<<<<<<<<<<<<<Nkkkkkkkkk;;ddZZZZZZ%%%%77IIIIIIIIIIII77xxZZZZxx77IIIIIIIIIIII77%%%%ZZZZZZdd;;ppppn<<<<<<<<<<<<<<<<<<<<<<<<<<<",
"<<<<<<<<<<<<<<<<<<Nkkkkkkkkk;;ddZZZZZZ%%%%77IIIIIIIIIIII77xxZZZZxx77IIIIIIIIIIII77%%%%ZZZZZZdd;;ppppn<<<<<<<<<<<<<<<<<<<<<<<<<<<",
"<<<<<<<<<<<<<<<<<<Nkkkkkkkkk;;xxddZZZZ;;jjIIIIII      IIII77ZZZZ77IIII      IIIIIIjj;;ZZZZddxx;;ppppn<<<<<<<<<<<<<<<<<<<<<<<<<<<",
"<<<<<<<<<<<<<<<<<<ySSSSSSSSS;;xxddZZZZ;;jjIIIIII      IIII77ZZZZ77IIII      IIIIIIjj;;ZZZZddxx;;ppppn<<<<<<<<<<<<<<<<<<<<<<<<<<<",
"<<<<<<<<<<<<<<<<<<<yyuuuuuuu;;ZZxxddZZ;;jjIIII      II  IIjjZZZZjjII      II  IIIIjj;;ZZddxxZZ;;ppppn<<<<<<<<<<<<<<<<<<<<<<<<<<<",
"<<<<<<<<<<<<<<<<<<<yyuuuuuuu;;ZZxxddZZ;;jjIIII      II  IIjjZZZZjjII      II  IIIIjj;;ZZddxxZZ;;ppppN<<<<<<<<<<<<<<<<<<<<<<<<<<<",
"<<<<<<<<<<<<<<<z<<<<<<<<<<<<;;ZZZZddddZZjjIIII    $$    IIjjZZZZjjII    $$    IIIIjjZZddddZZZZ;;NSMS<<<<<<<<<<<<<<<<<<<<<<<<<<<<",
"<<<<<<<<<<zz8<<88<<mmmmmmmmm;;ZZZZddddZZjjIIII    $$    IIjjZZZZjjII    $$    IIIIjjZZddddZZZZ;;ttut<<<<<<<<z8<<<<<<<<<<<<<<<<<<",
"<<<<<<<<<<<z88<>8<Gmmmmmmmmm;;ZZddZZZZZZjjIIII          IIjjZZZZjjII          IIIIjjZZZZZZddZZ;;<<<<<<<z8<<8z><<<<<<<<<<<<<<<<<<",
"<<<<<<<<<<<>888><8Gmmmmmmmmm;;ZZddZZZZZZjjIIII          IIjjZZZZjjII          IIIIjjZZZZZZddZZ;;mmmm<<<>88<88<<<<<<<<<<<<<<<<<<<",
"<<<<<<<<<<z8>88<PPGmmmmmmmmmmm;;ZZZZZZZZ77IIIIII      IIII77ZZZZ77IIII      IIIIII77ZZZZZZZZ;;mmmmmmG<<<>888><<<<<<<<<<<<<<<<<<<",
"<<<<<<<<<<>88>8PccGmmmmmmmmmmm;;ZZZZZZZZ77IIIIII      IIII77ZZZZ77IIII      IIIIII77ZZZZZZZZ;;mmmmmmG<<<>88><<<<<<<<<<<<<<<<<<<<",
"<<<<<<<<<<<>8>>:PPGmmmmmmmmmmmmm;;;;ddZZddjjIIIIIIIIIIII77ddxxxxdd77IIIIIIIIIIIIjjddZZdd;;;;mmmmmmmmG<<<<>8<<<<<<<<<<<<<<<<<<<<<",
"<<<<<<<<<<<<<<<<::Gmmmmmmmmmmmmm;;;;ddZZddjjIIIIIIIIIIII77ddxxxxdd77IIIIIIIIIIIIjjddZZdd;;;;mmmmmmmmJ<<<<<<<<<<<<<<<<<<<<<<<<<<<",
"<<<<<<<<<<<<LL<<<PGmmmmmmmmmmmmmmmmm;;ZZjjdd77IIIIIIIIjjddddZZZZddddjjIIIIIIII77ddjjZZ;;mmmmmmmmmmmmJ<<<<<<<<<<<<<<<<<<<<<<<<<<<",
"<<<<<<<<<<<<cL<<PcGmmmmmmmmmmmmmmmmm;;ZZjjdd77IIIIIIIIjjddddZZZZddddjjIIIIIIII77ddjjZZ;;mmmmmmmmmmmmH<<<<<<<<<<<<<<<<<<<<<<<<<<<",
"<<<<<<<<<<<<::<<PPGmmmmmmmmmmmmmmmmm;;ZZZZjjdd77jjjj77ddjjZZZZZZZZjjdd77jjjj77ddjjZZZZ;;mmmmmmmmmmmmH<<<<<<<<<<<<<<<<<<<<<<<8zz<",
"<<<<<<<<<<<<<<<<::Gmmmmmmmmmmmmmmmmm;;ZZZZjjdd77jjjj77ddjjZZZZZZZZjjdd77jjjj77ddjjZZZZ;;mmmmmmmmmmmmS<<<<<<<<<<<<<<<<<<<<<<88z<<",
"<<<<<<<<<<<<<<<<<<Gmmmmmmmmmmmmmmmmm77xxZZZZjjddddddddjjZZZZZZZZZZZZjjddddddddjjZZZZxx77mmmmmmmmmmmmS<<<<<<<<<<<<<<<<<<<<<<88><<",
"<<<<<<<<<<<<<<<<<<Gmmmmmmmmmmmmmmmmm77xxZZZZjjddddddddjjZZZZZZZZZZZZjjddddddddjjZZZZxx77mmmmmmmmmmmmJ<<<<<<<<<<<<<<<<<<<<<<>><<<",
"<<<<<<<<<<<<<<<<<<GmmmmmmmmmmmmmmmmmmG;;xxZZZZZZZZZZZZZZZZddhhhhddZZZZZZZZZZZZZZZZxx;;<Jmmmm8mmmmmmmS<<<<<<<<<<<<<<<<<<<<<<<<<<<",
"<<<<<<<<<<<<<<<<<<GmmmmmmmmmmmmmmmmmmG;;xxZZZZZZZZZZZZZZZZddhhhhddZZZZZZZZZZZZZZZZxx;;<GmmmllmmmmmmmS<<<<<<<<<<<<<<<<<<<<<<<<<<<",
"<<<<<<<<<<<<<<<<<<GmmmmmmmmmmmmmmmmmmGG<;;xxZZZZZZZZZZZZZZZZZZZZZZZZZZZZZZZZZZZZxx;;u<<yKK8z,KKKKKKKi<<<<<<<<<<<<<<<<<<<<<<<<<<<",
"<<<<<<<<<<<<<<<<<<GmmmmmmmmmmmmmmmmmmGG<;;xxZZZZZZZZZZZZZZZZZZZZZZZZZZZZZZZZZZZZxx;;<<<<ti88iiiiiiii<<<<<<<<<<<<<<<<<<<<<<<<<<<<",
"<<<<<<<<<<<<<<<<<<GmmmmmmmmmmmmmmmmmmGG<<<;;77xxZZZZZZZZZZZZZZZZZZZZZZZZZZZZxx77;;<<<<<<<<<<<<<<<<<<<<<<<<<<<<<<<<<<<<<<<<<<<<<<",
"<<<<<<<<<<<<<<<<<<GmmmmmmmmmmmmmmmmmmGG<<<;;77xxZZZZZZZZZZZZZZZZZZZZZZZZZZZZxx77;;<<<<<<<<<<<<<<<<<<<<<<<<<<<<<<<<<<<<<<<<<<<<<<",
"<<<<<<<<<<<<<<<<<<iKKKKKKKKKKKKKKKKKKu%%%%%%SS;;7777xxZZZZZZZZZZZZZZZZxx7777;;%%%%%%<<<<<<<<<<<<<<<<<<<<<<<<<<<<<<<<<<<<<<<<<<<<",
"<<<<<<<<<<<<<<<<<<iKKKKKKKKKKKKKKKKKKu%%%%%%SS;;7777xxZZZZZZZZZZZZZZZZxx7777;;%%%%%%<<<<<<<<<<<<<<<<<<<<<<<<<<<<<<<<<<<<<<<<<<<<",
"<<<<<<<<<<<<<<<<<<<uuuiiiiiiiiiiiuuuu<%%jj77%%yyyyyy;;7777777777777777;;<<<<%%7777;;<<<<<<<<<<<<<<<<<<<<<<<<<<<<<<<<<<<<<<<<<<<<",
"<<<<<<<<<<<<<<<<<<<<<<<<<<<<<<<<<<<<<<%%jj77%%<<<8z<;;7777777777777777;;<<<<%%7777;;<<<<<<<<<<<<<<<<<<<<<<<<<<<<<<<<<<<<<<<<<<<<",
"<<<<<<<<<<<<<<<<<<<<<<<<<<<<<<<<<<<<++77jj77;;<<<<&&&&<<  jjddddjj  <<&&&&&&77++jj++%%<<<<<<<<,,,<<<<<<<<<<<<<<<<<<<<<<<<<<<<<<<",
"<<<<<<<<<<<<<<<<<<<<<<<<<<<<<<<<<<<<++77jj77;;<<<<&&&&<<  jjddddjj  <<&&&&&&77++jj++%%<<<<<<<<,,,<<<<<<<<<<<<<<<<<<<<<<<<<<<<<<<",
"<<<<<<<<<<<<<<<<<<<<<<<<<<<<<<<<<<<<<<77++++%%&&ddZZdddd    jjjj      dddddddd&&++%%<<<<<<<pbbpbppbbbbbpkkkkk<<<<<<<<<<<lz<<<<zz",
"<<<<<<<<<<<<<<<<<<<<<<<<<<<<<<<<<<<<<<77++++%%&&ddZZdddd    jjjj      dddddddd&&++%%VV<<<NNkpbbbbbbpppbbkkkkkM<<<<<<<<<<<zz<<<z<",
"<<<<<<<<<<<<<<<<<<<<<<<<<<<<<<<<<<<<<<%%++%%ddZZZZZZ**                mm&&ZZZZ&&++%%VV<<<NNkpnbppbbbbbbpkkkkkM<<<<<<<<<<<88<l8:<",
"<<<<<<<<<<<<<<<<<<<<<<<8z<<<<88<<<<<<<%%++%%ddZZZZZZ4a                mm&&ZZZZ&&++%%AA<<<NNnpbbpbbppbpbbkkkkkM<<<<<<<<<<<CC<88><",
"<<<<<<<<<<<<<<<<<<<<<<<<zz<<88<<<<<<<<<<++<<ddZZZZdd<<                mmddZZZZddmmmmAG<<<NNpbbbbbpbbpbpbkkkkkM<<<<<<<<<<CggC>><<",
"<<<<<<<<<<<<<<<<<<<<<<<<>88<88<<<<<<<<<<++<<ddZZZZdd<<                mmddZZZZddmmmmGA<<<NNkbppbbbpbbbpbkkkkkV<<<<<<<<<<:CC:<<<<",
"<<<<<<<<<<<<<<<<<<<<<<<<>88<<kkkkkkkkkkk++<<ddZZZZddkk    II    II    mmddZZZZdd++mmGG<<<mbbbppbppbbkkkkkkkkkM<<<<<<<<<<<::<<<<<",
"<<<<<<<<<<<<<<<<<<<<<<<<<>><Nkkkkkkkkkkk++<<ddZZZZddkk    II    II    mmddZZZZdd++mmGG<<<mmbbbbbbbbpkkkkkkkkkM<<<<<<<<<<<<<<<<<<",
"<<<<<<<<<<<<<<<<<<<<<<<<<<<<Nkkkkkkkkk%%++&&ZZZZZZZZ&&      jjjj        ddZZZZ&&77%%GS<<<VmbpbbpcbbpkkkkkkkkkM<<<<<<<<<<<<<<<<<<",
"<<<<<<<<<<<<<<<<<<<<<<<<<<<<Nkkkkkkkkk%%++&&ZZZZZZZZ&&      jjjj        ddZZZZ&&77%%GG<<<mbbpbbpppbbkkkkkkkkkM<<<<<<<<<<<<<<<<<<",
"<<<<<<<<<<<<<<<<<<<<<<<<<<<<Nkkkkkkk%%7777ddZZZZZZZZdd    II    II    &&ZZZZZZZZ&&;;GG<<<VVkpbbbppkkkkkkkkkkkm<<<<<<<<<<<<<<<<<<",
"<<<<<<<<<<<<<<<<<<<<<<<<<<<<Nkkkkkkk%%7777ddZZZZZZZZdd    II    II    &&ZZZZZZZZ&&;;GG<<<mNkbbpbkpkkkkkkkkkkkm<<<<<<<<<<<<<<<<<<",
"<<<<<<<<<<<<<<<<<<<<<<<<<<<<Nkkkkkkk%%77jjddZZZZZZZZdd                ddZZZZZZZZdd%%GG<<<NNkbpbpkkkkkkkkkkkkkN<<<<<<<<<<<<<<<<<<",
"<<<<<<<<<<<<<<<<<<<<<<<<<<<<Nkkkkkkk%%77jjddZZZZZZZZdd                ddZZZZZZZZdd%%GG<<<NNkbpbbkkkkkkkkkkkkkS<<<<<<<<<<<<<<<<<<",
"<<<<<<<<<<<<vv<<<<<<<<<<<<<<Nkkkkkkk%%%%++&&ZZZZZZZZ&&                ddZZZZZZZZdd%%GG<<<NNpbbpbkkkkkkkkkkbpkG<<<<<<<<<<<<<<<<<<",
"<<<<<<<<<<<vggv<CC<<<<<<<<<<Nkkkkkkk%%%%++&&ZZZZZZZZ&&                ddZZZZZZZZdd%%GG<<<NNbbpbbkkkkkkkkkkkDGt<<<<<<<<<<<<<<<<<<",
"<<<<<<<<<<<:vv:CgC<<<<<<<<<<Nkkkkkkkkk%%++%%dd&&&&dd                  &&ZZZZZZZZ&&mmGG<<<MmbbbppkkkkkkkkkkGyy<<<<<<<<<<<<<<<<<<<",
"<<<<<<<<<<<<::<CC:<<<<<<<<<<Nkkkkkkkkk%%++%%dd&&&&dd                  &&ZZZZZZZZ&&mmGG<<<NNppbbbkkkkkkkbkkGyy<<<<<<<<<<<<<<<<<<<",
"<<<<<<<<<<<<<<<::<<<<<<<<<<<Nkpkkkkkkkbl8u                              dd&&&&dd  mmGG<<<mNbbpbpkpbppbkpGGy<<<<<<<<<<<<<<<<<<<<<",
"<<<<<<<<<<<<<<<<<<<<<<<<<<<<uHSHHHz8HH8z><                              dd&&&&dd  KKyy<<<ytGGGGGJFJJFFFFyy<<<<<<<<<<<<<<<<<<<<<<",
"<<<<<<<<<<<<<<<<<<<<<<<<<<<<<tuutu>88t88<<II                                    II%%yy<<<yySGSJJAHJHDAADyy<<<<<<<<<<<<<<<<<<<<<<",
"<<<<<<<<<<<<<<<<<<<<<<<<<<<<<<<<<<<>888><<II                                    II%%<<<<<<<yyyyttuutyyyy<<<<<<<<<<<<<<<<<<<<<<<<",
"<<<<<<<<<<<<<<<<<<<<<<<<<<<<<kkkkkk>88++%%jjjj                                jjjj;;<<<<<<<<<<<<<<<<<<<<<<<<<<<<<<<<<<<<<<<<<<<<",
"<<<<<<<<<<<<<<<<<<<<<<<<<<<<Nkkkkkkk>8++%%jjjj                                jjjj;;<<<<<<<<<<<<<<<8<<<<<<<<<<<<<<<<<<<<<<<<<<<<",
"<<<<<<<<<<<<<<<<<<<<<<<<<<<<Nkkkkkkkkkkk77++%%IIjj                        jjII++++++<<<<<<<kpbbbppbbS<<<kkkkk<<<<<<<<<<<<<<<<<<<",
"<<<<<<<<<<<<<<<<<<<<<<<<<<<<Nkkkkkkkkkkk77++%%IIjj                        jjII++++++<<<<<<<kbbppnbbpm<<<kkkkk<<<<<<<<<<<<<<<<<<<",
"<<<<<<<<<<<<<<<<<<<<<<<<<<<<Nkkkkkkkkk++++++++2222jjIIbcIIjjbjjjjjIIjjIIjj3333++kk++<<<<<NNkkkbbpbppA<<pkkkkkM<<<<<<<<<<<<<<<<<<",
"<<<<<<<<<<<<<<<<<<<<<<<<<<<<Nkkkkkkkkk++++++++2222jjIImbIIjjcbjjjjIIjjIIjj3333++33++0N<<<VMbkkpbbpAAtpkbkkkkkM<<<<<<<<<<<<<<<<<<",
"<<<<<kkkkkkkkkk<<<<<<<<<<<<<Nkkkkkkkkk3339O--22222  6677  %=OOOOOw  7777  33333333330N<<<NNpkkkpkkAAukkkkkkkkM<<<<<<<<<<<<<<<<<<",
"<<<<kkkkkkkkkkkN<<<<<<<<<<<<Nkkkkkkk333339=-o22222 .6677  ==OOOOOw  7777  333333333300O<<NS888kSAAut<kkkkkkbpS<<<<<<<<<<<<<<<<<<",
"<<NkkkkkkkkkkkkN<<<<<<<<<<<<Nkkkbbpb333333-=922222%%bj77  OOOOOO%w%%jjjj%%3333333333q9O<<llzDMVyty<<<pbkkkkkkN<<<<<<<<<<<<<<<<<<",
"<<NkkkkkkkkkkkkN<<<<<<<<<<<<Nkkkpb33333333oo922222%%jj77  OOOOOO-3%%jjjj%%3333333333qqOOOllzMDByyy<<<pkkkkkkkN<<<<<<<<<<<<<<<<<<",
"<<NkkkkkkkkkkkkN<<<<<<<<<<<<Nkkkpb3333332wOOq22222%%jjff..OOOOOO=e%%aajj%%3333333323qqOO=88,tuy<<<<8kkkkkkkkkS<<<<<<<<<<<<<<<<<<",
"<<NkkkkkkkkkkkkN<<<<<<<<<<<<Nkkkbb3233333eOO222222%%jjff..OOOOOO=3%%aajj%%3333333322qqOO=88><<<<<<pbkkkkkkkkkN<<<<<<<<<<<<<<<<<<",
"<<NkkkkkkkkkkkkN<<<<<<<<<<<<Nbkkbp2929293eOOw22222%%ssjj%%-OOOOOO3%%jjjj%%33333333339qOO=88,<<<<<8kkkkkkkkkkkN<<<<<<<<<<<<<<<<<<",
"<<NkkkkkkkkkkkkN<<<<<<<<<<<<tJHHeeeeeeeee#OO#eww3e%%ssjj%.-=O--=O3%%jjjj%%3333333333qqOO=oo<<<<kpkkkkkkkkkkkkN<<<<<<<<<<<<<<<<<<",
"<<NkkkkkkkkkkkkN<<<<<<<<<<<<<ttu#########OOOO##@##%%jjaaaa$$==-==q$$aajj%%3333333333qqOOOOO<kkkkpbkkkkkkkkkkkN<<<<<<<<<<<<<<<<<<",
"<<NkkkkkkkkkkkkN<<<<<<<<<<<<<<<<OOOOOOOOOOOOXXO15%%%jjaaaa$$==ooOe$$aajj%%3333333333qqOOOOO<kkkkkkkkkkkkkkkkkN<<<<<<<<<<<<8<<<<<",
"<<NkkkkkkkkkpbkJ<<<<<<<<<<<<<<z<OOOOOOOOOOOOOOOX$$$$$$$$aa$$=o==  aa$$$$$$$$33333333wqOOOqqkkkkkkkkkpbbbppbbkN<<<<<<<<<,<88<<8gl",
"<<NkkkkkkkkkHHHt<<<<<<<<ll<<<z<<OOOOOOOOOOOOOOOO$$$$$$$$aa$$o==o  aa$$$$$$$$33333333wwOOOqqkkkkkkkkkbbpbbbbpkN<<<<<<<<z,<8,<88l,",
"<<NkkkkbkkkSuut<<<<<<<<<l88<zz<<OOOOOOOOOOOOOO$$hhssssss$$  o=ooO3$$sssssshh$$333333qqOOOqqkkkkkkkkkbpbpbbbpbm<<<<<<<<,l8<,8<l,,",
"<<uHSHHJHHJt<<8zz<<<<<<<,88<88<<OOOOOOOOOOOOOO$$hhssssss$$  o45oOe$$sssssshh$$33333eweOOOqqkkkkkkkkkbpbbppbbpS<<<<<<<<,l8LL8l,ll",
"<<<tututtuu<<88z<<<<<<<<<><>8><<OOOOOOOOOOOOOO  mcjjjjjj  OO41&XOe  mjjjjjjj  eee==---OOOqqbkkkkkkpbkkpbbbbpbm<<<<<<<<<,LccL><l:",
"<<<<<<<<<<<<<88><<<<<<<<<<,<><<<OOOOOOOOOOOOOO  jmjjjjjj  OOo44OO0  cjjjjbjj  eee==---OOOqqbkkkkkkbpkkbpbpbkkm<<<<<<<<<<:LL>>l,,",
"<<<<<<<<8z<<<8><<<<<bpbpbbpbbbn<OOOOOOOOOOOOOOOO        OOO55XXOO#ee        ee####@-====O##DDDDDGGAJJJSJVVVJSu<<<lll,<<<,>,LL<<<",
"<<<<<<<<>l8<<>8l<<<bbpbbbpbbppbMOOOOOOOOOOOOOOOO        OO515XOOOO##        ##OOOO=X====OOOyyyyyyyyyyytuyyyut<<<<<l<lPP<<<<cL<<<",
"<<<<<<<<<88<<88><<VbkkkkkkkkkkkNOOOOOOOOOOOOOOOOOOOOOOOOOO55XOOOOO############OOOOOo====OOOutuyyuutuutuutuutr<<<<<,lPgcPl<<::<<<",
"<<<<<<<<<>8>88><<<mbkkkkkkkkkkkNOOOOOOOOOOOOOOOOOOOOOOOOOOXXOOOOOOOOOOOOOOOXrrXOOOOOOOOOOOO<<<<<<<<<<<<<<<<<,<<<<<,>:PP:<<<<<<<<",
"<<<<<<<<<<>>88><<<mkkkkkkkkkkkkN<<OOOOOOOOOOOOOOOOOOOOOOOOOOOOOOOOOOOOOOOOOOXXOOOOOOOOOOO<<<<<<<<<<<<<<<<<<<<<<<<<<<<,,<<<<<<<<<",
"<<<<<<<<<<<<8><<<<NkkkkkkkkkkkkN<<OOOOO--OOOO==OOOOOOOOOOOOOOOOOOOOOOOOOOOOOOOOOOOOOOOOOO<<<<<<<<<<<<<<<<<<<<<<<<<<<<<<<<<<<<<<<",
"<<<<<<<<<<<<<<<<<<NkkkkkkkkkkkkN<<OOOOOO-=O55=OOOOOOOOOOOOOOOOOOO--OOOOOOOOOOOOOOOOOOOOoO<<<<<<<<<<<<<<<<<<<<<<<<<<<<<<<<<<<<<<<",
"<<<<<<<<<<<<<<<<<<NkkkkkkkkkkkkN<<OOOOOOo==51=OOOOOOOOOOOOOO=OO==-OOOOOOOOOOOOOOOOOOOOOoO<<<<<<<<<<<<<<<<<<<<<<<<<<<<<<<<<<<<<<<",
"<<<<<<<<<<<<<<<<<<NkkkkkkkkkkkkN<<<<OOOOo==XXoOOOOOOOOOOOOOO--o==XOOOOOOOOOOOOOOOOOOOO=z<<<<<<<<<<<<<<<<<<<<<<<<<<<<<<<<<<<<<<<<",
"<<<<<<<<<<<<<<<<<<NkkkkkkkkkkkkN<<<<OOOOOooOOOOOOOOOOOOOOOOO-==oXOOOOOOOOOOOOOOOOOOOOO%<<<<<<<<<<<<<<<<<<<<<<<<<<<<<<<<<<<<<<<<<",
"<<<<<<<<<<<<<<<<<<NkkkkkkkkkkkkN<<<<<<<<<<<OOOOOOOOOOOOOOOOOo==OOOOOOOOOOOOOOOOO<<<<<<<<<<<<<<<<<<<<<<<<<<<<<<<<<<<<<<<<<<<<<<<<",
"<<<<<<<<<<<<<<<<<<NkkkkkkkSJSSS<<<<<<<<<<<<OOOOOOOOOOOOOOOOOOOOOOOOOOOOOOOOOOOOO<<<<<<<<<<<<<<<<<<<<<<<<<<<<<<<<<<<<<<<<<<<<<<<<",
"<<<<<<<<<<<<<<<<<<NkkkkkHHtuuut<<<<<<<<<<<<<<OOOOOOOOOOOOOOOOOOOOOOOOOOOOOOOOO<<<<<<<<<<<<<<<<<<<<<<<<<<<<<<<<<<<<<<<<<<<<<<<<<<",
"<<<<<<<<<<<<<<<<<<ySSSSGtu<<<<<<<<<<<<<<<<<<<OOOOOOOOOOOOOOOOOOOOOOOOOOOOOOOOO<<<<<<<<<<<<<<<<<<<<<<<<<<<<<<<<<<<<<<<<<<<<<<<<<<",
"<<<<<<<<<<<<<<<<<<<ytuyy<<<<<<<<<<<<<<<<<<<<<<<<<<<OOOOOOOOOOOOOOOOOOOOO<<<<<<<<<<<<<<<<<<<<<<<<<<<<<<<<<<<<<<<<<<<<<<<<<<<<<<<<",
"<<<<<<<<<<<<<<<<<<<<<<<<<<<<<<<<<<<<<<<<<<<<<<<<<<<<<<<<<<<<<<<<<<<<<<<<<<<<<<<<<<<<<<<<<<<<<<<<<<<<<<<<<<<<<<<<<<<<<<<<<<<<<<<<",
"<<<<<<<<<<<<<<<<<<<<<<<<<<<<<<<<<<<<<<<<<<<<<<<<<<<<<<<<<<<<<<<<<<<<<<<<<<<<<<<<<<<<<<<<<<<<<<<<<<<<<<<<<<<<<<<<<<<<<<<<<<<<<<<<",
"<<<<<<<<<<<<<<<<<<<<<<<<<<<<<<<<<<<<<<<<<<<<<<<<<<<<<<<<<<<<<<<<<<<<<<<<<<<<<<<<<<<<<<<<<<<<<<<<<<<<<<<<<<<<<<<<<<<<<<<<<<<<<<,l"
};
