/* XPM */
static char *player_up1754595505[] = {
/* columns rows colors chars-per-pixel */
"128 128 71 1 ",
"  c #36170C",
". c #35380D",
"X c #383B0C",
"o c #3D3E0F",
"O c #3E2014",
"+ c #392A1C",
"@ c #353328",
"# c #550F0A",
"$ c #45230D",
"% c #4F3124",
"& c #773421",
"* c #404212",
"= c #444514",
"- c #724113",
"; c #636917",
": c #656C17",
"> c #686F16",
", c #72751B",
"< c #564020",
"1 c #42423B",
"2 c #44443D",
"3 c #655123",
"4 c #695922",
"5 c #684C3C",
"6 c #787B21",
"7 c #464541",
"8 c #484743",
"9 c #484843",
"0 c #494844",
"q c #4B4A46",
"w c #5F5E5A",
"e c #605C48",
"r c #64604B",
"t c #66624D",
"y c #6C6852",
"u c #7D6553",
"i c #7C7B6E",
"p c #9B1A0A",
"a c #AB5C1C",
"s c #964C3A",
"d c #A2783C",
"f c #EF511D",
"g c #EF692F",
"h c #927E6A",
"j c #807F72",
"k c #7F8124",
"l c #7F8226",
"z c #EFAC28",
"x c #A2814F",
"c c #BD9842",
"v c #828175",
"b c #848279",
"n c #878679",
"m c #87867D",
"M c #88867D",
"N c #88877E",
"B c #89877F",
"V c #8A8A7D",
"C c #C6A740",
"Z c #E5AA68",
"A c #EFB775",
"S c #8C8A81",
"D c #8D8B83",
"F c #8D8C82",
"G c #8E8C83",
"H c #8E8C84",
"J c #8E8D84",
"K c #939189",
"L c #9CA8AD",
"P c #B3B0A9",
"I c #EFD8A1",
/* pixels */
",,,,,,,,,,,,,,,,,,,,,,,,,,,,,,,,,,,,,,,,,,,,,,,,,,,,,,,,,,,,,,,,,,,,,,,,,,,,,,,,,,,,,,,,,,,,,,,,,,,,,,,,,,,,,,,,,,,,,,,,,,,,,,,,",
",,,,,,,,,,,,,,,,,,,,,,,,,,,,,,,,,,,,,,,,,,,,,,,,,,,,,,,,,,,,,,,,,,,,,,,,,,,,,,,,,,,,,,,,,,,,l66,,,,,,,,,,,,,,,,,,,,,,,,,,,,,,,,,",
",,,,,,,,,,,,,,,,,,,,,,,,,,,,,,,,,,,,,,,,,,,,,,,,,,,,,,,,,,,,,,,,,,,,,,,,,,,,,,,,,,,,,,,,,,,,,666,,jjjjjjjjjjjj,,,,,,,,,,,,,,,,,,",
",,,,,,,,,,,,,,,,,,,,,,,,,,,,,,,,,,,,,,,,,,,,l,,,,,,,,,,,,,,,,,,,,,,,,,,,,,,,,,,,,,,,,,,,,,,,,,::,MjjjjjjjjjjjjM,,,,,,,,,,,,,,,,,",
",,,,,,,,,,,,,,,,,,,,,,,,,,,,,,,,,,,,,,,,,,,,66,,,,,,,,,,,,,,,,,,,,,,,,,,,,,,,,,,,,,,,,,,,,,,,,,,,MjjjjjjjjjjjjM,,,,,,,,,,,,,,,,,",
",,,,,,,,,,,,,,,,,,,,,,,,,,,,,,,,,,,,,,,,ll6,:6,,,,,,,,,,,,,,,,,,,,,,,,,,,,,,,,l,,,,,,,,,,,,,,,,,,MjjjjjjjjjjjjM,,,,,,,,,,,,,,,,,",
",,,,,,,,,,,,,,,,,,,,,,,,,,,,,,,,,,,,,,,,,l66::,ll6,,,,,,,,,,,,,,,,,,,,,6ll,,,l,,,,,,,,,,,,,,,,,,,MjjjjjjjjjjjjM,,,,,,,,,,,,,,,,,",
",,,,,,,,,,,,,,,,,,,,,,,,,,,,,,,,,,,,,,6l,:66,:66l,,,,,,++$$++++$$++,,,,,l66,ll,,,,,,,,,,,,,,,,,,,MjjjjjjjjjjjjM,,,,,,,,,,,,,,,,,",
",,,,,,,,,,,,,,,,,,,,,,,,,,,,,,,,,,,,,,,l66:6,666,,,,,,,++$$++++$$++,,,,,:66,PP,,,,,,,,,,,,,,,,,,,MjjjjjjjjjjjjM,,,,,,,,,,,,,,,,,",
",,,,,,,,,,,,,,,,,,,,,,,,,,,,,,,,,,,,,,,:66,::66:,++++$$--55----55--$$++++:6PxxP,,,,,,,,,,,,,,,,,,MjjjjjjjjjjjjM,,,,,,,,,,,,,,,,,",
",,,,,,,,,,,,,,,,,,,PP,,,,,,,,,,,,,,,,,,,:6,,:::,,++++$$--55----55--$$++++,:;PP;,,,,,,,,,,,,,,,,,,MjjjjjjjjjjjjM,,,,,,,,,,,,,,,,,",
",,,,,,,,,,,,,,,,,,PxxP,,,,,,,,,,,,,,,,,,,:,66++$$--5555--++++++++--5555--$$++;,,,,,,,,,,,,,,,,,,,MjjjjjjjjjjjjM,66,,,,,,,,,,,,,,",
",,,,,,,,,,,,,,,,,,;PP;,,,,,,,,,,,,,,,,,,,,,l:++$$--5555--++++++++--5555--$$++,,,,,,,,,,,,,,,,,,,,DDDDDjjjjjjjjMl6,,,,,,,,,,,,,,,",
",,,,,,,,,,,,,,,,,,,;;,,,,,,,,,,,,,,,,,,,,,,$$--555555555555----555555555555--$$,,,,,,,,,,,,,,,,,,,,rrrDjjjjjjjM6:,,,,,,,,,,,,,,,",
",,,,,,,,,,,,,,,,,,,,,,,,,,,,,,,,,,,,,,,,,,,$$--555555555555----555555555555--$$,,,,,,,,,,,,,,,,,,,,,,,rDjjjjjjM6:,,,,,,,,,,,,,,,",
",,,,,,,,,,,,,,,,,,,,,,,,,,,,,,,,,,,,,,,,,++--55555555555555----55555555555555--++,,,,,,,,,,,,,,,,,,,,,,rDDDDDD,6:,,,,,,,,,,,,,,,",
",,,,,,,,,,,,,,,,,,,,,,,,,,,,,,,,,,,,,,,,,++--55555555555555----55555555555555--++,,,,,,,PP,,,,,,,,,,,,,,rrrrrr,:,,,,,,,,,,,,,,,,",
",,,,,,,,,,,,,,,,,,,jjjjjjjjjjjjjjjjjj,,$$--555555555555++++++++++++555555555555--$$,,,,PxxP,PP,,,,,,,,,,,,,,::,,,,,,,,,,,,,,,,,l",
",,,,,,,,,,,,,,,,,,,jjjjjjjjjjjjjjjjjj,,$$--555555555555++++++++++++555555555555--$$,,,,;PP;PxP,,,,,,,,,,,,,,,,,,,,,,,,,,6ll,,,l,",
",,,,,,,,,,,,,,,,,,Mjjjjjjjjjjjjjjjjjj++--55555555++++++--55----55--++++++55555555--++,PP;;,PP;,,,,,,,,,,,,,,,,,,,,,,,,,,,lLL,ll,",
",,,,,,,,,,,,,,,,,,Mjjjjjjjjjjjjjjjjjj++--55555555++++++--55----55--++++++55555555--++,xP,,,;;,,,,,,,,,,,,,,,,,,,,,,,,,,,,LxxL66,",
",,,,,,,,,,,,,,,,,,Mjjjjjjjjjjjjjjjj$$++555555++++--55555555----55555555--++++555555++$$;,,,,,,,,,,,,,,,,,,,,,,,,,,,,,,,,,;LL;PP,",
",,,,,,,,,,,,,,,,,,Mjjjjjjjjjjjjjjjj$$++555555++++--55555555----55555555--++++555555++$$,,,,,,,,,,,,,,,,,,,,,,,,,,,,,,,,,,,;;,xP,",
",,,,,,,,,,,,,,,,,,Mjjjjjjjjjjjjjjjj++--5555++--555555555555----555555555555--++5555--++,,,,,,,,,,,,,,,,,,,,,,,,,,,,,,,,,,,,,,;;,",
",,,,,,,,,,,,,,,,,,Mjjjjjjjjjjjjjjjj++--5555++--555555555555----555555555555--++5555--++,,,,,,,,,,,,,,,,,,,,,,,,,,,,,,,,,,,,,,,,,",
",,,,,,,,,,,,,,,,,,Mjjjjjjjjjjjjjj$$++++--555555555555555555----555555555555555555--++++$$,,,,,,,,,,,,,,,,,,,,,,,,,,,,,,,,,,,,,,,",
",,,,,,,,,,,,,,,,,,Mjjjjjjjjjjjjjj$$++++--555555555555555555----555555555555555555--++++$$,,,,,,,,,,,,,,,,,,,,,,,,,,,,,,,,,,,,,,,",
",,,,,,,,,,,,,,,,,,Mjjjjjjjjjjjjjj  ++++++--5555555555555555----5555555555555555--++++++  iiiiiiiiiii,,,,,,,,,,,,,,,,,,,,,,,,,,,,",
",,,,,,,,,,,,,,,,,,Mjjjjjjjjjjjjjj  ++++++--5555555555555555----5555555555555555--++++++  iiiiiiiiiiib,,,,,,,,,,,,,,,,,,,,,,,,,,,",
",,,,,,,,,,,,,,,,,,Mjjjjjjjjjjjj--  ++++++++--55555555555555----55555555555555--++++++++  --iiiiiiiiib,,,,,,,,,,,,,,,,,,,,,,,,,,,",
",,,,,,,,,,,,,,,,,,Mjjjjjjjjjjjj--  ++++++++--55555555555555----55555555555555--++++++++  --iiiiiiiiib,,,,,,,,,,,,,,,,,,,,,,,,,,,",
",,,,,,,,,,,,,,,,,,Mjjjjjjjjjj--zz  ++++++++++++--5555555555----5555555555--++++++++++++  zz--iiiiiiib,,,,,,,,,,,,,,,,,,,,,,,,,,,",
",,,,,,,,,,,,,,,,,,Mjjjjjjjjjj--zz  ++++++++++++--5555555555----5555555555--++++++++++++  zz--iiiiiiib,,,,,,,,,,,,,,,,,,,,,,,,,,,",
",,,,,,,,,,,,,,,,,,Mjjjjjjjj--zzAA  ++++++++++++++++++--5555----5555--++++++++++++++++++  AAzz--iiiiib,,,,,,,,,,,,,,,,,,,,,,,,,,,",
",,,,,,,,,,,,,,,,,,Mjjjjjjjj--zzAA  ++++++++++++++++++--5555----5555--++++++++++++++++++  AAzz--iiiiib,,,,,,,,,,,,,,,,,,,,,,,,,,,",
",,,,,,,,,,,,,,,,,,Mjjjjjjjj--zzAA  ++++++++++++++++++++++++----++++++++++++++++++++++++  AAzz--iiiiib,,,,,,,,,,,,,,,,,,,,,,,,,,,",
",,,,,,,,,,,,,,,,,,Mjjjjjjjj--zzAA  ++++++++++++++++++++++++----++++++++++++++++++++++++  AAzz--iiiiib,,,,,,,,,,,,,,,,,,,,,,,,,,,",
",,,,,,,,,,,,,,,,,,rDDDDDDDD--aazz  ++++++++++++++++++++++++++++++++++++++++++++++++++++  zzaa--iiiiib,,,,,,,,,,,,,,,,,,,,,,,,,,,",
",,,,,,,,,,,,,,,,,,,rrtttttt--aazz  ++++++++++++++++++++++++++++++++++++++++++++++++++++  zzaa--iiiiib,,,,,,,,,,,,,,,,,,,,,,,,,,,",
",,,,,,,,,,,,,,,,,,,rrtttttt--aaaa  ++++++++++++++++++++++++++++++++++++++++++++++++++++  aaaa--iiiiiM,,,,,,,,,,,,,,,,,,,,,,,,,,,",
",,,,,,,,,,,,,,,l,,,,,,,,,,,--aaaa  ++++++++++++++++++++++++++++++++++++++++++++++++++++  aaaa--VMDmD,,,,,,,,,,,,,,,,,,,,,,,,,,,,",
",,,,,,,,,,ll6,,66,,nnnnnnnn--aaaa  ++++++++++++++++++++++++++++++++++++++++++++++++++++  aaaa--eeete,,,,,,,,l6,,,,,,,,,,,,,,,,,,",
",,,,,,,,,,,l66,:6,Gnnnnnnnn--aaaa  ++++++++++++++++++++++++++++++++++++++++++++++++++++  aaaa--,,,,,,,,l6,,6l:,,,,,,,,,,,,,,,,,,",
",,,,,,,,,,,:666:,6Gnnnnnnnnnn--aa  ++++++++++++++++++++++++++++++++++++++++++++++++++++  aa--nnnnnnn,,,:66,66,,,,,,,,,,,,,,,,,,,",
",,,,,,,,,,l6:66,PPGnnnnnnnnnn--aa  ++++++++++++++++++++++++++++++++++++++++++++++++++++  aa--nnnnnnnG,,,:666:,,,,,,,,,,,,,,,,,,,",
",,,,,,,,,,:66:6PxxGnnnnnnnnnnnn----  ++++++++++++++++++++++++++++++++++++++++++++++++  ----nnnnnnnnnG,,,:66:,,,,,,,,,,,,,,,,,,,,",
",,,,,,,,,,,:6::;PPGnnnnnnnnnnnn----  ++++++++++++++++++++++++++++++++++++++++++++++++  ----nnnnnnnnnG,,,,:6,,,,,,,,,,,,,,,,,,,,,",
",,,,,,,,,,,,,,,,;;Gnnnnnnnnnnnnnnnn  ++++++++++++++++++++++++++++++++++++++++++++++++  GnnnnnnnnnnnnJ,,,,,,,,,,,,,,,,,,,,,,,,,,,",
",,,,,,,,,,,,LL,,,PGnnnnnnnnnnnnnnnn  ++++++++++++++++++++++++++++++++++++++++++++++++  GnnnnnnnnnnnnJ,,,,,,,,,,,,,,,,,,,,,,,,,,,",
",,,,,,,,,,,,xL,,PxGnnnnnnnnnnnnnnnn  ++++++++++++++++++++++++++++++++++++++++++++++++  GnnnnnnnnnnnnH,,,,,,,,,,,,,,,,,,,,,,,,,,,",
",,,,,,,,,,,,;;,,PPGnnnnnnnnnnnnnnnn  ++++++++++++++++++++++++++++++++++++++++++++++++  GnnnnnnnnnnnnH,,,,,,,,,,,,,,,,,,,,,,,6ll,",
",,,,,,,,,,,,,,,,;;Gnnnnnnnnnnnnnnnn  ++++++++++++++++++++++++++++++++++++++++++++++++  DnnnnnnnnnnnnD,,,,,,,,,,,,,,,,,,,,,,66l,,",
",,,,,,,,,,,,,,,,,,Gnnnnnnnnnnnnnnnn  ++++++++++++++++++++++++++++++++++++++++++++++++  HnnnnnnnnnnnnD,,,,,,,,,,,,,,,,,,,,,,66:,,",
",,,,,,,,,,,,,,,,,,Gnnnnnnnnnnnnnnnnnn  ++++++++++++++++++++++++++++++++++++++++++++  ,,HnnnnnnnnnnnnJ,,,,,,,,,,,,,,,,,,,,,,::,,,",
",,,,,,,,,,,,,,,,,,Gnnnnnnnnnnnnnnnnnn  ++++++++++++++++++++++++++++++++++++++++++++  ,,Jnnnn6nnnnnnnD,,,,,,,,,,,,,,,,,,,,,,,,,,,",
",,,,,,,,,,,,,,,,,,GnnnnnnnnnnnnnnnnnnGG  ++++++++++++++++++++++++++++++++++++++++  vM,,GnnnllnnnnnnnD,,,,,,,,,,,,,,,,,,,,,,,,,,,",
",,,,,,,,,,,,,,,,,,GnnnnnnnnnnnnnnnnnnGG  +++++++++++++++++++++++++++++++++++++++O  Gr,,rKK6l>KKKKKKKy,,,,,,,,,,,,,,,,,,,,,,,,,,,",
",,,,,,,,,,,,,,,,,,GnnnnnnnnnnnnnnnnnnGG,,  ++++++++++++++++++++++++++++++++++++ $eer,,,,ey66yyyyyyyy,,,,,,,,,,,,,,,,,,,,,,,,,,,,",
",,,,,,,,,,,,,,,,,,GnnnnnnnnnnnnnnnnnnGG,,  ++++++++++++++++++++++++++++++++++++  ,,,,,,,,,,,,,,,,,,,,,,,,,,,,,,,,,,,,,,,,,,,,,,,",
",,,,,,,,,,,,,,,,,,Gnnnnnnnnnnnnnnnnnn$$$$$$Mj++        ++++++++++++        $$$$$$$$,,,,,,,,,,,,,,,,,,,,,,,,,,,,,,,,,,,,,,,,,,,,,",
",,,,,,,,,,,,,,,,,,yKKKKKKKKKKKKKKKKKK$$$$$$rD++        ++++++++++++        $$$$$$$$,,,,,,,,,,,,,,,,,,,,,,,,,,,,,,,,,,,,,,,,,,,,,",
",,,,,,,,,,,,,,,,,,yKKKKKKKKKKKKKKKKKK$$hh$$$$DDDDDD--55++++++++++++55--,,,,$$5555--,,,,,,,,,,,,,,,,,,,,,,,,,,,,,,,,,,,,,,,,,,,,,",
",,,,,,,,,,,,,,,,,,,tttyyyyyyyyyyytttt$$hh$$$$rrrrrr--55++++++++++++55--,,,,$$5555--,,,,,,,,,,,,,,,,,,,,,,,,,,,,,,,,,,,,,,,,,,,,,",
",,,,,,,,,,,,,,,,,,,,,,,,,,,,,,,,,,,++55hh55--,,,,6l&&,,            ,,,,,,,,55++hn--$$,,,,,,,,,,,,,,,,,,,,,,,,,,,,,,,,,,,,,,,,,,,",
",,,,,,,,,,,,,,,,,,,,,,,,,,,,,,,,,,,+$55nn55--,,,>>d&&,,            ,,,,,,,,55++hh--$$,,,,,,,,,>>>,,,,,,,,,,,,,,,,,,,,,,,,,,,,,,,",
",,,,,,,,,,,,,,,,,,,,,,,,,,,,,,,,,,,,,55+O++$$,,&-aa&&                aaaa&&$$++++$$,,,,,,,,,,,>>>,,,,,,,,,,,,,,,,,,,,,,,,,,,,,,,",
",,,,,,,,,,,,,,,,,,,,,,,,,,,,,,,,,,,,,55++++$$,,&&aa&&                aaaa&&$$++++$$n,,,,,,,ivviviivvvvvijjjjj,,,,,,,,,,,6l,,,,ll",
",,,,,,,,,,,,,,,,,,,,,,,,,,,,,,,,,,,,,$$++$$$$,,aaAAaa                aaaaaaaa++++$$nVV,,,MMvivvvvvviiivvjjjjjn,,,,,,,,,,,ll,,6l,",
",,,,,,,,,,,,,,,,,,,,,,,,,,,,,,,,,,,,,$$++$$$$,,aaAAaa                aaaaaaaa++++$$nVV,,,mMvivviivvvvvvijjjjjV,,,,,,,,,,,66,66:,",
",,,,,,,,,,,,,,,,,,,,,,,6l,,,,66,,,,,,,,++,,&&AAAAaaL:                nn&&ZZAA&&nnnnnDD,,,mnvivvivviivivvjjjjjn,,,,,,,,,,,CC,66:,",
",,,,,,,,,,,,,,,,,,,,,,,,ll,,66,,,,,,,,,++,,&&AAAAaa:,                nn&&ZZAA&&nnnnnVD,,,MMivvvvvivvivivjjjjjn,,,,,,,,,,CddC::,,",
",,,,,,,,,,,,,,,,,,,,,,,,:66,66,,,,,,,,,++,,aaAAAAaa,,                nnaaAA$$++++nnnDD,,,MMvviivvvivvvivjjjjvn,,,,,,,,,,;CC:,,,,",
",,,,,,,,,,,,,,,,,,,,,,,,:66,,jjjvvvvivi++,,aaAAAAaaiv                nnaaAA$$++++nnnGG,,,MMjjjjjiivvjjjjjjjjjn,,,,,,,,,,,;;,,,,,",
",,,,,,,,,,,,,,,,,,,,,,,,,::,Mjjjivivv$$++$$,VaaAAAA                    aaAA$$++55$$nGG,,,MMjjjjjvvvijjjjjjjjvn,,,,,,,,,,,,,,,,,,",
",,,,,,,,,,,,,,,,,,,,,,,,,,,,Mjjjvvvvv$$++$$,naaAAAA                    aaAA$$++55$$nGG,,,MMjjjjjvvvijjjjjjjjjn,,,,,,,,,,,,,,,,,,",
",,,,,,,,,,,,,,,,,,,,,,,,,,,,Mjjjvii$$555555$$AAAA                        $$55hh55--nGG,,,MMjjjjjuivvjjjjjjjjjV,,,,,,,,,,,,,,,,,,",
",,,,,,,,,,,,,,,,,,,,,,,,,,,,Mjjjvvv$$555555$$AAAA                        $$55hh55--nJD,,,MMjjjjjvjjjjjjjjjjjjn,,,,,,,,,,,,,,,,,,",
",,,,,,,,,,,,,,,,,,,,,,,,,,,,Mjjjiiv$$55hn+$$$AA                            55++++$$nDJ,,,MMjjjjjjjjjjjjjjjjjvn,,,,,,,,,,,,,,,,,,",
",,,,,,,,,,,,,,,,,,,,,,,,,,,,Mjjjvvi$$55hv$+$$AA                            55++++$$nJD,,,MMjjjjjjjjjjjjjjjjjjV,,,,,,,,,,,,,,,,,,",
",,,,,,,,,,,,,,,,,,,,,,,,,,,,Mjjjviv$$++++++$$                              $$++++$$nDJ,,,MMjjjjjjjjjjjjjjjjjjV,,,,,,,,,,,,,,,,,,",
",,,,,,,,,,,,cc,,,,,,,,,,,,,,Mjjjvvi$$.+++++$$                              $$++++$$nGG,,,MMjjjjjivvvvvvivvviiV,,,,,,,,,,,,,,,,,,",
",,,,,,,,,,,cddc,CC,,,,,,,,,,Mjjjivvvj$$++$$                                    nnnnnGG,,,MMjjjjjvviiiivviivGVr,,,,,,,,,,,,,,,,,,",
",,,,,,,,,,,;cc;CdC,,,,,,,,,,Mjjjivivj$O++$$                                    nnnnnGG,,,mMjjjjjvivvvvivvvGtt,,,,,,,,,,,,,,,,,,,",
",,,,,,,,,,,,;;,CC;,,,,,,,,,,Mjjjvvivjjjvj                                        nnnGG,,,MMjjjjjvvivvivvviVrt,,,,,,,,,,,,,,,,,,,",
",,,,,,,,,,,,,,,;:,,,,,,,,,,,mijjviiiijvkd                                        nnnGG,,,MnjviviivvvivviGGr,,,,,,,,,,,,,,,,,,,,,",
",,,,,,,,,,,,,,,,,,,,,,,,,,,,tDDDnnkkFV,k;$$                                  $$$$$$Krr,,,reJJDJDVVVVDDDDrr,,,,,,,,,,,,,,,,,,,,,,",
",,,,,,,,,,,,,,,,,,,,,,,,,,,,,ettt5kkke,k>.$                                  $$$$$$Krr,,,rrDDDGDGGVGDDGGrr,,,,,,,,,,,,,,,,,,,,,,",
",,,,,,,,,,,,,,,,,,,,,,,,,,,,,,,,,,>>k++O$hv$$                              ++55hh--y,,,,,,,rrrrrtettrrrr,,,,,,,,,,,,,,,,,,,,,,,,",
",,,,,,,,,,,,,,,,,,,,,,,,,,,,,jjjjjj:,++$$hh$$                              ++55hh--,,,,,,,,,,,,,,,,,,,,,,,,,,,,,,,,,,,,,,,,,,,,,",
",,,,,,,,,,,,,,,,,,,,,,,,,,,,Mjjjjjjj>++55--$$IIhh                        hhII++++$$,,,,,,,,,,,,,,,,,,,,,,,,,,,,,,,,,,,,,,,,,,,,,",
",,,,,,,,,,,,,,,,,,,,,,,,,,,,Dijjjjjjv++55--$$IIhh                        hhII++++$$,,,,,,,,jjjjjjjjjM,,,vvivi,,,,,,,,,,,,,,,,,,,",
",,,,,,,,,,,,,,,,,,,,,,,,,,,,Dijjjjjvv+++O++++1111hhIIhhIIhhhhhhhhIIhhIIhh2222++jj++,,,,,,,,jjjjjjjjjV,,,ivvvv,,,,,,,,,,,,,,,,,,,",
",,,,,,,,,,,,,,,,,,,,,,,,,,,,Mjjjjjjjj++++++++1111hhIInxIInhhhhhhhIIhhIIhh2222++jj++j,,,,,MmivijjjjjiM,,jvviivM,,,,,,,,,,,,,,,,,,",
",,,,,,,,,,,,,,,,,,,,,,,,,,,,Vijjjjjjjv1222ooo1111  5555  2*$ooooo  5555  222222222229M,,,VDvvvjvjjSSevjjivvviM,,,,,,,,,,,,,,,,,,",
",,,,,jjjjjjjjjj,,,,,,,,,,,,,nvjjjjjjvv2222o==1111  5555  2ooooooo  5555  222222222228M,,,DniivvijjSMtjjjivvvvm,,,,,,,,,,,,,,,,,,",
",,,,jjjjjjjjjjjM,,,,,,,,,,,,njjjjjjj222222*=X1111  hhhn  2ooooooo  hhhh  2222222222288o,,Mm666iSmSte,jjjvviivm,,,,,,,,,,,,,,,,,,",
",,MjjjjjjjjjjjjM,,,,,,,,,,,,Mjjjjjjj222222**71111  hhhh  9*ooooo$  hhhh  2222222222297o,,kkkmSVree,,,jjjjjjjjM,,,,,,,,,,,,,,,,,,",
",,MjjjjjjjjjjjjM,,,,,,,,,,,,Mjjjjj22222229XX71111$$hhhh$$2*Xoooo*$$hhhh$$2222222222199ooXkklSVFrtt,,,jjjjjjjjn,,,,,,,,,,,,,,,,,,",
",,MjjjjjjjjjjjjM,,,,,,,,,,,,Mjjjjj22222229*o71111$$hhhh$$2oooooo*$$hhhh$$2222222221799oo*k6;eer,,,,,jjjjjjjjjm,,,,,,,,,,,,,,,,,,",
",,MjjjjjjjjjjjjM,,,,,,,,,,,,Mjjjjj22222229oo71111$$pppp$$qoooooo*$$sspp$$2222222221199ooo6k:,,,,,,jjjjjjjjjjjS,,,,,,,,,,,,,,,,,,",
",,MjjjjjjjjjjjjM,,,,,,,,,,,,Mvjjjj22222227oo91111$$pppp$$@=oooooX$$sspp$$2222222222279oook6;,,,,,,jjjjjjjjjjjM,,,,,,,,,,,,,,,,,,",
",,MjjjjjjjjjjjjM,,,,,,,,,,,,eJDDqqqqqqqqq@oo@q79q$$hhhh$$o*oo==oo$Oxhhh$$2222222222299oo*X.,,,,jjjjjjjjjjjjjjM,,,,,,,,,,,,,,,,,,",
",,MjjjjjjjjjjjjM,,,,,,,,,,,,,ret@@@@@@@@@oooo@@@@$$hhhh$$oXo**=oo$$nhhv$$2222222222299oooo*,jjjjjjjjjjjjjjjjjM,,,,,,,,,,,,>>,,,,",
",,MjjjjjjjjjjjvM,,,,,,,,,,,,,,,,oooooooooooo..o######pppp##o**X##pppp######22222222299ooooo,jjjjjjjjjjjjjjjjjM,,,,,,,,,,,,d,,,,,",
",,MjjjjjjjjjjjjG,,,,,,,,,,,,,,l,ooooooooooooooo######pppp##**X*##pppp######22222222299ooo99jjjjjjjjjjjjjjjjjjM,,,,,,,,,,,6k>,kkk",
",,MjjjjjjjjjDGDe,,,,,,,6kl,,,l,,ooooooooooooo##ggff##pppp##4X**oopppp##ffgg##222222299ooo99jjjjjjjjjjjjjjjjjjM,,,,,,,,k>>l>,k,k>",
",,MjjjjjjjjDett,,,,,,,,,l66,ll,,ooooooooooooo##ggff##pppp##.X*Xoopppp##ffgg##222222299ooo99jjjjjjjjjjjjjjjjjjM,,,,,,,,:kl,>,d,>,",
",,eDDDDDDGDe,,6ll,,,,,,,:66,66,,ooooooooooooooo  %%##pppp..oo33ooppppuu%%  22222222qqqooo99jjjjjjjjjjjjjjjjjjS,,,,,,,,:k,LLk>>kk",
",,,ttettett,,66l,,,,,,,,,:6:6:,,ooooooooooooooo  %%##ppppooo4<<o*ppppuu%%  217qqq**===ooo99vjjjjjjjjjjjjjjjjjM,,,,,,,,,>LxxL>k,:",
",,,,,,,,,,,,,66:,,,,,,,,,,:,:,,,oooooooooooooooooOO    oooX%.33oo22    $O22221qqq**===ooo99jjjjjjjjjjjjjjjjjjM,,,,,,,,,,;LL:>k>>",
",,,,,,,,6l,,,6:,,,,,jjjjjjjjjjv,oooooooooooooooooOO    oooo;4..oo@q    O+qqqqq@@@@@=****o@@FFFFFDDGGGGGHGHGHHt,,,kkk>,,,,;:LL,,,",
",,,,,,,,:l6,,:6k,,,jjjjjjjjjjjjMooooooooooooooooooooXXoooo4%4.Xooo@@@@@@@@@@@@oooooX****oo*rrrrretetetetetete,,,,,k,kPP,,,,xL,,,",
",,,,,,,,,66,,66:,,MjjjjjjjjjjjjMoooooooooooooooooooooooooo44.ooooo@@@@@@@@@@@@oooooX****ooorrrrrrrrrrrrrrrrre,,,,,>kPxxP,,,;;,,,",
",,,,,,,,,:6:66:,,,MjjjjjjjjjjjjMoooooooooooooooooooooooooo..ooooooooooooooo.ww.oooooooooooo,,,,,,,,,,,,,,,,,,,,,,,,:;PP;,,,,,,,,",
",,,,,,,,,,::66:,,,MjjjjjjjjjjjjM,,oooooooooooooooooooooooooooooooooooooooooo..ooooooooooo,,,,,,,,,,,,,,,,,,,,,,,,,,,,;;,,,,,,,,,",
",,,,,,,,,,,,6:,,,,MjjjjjjjjjjjjM,,ooooo==oooo**oooooooooooooooooooooooooooooooooooooooooo,,,,,,,,,,,,,,,,,,,,,,,,,,,,,,,,,,,,,,,",
",,,,,,,,,,,,,,,,,,MjjjjjjjjjjjjM,,oooooo=*o44*ooooooooooooooooooo==oooooooooooooooooooooo,,,,,,,,,,,,,,,,,,,,,,,,,,,,,,,,,,,,,,,",
",,,,,,,,,,,,,,,,,,MjjjjjjjjjjjjM,,ooooooX**4<*oooooooooooooo*oo**=ooooooooooooooooooooooo,,,,,,,,,,,,,,,,,,,,,,,,,,,,,,,,,,,,,,,",
",,,,,,,,,,,,,,,,,,MjjjjjjjjjjjjM,,,,ooooX**..Xoooooooooooooo==X**Xooooooooooooooooooooo,,,,,,,,,,,,,,,,,,,,,,,,,,,,,,,,,,,,,,,,,",
",,,,,,,,,,,,,,,,,,MjjjjjjjjjjjjM,,,,oooooXXooooooooooooooooo=**XXoooooooooooooooooooooo,,,,,,,,,,,,,,,,,,,,,,,,,,,,,,,,,,,,,,,,,",
",,,,,,,,,,,,,,,,,,MjjjjjjjjjjjjM,,,,,,,,,,,oooooooooooooooooX**ooooooooooooooooo,,,,,,,,,,,,,,,,,,,,,,,,,,,,,,,,,,,,,,,,,,,,,,,,",
",,,,,,,,,,,,,,,,,,MjjjjjjjDDDDD,,,,,,,,,,,,ooooooooooooooooooooooooooooooooooooo,,,,,,,,,,,,,,,,,,,,,,,,,,,,,,,,,,,,,,,,,,,,,,,,",
",,,,,,,,,,,,,,,,,,MjjjjjDDrrrrr,,,,,,,,,,,,,,ooooooooooooooooooooooooooooooooo,,,,,,,,,,,,,,,,,,,,,,,,,,,,,,,,,,,,,,,,,,,,,,,,,,",
",,,,,,,,,,,,,,,,,,rDDDDDrr,,,,,,,,,,,,,,,,,,,ooooooooooooooooooooooooooooooooo,,,,,,,,,,,,,,,,,,,,,,,,,,,,,,,,,,,,,,,,,,,,,,,,,,",
",,,,,,,,,,,,,,,,,,,rrrrr,,,,,,,,,,,,,,,,,,,,,,,,,,,ooooooooooooooooooooo,,,,,,,,,,,,,,,,,,,,,,,,,,,,,,,,,,,,,,,,,,,,,,,,,,,,,,,,",
",,,,,,,,,,,,,,,,,,,,,,,,,,,,,,,,,,,,,,,,,,,,,,,,,,,,,,,,,,,,,,,,,,,,,,,,,,,,,,,,,,,,,,,,,,,,,,,,,,,,,,,,,,,,,,,,,,,,,,,,,,,,,,,,",
",,,,,,,,,,,,,,,,,,,,,,,,,,,,,,,,,,,,,,,,,,,,,,,,,,,,,,,,,,,,,,,,,,,,,,,,,,,,,,,,,,,,,,,,,,,,,,,,,,,,,,,,,,,,,,,,,,,,,,,,,,,,,,,,",
",,,,,,,,,,,,,,,,,,,,,,,,,,,,,,,,,,,,,,,,,,,,,,,,,,,,,,,,,,,,,,,,,,,,,,,,,,,,,,,,,,,,,,,,,,,,,,,,,,,,,,,,,,,,,,,,,,,,,,,,,,,,,,,,"
};
