/* XPM */
static char *upscaled_image[] = {
/* columns rows colors chars-per-pixel */
"128 128 3 1"
"  c #306082"
". c #37948F"
"X c #5FCDE4"
/* pixels */
"                XXXXXXXX                XXXXXXXXXXXXXXXX                XXXXXXXXXXXXXXXX                XXXXXXXX                "
"                XXXXXXXX                XXXXXXXXXXXXXXXX                XXXXXXXXXXXXXXXX                XXXXXXXX                "
"                XXXXXXXX                XXXXXXXXXXXXXXXX                XXXXXXXXXXXXXXXX                XXXXXXXX                "
"                XXXXXXXX                XXXXXXXXXXXXXXXX                XXXXXXXXXXXXXXXX                XXXXXXXX                "
"                XXXXXXXX                XXXXXXXXXXXXXXXX                XXXXXXXXXXXXXXXX                XXXXXXXX                "
"                XXXXXXXX                XXXXXXXXXXXXXXXX                XXXXXXXXXXXXXXXX                XXXXXXXX                "
"                XXXXXXXX                XXXXXXXXXXXXXXXX                XXXXXXXXXXXXXXXX                XXXXXXXX                "
"                XXXXXXXX                XXXXXXXXXXXXXXXX                XXXXXXXXXXXXXXXX                XXXXXXXX                "
"XXXXXXXX        XXXXXXXXXXXXXXXX        XXXXXXXX........XXXXXXXXXXXXXXXX........XXXXXXXX        XXXXXXXXXXXXXXXX        XXXXXXXX"
"XXXXXXXX        XXXXXXXXXXXXXXXX        XXXXXXXX........XXXXXXXXXXXXXXXX........XXXXXXXX        XXXXXXXXXXXXXXXX        XXXXXXXX"
"XXXXXXXX        XXXXXXXXXXXXXXXX        XXXXXXXX........XXXXXXXXXXXXXXXX........XXXXXXXX        XXXXXXXXXXXXXXXX        XXXXXXXX"
"XXXXXXXX        XXXXXXXXXXXXXXXX        XXXXXXXX........XXXXXXXXXXXXXXXX........XXXXXXXX        XXXXXXXXXXXXXXXX        XXXXXXXX"
"XXXXXXXX        XXXXXXXXXXXXXXXX        XXXXXXXX........XXXXXXXXXXXXXXXX........XXXXXXXX        XXXXXXXXXXXXXXXX        XXXXXXXX"
"XXXXXXXX        XXXXXXXXXXXXXXXX        XXXXXXXX........XXXXXXXXXXXXXXXX........XXXXXXXX        XXXXXXXXXXXXXXXX        XXXXXXXX"
"XXXXXXXX        XXXXXXXXXXXXXXXX        XXXXXXXX........XXXXXXXXXXXXXXXX........XXXXXXXX        XXXXXXXXXXXXXXXX        XXXXXXXX"
"XXXXXXXX        XXXXXXXXXXXXXXXX        XXXXXXXX........XXXXXXXXXXXXXXXX........XXXXXXXX        XXXXXXXXXXXXXXXX        XXXXXXXX"
"XXXXXXXX                XXXXXXXXXXXXXXXX................................................XXXXXXXXXXXXXXXX                XXXXXXXX"
"XXXXXXXX                XXXXXXXXXXXXXXXX................................................XXXXXXXXXXXXXXXX                XXXXXXXX"
"XXXXXXXX                XXXXXXXXXXXXXXXX................................................XXXXXXXXXXXXXXXX                XXXXXXXX"
"XXXXXXXX                XXXXXXXXXXXXXXXX................................................XXXXXXXXXXXXXXXX                XXXXXXXX"
"XXXXXXXX                XXXXXXXXXXXXXXXX................................................XXXXXXXXXXXXXXXX                XXXXXXXX"
"XXXXXXXX                XXXXXXXXXXXXXXXX................................................XXXXXXXXXXXXXXXX                XXXXXXXX"
"XXXXXXXX                XXXXXXXXXXXXXXXX................................................XXXXXXXXXXXXXXXX                XXXXXXXX"
"XXXXXXXX                XXXXXXXXXXXXXXXX................................................XXXXXXXXXXXXXXXX                XXXXXXXX"
"XXXXXXXXXXXXXXXX                XXXXXXXXXXXXXXXX........XXXXXXXXXXXXXXXX........XXXXXXXXXXXXXXXX                XXXXXXXXXXXXXXXX"
"XXXXXXXXXXXXXXXX                XXXXXXXXXXXXXXXX........XXXXXXXXXXXXXXXX........XXXXXXXXXXXXXXXX                XXXXXXXXXXXXXXXX"
"XXXXXXXXXXXXXXXX                XXXXXXXXXXXXXXXX........XXXXXXXXXXXXXXXX........XXXXXXXXXXXXXXXX                XXXXXXXXXXXXXXXX"
"XXXXXXXXXXXXXXXX                XXXXXXXXXXXXXXXX........XXXXXXXXXXXXXXXX........XXXXXXXXXXXXXXXX                XXXXXXXXXXXXXXXX"
"XXXXXXXXXXXXXXXX                XXXXXXXXXXXXXXXX........XXXXXXXXXXXXXXXX........XXXXXXXXXXXXXXXX                XXXXXXXXXXXXXXXX"
"XXXXXXXXXXXXXXXX                XXXXXXXXXXXXXXXX........XXXXXXXXXXXXXXXX........XXXXXXXXXXXXXXXX                XXXXXXXXXXXXXXXX"
"XXXXXXXXXXXXXXXX                XXXXXXXXXXXXXXXX........XXXXXXXXXXXXXXXX........XXXXXXXXXXXXXXXX                XXXXXXXXXXXXXXXX"
"XXXXXXXXXXXXXXXX                XXXXXXXXXXXXXXXX........XXXXXXXXXXXXXXXX........XXXXXXXXXXXXXXXX                XXXXXXXXXXXXXXXX"
"........XXXXXXXXXXXXXXXX                XXXXXXXXXXXXXXXX                XXXXXXXXXXXXXXXX                XXXXXXXXXXXXXXXX........"
"........XXXXXXXXXXXXXXXX                XXXXXXXXXXXXXXXX                XXXXXXXXXXXXXXXX                XXXXXXXXXXXXXXXX........"
"........XXXXXXXXXXXXXXXX                XXXXXXXXXXXXXXXX                XXXXXXXXXXXXXXXX                XXXXXXXXXXXXXXXX........"
"........XXXXXXXXXXXXXXXX                XXXXXXXXXXXXXXXX                XXXXXXXXXXXXXXXX                XXXXXXXXXXXXXXXX........"
"........XXXXXXXXXXXXXXXX                XXXXXXXXXXXXXXXX                XXXXXXXXXXXXXXXX                XXXXXXXXXXXXXXXX........"
"........XXXXXXXXXXXXXXXX                XXXXXXXXXXXXXXXX                XXXXXXXXXXXXXXXX                XXXXXXXXXXXXXXXX........"
"........XXXXXXXXXXXXXXXX                XXXXXXXXXXXXXXXX                XXXXXXXXXXXXXXXX                XXXXXXXXXXXXXXXX........"
"........XXXXXXXXXXXXXXXX                XXXXXXXXXXXXXXXX                XXXXXXXXXXXXXXXX                XXXXXXXXXXXXXXXX........"
"................XXXXXXXXXXXXXXXX                XXXXXXXX                XXXXXXXX                XXXXXXXXXXXXXXXX................"
"................XXXXXXXXXXXXXXXX                XXXXXXXX                XXXXXXXX                XXXXXXXXXXXXXXXX................"
"................XXXXXXXXXXXXXXXX                XXXXXXXX                XXXXXXXX                XXXXXXXXXXXXXXXX................"
"................XXXXXXXXXXXXXXXX                XXXXXXXX                XXXXXXXX                XXXXXXXXXXXXXXXX................"
"................XXXXXXXXXXXXXXXX                XXXXXXXX                XXXXXXXX                XXXXXXXXXXXXXXXX................"
"................XXXXXXXXXXXXXXXX                XXXXXXXX                XXXXXXXX                XXXXXXXXXXXXXXXX................"
"................XXXXXXXXXXXXXXXX                XXXXXXXX                XXXXXXXX                XXXXXXXXXXXXXXXX................"
"................XXXXXXXXXXXXXXXX                XXXXXXXX                XXXXXXXX                XXXXXXXXXXXXXXXX................"
"        ................XXXXXXXXXXXXXXXX                XXXXXXXXXXXXXXXX                XXXXXXXXXXXXXXXX................        "
"        ................XXXXXXXXXXXXXXXX                XXXXXXXXXXXXXXXX                XXXXXXXXXXXXXXXX................        "
"        ................XXXXXXXXXXXXXXXX                XXXXXXXXXXXXXXXX                XXXXXXXXXXXXXXXX................        "
"        ................XXXXXXXXXXXXXXXX                XXXXXXXXXXXXXXXX                XXXXXXXXXXXXXXXX................        "
"        ................XXXXXXXXXXXXXXXX                XXXXXXXXXXXXXXXX                XXXXXXXXXXXXXXXX................        "
"        ................XXXXXXXXXXXXXXXX                XXXXXXXXXXXXXXXX                XXXXXXXXXXXXXXXX................        "
"        ................XXXXXXXXXXXXXXXX                XXXXXXXXXXXXXXXX                XXXXXXXXXXXXXXXX................        "
"        ................XXXXXXXXXXXXXXXX                XXXXXXXXXXXXXXXX                XXXXXXXXXXXXXXXX................        "
"                ................XXXXXXXXXXXXXXXX                                XXXXXXXXXXXXXXXX................                "
"                ................XXXXXXXXXXXXXXXX                                XXXXXXXXXXXXXXXX................                "
"                ................XXXXXXXXXXXXXXXX                                XXXXXXXXXXXXXXXX................                "
"                ................XXXXXXXXXXXXXXXX                                XXXXXXXXXXXXXXXX................                "
"                ................XXXXXXXXXXXXXXXX                                XXXXXXXXXXXXXXXX................                "
"                ................XXXXXXXXXXXXXXXX                                XXXXXXXXXXXXXXXX................                "
"                ................XXXXXXXXXXXXXXXX                                XXXXXXXXXXXXXXXX................                "
"                ................XXXXXXXXXXXXXXXX                                XXXXXXXXXXXXXXXX................                "
"                ................XXXXXXXXXXXXXXXX                                XXXXXXXXXXXXXXXX................                "
"                ................XXXXXXXXXXXXXXXX                                XXXXXXXXXXXXXXXX................                "
"                ................XXXXXXXXXXXXXXXX                                XXXXXXXXXXXXXXXX................                "
"                ................XXXXXXXXXXXXXXXX                                XXXXXXXXXXXXXXXX................                "
"                ................XXXXXXXXXXXXXXXX                                XXXXXXXXXXXXXXXX................                "
"                ................XXXXXXXXXXXXXXXX                                XXXXXXXXXXXXXXXX................                "
"                ................XXXXXXXXXXXXXXXX                                XXXXXXXXXXXXXXXX................                "
"                ................XXXXXXXXXXXXXXXX                                XXXXXXXXXXXXXXXX................                "
"        ................XXXXXXXXXXXXXXXX                XXXXXXXXXXXXXXXX                XXXXXXXXXXXXXXXX................        "
"        ................XXXXXXXXXXXXXXXX                XXXXXXXXXXXXXXXX                XXXXXXXXXXXXXXXX................        "
"        ................XXXXXXXXXXXXXXXX                XXXXXXXXXXXXXXXX                XXXXXXXXXXXXXXXX................        "
"        ................XXXXXXXXXXXXXXXX                XXXXXXXXXXXXXXXX                XXXXXXXXXXXXXXXX................        "
"        ................XXXXXXXXXXXXXXXX                XXXXXXXXXXXXXXXX                XXXXXXXXXXXXXXXX................        "
"        ................XXXXXXXXXXXXXXXX                XXXXXXXXXXXXXXXX                XXXXXXXXXXXXXXXX................        "
"        ................XXXXXXXXXXXXXXXX                XXXXXXXXXXXXXXXX                XXXXXXXXXXXXXXXX................        "
"        ................XXXXXXXXXXXXXXXX                XXXXXXXXXXXXXXXX                XXXXXXXXXXXXXXXX................        "
"................XXXXXXXXXXXXXXXX                XXXXXXXX                XXXXXXXX                XXXXXXXXXXXXXXXX................"
"................XXXXXXXXXXXXXXXX                XXXXXXXX                XXXXXXXX                XXXXXXXXXXXXXXXX................"
"................XXXXXXXXXXXXXXXX                XXXXXXXX                XXXXXXXX                XXXXXXXXXXXXXXXX................"
"................XXXXXXXXXXXXXXXX                XXXXXXXX                XXXXXXXX                XXXXXXXXXXXXXXXX................"
"................XXXXXXXXXXXXXXXX                XXXXXXXX                XXXXXXXX                XXXXXXXXXXXXXXXX................"
"................XXXXXXXXXXXXXXXX                XXXXXXXX                XXXXXXXX                XXXXXXXXXXXXXXXX................"
"................XXXXXXXXXXXXXXXX                XXXXXXXX                XXXXXXXX                XXXXXXXXXXXXXXXX................"
"................XXXXXXXXXXXXXXXX                XXXXXXXX                XXXXXXXX                XXXXXXXXXXXXXXXX................"
"........XXXXXXXXXXXXXXXX                XXXXXXXXXXXXXXXX                XXXXXXXXXXXXXXXX                XXXXXXXXXXXXXXXX........"
"........XXXXXXXXXXXXXXXX                XXXXXXXXXXXXXXXX                XXXXXXXXXXXXXXXX                XXXXXXXXXXXXXXXX........"
"........XXXXXXXXXXXXXXXX                XXXXXXXXXXXXXXXX                XXXXXXXXXXXXXXXX                XXXXXXXXXXXXXXXX........"
"........XXXXXXXXXXXXXXXX                XXXXXXXXXXXXXXXX                XXXXXXXXXXXXXXXX                XXXXXXXXXXXXXXXX........"
"........XXXXXXXXXXXXXXXX                XXXXXXXXXXXXXXXX                XXXXXXXXXXXXXXXX                XXXXXXXXXXXXXXXX........"
"........XXXXXXXXXXXXXXXX                XXXXXXXXXXXXXXXX                XXXXXXXXXXXXXXXX                XXXXXXXXXXXXXXXX........"
"........XXXXXXXXXXXXXXXX                XXXXXXXXXXXXXXXX                XXXXXXXXXXXXXXXX                XXXXXXXXXXXXXXXX........"
"........XXXXXXXXXXXXXXXX                XXXXXXXXXXXXXXXX                XXXXXXXXXXXXXXXX                XXXXXXXXXXXXXXXX........"
"XXXXXXXXXXXXXXXX                XXXXXXXXXXXXXXXX........XXXXXXXXXXXXXXXX........XXXXXXXXXXXXXXXX                XXXXXXXXXXXXXXXX"
"XXXXXXXXXXXXXXXX                XXXXXXXXXXXXXXXX........XXXXXXXXXXXXXXXX........XXXXXXXXXXXXXXXX                XXXXXXXXXXXXXXXX"
"XXXXXXXXXXXXXXXX                XXXXXXXXXXXXXXXX........XXXXXXXXXXXXXXXX........XXXXXXXXXXXXXXXX                XXXXXXXXXXXXXXXX"
"XXXXXXXXXXXXXXXX                XXXXXXXXXXXXXXXX........XXXXXXXXXXXXXXXX........XXXXXXXXXXXXXXXX                XXXXXXXXXXXXXXXX"
"XXXXXXXXXXXXXXXX                XXXXXXXXXXXXXXXX........XXXXXXXXXXXXXXXX........XXXXXXXXXXXXXXXX                XXXXXXXXXXXXXXXX"
"XXXXXXXXXXXXXXXX                XXXXXXXXXXXXXXXX........XXXXXXXXXXXXXXXX........XXXXXXXXXXXXXXXX                XXXXXXXXXXXXXXXX"
"XXXXXXXXXXXXXXXX                XXXXXXXXXXXXXXXX........XXXXXXXXXXXXXXXX........XXXXXXXXXXXXXXXX                XXXXXXXXXXXXXXXX"
"XXXXXXXXXXXXXXXX                XXXXXXXXXXXXXXXX........XXXXXXXXXXXXXXXX........XXXXXXXXXXXXXXXX                XXXXXXXXXXXXXXXX"
"XXXXXXXX                XXXXXXXXXXXXXXXX................................................XXXXXXXXXXXXXXXX                XXXXXXXX"
"XXXXXXXX                XXXXXXXXXXXXXXXX................................................XXXXXXXXXXXXXXXX                XXXXXXXX"
"XXXXXXXX                XXXXXXXXXXXXXXXX................................................XXXXXXXXXXXXXXXX                XXXXXXXX"
"XXXXXXXX                XXXXXXXXXXXXXXXX................................................XXXXXXXXXXXXXXXX                XXXXXXXX"
"XXXXXXXX                XXXXXXXXXXXXXXXX................................................XXXXXXXXXXXXXXXX                XXXXXXXX"
"XXXXXXXX                XXXXXXXXXXXXXXXX................................................XXXXXXXXXXXXXXXX                XXXXXXXX"
"XXXXXXXX                XXXXXXXXXXXXXXXX................................................XXXXXXXXXXXXXXXX                XXXXXXXX"
"XXXXXXXX                XXXXXXXXXXXXXXXX................................................XXXXXXXXXXXXXXXX                XXXXXXXX"
"XXXXXXXX        XXXXXXXXXXXXXXXX        XXXXXXXX........XXXXXXXXXXXXXXXX........XXXXXXXX        XXXXXXXXXXXXXXXX        XXXXXXXX"
"XXXXXXXX        XXXXXXXXXXXXXXXX        XXXXXXXX........XXXXXXXXXXXXXXXX........XXXXXXXX        XXXXXXXXXXXXXXXX        XXXXXXXX"
"XXXXXXXX        XXXXXXXXXXXXXXXX        XXXXXXXX........XXXXXXXXXXXXXXXX........XXXXXXXX        XXXXXXXXXXXXXXXX        XXXXXXXX"
"XXXXXXXX        XXXXXXXXXXXXXXXX        XXXXXXXX........XXXXXXXXXXXXXXXX........XXXXXXXX        XXXXXXXXXXXXXXXX        XXXXXXXX"
"XXXXXXXX        XXXXXXXXXXXXXXXX        XXXXXXXX........XXXXXXXXXXXXXXXX........XXXXXXXX        XXXXXXXXXXXXXXXX        XXXXXXXX"
"XXXXXXXX        XXXXXXXXXXXXXXXX        XXXXXXXX........XXXXXXXXXXXXXXXX........XXXXXXXX        XXXXXXXXXXXXXXXX        XXXXXXXX"
"XXXXXXXX        XXXXXXXXXXXXXXXX        XXXXXXXX........XXXXXXXXXXXXXXXX........XXXXXXXX        XXXXXXXXXXXXXXXX        XXXXXXXX"
"XXXXXXXX        XXXXXXXXXXXXXXXX        XXXXXXXX........XXXXXXXXXXXXXXXX........XXXXXXXX        XXXXXXXXXXXXXXXX        XXXXXXXX"
"                XXXXXXXX                XXXXXXXXXXXXXXXX                XXXXXXXXXXXXXXXX                XXXXXXXX                "
"                XXXXXXXX                XXXXXXXXXXXXXXXX                XXXXXXXXXXXXXXXX                XXXXXXXX                "
"                XXXXXXXX                XXXXXXXXXXXXXXXX                XXXXXXXXXXXXXXXX                XXXXXXXX                "
"                XXXXXXXX                XXXXXXXXXXXXXXXX                XXXXXXXXXXXXXXXX                XXXXXXXX                "
"                XXXXXXXX                XXXXXXXXXXXXXXXX                XXXXXXXXXXXXXXXX                XXXXXXXX                "
"                XXXXXXXX                XXXXXXXXXXXXXXXX                XXXXXXXXXXXXXXXX                XXXXXXXX                "
"                XXXXXXXX                XXXXXXXXXXXXXXXX                XXXXXXXXXXXXXXXX                XXXXXXXX                "
"                XXXXXXXX                XXXXXXXXXXXXXXXX                XXXXXXXXXXXXXXXX                XXXXXXXX                "
};
