/* XPM */
static char *upscaled_image[] = {
/* columns rows colors chars-per-pixel */
"48 48 3 1"
"c #306082"
". c #37948F"
"X c #5FCDE4"
/* pixels */
"      XXX      XXXXXX      XXXXXX      XXX      "
"      XXX      XXXXXX      XXXXXX      XXX      "
"      XXX      XXXXXX      XXXXXX      XXX      "
"XXX   XXXXXX   XXX...XXXXXX...XXX   XXXXXX   XXX"
"XXX   XXXXXX   XXX...XXXXXX...XXX   XXXXXX   XXX"
"XXX   XXXXXX   XXX...XXXXXX...XXX   XXXXXX   XXX"
"XXX      XXXXXX..................XXXXXX      XXX"
"XXX      XXXXXX..................XXXXXX      XXX"
"XXX      XXXXXX..................XXXXXX      XXX"
"XXXXXX      XXXXXX...XXXXXX...XXXXXX      XXXXXX"
"XXXXXX      XXXXXX...XXXXXX...XXXXXX      XXXXXX"
"XXXXXX      XXXXXX...XXXXXX...XXXXXX      XXXXXX"
"...XXXXXX      XXXXXX      XXXXXX      XXXXXX..."
"...XXXXXX      XXXXXX      XXXXXX      XXXXXX..."
"...XXXXXX      XXXXXX      XXXXXX      XXXXXX..."
"......XXXXXX      XXX      XXX      XXXXXX......"
"......XXXXXX      XXX      XXX      XXXXXX......"
"......XXXXXX      XXX      XXX      XXXXXX......"
"   ......XXXXXX      XXXXXX      XXXXXX......   "
"   ......XXXXXX      XXXXXX      XXXXXX......   "
"   ......XXXXXX      XXXXXX      XXXXXX......   "
"      ......XXXXXX            XXXXXX......      "
"      ......XXXXXX            XXXXXX......      "
"      ......XXXXXX            XXXXXX......      "
"      ......XXXXXX            XXXXXX......      "
"      ......XXXXXX            XXXXXX......      "
"      ......XXXXXX            XXXXXX......      "
"   ......XXXXXX      XXXXXX      XXXXXX......   "
"   ......XXXXXX      XXXXXX      XXXXXX......   "
"   ......XXXXXX      XXXXXX      XXXXXX......   "
"......XXXXXX      XXX      XXX      XXXXXX......"
"......XXXXXX      XXX      XXX      XXXXXX......"
"......XXXXXX      XXX      XXX      XXXXXX......"
"...XXXXXX      XXXXXX      XXXXXX      XXXXXX..."
"...XXXXXX      XXXXXX      XXXXXX      XXXXXX..."
"...XXXXXX      XXXXXX      XXXXXX      XXXXXX..."
"XXXXXX      XXXXXX...XXXXXX...XXXXXX      XXXXXX"
"XXXXXX      XXXXXX...XXXXXX...XXXXXX      XXXXXX"
"XXXXXX      XXXXXX...XXXXXX...XXXXXX      XXXXXX"
"XXX      XXXXXX..................XXXXXX      XXX"
"XXX      XXXXXX..................XXXXXX      XXX"
"XXX      XXXXXX..................XXXXXX      XXX"
"XXX   XXXXXX   XXX...XXXXXX...XXX   XXXXXX   XXX"
"XXX   XXXXXX   XXX...XXXXXX...XXX   XXXXXX   XXX"
"XXX   XXXXXX   XXX...XXXXXX...XXX   XXXXXX   XXX"
"      XXX      XXXXXX      XXXXXX      XXX      "
"      XXX      XXXXXX      XXXXXX      XXX      "
"      XXX      XXXXXX      XXXXXX      XXX      "
};
