/* XPM */
static char *cb5f59f83b2947c09dbd2f8185f40dc4271w9PJpsiaS4LCv[] = {
/* columns rows colors chars-per-pixel */
"16 16 3 1 ",
"  c #306082",
". c #37948F",
"X c #5FCDE4",
/* pixels */
"  X  XX  XX  X  ",
"X XX X.XX.X XX X",
"X  XX......XX  X",
"XX  XX.XX.XX  XX",
".XX  XX  XX  XX.",
"..XX  X  X  XX..",
" ..XX  XX  XX.. ",
"  ..XX    XX..  ",
"  ..XX    XX..  ",
" ..XX  XX  XX.. ",
"..XX  X  X  XX..",
".XX  XX  XX  XX.",
"XX  XX.XX.XX  XX",
"X  XX......XX  X",
"X XX X.XX.X XX X",
"  X  XX  XX  X  "
};
