/* XPM */
static char *upscaled_image[] = {
/* columns rows colors chars-per-pixel */
"64 64 3 1"
"  c #306082"
". c #37948F"
"X c #5FCDE4"
/* pixels */
"        XXXX        XXXXXXXX        XXXXXXXX        XXXX        "
"        XXXX        XXXXXXXX        XXXXXXXX        XXXX        "
"        XXXX        XXXXXXXX        XXXXXXXX        XXXX        "
"        XXXX        XXXXXXXX        XXXXXXXX        XXXX        "
"XXXX    XXXXXXXX    XXXX....XXXXXXXX....XXXX    XXXXXXXX    XXXX"
"XXXX    XXXXXXXX    XXXX....XXXXXXXX....XXXX    XXXXXXXX    XXXX"
"XXXX    XXXXXXXX    XXXX....XXXXXXXX....XXXX    XXXXXXXX    XXXX"
"XXXX    XXXXXXXX    XXXX....XXXXXXXX....XXXX    XXXXXXXX    XXXX"
"XXXX        XXXXXXXX........................XXXXXXXX        XXXX"
"XXXX        XXXXXXXX........................XXXXXXXX        XXXX"
"XXXX        XXXXXXXX........................XXXXXXXX        XXXX"
"XXXX        XXXXXXXX........................XXXXXXXX        XXXX"
"XXXXXXXX        XXXXXXXX....XXXXXXXX....XXXXXXXX        XXXXXXXX"
"XXXXXXXX        XXXXXXXX....XXXXXXXX....XXXXXXXX        XXXXXXXX"
"XXXXXXXX        XXXXXXXX....XXXXXXXX....XXXXXXXX        XXXXXXXX"
"XXXXXXXX        XXXXXXXX....XXXXXXXX....XXXXXXXX        XXXXXXXX"
"....XXXXXXXX        XXXXXXXX        XXXXXXXX        XXXXXXXX...."
"....XXXXXXXX        XXXXXXXX        XXXXXXXX        XXXXXXXX...."
"....XXXXXXXX        XXXXXXXX        XXXXXXXX        XXXXXXXX...."
"....XXXXXXXX        XXXXXXXX        XXXXXXXX        XXXXXXXX...."
"........XXXXXXXX        XXXX        XXXX        XXXXXXXX........"
"........XXXXXXXX        XXXX        XXXX        XXXXXXXX........"
"........XXXXXXXX        XXXX        XXXX        XXXXXXXX........"
"........XXXXXXXX        XXXX        XXXX        XXXXXXXX........"
"    ........XXXXXXXX        XXXXXXXX        XXXXXXXX........    "
"    ........XXXXXXXX        XXXXXXXX        XXXXXXXX........    "
"    ........XXXXXXXX        XXXXXXXX        XXXXXXXX........    "
"    ........XXXXXXXX        XXXXXXXX        XXXXXXXX........    "
"        ........XXXXXXXX                XXXXXXXX........        "
"        ........XXXXXXXX                XXXXXXXX........        "
"        ........XXXXXXXX                XXXXXXXX........        "
"        ........XXXXXXXX                XXXXXXXX........        "
"        ........XXXXXXXX                XXXXXXXX........        "
"        ........XXXXXXXX                XXXXXXXX........        "
"        ........XXXXXXXX                XXXXXXXX........        "
"        ........XXXXXXXX                XXXXXXXX........        "
"    ........XXXXXXXX        XXXXXXXX        XXXXXXXX........    "
"    ........XXXXXXXX        XXXXXXXX        XXXXXXXX........    "
"    ........XXXXXXXX        XXXXXXXX        XXXXXXXX........    "
"    ........XXXXXXXX        XXXXXXXX        XXXXXXXX........    "
"........XXXXXXXX        XXXX        XXXX        XXXXXXXX........"
"........XXXXXXXX        XXXX        XXXX        XXXXXXXX........"
"........XXXXXXXX        XXXX        XXXX        XXXXXXXX........"
"........XXXXXXXX        XXXX        XXXX        XXXXXXXX........"
"....XXXXXXXX        XXXXXXXX        XXXXXXXX        XXXXXXXX...."
"....XXXXXXXX        XXXXXXXX        XXXXXXXX        XXXXXXXX...."
"....XXXXXXXX        XXXXXXXX        XXXXXXXX        XXXXXXXX...."
"....XXXXXXXX        XXXXXXXX        XXXXXXXX        XXXXXXXX...."
"XXXXXXXX        XXXXXXXX....XXXXXXXX....XXXXXXXX        XXXXXXXX"
"XXXXXXXX        XXXXXXXX....XXXXXXXX....XXXXXXXX        XXXXXXXX"
"XXXXXXXX        XXXXXXXX....XXXXXXXX....XXXXXXXX        XXXXXXXX"
"XXXXXXXX        XXXXXXXX....XXXXXXXX....XXXXXXXX        XXXXXXXX"
"XXXX        XXXXXXXX........................XXXXXXXX        XXXX"
"XXXX        XXXXXXXX........................XXXXXXXX        XXXX"
"XXXX        XXXXXXXX........................XXXXXXXX        XXXX"
"XXXX        XXXXXXXX........................XXXXXXXX        XXXX"
"XXXX    XXXXXXXX    XXXX....XXXXXXXX....XXXX    XXXXXXXX    XXXX"
"XXXX    XXXXXXXX    XXXX....XXXXXXXX....XXXX    XXXXXXXX    XXXX"
"XXXX    XXXXXXXX    XXXX....XXXXXXXX....XXXX    XXXXXXXX    XXXX"
"XXXX    XXXXXXXX    XXXX....XXXXXXXX....XXXX    XXXXXXXX    XXXX"
"        XXXX        XXXXXXXX        XXXXXXXX        XXXX        "
"        XXXX        XXXXXXXX        XXXXXXXX        XXXX        "
"        XXXX        XXXXXXXX        XXXXXXXX        XXXX        "
"        XXXX        XXXXXXXX        XXXXXXXX        XXXX        "
};
