/* XPM */
static char *cb22f2e7e7164f3fa19651ad6a057322BxNXmUs3Z9VqcymB[] = {
/* columns rows colors chars-per-pixel */
"64 64 65 1 ",
"  c #4D2712",
". c #4E2812",
"X c #4F2D1A",
"o c #502E1A",
"O c #52311C",
"+ c #5A371E",
"@ c #5B381F",
"# c #533421",
"$ c #5C3C26",
"% c #573E2E",
"& c #5E3E29",
"* c #5F402D",
"= c #61422E",
"- c #614431",
"; c #634836",
": c #644A38",
"> c #5A4E42",
", c #5E5246",
"< c #5F5449",
"1 c #62574C",
"2 c #645A4F",
"3 c #645C51",
"4 c #676056",
"5 c #696155",
"6 c #676158",
"7 c #6B655B",
"8 c #6E685E",
"9 c #716256",
"0 c #6F6A61",
"q c #726E64",
"w c #777066",
"e c #7A7267",
"r c #757169",
"t c #7A756A",
"y c #7C776C",
"u c #7C786B",
"i c #7B786C",
"p c #7C786C",
"a c #7E7970",
"s c #7F7C70",
"d c #7E7C74",
"f c #80796F",
"g c #807A71",
"h c #807C70",
"j c #807E77",
"k c #848277",
"l c #858277",
"z c #868477",
"x c #828078",
"c c #828079",
"v c #868478",
"b c #8A877A",
"n c #8A887A",
"m c #8B897D",
"M c #8C897C",
"N c #8B8880",
"B c #8B8980",
"V c #8D8B82",
"C c #8F8C83",
"Z c #918E85",
"A c #95938B",
"S c #97948C",
"D c #9B978F",
"F c #9C9991",
"G c #A09C94",
/* pixels */
"--------*----------;;;;;;:::::::::::::;;;;;;;;;;;;--------------",
"-BBBBBllVBVVVVVBBBBlllllllllllllllllllllllllxxllllllllBBllBBBBB-",
"-BBBllllVVVVVVVBBBBllllllllllllllllllllllllllxllllllllBBllllBBB-",
"-BBlllVVVVVVVVVBBlllllllllllllllllllllllllllllllllllllllBBlllBB-",
"-BllVlllllllllllllllllllllllllllllllllllVVVVVVlllxllllllllBBllB-",
"-BllVlllllllllllllllllllllllllllllllllllVVVVVVlllxllllllllBBllB-",
"=BVlllllllllllllllllllllllllllllllllBBVVVVVVVVllllllllllllllVVB=",
"=VVllllllllllll333333333377777777777777777773377llllllllllllVVV$",
"=VVllllllllll<<$$$$$$&&&&*********&&&&&&&&$$$$$$22llllllllllVVV&",
"=VVllllllllll<<$$$$$$&&&&*********&&&&&&&&$$$$$$22llllllllllVVV&",
"=VVllllllll<<++9999wwwwwwwwwwwwwwwwwwwww77999999++<<llllllllVVV&",
"=ZVllllllll++9999wwwwwwwwwwwwwwwwwwwwwwwwwwwww9955++llllllllZZZ&",
"=ZVllllllll++9999wwwwwwwwwwwwwwwwwwwwwwwwwwwww9955++lzllllllZZZ&",
"=AZllzzzzzz++99wwwwwwwwwwwwwwwwwttttwwwwwwwwwwwwww++zzllllllAAA&",
"-AZzzzzzzvv++77eewwwwwwwwtttttttttttttwwwwwwwwwwww++zzzzzzzzAAA&",
"=AZvvvvvvvv++ttyyyyyywwwwtttuuuuttyyttttwwwwwwwwww++vvvvzzzzAAA&",
"=AZvvvvvvvv++ttyyyyyywwwwtttuyyyyypyytttweeewwwwww++vvvvzzzzAAA&",
"=AZvvvvvvvv++yyyyppppttttyuuuuppppppttttwwwetteeee++lvvvvvvvAAA&",
"=AAvvvvvvvv++yyppppyypppppppppapppppppyyutttttttww++llvvvvvvAAA&",
"=DSvvvvvvvv++appppppppppppppppppffppppppuuuutteeee++bbbbvvvvDDD&",
"=DSvvvvvvvv++pppppaaapppppppppppffppppppuuuutteeee++vvbbvvvvDDD&",
"*FSvvvvvbbb++pppppaappppppppppggpfppppppaapptteeyy@@VVbbbbvvFFF&",
"*FDmmbbbbbb@@yyppaaap7777pfpggggggggaaaaaaaappttyy@@VVbbbbbbFFF&",
"*FDmmbbbbbb@@yypaaaap7777pggggggggggggaaaaaappttyy@@VVbbbbbbFFF&",
"=FDCCCCbbbbbb@@pppp7777777777777ggaaaaaaaaaapppp@@VVVVbbbbbbFFF&",
"=FFCCCCbbbbbbbb@@@@@@@@@$$@@@@@@@@@@@@@@@@@@@@@@VVVVVVbbbbbbFFF&",
"&FGVVCCbbbbbbbbbbbbbbbbbbbbbbbbbbbbbbbnnnnnnnnCCCCbbbbbbbbbbFFF&",
"&FGVVCCbbbbbbbbbbbbbbbbbbbbbbbbbbbbbbbnnnnnnnnCCCCbbbbbbbbbbFFF&",
"O5sGGmmMMbbbbbbbbbbbbbbbbbbbbbbbbbnnnnnnnnnnMMnnnnnnnnbbbbDD555O",
"O5piiGGMMbbbbbbbbbbbbbbbbbbbbbbbbbbbbbnnnnnnnnnnnnnnnnbbFF55555O",
"O5piiGGMMbbbbbbbbbbbbbbbbbbbbbbbbbbbbbnnnnnnnnnnnnnnnnbbFF55555O",
"O5ttthhGGFFFFFFFFDDDDDDAAAAAAAAAAAAASSSSSSSSSSDDDDDDDDFF4455555O",
"O3rtrAA88rrrrrrrrrr880088000008800yyppaayy00888888888888jd33333O",
"O3tmB8888rrrr888888888888888888888888888888888888888888888jj333O",
"O5tmB8888rrrr888888888888888888888888888888888888888888888jj335O",
".jx888888888888888888888888888888888888888888888888888888888jjj.",
".xx88887877888888888888888888888888888888888888888qqqq888877jjx.",
".xx88888877888888888888888888888888888888888888888qqqq888877xjx.",
".ad777777777888######OOOOOOOooOOOOOOOOOOooooooOOqqqqqq888777aaa.",
".ra7777778777##>>>>33223333333333333333333333333##q0qq887777rrr.",
".ry77777777oo>>>>332233333333333333333333333333333##00777777rrr.",
".qy77777777oo>>>>332233333333333333333333333333333##00777777rrr.",
" qr77777777oo>>22333333333333333333333333333333333##77777777qqr.",
".qr77777777oo,,22333333333333333333333222233333333OO77777777qqr.",
".qr77777777oo,,22333333332323333333333222233333333OO77777777qqr.",
".qr67777777##1122222233223333333333311222222333322OO77777777rrr.",
".qr66664444##<<<<<<2222222222222111111111111112211OO77774477qrq.",
".qq66666644OO<<<<<<2222222222222111111111111112221OO77444444qqq.",
".qq66666644OO<<<<<<2222222222222111111111111112222OO77774444qqq.",
".r066666666oo1<<<<<1122222222222111111111111111111OO66667744qqq.",
".q064663333oo,,,,<<1111112222211111111<<<<<<<<<<<<oo66666666qqq.",
".q044663333oo,,,,<<1111112222211111111<<<<<<<<<<<<oo36666666qqq.",
".q077333333OO,,,,,,,,1111111112111<<11<<<<<<<<<<<<OO33333366qqr.",
".q07733333388##,,,,,,11111111111,,,,<<<<<<<<,,<<%%7733333333qqq.",
" q87733333333te##oooooXXooooooXXooooooooXXXXoooo77333333333300q.",
" q87733333333te##oooooooooooooXXooooooooXXXXoooo77333333333300q.",
" q87777333333338qqqq888qqqqq888qqqqqqqqqqqqqqqqq33333333333300q.",
" q877777777333323333323337777777777777777733333333333333333300q.",
" 83377777773333323332233223332332233777777333333333333333377338 ",
" 83377777773333323333333223333332233777777333333333333333377338 ",
" 83333777333333322333333223333332233333333333333333333337733338 ",
" 83333337333332222333333223333332233333333333333333333773333338 ",
" 88888888723333223333333233333332333333333333333333333788888888 ",
"                                        ...............   .     "
};
