/* XPM */
static char *_74cd5a1c0c2465d85612c3969f20703FU4YJFuMvDvCTevO[] = {
/* columns rows colors chars-per-pixel */
"64 64 14 1 ",
"  c None",
". c #403035",
"X c #784A36",
"o c #574745",
"O c #916B48",
"+ c #B68E55",
"@ c #CBA45C",
"# c #DCB05D",
"$ c #CDB364",
"% c #C9B07B",
"& c #AF9B98",
"* c #D1BCB9",
"= c #E6D0CD",
"- c #F6E5DF",
/* pixels */
"                                                                ",
"                       ooooooooooooooooooo                      ",
"                 ooooooo&*=====--===-==&oooo                    ",
"            oooooo&*======-=------==-====&ooooo..               ",
"           ooooo&===-=-==------==-==-=====*ooo....              ",
"          oooOo&==-----=-----==---=---====*&oo+O...             ",
"          ooO#o==----------=-----==--=====*&o###O..             ",
"          oo+#O=====-=--------------====***&+@##+..             ",
"          oo+@+*====-------------===****&&&&+###+..             ",
"          o.+@+&**==-==-----==-========**&&+####+..             ",
"          o.+##+&****==--==========****&&&+#####O..             ",
"          ..O###+&********************&&&++++OOOO..             ",
"          ..OOOOOOO&******&&&&&&&&+OOOOOOOOOOOOOO..             ",
"          .XOOOO++OOOOOOOOOOOOOOOOO@@+++++@@####O..             ",
"          .O####################################O..             ",
"         ...OOOOOOOOOOOOOOOOOOOOOOOOOOOOOOOOOOOOO...            ",
"         ..OO+$$$$$$$$$$$$$$$$$$$$$$$$$$$$$$$$$+OO..            ",
"         ..+$$$$$$$$$$$$$$$$$$$$$$$$$$$$$$$$$$$$$+..            ",
"         ..$$$$$$$$$$$$$$$$$$$$$$$$$$$$$$$$$$$$$$$..            ",
"         ..$$$$$$$$$$$$$$$$$$$$$$$$$$$$$$$$$$$$$$$..            ",
"         ..$+OOOOOOOOOOOOOOOOOOOOOOOOOOOOOOOOOOO+$..            ",
"         ..OO+++++++++++++++++++++++++++++++++++OO..            ",
"         ..+$$$$$$$$$$$$$%%%$$$$$$$$$$$$$$$%%$$$$+..            ",
"          .+$$$$$$$$$$$$$%%$$$$$$$$$$$$$$$$$$$$$$+..            ",
"          .+$$$$%%$$$$$$$$$$$$$$$$$$$$%%%$$$$$$$$+..            ",
"          .O$$$$$$$$$$$$$$$$$$$$$$$$$$$$$$$$$$$$$O..            ",
"          .O$$$$$$%%$$$$%%%%$$$$$$$$$$$$$$$$$$$$$O..            ",
"          .O$$$$$$$$$$$$$$$$$$$$$%%%%%$$$$%%$$$$$O..            ",
"          ..$$$$$$$$$$$$$$$$$$$$$$%%%$$$$%%%$$$$$...            ",
"          ..$$$$%%$$$$$$$$$$%%$$$$$%%$$$$%%$$$$$$..             ",
"          ..$$$$%%$$$$$$$$$$%%%$$$$$$$$$$$$$$$$$$..             ",
"          ..$$$$%$$$$$$$$$$$%%%%$$$$$$$$$$$$$%$$$..             ",
"          ..$$$$$$$%%$$$$$$$$$$$$$$$$$$$$$$$$$$$$..             ",
"          ..$$$$$$$%%%%$$$$$$$$$$$$$$$$$$$$$$$$$$..             ",
"          ..$$$$$$$$%%%$$$$$$$$$$$$$$$$$$$$$$$$$$..             ",
"          ..$$$$$$$$$$%$$%%%%$$$$$$$$$$$$$$%$$$$$...            ",
"          ..$$$$$$$$$$$$$%%%%%$$$$$$$$$$$$%%%$$$$...            ",
"          ..$$$$$%%$$$$$$$$%%%%$$$$$$$$$$$$%%%$$$...            ",
"          .O$$$$$%%$$$$$$$$$$%%%$$$$$$$$$$$$%%$$$O..            ",
"          .O$$$$$%$$$$$$$$$$$$$$$$$$$$$$$$$$$%$$$O..            ",
"          .O$$$$$$$$$$%%$$$$$$$$$$$$$$$$$$$$$$$$$O..            ",
"          .+$$$$$$$$$$$$$$$$$$$$$$$$%%%%%%%%%$$$$+..            ",
"         ..+$$$$$$%%%%%$$$$$$$$$$$$$$$$$$$$$$$$$$+..            ",
"         ..+$$$$$$$%%%$$$$$$$%%%$$$$$$$$$$$$$$$$$+..            ",
"         ..+$$$$$$$$%%$$$$$$$%%%%$$$$$$$$$$$$$$$$+..            ",
"         ..+$$$$$$$$$$$$$$$$$$$%%$$$%%$$$$$$$$$$$+..            ",
"         ..+$$$$$$$$$$$%%%$$$$$$$$%%%%$$$$$$$$$$$+..            ",
"         ..O+$$$$$$$$$$$$$$$$$$$$$$$$$$$$$$$$$$$+O..            ",
"         ..OO++$$$$$$$$$$$$$$$$$$$$$$$$$$$$$$$++OO..            ",
"         ..OOOO+++++++++++++++++++++++++++++++OOOO..            ",
"         ..OOOO+++++++++++++++++++++++++++++++OOOO..            ",
"         ..OOOO+++++++++++++++++++++++++++++++OOOO..            ",
"         ..OOOO+++++++++++++++++++++++++++++++OOOO..            ",
"          ..OOO+++++++++++++++++++++++++++++++OOO..             ",
"          ...OO+++++++++++++++++++++++++++++++OO...             ",
"           .......................................              ",
"            ..XXX...........................XXX..               ",
"             .XXX..                       ..XXX.                ",
"               .XX.                       .XX.                  ",
"               .XX.                       .XX.                  ",
"               ....                       ....                  ",
"                                                                ",
"                                                                ",
"                                                                "
};
