/* XPM */
static char *upscaled_image[] = {
/* columns rows colors chars-per-pixel */
"128 128 14 1"
"  c None"
". c #403035"
"X c #784A36"
"o c #574745"
"O c #916B48"
"+ c #B68E55"
"@ c #CBA45C"
"# c #DCB05D"
"$ c #CDB364"
"% c #C9B07B"
"& c #AF9B98"
"* c #D1BCB9"
"= c #E6D0CD"
"- c #F6E5DF"
/* pixels */
"                                                                                                                                "
"                                                                                                                                "
"                                              oooooooooooooooooooooooooooooooooooooo                                            "
"                                              oooooooooooooooooooooooooooooooooooooo                                            "
"                                  oooooooooooooo&&**==========----======--====&&oooooooo                                        "
"                                  oooooooooooooo&&**==========----======--====&&oooooooo                                        "
"                        oooooooooooo&&**============--==------------====--========&&oooooooooo....                              "
"                        oooooooooooo&&**============--==------------====--========&&oooooooooo....                              "
"                      oooooooooo&&======--==--====------------====--====--==========**oooooo........                            "
"                      oooooooooo&&======--==--====------------====--====--==========**oooooo........                            "
"                    ooooooOOoo&&====----------==----------====------==------========**&&oooo++OO......                          "
"                    ooooooOOoo&&====----------==----------====------==------========**&&oooo++OO......                          "
"                    ooooOO##oo====--------------------==----------====----==========**&&oo######OO....                          "
"                    ooooOO##oo====--------------------==----------====----==========**&&oo######OO....                          "
"                    oooo++##OO==========--==----------------------------========******&&++@@####++....                          "
"                    oooo++##OO==========--==----------------------------========******&&++@@####++....                          "
"                    oooo++@@++**========--------------------------======********&&&&&&&&++######++....                          "
"                    oooo++@@++**========--------------------------======********&&&&&&&&++######++....                          "
"                    oo..++@@++&&****====--====----------====--================****&&&&++########++....                          "
"                    oo..++@@++&&****====--====----------====--================****&&&&++########++....                          "
"                    oo..++####++&&********====----====================********&&&&&&++##########OO....                          "
"                    oo..++####++&&********====----====================********&&&&&&++##########OO....                          "
"                    ....OO######++&&****************************************&&&&&&++++++++OOOOOOOO....                          "
"                    ....OO######++&&****************************************&&&&&&++++++++OOOOOOOO....                          "
"                    ....OOOOOOOOOOOOOO&&************&&&&&&&&&&&&&&&&++OOOOOOOOOOOOOOOOOOOOOOOOOOOO....                          "
"                    ....OOOOOOOOOOOOOO&&************&&&&&&&&&&&&&&&&++OOOOOOOOOOOOOOOOOOOOOOOOOOOO....                          "
"                    ..XXOOOOOOOO++++OOOOOOOOOOOOOOOOOOOOOOOOOOOOOOOOOO@@@@++++++++++@@@@########OO....                          "
"                    ..XXOOOOOOOO++++OOOOOOOOOOOOOOOOOOOOOOOOOOOOOOOOOO@@@@++++++++++@@@@########OO....                          "
"                    ..OO########################################################################OO....                          "
"                    ..OO########################################################################OO....                          "
"                  ......OOOOOOOOOOOOOOOOOOOOOOOOOOOOOOOOOOOOOOOOOOOOOOOOOOOOOOOOOOOOOOOOOOOOOOOOOO......                        "
"                  ......OOOOOOOOOOOOOOOOOOOOOOOOOOOOOOOOOOOOOOOOOOOOOOOOOOOOOOOOOOOOOOOOOOOOOOOOOO......                        "
"                  ....OOOO++$$$$$$$$$$$$$$$$$$$$$$$$$$$$$$$$$$$$$$$$$$$$$$$$$$$$$$$$$$$$$$$$$$++OOOO....                        "
"                  ....OOOO++$$$$$$$$$$$$$$$$$$$$$$$$$$$$$$$$$$$$$$$$$$$$$$$$$$$$$$$$$$$$$$$$$$++OOOO....                        "
"                  ....++$$$$$$$$$$$$$$$$$$$$$$$$$$$$$$$$$$$$$$$$$$$$$$$$$$$$$$$$$$$$$$$$$$$$$$$$$$++....                        "
"                  ....++$$$$$$$$$$$$$$$$$$$$$$$$$$$$$$$$$$$$$$$$$$$$$$$$$$$$$$$$$$$$$$$$$$$$$$$$$$++....                        "
"                  ....$$$$$$$$$$$$$$$$$$$$$$$$$$$$$$$$$$$$$$$$$$$$$$$$$$$$$$$$$$$$$$$$$$$$$$$$$$$$$$....                        "
"                  ....$$$$$$$$$$$$$$$$$$$$$$$$$$$$$$$$$$$$$$$$$$$$$$$$$$$$$$$$$$$$$$$$$$$$$$$$$$$$$$....                        "
"                  ....$$$$$$$$$$$$$$$$$$$$$$$$$$$$$$$$$$$$$$$$$$$$$$$$$$$$$$$$$$$$$$$$$$$$$$$$$$$$$$....                        "
"                  ....$$$$$$$$$$$$$$$$$$$$$$$$$$$$$$$$$$$$$$$$$$$$$$$$$$$$$$$$$$$$$$$$$$$$$$$$$$$$$$....                        "
"                  ....$$++OOOOOOOOOOOOOOOOOOOOOOOOOOOOOOOOOOOOOOOOOOOOOOOOOOOOOOOOOOOOOOOOOOOOOO++$$....                        "
"                  ....$$++OOOOOOOOOOOOOOOOOOOOOOOOOOOOOOOOOOOOOOOOOOOOOOOOOOOOOOOOOOOOOOOOOOOOOO++$$....                        "
"                  ....OOOO++++++++++++++++++++++++++++++++++++++++++++++++++++++++++++++++++++++OOOO....                        "
"                  ....OOOO++++++++++++++++++++++++++++++++++++++++++++++++++++++++++++++++++++++OOOO....                        "
"                  ....++$$$$$$$$$$$$$$$$$$$$$$$$$$%%%%%%$$$$$$$$$$$$$$$$$$$$$$$$$$$$$$%%%%$$$$$$$$++....                        "
"                  ....++$$$$$$$$$$$$$$$$$$$$$$$$$$%%%%%%$$$$$$$$$$$$$$$$$$$$$$$$$$$$$$%%%%$$$$$$$$++....                        "
"                    ..++$$$$$$$$$$$$$$$$$$$$$$$$$$%%%%$$$$$$$$$$$$$$$$$$$$$$$$$$$$$$$$$$$$$$$$$$$$++....                        "
"                    ..++$$$$$$$$$$$$$$$$$$$$$$$$$$%%%%$$$$$$$$$$$$$$$$$$$$$$$$$$$$$$$$$$$$$$$$$$$$++....                        "
"                    ..++$$$$$$$$%%%%$$$$$$$$$$$$$$$$$$$$$$$$$$$$$$$$$$$$$$$$%%%%%%$$$$$$$$$$$$$$$$++....                        "
"                    ..++$$$$$$$$%%%%$$$$$$$$$$$$$$$$$$$$$$$$$$$$$$$$$$$$$$$$%%%%%%$$$$$$$$$$$$$$$$++....                        "
"                    ..OO$$$$$$$$$$$$$$$$$$$$$$$$$$$$$$$$$$$$$$$$$$$$$$$$$$$$$$$$$$$$$$$$$$$$$$$$$$OO....                        "
"                    ..OO$$$$$$$$$$$$$$$$$$$$$$$$$$$$$$$$$$$$$$$$$$$$$$$$$$$$$$$$$$$$$$$$$$$$$$$$$$OO....                        "
"                    ..OO$$$$$$$$$$$$%%%%$$$$$$$$%%%%%%%%$$$$$$$$$$$$$$$$$$$$$$$$$$$$$$$$$$$$$$$$$$OO....                        "
"                    ..OO$$$$$$$$$$$$%%%%$$$$$$$$%%%%%%%%$$$$$$$$$$$$$$$$$$$$$$$$$$$$$$$$$$$$$$$$$$OO....                        "
"                    ..OO$$$$$$$$$$$$$$$$$$$$$$$$$$$$$$$$$$$$$$$$$$%%%%%%%%%%$$$$$$$$%%%%$$$$$$$$$$OO....                        "
"                    ..OO$$$$$$$$$$$$$$$$$$$$$$$$$$$$$$$$$$$$$$$$$$%%%%%%%%%%$$$$$$$$%%%%$$$$$$$$$$OO....                        "
"                    ....$$$$$$$$$$$$$$$$$$$$$$$$$$$$$$$$$$$$$$$$$$$$%%%%%%$$$$$$$$%%%%%%$$$$$$$$$$......                        "
"                    ....$$$$$$$$$$$$$$$$$$$$$$$$$$$$$$$$$$$$$$$$$$$$%%%%%%$$$$$$$$%%%%%%$$$$$$$$$$......                        "
"                    ....$$$$$$$$%%%%$$$$$$$$$$$$$$$$$$$$%%%%$$$$$$$$$$%%%%$$$$$$$$%%%%$$$$$$$$$$$$....                          "
"                    ....$$$$$$$$%%%%$$$$$$$$$$$$$$$$$$$$%%%%$$$$$$$$$$%%%%$$$$$$$$%%%%$$$$$$$$$$$$....                          "
"                    ....$$$$$$$$%%%%$$$$$$$$$$$$$$$$$$$$%%%%%%$$$$$$$$$$$$$$$$$$$$$$$$$$$$$$$$$$$$....                          "
"                    ....$$$$$$$$%%%%$$$$$$$$$$$$$$$$$$$$%%%%%%$$$$$$$$$$$$$$$$$$$$$$$$$$$$$$$$$$$$....                          "
"                    ....$$$$$$$$%%$$$$$$$$$$$$$$$$$$$$$$%%%%%%%%$$$$$$$$$$$$$$$$$$$$$$$$$$%%$$$$$$....                          "
"                    ....$$$$$$$$%%$$$$$$$$$$$$$$$$$$$$$$%%%%%%%%$$$$$$$$$$$$$$$$$$$$$$$$$$%%$$$$$$....                          "
"                    ....$$$$$$$$$$$$$$%%%%$$$$$$$$$$$$$$$$$$$$$$$$$$$$$$$$$$$$$$$$$$$$$$$$$$$$$$$$....                          "
"                    ....$$$$$$$$$$$$$$%%%%$$$$$$$$$$$$$$$$$$$$$$$$$$$$$$$$$$$$$$$$$$$$$$$$$$$$$$$$....                          "
"                    ....$$$$$$$$$$$$$$%%%%%%%%$$$$$$$$$$$$$$$$$$$$$$$$$$$$$$$$$$$$$$$$$$$$$$$$$$$$....                          "
"                    ....$$$$$$$$$$$$$$%%%%%%%%$$$$$$$$$$$$$$$$$$$$$$$$$$$$$$$$$$$$$$$$$$$$$$$$$$$$....                          "
"                    ....$$$$$$$$$$$$$$$$%%%%%%$$$$$$$$$$$$$$$$$$$$$$$$$$$$$$$$$$$$$$$$$$$$$$$$$$$$....                          "
"                    ....$$$$$$$$$$$$$$$$%%%%%%$$$$$$$$$$$$$$$$$$$$$$$$$$$$$$$$$$$$$$$$$$$$$$$$$$$$....                          "
"                    ....$$$$$$$$$$$$$$$$$$$$%%$$$$%%%%%%%%$$$$$$$$$$$$$$$$$$$$$$$$$$$$%%$$$$$$$$$$......                        "
"                    ....$$$$$$$$$$$$$$$$$$$$%%$$$$%%%%%%%%$$$$$$$$$$$$$$$$$$$$$$$$$$$$%%$$$$$$$$$$......                        "
"                    ....$$$$$$$$$$$$$$$$$$$$$$$$$$%%%%%%%%%%$$$$$$$$$$$$$$$$$$$$$$$$%%%%%%$$$$$$$$......                        "
"                    ....$$$$$$$$$$$$$$$$$$$$$$$$$$%%%%%%%%%%$$$$$$$$$$$$$$$$$$$$$$$$%%%%%%$$$$$$$$......                        "
"                    ....$$$$$$$$$$%%%%$$$$$$$$$$$$$$$$%%%%%%%%$$$$$$$$$$$$$$$$$$$$$$$$%%%%%%$$$$$$......                        "
"                    ....$$$$$$$$$$%%%%$$$$$$$$$$$$$$$$%%%%%%%%$$$$$$$$$$$$$$$$$$$$$$$$%%%%%%$$$$$$......                        "
"                    ..OO$$$$$$$$$$%%%%$$$$$$$$$$$$$$$$$$$$%%%%%%$$$$$$$$$$$$$$$$$$$$$$$$%%%%$$$$$$OO....                        "
"                    ..OO$$$$$$$$$$%%%%$$$$$$$$$$$$$$$$$$$$%%%%%%$$$$$$$$$$$$$$$$$$$$$$$$%%%%$$$$$$OO....                        "
"                    ..OO$$$$$$$$$$%%$$$$$$$$$$$$$$$$$$$$$$$$$$$$$$$$$$$$$$$$$$$$$$$$$$$$$$%%$$$$$$OO....                        "
"                    ..OO$$$$$$$$$$%%$$$$$$$$$$$$$$$$$$$$$$$$$$$$$$$$$$$$$$$$$$$$$$$$$$$$$$%%$$$$$$OO....                        "
"                    ..OO$$$$$$$$$$$$$$$$$$$$%%%%$$$$$$$$$$$$$$$$$$$$$$$$$$$$$$$$$$$$$$$$$$$$$$$$$$OO....                        "
"                    ..OO$$$$$$$$$$$$$$$$$$$$%%%%$$$$$$$$$$$$$$$$$$$$$$$$$$$$$$$$$$$$$$$$$$$$$$$$$$OO....                        "
"                    ..++$$$$$$$$$$$$$$$$$$$$$$$$$$$$$$$$$$$$$$$$$$$$$$$$%%%%%%%%%%%%%%%%%%$$$$$$$$++....                        "
"                    ..++$$$$$$$$$$$$$$$$$$$$$$$$$$$$$$$$$$$$$$$$$$$$$$$$%%%%%%%%%%%%%%%%%%$$$$$$$$++....                        "
"                  ....++$$$$$$$$$$$$%%%%%%%%%%$$$$$$$$$$$$$$$$$$$$$$$$$$$$$$$$$$$$$$$$$$$$$$$$$$$$++....                        "
"                  ....++$$$$$$$$$$$$%%%%%%%%%%$$$$$$$$$$$$$$$$$$$$$$$$$$$$$$$$$$$$$$$$$$$$$$$$$$$$++....                        "
"                  ....++$$$$$$$$$$$$$$%%%%%%$$$$$$$$$$$$$$%%%%%%$$$$$$$$$$$$$$$$$$$$$$$$$$$$$$$$$$++....                        "
"                  ....++$$$$$$$$$$$$$$%%%%%%$$$$$$$$$$$$$$%%%%%%$$$$$$$$$$$$$$$$$$$$$$$$$$$$$$$$$$++....                        "
"                  ....++$$$$$$$$$$$$$$$$%%%%$$$$$$$$$$$$$$%%%%%%%%$$$$$$$$$$$$$$$$$$$$$$$$$$$$$$$$++....                        "
"                  ....++$$$$$$$$$$$$$$$$%%%%$$$$$$$$$$$$$$%%%%%%%%$$$$$$$$$$$$$$$$$$$$$$$$$$$$$$$$++....                        "
"                  ....++$$$$$$$$$$$$$$$$$$$$$$$$$$$$$$$$$$$$$$%%%%$$$$$$%%%%$$$$$$$$$$$$$$$$$$$$$$++....                        "
"                  ....++$$$$$$$$$$$$$$$$$$$$$$$$$$$$$$$$$$$$$$%%%%$$$$$$%%%%$$$$$$$$$$$$$$$$$$$$$$++....                        "
"                  ....++$$$$$$$$$$$$$$$$$$$$$$%%%%%%$$$$$$$$$$$$$$$$%%%%%%%%$$$$$$$$$$$$$$$$$$$$$$++....                        "
"                  ....++$$$$$$$$$$$$$$$$$$$$$$%%%%%%$$$$$$$$$$$$$$$$%%%%%%%%$$$$$$$$$$$$$$$$$$$$$$++....                        "
"                  ....OO++$$$$$$$$$$$$$$$$$$$$$$$$$$$$$$$$$$$$$$$$$$$$$$$$$$$$$$$$$$$$$$$$$$$$$$++OO....                        "
"                  ....OO++$$$$$$$$$$$$$$$$$$$$$$$$$$$$$$$$$$$$$$$$$$$$$$$$$$$$$$$$$$$$$$$$$$$$$$++OO....                        "
"                  ....OOOO++++$$$$$$$$$$$$$$$$$$$$$$$$$$$$$$$$$$$$$$$$$$$$$$$$$$$$$$$$$$$$$$++++OOOO....                        "
"                  ....OOOO++++$$$$$$$$$$$$$$$$$$$$$$$$$$$$$$$$$$$$$$$$$$$$$$$$$$$$$$$$$$$$$$++++OOOO....                        "
"                  ....OOOOOOOO++++++++++++++++++++++++++++++++++++++++++++++++++++++++++++++OOOOOOOO....                        "
"                  ....OOOOOOOO++++++++++++++++++++++++++++++++++++++++++++++++++++++++++++++OOOOOOOO....                        "
"                  ....OOOOOOOO++++++++++++++++++++++++++++++++++++++++++++++++++++++++++++++OOOOOOOO....                        "
"                  ....OOOOOOOO++++++++++++++++++++++++++++++++++++++++++++++++++++++++++++++OOOOOOOO....                        "
"                  ....OOOOOOOO++++++++++++++++++++++++++++++++++++++++++++++++++++++++++++++OOOOOOOO....                        "
"                  ....OOOOOOOO++++++++++++++++++++++++++++++++++++++++++++++++++++++++++++++OOOOOOOO....                        "
"                  ....OOOOOOOO++++++++++++++++++++++++++++++++++++++++++++++++++++++++++++++OOOOOOOO....                        "
"                  ....OOOOOOOO++++++++++++++++++++++++++++++++++++++++++++++++++++++++++++++OOOOOOOO....                        "
"                    ....OOOOOO++++++++++++++++++++++++++++++++++++++++++++++++++++++++++++++OOOOOO....                          "
"                    ....OOOOOO++++++++++++++++++++++++++++++++++++++++++++++++++++++++++++++OOOOOO....                          "
"                    ......OOOO++++++++++++++++++++++++++++++++++++++++++++++++++++++++++++++OOOO......                          "
"                    ......OOOO++++++++++++++++++++++++++++++++++++++++++++++++++++++++++++++OOOO......                          "
"                      ..............................................................................                            "
"                      ..............................................................................                            "
"                        ....XXXXXX......................................................XXXXXX....                              "
"                        ....XXXXXX......................................................XXXXXX....                              "
"                          ..XXXXXX....                                              ....XXXXXX..                                "
"                          ..XXXXXX....                                              ....XXXXXX..                                "
"                              ..XXXX..                                              ..XXXX..                                    "
"                              ..XXXX..                                              ..XXXX..                                    "
"                              ..XXXX..                                              ..XXXX..                                    "
"                              ..XXXX..                                              ..XXXX..                                    "
"                              ........                                              ........                                    "
"                              ........                                              ........                                    "
"                                                                                                                                "
"                                                                                                                                "
"                                                                                                                                "
"                                                                                                                                "
"                                                                                                                                "
"                                                                                                                                "
};
