/* XPM */
static char *_b5088c179a5439fc0cefc57a05506a5IT7LG9fAoqwlwq1K[] = {
/* columns rows colors chars-per-pixel */
"128 128 2 1 ",
"  c #8F974A",
". c #EEC39A",
/* pixels */
"                                      .                        ..              .              .   .. .                          ",
"                                     .                         .      .            ..     . .  ..  .    .                       ",
"       .  .                                .                   . .     .            .  . .. ...                                 ",
"         .                                                                    .    .. ...   ...  .               .              ",
"                         ..         .        .         .             .       . . . . .    .. ... .   ..      .           .      ",
"       .      .  .                         .                           .     .     .    .  ... ... ...     .   .    .     .     ",
"                                         .                    .      ...  . .   .  ...  .  . ...  ....   .     . .              ",
"             .         .  .                 .                   .     ..  .         .   . ..   .    .   .                       ",
"            .                                                  .                .  .   .  .....      .  ..    .    .     . .    ",
"         ....       .   .    .              .                           .  . . . .   ..     . .              .      .           ",
" .        .  . .      . .    .    .                         . .        . . ..    .      .  .. .        .       .     .          ",
"        .     .. . .                            .     .       .    ...   .             .   .. ..              .          .   .  ",
"    .          .. .         .     .            .          . .  . .   ..           .     .  ..  ...             .               .",
"        .  .  ..  .  ..    .                      .  .   . .      .       . ..  . . ..      .       .               .  ..       ",
"   .      . ..        .                    .      .        . .     . .. ..   .  .     .. . ..         .   .            .   .  . ",
" .            .     ..   .      ..              .  .   .   ..   . .. . .  .   .     .. . .  .     . .  .    .             .     ",
"          .  .     .. .         .   .     .  .   . .  .  ... .   ...   .    . ... .  .   .        ...        .. ....   .        ",
"     .     .  .. ...                                 ...  .         .   .  ..   .  .    .    . .       .    .    ...    ..      ",
"      ..   .     . ....  .                            ..      ...        .  .       ...   . .   .     .           . .   ..   .  ",
"           .  . .  ...    ..                                             . .    . ...   .        .  .       .  .      . .       ",
"  .  .    .          ..   .        .  .        .       .       .     .   . .        ..    .  ...    .  .. . .     . .           ",
"     .. .   .  .   . .   ..              .    .         .         .    .  .   .  ..                       .  ... . .    .       ",
"       .    ... ... .    .                               . .     .   .  .      .    .  .      .  .  .   .     . .   .   .  . .  ",
"      .     . ...   . .        .                .  .       ..         . . .    .           .           .        .    .          ",
"     .  .  .... . ..                         .    ..         .                 .             .                     .    .       ",
"            ... . .       . . .       .       ..                          .                                .  .                 ",
"  .  .       . . .   .                                      ..             .                        ..             .     ..     ",
"        .   .         ..             . .                 .       .        ..                                    .              .",
"      .  ..  .    .        .                 .. ..                             .                               .  ..            ",
"         .    ... . .   .                .   .  ..             .   .             .    .                  .          .   . .     ",
"      .    ...        . .        .                                 . .                            .  .      .                   ",
".                 .  .  .                       .              .    ...         ...                                             ",
"   .       ..  ..  .  .                                  .  . .  .   .        . .           .        .       .   ..       .     ",
"       .        .   ..                   .                  .        .  .   .  ..           .   .   .  .        .     .  .      ",
"       .        .   .     .                             .   .      .  .       .               .  ...            .         .     ",
"           ..   ..  .. .                             . . . .        .        .  .                 .  .         .  .             ",
"  .       .  .                          . .               ..        ...  .. . .               .   .     .   .        . .        ",
"    ...                                  .            ..     .      . .  ..... .. .    .         .  .       .  ..               ",
" .     .   .               ..   .    .                         .   . .  .       .       .       .. .          .   .    .    .   ",
"        . . .....             .  .       .    .        .... .  .     . . ..   .  . .  .          .      .           ..  . .     ",
"      ..      .     ..         .                                 .. ..  .       . .    .   .    .              .          .   . ",
"    .   ..  .....  . .      . ..           . .   .        ..     .    .....  ... .       . ..   .  .      .       .           . ",
"      . .  .     ...         .     .    ..     .       .      .   ...  . ....  ... . .   . ..      . .   .   .       ..     .   ",
"        .   .       . .      .           . .            .... . ..  ........... . . ..    .    ..   .                . . .     . ",
"      .. ...   . .                  .   .      . .       .. .. .......... ... . ..  ...    .  .  . .       .  .    ..     .     ",
"  ..  .... .               .    ..     .       ..              ........... .. .  . . .            .    . .  .        .  ...    .",
"      .... ..  .    ..        . .     .     .      .    .  . .  ............ .. . ..  ....     . ..  . .   .       . .. ..      ",
" .     .  .  .  . . .     .    ... . . .. .  .   .   .   .... ... ........... .  ....       .         .       .  .    ... .     ",
"  .  .  . ..  .        .   .        .  .. .      .  . ....   .   ... ........ .  . . . .... . ... .    ..  .   .   .  ... .     ",
"  . .  ...      .               . . .. ..     . .. ... .  . ...   ....  . .......   ..  .. . ... .  ..                .     .   ",
"  .     .  ..     .          .    .  . . .    .. ..  ... . . . ......   .......   ... .....   . .                  . ..       . ",
" ... .      ..  .                  .  .   . .  ..   ... ...... . . ................  ...      ... .  . .      .     ... .  ..   ",
"              ..             .    .     . .   .  ... ...  .  ... . ... ..  .... . ... .    ... ...  . . ..   .   .   .....      ",
" .     .. .       .              ..       . .... ... .....   .  ......  ...... .  .     .  . ........    .      ..    . ..      ",
".  .    ..  . .  ..           . .    .  . .. ..........  ..  .... ...... . ....... ... .  .  .. .. .      . . .   . . ..     .  ",
". .          .  .    .      .  .      . ..   .. .   .....  ........ ..   ..  .. ...   .  .  ..  .  ...      ...   .    .    .   ",
" .   .   .      .       .          . .  .  . .... ..........  . . ......   .  .. ....    .. .   .      .     .       .          ",
"     ... .  .    .  .           .      .  ........... .....  ..   . ....... . .   ..  . .    ...  ..     .   . .     .    .     ",
"  . .        .  .           ..     . ..  ...  ...  . . ....   .....      . ..  ..  ... . ..   .             .                  .",
"    .  .  . .          ...      .      .  ... ..  .... .. ...............   ... .. . . .  ..          .     .                   ",
"        .       ..          .    .  ...     ...  .... .... . .... . . .... .  ..    ... .  .          .   .  ..          ..   . ",
"             ....              .   . .. . .  . .  ... .................  .....  .    . . . .   ..        .                      ",
"          .       .       .           .... ..... . . ...............  .  .... . . ..  . .... .   .    .  .       .        .     ",
"                   .        .  ..  .  ...... ..  ........ ......... .  .... ...      .  .            .                          ",
"         ..    .  ..         .     .  .  ..... ... ..  ....... .... ... ....  .. ..    ..    .  .                    .  . .     ",
"         .   . .       .          ...  .    ..... ................. . ...   .. .        .                    .                  ",
"     .             . . .       .   ..  .   .   ................... .   .....  .....    ..      .  .   .  .    .      .          ",
"             .   ....  .  .      ..    .. ..  ....   ................. .   . . ..      .   .                    .               ",
"      .       ...  . .. .. .       ... .   .   .. . . ... .................. .. .. . .  .                   .        .  .  .    ",
"         . .            .   .   .  .   ..  ... .    ..  ............... .. .... .       .                                       ",
"         .   .. ..  .     .       .... .  . .  .. .   ...  . ..........   ......       .       .                     .    .     ",
"    .         .                 . .      .  . .    ... ...... .......... ... ....       .  .                           .        ",
"             .        .    .              .  .         ... ..............    .. .   .     .               .       .          .  ",
"           .   .     .   ...   .. .. .    .  .   . .... .. .......  . . .  .... .   .                   .                       ",
"                       .    .   ..        .  . .  ..  ... . ...... .... . . .... .     ..                      .               .",
"  .                      ..  . ....                ..   . .. .  ..... .  . .....   ..   . .  .                         .      . ",
"                  .           .    .  .   .       .. ....    . . .  ....   .    .    .  .  .               .        .. .   .    ",
"                                ..   ..  .       ..  ...... . ........ .  . . .          .                 .  .    .  .         ",
"         ..    .             .      .   .    .         .. ... ..         ..      ...   .  .         .             . .      .    ",
"             .   ..         . . .     . . .              ..    . ... ...  .    ..     .           .             . ... ..    .  .",
"                           . . .    .             .   ..   .  .  .. ...    . . .. ..    .. .                     .... .... .    ",
"                             .     . . .. . .  .     .. ...    ..  ...  .              ..   .                     .  .      .   ",
"                             .        .  ....           ...    . ... . .     .    .. ...                             . ..   . . ",
"   .                         .   . .    .  .      . .    . . ....  . ....    .. ..  .  ....     ..   .  .     ..             .  ",
"       .              .   .  .   .              .   .     ..       .    . .... . .  .... ...       .           .                ",
"                             .   ..  .   ..       ..           .  .         ..  . . .    . .                .            .      ",
"                      .   ..    .  ...       .                      . .     . .  . .. .    .              .                 ..  ",
"       .       ..               .  ....  .       .                        . .     .    ...   .  .       .                       ",
"         .      .          .    .   . .   ....  .. .          ..    ..      .       .  . .    .             .       .       .   ",
"        .         .       .      ..    .    .   .  .. .  ..     . .     .  .       .   .    .                 .    .            ",
"      . .                          ...  ....       .              . . .         .     .  .       . ..           .              .",
"           . .        ...         ....   .  . .  .                .  .....     ....         .        .      .    .    .         ",
"            .     .   .  ..  . ...  ..          .  .    .    .   .. .     .. ......    .                               ..  .    ",
"             ...   .  .... ... ..  .   .. .. .                   .      ...   .    . ...   .  ..                                ",
"          .   .    . .. . ..  .    .. ..  .  ...             ..  .             ... ..   .  .       .                            ",
"             ... ...  .     . .  .  .      .  ... .      .         .  .   .    .    .  ..                                       ",
"           . .   .... ...     ..       . . .  ..      ..        . .     .       .    .      . . .                               ",
"       .  ...  ...   .  ...            ..      .   .     . .     .   .    ..         .                                          ",
"             .. .     . ..   .     . . . .                 .       .        .   .          .                                    ",
"..           . ..     ..  .. . ...  .    .    .     .           .   .    .    .             .   .        . .       .            ",
". .  .  .. .  . . .   .   .         ...        .       .   .   .            .     .        .  .    ..                           ",
"         .   . ... .   . ...       ..    .             .       . .   .                  . .           .                         ",
"            ... .  .  .    .     .  .     ..       .. .  .   ..          . . .                .           .         .           ",
" .     .    . ...   .    .  .      ...       ...   .  . .               . ..  .        .  .       .         .   .        .      ",
"  .          . ... .   .    ..  .  ..     ...     .               .               . . .  .   .           . .                    ",
"          .  .     ..          .        ..       .     .              .   .       .    .       .        .      .                ",
"         . .     .      ..  .               .    .      .  .             .     .       .    . ...  ..  . .   .                  ",
"               .      ....              .     .  .  .             ..       .            . . .   ..  .  . . . . . .              ",
"       . .     .  .   .. ..  .       .    .. . ... .                  .         .        .  ..  . ...   .    . .                ",
"         ..   . . ..    ..                    .... . .      .  .      .                    .  .      .     .    .               ",
"   .         .  .    ..     .     .  . .    ....    ..    .              .           ..     .  ..    .   .. . . .               ",
"                  .    . . . ..   .                .  .                 .       .      .   .   .. . ..    . .    .              ",
"          .  ..    ..  .     .        .       .       ..  .          . . .           . .        . ......   .  . .               ",
"          .   ..   . ..     .                .  .         .                 .     . .          ..... . ..... .                  ",
"           ...        . .        .         .               .    .                      . .   .  ...   .        .                ",
"                  ...      . .  .   .         ..                .                 .    .   .  .  ...  . . . .  ..       .       ",
"                 ...    .   .         ..                 ..  .          . .           .  .   . . .. ...   . . .    .        .   ",
"  .          .     .        .   .  .     .     .     .              .   .       .        .   .  .. ...  .       .     .         ",
"               .   .    . ..        .                                   .                   ..  .    .  ..       .              ",
"     .                                       . ..                       .                 .  . .    .   .      .    . ..        ",
"            .   .                                            ..              .                 . .      .  .     .              ",
" .                    .          .              .                      .                         .   ...  .     .       .       ",
"                    .    .    .          ..                                               .  .       . .                        ",
"                        . .                                                                   .     ..                  .       ",
"                   . ..  .                                                                             . .               .      ",
"          .                                                              .             .    .     .   .  .                      ",
"                                                                                                     .   .                      ",
".           .                                                                                     .    . .                      "
};
