/* XPM */
static char *_76cdcf56c764096d3ccfb5846c3f2a2oTg3NrzE1mjTBikn[] = {
/* columns rows colors chars-per-pixel */
"128 128 57 1 ",
"  c #36170C",
". c #383B0C",
"X c #3D3E0F",
"o c #392A1C",
"O c #353328",
"+ c #3A382C",
"@ c #550F0A",
"# c #45230D",
"$ c #773421",
"% c #404212",
"& c #444514",
"* c #724113",
"= c #636917",
"- c #656C17",
"; c #686F16",
": c #72751B",
"> c #42423B",
", c #44443D",
"< c #684C3C",
"1 c #787B21",
"2 c #464541",
"3 c #484743",
"4 c #4B4A46",
"5 c #4E4D49",
"6 c #605C48",
"7 c #64604B",
"8 c #66624D",
"9 c #6C6852",
"0 c #7C7B6E",
"q c #9B1A0A",
"w c #EF3A0C",
"e c #AB5C1C",
"r c #A2783C",
"t c #EF692F",
"y c #927E6A",
"u c #807F72",
"i c #7F8226",
"p c #EFAC28",
"a c #A2814F",
"s c #BD9842",
"d c #828175",
"f c #848377",
"g c #838279",
"h c #848279",
"j c #878679",
"k c #87857C",
"l c #88867D",
"z c #8A8A7D",
"x c #C6A740",
"c c #EFB775",
"v c #8D8B83",
"b c #8E8C83",
"n c #8E8C84",
"m c #939189",
"M c #9CA8AD",
"N c #B3B0A9",
"B c #EFD8A1",
/* pixels */
"::::::::::::::::::::::::::::::::::::::::::::::::::::::::::::::::::::::::::::::::::::::::::::::::::::::::::::::::::::::::::::::::",
"::::::::::::::::::::::::::::::::::::::::::::::::::::::::::::::::::::::::::::::::::::::::::::i11:::::::::::::::::::::::::::::::::",
":::::::::::::::::::::::::::::::::::::::::::::::::::::::::::::::::::::::::::::::::::::::::::::111::uuuuuuuuuuuu::::::::::::::::::",
"::::::::::::::::::::::::::::::::::::::::::::i:::::::::::::::::::::::::::::::::::::::::::::::::--:luuuuuuuuuuuul:::::::::::::::::",
"::::::::::::::::::::::::::::::::::::::::::::11:::::::::::::::::::::::::::::::::::::::::::::::::::luuuuuuuuuuuul:::::::::::::::::",
"::::::::::::::::::::::::::::::::::::::::ii1:-1::::::::::::::::::::::::::::::::i::::::::::::::::::luuuuuuuuuuuul:::::::::::::::::",
":::::::::::::::::::::::::::::::::::::::::i11--:ii1:::::::::::::::::::::1ii:::i:::::::::::::::::::luuuuuuuuuuuul:::::::::::::::::",
"::::::::::::::::::::::::::::::::::::::1i:-11:-11i:::::::::::::::::::::::i11:ii:::::::::::::::::::luuuuuuuuuuuul:::::::::::::::::",
":::::::::::::::::::::::::::::::::::::::i11-1:111::::::::::::::::::::::::-11:NN:::::::::::::::::::luuuuuuuuuuuul:::::::::::::::::",
":::::::::::::::::::::::::::::::::::::::-11:--11-:::::::::::::::::::::::::-1NaaN::::::::::::::::::luuuuuuuuuuuul:::::::::::::::::",
":::::::::::::::::::NN:::::::::::::::::::-1::---:::::::::::::::::::::::::::-=NN=::::::::::::::::::luuuuuuuuuuuul:::::::::::::::::",
"::::::::::::::::::NaaN:::::::::::::::::::-:11:::::::::::::::::::::::::::::::==:::::::::::::::::::luuuuuuuuuuuul:11::::::::::::::",
"::::::::::::::::::=NN=:::::::::::::::::::::i-::::::::::::::::::::::::::::::::::::::::::::::::::::vvvvvuuuuuuuuli1:::::::::::::::",
":::::::::::::::::::==::::::::::::::::::::::-:::::::::::::::::::::::::::::::::::::::::::::::::::::::777vuuuuuuul1-:::::::::::::::",
"::::::::::::::::::::::::::::::::::::::::::::::::::::::::::::1ii:::::::::::::::::::::::::::::::::::::::7vuuuuuul1-:::::::::::::::",
":::::::::::::::::::::::::::::::::::::::::::::::::::::::::::11i:::::::::::::::::::::::::::::::::::::::::7vvvvvv:1-:::::::::::::::",
":::::::::::::::::::::::::::::::::::::::::::::::::::::::::::11-::::::::::::::::::::::::::NN::::::::::::::777777:-::::::::::::::::",
":::::::::::::::::::uuuuuuuuuuuuuuuuuu:::::::000000000000000000:::::::::::::::::::::::::NaaN:NN::::::::::::::--:::::::::::::::::i",
":::::::::::::::::::uuuuuuuuuuuuuuuuuu:::::::000000000000000000:::::::::::::::::::::::::=NN=NaN::::::::::::::::::::::::::1ii:::i:",
"::::::::::::::::::luuuuuuuuuuuuuuuuuull:::hh000000000000000000h:::::::::::::::::::::::NN==:NN=:::::::::::::::::::::::::::iMM:ii:",
"::::::::::::::::::luuuuuuuuuuuuuuuuuull:::hh000000000000000000h:::::::::::::::::::::::aN:::==::::::::::::::::::::::::::::MaaM11:",
"::::::::::::::::::luuuuuuuuuuuuuuuuuull:::hh000000000000000000h:::::::::::::::::::::::==:::::::::::::::::::::::::::::::::=MM=NN:",
"::::::::::::::::::luuuuuuuuuuuuuuuuuull:::hh000000000000000000h:::::::::::::::::::::::::::::::::::::::::::::::::::::::::::==:aN:",
"::::::::::::::::::luuuuuuuuuuuuuuuuuull:::hh000000000000000000h::::::::::::::::::::::::::::::::::::::::::::::::::::::::::::::==:",
"::::::::::::::::::luuuuuuuuuuuuuuuuuull:::hh000000000000000000h:::::::::::::::::::::::::::::::::::::::::::::::::::::::::::::::::",
"::::::::::::::::::luuuuuuuuuuuuuuuuuull:::hh000000000000000000h:::::::::::::::::::::::::::::::::::::::::::::::::::::::::::::::::",
"::::::::::::::::::luuuuuuuuuuuuuuuuuull:::hh000000000000000000h:::::::::::::::::::::::::::::::::::::::::::::::::::::::::::::::::",
"::::::::::::::::::luuuuuuuuuuuuuuuuuull:::hh000000000000000000h:::::::::uuuuuuuuuuuu::::000000000000::::::::::::::::::::::::::::",
"::::::::::::::::::luuuuuuuuuuuuuuuuuull:::hh000000000000000000h::::::::luuuuuuuuuuuul::h000000000000h:::::::::::::::::::::::::::",
"::::::::::::::::::luuuuuuuuuuuuuuuuuull:::hh000000000000000000h::::::::luuuuuuuuuuuul::h000000000000h:::::::::::::::::::::::::::",
"::::::::::::::::::luuuuuuuuuuuuuuuuuull:::hh000000000000000000h::::::::luuuuuuuuuuuul::h000000000000h:::::::::::::::::::::::::::",
"::::::::::::::::::luuuuuuuuuuuuuuuuuull:::hh000000000000000000h::::::::77kuuuuuuuuuul::h000000000000h:::::::::::::::::::::::::::",
"::::::::::::::::::luuuuuuuuuuuuuuuuuull:::hh000000000000000000h:::::::::kuuuuuuuuuuul::h000000000000h:::::::::::::::::::::::::::",
"::::::::::::::::::luuuuuuuuuuuuuuuuuull:::hh000000000000000000h:::::::::kuuuuuuuuuuul::h000000000000h:::::::::::::::::::::::::::",
"::::::::::::::::::luuuuuuuuuuuuuuuuuull:::hh000000000000000000h::::::::kuuuuuuuuuuuul::h000000000000h:::::::::::::::::::::::::::",
"::::::::::::::::::luuuuuuuuuuuuuuuuuull:::hh000000000000000000h::::::::kuuuuuuuuuuuul::h000000000000h:::::::::::::::::::::::::::",
"::::::::::::::::::luuuuuuuuuuuuuuuuuull:::hh000000000000000000h::::::::kuuuuuuuuuuuul::h000000000000h:::::::::::::::::::::::::::",
"::::::::::::::::::7vvvvvvvvvvvvvvvvvv77:::66llllllllllllllllll7::::::::kuuuuuuuuuuuul::h000000000000h:::::::::::::::::::::::::::",
":::::::::::::::::::778888888888888887:::::::666666666777666677:::i:::::kuuuuuuuuuuu1i::h011000000000h:::::::::::::::::::::::::::",
":::::::::::::::::::778888888888888887:::::::66666666677766#6#########::juuuuuuuuuuuuii:g110000000000l:::::::::::::::::::::::::::",
":::::::::::::::i:::::::::::::::::::::::::::::::::::::::::o<#<o<<<<o<<o:7vvvvvvvvvvvv-11711lllllllllv::::::::::::::::::::::::::::",
"::::::::::ii1::11::jjjjjjjjjjjjjjjjjj:::::::uuuuuuuuuuuu#<<<<*o<<<*o<*#o777777777777-11:--7776666677::::::::i1::::::::::::::::::",
":::::::::::i11:-1:bjjjjjjjjjjjjjjjjjjbb:::ffuuuuuuuuuuuo<<<<<<o<<<<o<<<*#::::::::::::--::::::::::::::::i1::1i-::::::::::::::::::",
":::::::::::-111-:1bjjjjjjjjjjjjjjjjjjbb:::ffuuuuuuuuuu#<<<<<<<*o<<<<<<<<*ouuuuuuuuuu::::jjjjjjjjjjjj:::-11:11:::::::::::::::::::",
"::::::::::i1-11:NNbjjjjjjjjjjjjjjjjjjbb:::jjuuuuuuuuuu#<<<<<<<<o<<<<<<<<<*#uuuuuuuuul::njjjjjjjjjjjjn:::-111-:::::::::::::::::::",
"::::::::::-11-1Naabjjjjjjjjjjjjjjjjjjbb:::kkuuuuuuuuuu#*<<<<<<<<<<<<<<<<<*o uuuuuuuul::njjjjjjjjjjjjn:::-11-::::::::::::::::::::",
":::::::::::-1--=NNbjjjjjjjjjjjjjjjjjjbb:::kkuuuuuuuuuu*###*<<<<<<<<<<<<<*ooo#uuuuuuul::njjjjjjjjjjjjn::::-1:::::::::::::::::::::",
"::::::::::::::::==bjjjjjjjjjjjjjjjjjjbb:::kkuuuuuuuuu<ccpp#<<<<<<<<<<<<*oooo uuuuuuul::njjjjjjjjjjjjn:::::::::::::::::::::::::::",
"::::::::::::MM:::Nbjjjjjjjjjjjjjjjjjjbb:::kkuuuuuuuu<cp<yy###*<<<*oo*ooooooo##uuuuuul::njjjjjjjjjjjjn:::::::::::::::::::::::::::",
"::::::::::::aM::Nabjjjjjjjjjjjjjjjjjjbb:::kkuuuuuuuu<pyBBB<pc###*o**oooooooo uuuuuuul::njjjjjjjjjjjjb:::::::::::::::::::::::::::",
"::::::::::::==::NNbjjjjjjjjjjjjjjjjjjbb:::lluuuuuuuu*<BBBBBypccco*cc*ooooooo uuuuuuul::njjjjjjjjjjjjb:::::::::::::::::::::::1ii:",
"::::::::::::::::==bjjjjjjjjjjjjjjjjjjbb:::lluuuuuuuu*  BBBBB<pcc*cccp*oooooo uuuuuuul::njjjjjjjjjjjjb::::::::::::::::::::::11i::",
"::::::::::::::::::bjjjjjjjjjjjjjjjjjjbb:::lluuuuuuuu* B BBBBB<cc*cccce*ooooo uuuuuuul::njjjjjjjjjjjjb::::::::::::::::::::::11-::",
"::::::::::::::::::bjjjjjjjjjjjjjjjjjjbb:::lluuuuuuuu*@  BBBBByccccceep*ooooo uuuuuuul::njjjjjjjjjjjjb::::::::::::::::::::::--:::",
"::::::::::::::::::bjjjjjjjjjjjjjjjjjjbb:::lluuuuuuuu*   BBBBBycccceepc*ooooo uuuuuuul::njjjj1jjjjjjjb:::::::::::::::::::::::::::",
"::::::::::::::::::bjjjjjjjjjjjjjjjjjjbb:::lluuuuuuu*e  BBBBBBycccecccc*ooooo uuuuuuuk::njjjiijjjjjjjv:::::::::::::::::::::::::::",
"::::::::::::::::::bjjjjjjjjjjjjjjjjjjbb:::lluuuuuuu<eyBBBBBBB<ccccccec*ooooo vvvvvvv7::7mm1i;mmmmmmm9:::::::::::::::::::::::::::",
"::::::::::::::::::bjjjjjjjjjjjjjjjjjjbb:::lluuuuuu<cee<BBBBB<ecccce*c*oooooo 7777777::::791199999999::::::::::::::::::::::::::::",
"::::::::::::::::::bjjjjjjjjjjjjjjjjjjbb:::lluuuuuu*ccye<yyByeeccccoo*ooooooo :::::::::::::::::::::::::::::::::::::::::::::::::::",
"::::::::::::::::::bjjjjjjjjjjjjjjjjjjbb:::lluuuuuu*cccyeee<eycccccooooooooo ::::::::::::::::::::::::::::::::::::::::::::::::::::",
"::::::::::::::::::9mmmmmmmmmmmmmmmmmm88:::77vvvvvv<pcccccceycccccccoooooooo ::::::::::::::::::::::::::::::::::::::::::::::::::::",
"::::::::::::::::::9mmmmmmmmmmmmmmmmmm88:::77vvvvvv*ptecccccccccccccooooooo :::::::::::::::::::::::::::::::::::::::::::::::::::::",
":::::::::::::::::::888999999999998888:::::::7777777*pccccccccccccccoooooo ::::::::::::::::::::::::::::::::::::::::::::::::::::::",
":::::::::::::::::::::::::::::::::::::::::::::::::1i:*<pccccccccccccooooo :::::::::::::::::::::::::::::::::::::::::::::::::::::::",
"::::::::::::::::::::::::::::::::::::::::::::::::::ii::*<<<cccccccp*<oo  ::::::::::::::::::::::;;;:::::::::::::::::::::::::::::::",
"::::::::::::::::::::::::::::::::::::::::::::::::::::::::::<eeeee<*:<  ::::::::::::::::::::::::;;;:::::::::::::::::::::::::::::::",
"::::::::::::::::::::::::::::::::::::::::::::::::::-11-11i$$$e$ $ :jjjj####jjjjjjjjjj:::::::uuuuuuuuuuuuuuuuuu:::::::::::1i::::ii",
":::::::::::::::::::::::::::::::::::::::::::::::::::MM111:ec ycce  jjjj#<<#y##jjjjjjjzz:::kkuuuuuuuuuuuuuuuuuul:::::::::::ii::1i:",
"::::::::::::::::::::::::::::::::::::::::::::::::::MaM11-ec B$ccce jjjoo<y#<<*jjjjjjjzz:::kkuuuuuuuuuuuuuuuuuul:::::::::::11:11-:",
":::::::::::::::::::::::1i::::11:::::::::::::::::::MM=1-:ecy  ecccejjjj#oo<ooo#jjjjjjvv:::lluuuuuuuuuuuuuuuuuul:::::::::::xx:11-:",
"::::::::::::::::::::::::ii::11::::::::::::::::::::==:::ecc B  eccc$jjjj#o##o#jjjjjjjvv:::lluuuuuuuuuuuuuuuuuul::::::::::xrrx--::",
"::::::::::::::::::::::::-11:11:::::::::::::::::::::::::$       eccccejjjjj#ojjjjjjjjvv:::lluuuuuuuuuuuuuuuuuul::::::::::=xx=::::",
"::::::::::::::::::::::::-11::uuuuuuuuuuuu::::uuuuuuuuuu        e$ccceejjojjjjjjjjjjjbb:::lluuuuuuuuuuuuuuuuuul:::::::::::==:::::",
":::::::::::::::::::::::::--:luuuuuuuuuuuul::luuuuuuuu           ccccc$$#o##o#jjjjjjjbb:::lluuuuuuuuuuuuuuuuuul::::::::::::::::::",
"::::::::::::::::::::::::::::luuuuuuuuuuuul::luuuuuuu            ecccce#<y#o<<#jjjjjjbb:::lluuuuuuuuuuuuuuuuuul::::::::::::::::::",
"::::::::::::::::::::::::::::luuuuuuuuuuuul::luuuuuu             eecc$$j<o#<y*#jjjjjjbb:::lluuuuuuuuuuuuuuuuuul::::::::::::::::::",
"::::::::::::::::::::::::::::luuuuuuuuuuuul::luuuuuu              $$e$ ##o#<oo#jjjjjjbb:::lluuuuuuuuuuuuuuuuuul::::::::::::::::::",
"::::::::::::::::::::::::::::luuuuuuuuuuuul::luuuuuuB                   joj#o#jjjjjjjbb:::lluuuuuuuuuuuuuuuuuul::::::::::::::::::",
"::::::::::::::::::::::::::::luuuuuuuuuuuul::luuuuuuuy                yjjjjjjjjjjjjjjbb:::lluuuuuuuuuuuuuuuuuul::::::::::::::::::",
"::::::::::::::::::::::::::::luuuuuuuuuuuul::luuuuuuuuBy            yBjjj###jjjjjjjjjbb:::lluuuuuuuuuuuuuuuuuuv::::::::::::::::::",
"::::::::::::ss::::::::::::::luuuuuuuuuuuul::luuuuuuuuuuyByByyyyByBybjjjjoy*#y##jjjjjbb:::lluuuuuuuuuuuuuuuuuuv::::::::::::::::::",
":::::::::::srrs:xx::::::::::luuuuuuuuuuuul::luuuuuuuu,,,, < << XXX++4jjjooooy*#jjjjjbb:::lluuuuuuuuuuuuuuuuvv7::::::::::::::::::",
":::::::::::=ss=xrx::::::::::luuuuuuuuuuuul::luuuuu,,,,,,,3  y< XXXXX4333oooooo#jjjjjbb:::kkuuuuuuuuuuuuuuuv77:::::::::::::::::::",
"::::::::::::==:xx=::::::::::luuuuuuuuuuuul::luuuu,,,,,,,,3##yy#XXXXX43333jjjojjjjjjjbb:::kkuuuuuuuuuuuuuuuv77:::::::::::::::::::",
":::::::::::::::==:::::::::::luuuuuuuuuui17::luuu,,,,,,,,,3##wq#X&&XX433333jjjjjjjjjjbb:::kkuuuuuuuuuuuuuvv7:::::::::::::::::::::",
"::::::::::::::::::::::::::::7vvvvvi1vv1i-:::7vvv4444444444##yy#XX&%%%55555mmmmmmmmmm77:::77vvvvvvvvvvvvv77::::::::::::::::::::::",
":::::::::::::::::::::::::::::77777-11711:::::77OOOOOOOOOOO@@qq@XX&%%%555555mmmmmmmmm77:::77vvvvvvvvvvvvv77::::::::::::::::::::::",
":::::::::::::::::::::::::::::::::::-111-:::::::XXXXXXXXX@@@@@@@XX.%%.++++++999999999:::::::7777777777777::::::::::::::::::::::::",
":::::::::::::::::::::::::::::uuuuuu-11-::::::::X>>>>>>>@@twwq< XXX...XXXXXX:::::::::::::::::::::::::::::::::::::::::::::::::::::",
"::::::::::::::::::::::::::::luuuuuuu-1:::::::::>>>>>>>>ooyyy<<oXXX...XXXXXX:::::::::::::::::::::::::::::::::::::::::::::::::::::",
"::::::::::::::::::::::::::::luuuuuuuuuuu::::::0>>>>>>>>>oooo oXXXX,,,,,,,,,uuuuuu::::::::::uuuuuuuuul:::uuuuu:::::::::::::::::::",
"::::::::::::::::::::::::::::luuuuuuuuuuuul::h00>>>>>>>>>>2XXXXXXXX,,,,,,,,,uuuuuu::::::::::uuuuuuuuul:::uuuuu:::::::::::::::::::",
"::::::::::::::::::::::::::::luuuuuuuuuuuul::h000>>>>>>>>>2XXXXXXX3,,,,,,,,uuuuuuuuuu:::::lluuuuuuuuul::uuuuuul::::::::::::::::::",
"::::::::::::::::::::::::::::luuuuuuuuuuuuh::1000>>>>>>>>>2XXXXXXX3,,,,,,,,uuuuuuuuuull:::lluuuuuuull7uuuuuuuul::::::::::::::::::",
":::::uuuuuuuuuu:::::::::::::luuuuuuuuuuuuh:ii0000>>>>>>>>2XXXXXXX3,,,,,,,uuuuuuuuuuull:::lluuuuuuull7uuuuuuuul::::::::::::::::::",
"::::uuuuuuuuuuul::::::::::::luuuuuuuuuuuuh1i;0000000>>>>>2XXXXXXX3,,,,uuuuuuuuuuuuuull:::ll111ulll77:uuuuuuuul::::::::::::::::::",
"::luuuuuuuuuuuul::::::::::::luuuuuuuuuuuuh11h00000000>>>>2XXXXXXX3,,,uuuuuuuuuuuuuuull:::iiilll777:::uuuuuuuul::::::::::::::::::",
"::luuuuuuuuuuuul::::::::::::luuuuuuuuuuuul;;h00000000000>2XXXXXXX3uuuuuuuuuuuuuuuuuull:::iiilll777:::uuuuuuuul::::::::::::::::::",
"::luuuuuuuuuuuul::::::::::::luuuuuuuuuuuul::h000000000000g:::::::kuuuuuuuuuuuuuuuuuull::111;777:::::uuuuuuuuul::::::::::::::::::",
"::luuuuuuuuuuuul::::::::::::kuuuuuuuuuuuul::h00000000000lv:::::::kuuuuuuuuuuuuuuuuuull::111;::::::uuuuuuuuuuul::::::::::::::::::",
"::luuuuuuuuuuuul::::::::::::kuuuuuuuuuuuul::l0000000000l77i::::::kuuuuuuuuuuuuuuuuuull::111;::::::uuuuuuuuuuul::::::::::::::::::",
"::luuuuuuuuuuuul::::::::::::7vvvvvvvvvvvv7::7vlllllllll7::1::ii::kuuuuuuuuuuuuuuuuuull::1;;::::uuuuuuuuuuuuuul::::::::::::::::::",
"::luuuuuuuuuuuul:::::::::::::777777777777::::7766666667:::;:11i::kuuuuuuuuuuuuuuuuuull::::::uuuuuuuuuuuuuuuuul::::::::::::::::::",
"::luuuuuuuuuuuul::::::::::::::::::::::::::::==:rs::::::i1;::11;::kuuuuuuuuuuuuuuuuuull::::::uuuuuuuuuuuuuuuuul::::::::::::i:::::",
"::luuuuuuuuuuuuv::::::::::::::i::::::::::::::::==::::::11xx11;1::kuuuuuuuuuuuuuuuuuull:::lluuuuuuuuuuuuuuuuuul:::::::::::11::1ii",
"::luuuuuuuuuvvv7:::::::1ii:::i::::::::::::::::::::::::::xrrx;11::kuuuuuuuuuuuuuuuuuull:::lluuuuuuuuuuuuuuuuuul::::::::i::1;:11i:",
"::luuuuuuuuv777:::::::::i11:ii::::::::::::::::::::::::::=xx=;1;::kuuuuuuuuuuuuuuuuuull:::lluuuuuuuuuuuuuuuuuul::::::::;11:;111;:",
"::7vvvvvvvv7::1ii:::::::-11:11:::::::::::::::::::::::::::==::ss::kuuuuuuuuuuuuuuuuuvvv:::lluuuuuuuuuuuuuuuuuuk::::::::;11MM11;1i",
":::77777777::11i:::::::::-1-1-::::::::::::::::::::ii1:::::::srr::kuuuuuuuuuuuuvvv11iii:::llduuuuuuuuuuuuuuuuuk:::::::::;MaaM;11;",
":::::::::::::11-::::::::::-:-::::::::::::::::::::::i11::::::=ss::kuuuuuuuuuuuuvvv11iii:::llduuuuuuuuuuuuuuuuuk::::::::::=MM=;1;:",
"::::::::1i:::1-:::::uuuuuuuuuuu::::::::::::::::::::;11:::::xx==::7vvvvvvvvvvvv77777i1111:77vvvvvvvvvvvvvvvvvv7:::ii1:::::==MM:::",
"::::::::-i1::-1i:::uuuuuuuuuuuuk::::::::::::::::::::;;::::xrx=::::777777777777:::::;1111:::777777777777777777:::::i11NN::::aM:::",
":::::::::11::11-::luuuuuuuuuuuul::::::::::::::::::::::::::xx=:::::777777777777:::::;1111:::777777777777777777:::::;1NaaN:::==:::",
":::::::::-1-11-:::luuuuuuuuuuuul::::::::::::::::::::::::::==:::::::::::::::=NN=::::::::::::::::::::::::::::::::::::;=NN=::::::::",
"::::::::::--11-:::luuuuuuuuuuuul::::::::::::::::::::::::::::::::::::::::::::==:::::::::::::::::::::::::::::::::::::::==:::::::::",
"::::::::::::1-::::luuuuuuuuuuuul:::::::ii::::11:::::::::::::::::::::::::::::::::::::::::::::::::::::::::::::::::::::::::::::::::",
"::::::::::::::::::luuuuuuuuuuuul::::::::i1:xx1:::::::::::::::::::ii:::::::::::::::::::::::::::::::::::::::::::::::::::::::::::::",
"::::::::::::::::::luuuuuuuuuuuul::::::::;11xr1::::::::::::::1::11i::::::::::::::::::::::::::::::::::::::::::::::::::::::::::::::",
"::::::::::::::::::luuuuuuuuuuuul::::::::;11==;::::::::::::::ii;11;::::::::::::::::::::::::::::::::::::::::::::::::::::::::::::::",
"::::::::::::::::::luuuuuuuuuuuul:::::::::;;:::::::::::::::::i11;;:::::::::::::::::::::::::::::::::::::::::::::::::::::::::::::::",
"::::::::::::::::::luuuuuuuuuuuul::::::::::::::::::::::::::::;11:::::::::::::::::::::::::::::::::::::::::::::::::::::::::::::::::",
"::::::::::::::::::luuuuuuuvvvvv:::::::::::::::::::::::::::::::::::::::::::::::::::::::::::::::::::::::::::::::::::::::::::::::::",
"::::::::::::::::::luuuuuvv77777:::::::::::::::::::::::::::::::::::::::::::::::::::::::::::::::::::::::::::::::::::::::::::::::::",
"::::::::::::::::::7vvvvv77::::::::::::::::::::::::::::::::::::::::::::::::::::::::::::::::::::::::::::::::::::::::::::::::::::::",
":::::::::::::::::::77777::::::::::::::::::::::::::::::::::::::::::::::::::::::::::::::::::::::::::::::::::::::::::::::::::::::::",
"::::::::::::::::::::::::::::::::::::::::::::::::::::::::::::::::::::::::::::::::::::::::::::::::::::::::::::::::::::::::::::::::",
"::::::::::::::::::::::::::::::::::::::::::::::::::::::::::::::::::::::::::::::::::::::::::::::::::::::::::::::::::::::::::::::::",
":::::::::::::::::::::::::::::::::::::::::::::::::::::::::::::::::::::::::::::::::::::::::::::::::::::::::::::::::::::::::::::::1"
};
