/* XPM */
static char *c01d9c9398a143a682e7374d78d40599XpHZKNhRxJorPJve[] = {
/* columns rows colors chars-per-pixel */
"128 128 61 1 ",
"  c #36170C",
". c #383B0C",
"X c #3D3E0F",
"o c #3E2014",
"O c #392A1C",
"+ c #353328",
"@ c #3A382C",
"# c #550F0A",
"$ c #45230D",
"% c #4F3124",
"& c #773421",
"* c #404212",
"= c #724113",
"- c #636917",
"; c #656C17",
": c #686F16",
"> c #72751B",
", c #42423B",
"< c #44443D",
"1 c #684C3C",
"2 c #787B21",
"3 c #464541",
"4 c #484741",
"5 c #4B4A46",
"6 c #4E4D49",
"7 c #605C48",
"8 c #64604B",
"9 c #66624D",
"0 c #6C6852",
"q c #7D6553",
"w c #7C7B6E",
"e c #9B1A0A",
"r c #AB5C1C",
"t c #964C3A",
"y c #A2783C",
"u c #EF511D",
"i c #EF692F",
"p c #927E6A",
"a c #807F72",
"s c #7F8226",
"d c #EFAC28",
"f c #A2814F",
"g c #BD9842",
"h c #828175",
"j c #848377",
"k c #838178",
"l c #848279",
"z c #878679",
"x c #87857C",
"c c #88867D",
"v c #8A8A7D",
"b c #C6A740",
"n c #E5AA68",
"m c #EFB775",
"M c #8D8B83",
"N c #8E8C83",
"B c #8E8C84",
"V c #939189",
"C c #9CA8AD",
"Z c #B3B0A9",
"A c #EFD8A1",
/* pixels */
">>>>>>>>>>>>>>>>>>>>>>>>>>>>>>>>>>>>>>>>>>>>>>>>>>>>>>>>>>>>>>>>>>>>>>>>>>>>>>>>>>>>>>>>>>>>>>>>>>>>>>>>>>>>>>>>>>>>>>>>>>>>>>>>",
">>>>>>>>>>>>>>>>>>>>>>>>>>>>>>>>>>>>>>>>>>>>>>>>>>>>>>>>>>>>>>>>>>>>>>>>>>>>>>>>>>>>>>>>>>>>s22>>>>>>>>>>>>>>>>>>>>>>>>>>>>>>>>>",
">>>>>>>>>>>>>>>>>>>>>>>>>>>>>>>>>>>>>>>>>>>>>>>>>>>>>>>>>>>>>>>>>>>>>>>>>>>>>>>>>>>>>>>>>>>>>222>>aaaaaaaaaaaa>>>>>>>>>>>>>>>>>>",
">>>>>>>>>>>>>>>>>>>>>>>>>>>>>>>>>>>>>>>>>>>>s>>>>>>>>>>>>>>>>>>>>>>>>>>>>>>>>>>>>>>>>>>>>>>>>>;;>caaaaaaaaaaaac>>>>>>>>>>>>>>>>>",
">>>>>>>>>>>>>>>>>>>>>>>>>>>>>>>>>>>>>>>>>>>>22>>>>>>>>>>>>>>>>>>>>>>>>>>>>>>>>>>>>>>>>>>>>>>>>>>>caaaaaaaaaaaac>>>>>>>>>>>>>>>>>",
">>>>>>>>>>>>>>>>>>>>>>>>>>>>>>>>>>>>>>>>ss2>;2>>>>>>>>>>>>>>>>>>>>>>>>>>>>>>>>s>>>>>>>>>>>>>>>>>>caaaaaaaaaaaac>>>>>>>>>>>>>>>>>",
">>>>>>>>>>>>>>>>>>>>>>>>>>>>>>>>>>>>>>>>>s22;;>ss2>>>>>>>>>>>>>>>>>>>>>2ss>>>s>>>>>>>>>>>>>>>>>>>caaaaaaaaaaaac>>>>>>>>>>>>>>>>>",
">>>>>>>>>>>>>>>>>>>>>>>>>>>>>>>>>>>>>>2s>;22>;22s>>>>>>>>>>>>>>>>>>>>>>>s22>ss>>>>>>>>>>>>>>>>>>>caaaaaaaaaaaac>>>>>>>>>>>>>>>>>",
">>>>>>>>>>>>>>>>>>>>>>>>>>>>>>>>>>>>>>>s22;2>222>>>>>>>>>>>>>>>>>>>>>>>>;22>ZZ>>>>>>>>>>>>>>>>>>>caaaaaaaaaaaac>>>>>>>>>>>>>>>>>",
">>>>>>>>>>>>>>>>>>>>>>>>>>>>>>>>>>>>>>>;22>;;22;>>>>>>>>>>>>>>>>>>>>>>>>>;2ZffZ>>>>>>>>>>>>>>>>>>caaaaaaaaaaaac>>>>>>>>>>>>>>>>>",
">>>>>>>>>>>>>>>>>>>ZZ>>>>>>>>>>>>>>>>>>>;2>>;;;>>>>>>>>>>>>>>>>>>>>>>>>>>>;-ZZ->>>>>>>>>>>>>>>>>>caaaaaaaaaaaac>>>>>>>>>>>>>>>>>",
">>>>>>>>>>>>>>>>>>ZffZ>>>>>>>>>>>>>>>>>>>;>22>>>>>>>>>>>>>>>>>>>>>>>>>>>>>>>-->>>>>>>>>>>>>>>>>>>caaaaaaaaaaaac>22>>>>>>>>>>>>>>",
">>>>>>>>>>>>>>>>>>-ZZ->>>>>>>>>>>>>>>>>>>>>s;>>>>>>>>>>>>>>>>>>>>>>>>>>>>>>>>>>>>>>>>>>>>>>>>>>>>MMMMMaaaaaaaacs2>>>>>>>>>>>>>>>",
">>>>>>>>>>>>>>>>>>>-->>>>>>>>>>>>>>>>>>>>>>;>>>>>>>>>>>>>>>>>>>>>>>>>>>>>>>>>>>>>>>>>>>>>>>>>>>>>>>888Maaaaaaac2;>>>>>>>>>>>>>>>",
">>>>>>>>>>>>>>>>>>>>>>>>>>>>>>>>>>>>>>>>>>>>>>>>>>>>>>>>>>>>2ss>>>>>>>>>>>>>>>>>>>>>>>>>>>>>>>>>>>>>>>8Maaaaaac2;>>>>>>>>>>>>>>>",
">>>>>>>>>>>>>>>>>>>>>>>>>>>>>>>>>>>>>>>>>>>>>>>>>>>>>>>>>>>22s>>>>>>>>>>>>>>>>>>>>>>>>>>>>>>>>>>>>>>>>>8MMMMMM>2;>>>>>>>>>>>>>>>",
">>>>>>>>>>>>>>>>>>>>>>>>>>>>>>>>>>>>>>>>>>>>>>>>>>>>>>>>>>>22;>>>>>>>>>>>>>>>>>>>>>>>>>>ZZ>>>>>>>>>>>>>>888888>;>>>>>>>>>>>>>>>>",
">>>>>>>>>>>>>>>>>>>aaaaaaaaaaaaaaaaaa>>>>>>>wwwwwwwwwwwwwwwwww>>>>>>>>>>>>>>>>>>>>>>>>>ZffZ>ZZ>>>>>>>>>>>>>>;;>>>>>>>>>>>>>>>>>s",
">>>>>>>>>>>>>>>>>>>aaaaaaaaaaaaaaaaaa>>>>>>>wwwwwwwwwwwwwwwwww>>>>>>>>>>>>>>>>>>>>>>>>>-ZZ-ZfZ>>>>>>>>>>>>>>>>>>>>>>>>>>2ss>>>s>",
">>>>>>>>>>>>>>>>>>caaaaaaaaaaaaaaaaaacc>>>llwwwwwwwwwwwwwwwwwwl>>>>>>>>>>>>>>>>>>>>>>>ZZ-->ZZ->>>>>>>>>>>>>>>>>>>>>>>>>>>sCC>ss>",
">>>>>>>>>>>>>>>>>>caaaaaaaaaaaaaaaaaacc>>>llwwwwwwwwwwwwwwwwwwl>>>>>>>>>>>>>>>>>>>>>>>fZ>>>-->>>>>>>>>>>>>>>>>>>>>>>>>>>>CffC22>",
">>>>>>>>>>>>>>>>>>caaaaaaaaaaaaaaaaaacc>>>llwwwwwwwwwwwwwwwwwwl>>>>>>>>>>>>>>>>>>>>>>>-->>>>>>>>>>>>>>>>>>>>>>>>>>>>>>>>>-CC-ZZ>",
">>>>>>>>>>>>>>>>>>caaaaaaaaaaaaaaaaaacc>>>llwwwwwwwwwwwwwwwwwwl>>>>>>>>>>>>>>>>>>>>>>>>>>>>>>>>>>>>>>>>>>>>>>>>>>>>>>>>>>>-->fZ>",
">>>>>>>>>>>>>>>>>>caaaaaaaaaaaaaaaaaacc>>>llwwwwwwwwwwwwwwwwwwl>>>>>>>>>>>>>>>>>>>>>>>>>>>>>>>>>>>>>>>>>>>>>>>>>>>>>>>>>>>>>>-->",
">>>>>>>>>>>>>>>>>>caaaaaaaaaaaaaaaaaacc>>>llwwwwwwwwwwwwwwwwwwl>>>>>>>>>>>>>>>>>>>>>>>>>>>>>>>>>>>>>>>>>>>>>>>>>>>>>>>>>>>>>>>>>",
">>>>>>>>>>>>>>>>>>caaaaaaaaaaaaaaaaaacc>>>llwwwwwwwwwwwwwwwwwwl>>>>>>>>>>>>>>>>>>>>>>>>>>>>>>>>>>>>>>>>>>>>>>>>>>>>>>>>>>>>>>>>>",
">>>>>>>>>>>>>>>>>>caaaaaaaaaaaaaaaaaacc>>>llwwwwwwwwwwwwwwwwwwl>>>>>>>>>>>>>>>>>>>>>>>>>>>>>>>>>>>>>>>>>>>>>>>>>>>>>>>>>>>>>>>>>",
">>>>>>>>>>>>>>>>>>caaaaaaaaaaaaaaaaaacc>>>llwwwwwwwwwwwwwwwwwwl>>>>>>>>>aaaaaaaaaaaa>>>>wwwwwwwwwwww>>>>>>>>>>>>>>>>>>>>>>>>>>>>",
">>>>>>>>>>>>>>>>>>caaaaaaaaaaaaaaaaaacc>>>llwwwwwwwwwwwwwwwwwwl>>>>>>>>caaaaaaaaaaaac>>lwwwwwwwwwwwwl>>>>>>>>>>>>>>>>>>>>>>>>>>>",
">>>>>>>>>>>>>>>>>>caaaaaaaaaaaaaaaaaacc>>>llwwwwwwwwwwwwwwwwwwl>>>>>>>>caaaaaaaaaaaac>>lwwwwwwwwwwwwl>>>>>>>>>>>>>>>>>>>>>>>>>>>",
">>>>>>>>>>>>>>>>>>caaaaaaaaaaaaaaaaaacc>>>llwwwwwwwwwwwwwwwwwwl>>>>>>>>caaaaaaaaaaaac>>lwwwwwwwwwwwwl>>>>>>>>>>>>>>>>>>>>>>>>>>>",
">>>>>>>>>>>>>>>>>>caaaaaaaaaaaaaaaaaacc>>>llwwwwwwwwwwwwwwwwwwl>>>>>>>>88xaaaaaaaaaac>>lwwwwwwwwwwwwl>>>>>>>>>>>>>>>>>>>>>>>>>>>",
">>>>>>>>>>>>>>>>>>caaaaaaaaaaaaaaaaaacc>>>llwwwwwwwwwwwwwwwwwwl>>>>>>>>>xaaaaaaaaaaac>>lwwwwwwwwwwwwl>>>>>>>>>>>>>>>>>>>>>>>>>>>",
">>>>>>>>>>>>>>>>>>caaaaaaaaaaaaaaaaaacc>>>llwwwwwwwwwwwwwwwwwwl>>>>>>>>>xaaaaaaaaaaac>>lwwwwwwwwwwwwl>>>>>>>>>>>>>>>>>>>>>>>>>>>",
">>>>>>>>>>>>>>>>>>caaaaaaaaaaaaaaaaaacc>>>llwwwwwwwwwwwwwwwwwwl>>>>>>>>xaaaaaaaaaaaac>>lwwwwwwwwwwwwl>>>>>>>>>>>>>>>>>>>>>>>>>>>",
">>>>>>>>>>>>>>>>>>caaaaaaaaaaaaaaaaaacc>>>llwwwwwwwwwwwwwwwwwwl>>>>>>>>xaaaaaaaaaaaac>>lwwwwwwwwwwwwl>>>>>>>>>>>>>>>>>>>>>>>>>>>",
">>>>>>>>>>>>>>>>>>caaaaaaaaaaaaaaaaaacc>>>llwwwwwwwwwwwwwwwwwwl>>>>>>>>xaaaaaaaaaaaac>>lwwwwwwwwwwwwl>>>>>>>>>>>>>>>>>>>>>>>>>>>",
">>>>>>>>>>>>>>>>>>8MMMMMMMMMMMMMMMMMM88>>>77cccccccccccccccccc8>>>>>>>>xaaaaaaaaaaaac>>lwwwwwwwwwwwwl>>>>>>>>>>>>>>>>>>>>>>>>>>>",
">>>>>>>>>>>>>>>>>>>889999999999999998>>>>>>>777777777888777788>>>s>>>>>xaaaaaaaaaaa2s>>lw22wwwwwwwwwl>>>>>>>>>>>>>>>>>>>>>>>>>>>",
">>>>>>>>>>>>>>>>>>>889999999999999998>>>>>>>777777777888777788>>>;>>>>>zaaaaaaaaaaaass>k22wwwwwwwwwwc>>>>>>>>>>>>>>>>>>>>>>>>>>>",
">>>>>>>>>>>>>>>s>>>>>>>>>>>>>>>>>>>>>>>>>>>>>>>>>>>>>>>>>>>O$OO$O;>>>>>8MMMMMMMMMMMM;22822cccccccccM>>>>>>>>>>>>>>>>>>>>>>>>>>>>",
">>>>>>>>>>ss2>>22>>zzzzzzzzzzzzzzzzzz>>>>>>>aaaaaaaaaaaaOO$=1==1=$OO>>>>888888888888;22>;;8887777788>>>>>>>>s2>>>>>>>>>>>>>>>>>>",
">>>>>>>>>>>s22>;2>NzzzzzzzzzzzzzzzzzzNN>>>jjaaaaaaaaaaO$=11=OOOO=11=$O>>>>>>>>>>>>>>>;;>>>>>>>>>>>>>>>>s2>>2s;>>>>>>>>>>>>>>>>>>",
">>>>>>>>>>>;222;>2NzzzzzzzzzzzzzzzzzzNN>>>jjaaaaaaaaa$=111111==111111=$>aaaaaaaaaaaa>>>>zzzzzzzzzzzz>>>;22>22>>>>>>>>>>>>>>>>>>>",
">>>>>>>>>>s2;22>ZZNzzzzzzzzzzzzzzzzzzNN>>>zzaaaaaaaaO=1111111==1111111=Oaaaaaaaaaaaac>>BzzzzzzzzzzzzB>>>;222;>>>>>>>>>>>>>>>>>>>",
">>>>>>>>>>;22;2ZffNzzzzzzzzzzzzzzzzzzNN>>>xxaaaaaaa$=111111OOOOOO111111=$aaaaaaaaaaac>>BzzzzzzzzzzzzB>>>;22;>>>>>>>>>>>>>>>>>>>>",
">>>>>>>>>>>;2;;-ZZNzzzzzzzzzzzzzzzzzzNN>>>xxaaaaaaO=1111OOO=1==1=OOO1111=Oaaaaaaaaaac>>BzzzzzzzzzzzzB>>>>;2>>>>>>>>>>>>>>>>>>>>>",
">>>>>>>>>>>>>>>>--NzzzzzzzzzzzzzzzzzzNN>>>xxaaaaa$O111OO=1111==1111=OO111O$aaaaaaaaac>>BzzzzzzzzzzzzB>>>>>>>>>>>>>>>>>>>>>>>>>>>",
">>>>>>>>>>>>CC>>>ZNzzzzzzzzzzzzzzzzzzNN>>>xxaaaaaO=11O=111111==111111=O11=Oaaaaaaaaac>>BzzzzzzzzzzzzB>>>>>>>>>>>>>>>>>>>>>>>>>>>",
">>>>>>>>>>>>fC>>ZfNzzzzzzzzzzzzzzzzzzNN>>>xxaaaa$OO=111111111==111111111=OO$aaaaaaaac>>BzzzzzzzzzzzzN>>>>>>>>>>>>>>>>>>>>>>>>>>>",
">>>>>>>>>>>>-->>ZZNzzzzzzzzzzzzzzzzzzNN>>>ccaaaa OOO=11111111==11111111=OOO aaaaaaaac>>BzzzzzzzzzzzzN>>>>>>>>>>>>>>>>>>>>>>>2ss>",
">>>>>>>>>>>>>>>>--NzzzzzzzzzzzzzzzzzzNN>>>ccaaa= OOOO=1111111==1111111=OOOO =aaaaaaac>>BzzzzzzzzzzzzN>>>>>>>>>>>>>>>>>>>>>>22s>>",
">>>>>>>>>>>>>>>>>>NzzzzzzzzzzzzzzzzzzNN>>>ccaa=d OOOOOO=11111==11111=OOOOOO d=aaaaaac>>BzzzzzzzzzzzzN>>>>>>>>>>>>>>>>>>>>>>22;>>",
">>>>>>>>>>>>>>>>>>NzzzzzzzzzzzzzzzzzzNN>>>cca=dm OOOOOOOOO=11==11=OOOOOOOOO md=aaaaac>>BzzzzzzzzzzzzN>>>>>>>>>>>>>>>>>>>>>>;;>>>",
">>>>>>>>>>>>>>>>>>NzzzzzzzzzzzzzzzzzzNN>>>cca=dm OOOOOOOOOOOO==OOOOOOOOOOOO md=aaaaac>>Bzzzz2zzzzzzzN>>>>>>>>>>>>>>>>>>>>>>>>>>>",
">>>>>>>>>>>>>>>>>>NzzzzzzzzzzzzzzzzzzNN>>>cca=rd OOOOOOOOOOOOOOOOOOOOOOOOOO dr=aaaaax>>BzzzsszzzzzzzM>>>>>>>>>>>>>>>>>>>>>>>>>>>",
">>>>>>>>>>>>>>>>>>NzzzzzzzzzzzzzzzzzzNN>>>cca=rr OOOOOOOOOOOOOOOOOOOOOOOOOO rr=MMMMM8>>8VV2s:VVVVVVV0>>>>>>>>>>>>>>>>>>>>>>>>>>>",
">>>>>>>>>>>>>>>>>>NzzzzzzzzzzzzzzzzzzNN>>>cca=rr OOOOOOOOOOOOOOOOOOOOOOOOOO rr=88888>>>>802200000000>>>>>>>>>>>>>>>>>>>>>>>>>>>>",
">>>>>>>>>>>>>>>>>>NzzzzzzzzzzzzzzzzzzNN>>>ccaa=r OOOOOOOOOOOOOOOOOOOOOOOOOO r=>>>>>>>>>>>>>>>>>>>>>>>>>>>>>>>>>>>>>>>>>>>>>>>>>>",
">>>>>>>>>>>>>>>>>>NzzzzzzzzzzzzzzzzzzNN>>>ccaaa== OOOOOOOOOOOOOOOOOOOOOOOO ==>>>>>>>>>>>>>>>>>>>>>>>>>>>>>>>>>>>>>>>>>>>>>>>>>>>",
">>>>>>>>>>>>>>>>>>0VVVVVVVVVVVVVVVVVV99>>>88MMMMM OOOOOOOOOOOOOOOOOOOOOOOO >>>>>>>>>>>>>>>>>>>>>>>>>>>>>>>>>>>>>>>>>>>>>>>>>>>>>",
">>>>>>>>>>>>>>>>>>0VVVVVVVVVVVVVVVVVV99>>>88MMMMM OOOOOOOOOOOOOOOOOOOOOOOO >>>>>>>>>>>>>>>>>>>>>>>>>>>>>>>>>>>>>>>>>>>>>>>>>>>>>",
">>>>>>>>>>>>>>>>>>>999000000000009999>>>>>>>88888 OOOOOOOOOOOOOOOOOOOOOOOO >>>>>>>>>>>>>>>>>>>>>>>>>>>>>>>>>>>>>>>>>>>>>>>>>>>>>",
">>>>>>>>>>>>>>>>>>>>>>>>>>>>>>>>>>>>>>>>>>>>>>>>>2 OOOOOOOOOOOOOOOOOOOOOO >>>>>>>>>>>>>>>>>>>>>>>>>>>>>>>>>>>>>>>>>>>>>>>>>>>>>>",
">>>>>>>>>>>>>>>>>>>>>>>>>>>>>>>>>>>>>>>>>>>>>>>>>>s OOOOOOOOOOOOOOOOOOOO >>>>>>>>>>>>>>>>>>>>>:::>>>>>>>>>>>>>>>>>>>>>>>>>>>>>>>",
">>>>>>>>>>>>>>>>>>>>>>>>>>>>>>>>>>>>>>>>>>>>>>>>>>>> OOOOOOOOOOOOOOOOOO >>>>>>>>>>>>>>>>>>>>>>:::>>>>>>>>>>>>>>>>>>>>>>>>>>>>>>>",
">>>>>>>>>>>>>>>>>>>>>>>>>>>>>>>>>>>>>>>>>>>>>>>>>>$$$;O    OOOOOO    $$$$zzzzzzzzzzz>>>>>>>aaaaaaaaaaaaaaaaaa>>>>>>>>>>>2s>>>>ss",
">>>>>>>>>>>>>>>>>>>>>>>>>>>>>>>>>>>>>>>>>>>>>>>>>>$p$$22>=1OOOOOO1=zz$11=zzzzzzzzzzzvv>>>xxaaaaaaaaaaaaaaaaaac>>>>>>>>>>>ss>>2s>",
">>>>>>>>>>>>>>>>>>>>>>>>>>>>>>>>>>>>>>>>>>>>>>>>>O1p1=2;>&>      Mzzz1Op=$zzzzzzzzzzvv>>>xxaaaaaaaaaaaaaaaaaac>>>>>>>>>>>22>22;>",
">>>>>>>>>>>>>>>>>>>>>>>2s>>>>22>>>>>>>>>>>>>>>>>>>1OO$;&r&        rr&$OO$zzzzzzzzzzzMM>>>ccaaaaaaaaaaaaaaaaaac>>>>>>>>>>>bb>22;>",
">>>>>>>>>>>>>>>>>>>>>>>>ss>>22>>>>>>>>>>>>>>>>>>>>$O$$>rmr        rrrrOO$zzzzzzzzzzzMM>>>ccaaaaaaaaaaaaaaaaaac>>>>>>>>>>byyb;;>>",
">>>>>>>>>>>>>>>>>>>>>>>>;22>22>>>>>>>>>>>>>>>>>>>>>O>&mmr>        z&nm&zzzzzzzzzzzzzMM>>>ccaaaaaaaaaaaaaaaaaac>>>>>>>>>>-bb->>>>",
">>>>>>>>>>>>>>>>>>>>>>>>;22>>aaaaaaaaaaaa>>>>aaaaaaOarmmr>        zrm$OOzzzzzzzzzzzzNN>>>ccaaaaaaaaaaaaaaaaaac>>>>>>>>>>>-->>>>>",
">>>>>>>>>>>>>>>>>>>>>>>>>;;>caaaaaaaaaaaac>>caaaaa$O$armm          rm$O1$zzzzzzzzzzzNN>>>ccaaaaaaaaaaaaaaaaaac>>>>>>>>>>>>>>>>>>",
">>>>>>>>>>>>>>>>>>>>>>>>>>>>caaaaaaaaaaaac>>caaaa$111$mm            $1p1=zzzzzzzzzzzNN>>>ccaaaaaaaaaaaaaaaaaac>>>>>>>>>>>>>>>>>>",
">>>>>>>>>>>>>>>>>>>>>>>>>>>>caaaaaaaaaaaac>>caaaa$1pO$m              1OO$zzzzzzzzzzzNN>>>ccaaaaaaaaaaaaaaaaaac>>>>>>>>>>>>>>>>>>",
">>>>>>>>>>>>>>>>>>>>>>>>>>>>caaaaaaaaaaaac>>caaaa$OOO$               $OO$zzzzzzzzzzzNN>>>ccaaaaaaaaaaaaaaaaaac>>>>>>>>>>>>>>>>>>",
">>>>>>>>>>>>>>>>>>>>>>>>>>>>caaaaaaaaaaaac>>caaaaa$O$                  zzzzzzzzzzzzzNN>>>ccaaaaaaaaaaaaaaaaaac>>>>>>>>>>>>>>>>>>",
">>>>>>>>>>>>>>>>>>>>>>>>>>>>caaaaaaaaaaaac>>caaaaaaa                    zzzzzzzzzzzzNN>>>ccaaaaaaaaaaaaaaaaaac>>>>>>>>>>>>>>>>>>",
">>>>>>>>>>>>>>>>>>>>>>>>>>>>caaaaaaaaaaaac>>caaaaaaa$                 $$$zzzzzzzzzzzNN>>>ccaaaaaaaaaaaaaaaaaaM>>>>>>>>>>>>>>>>>>",
">>>>>>>>>>>>gg>>>>>>>>>>>>>>caaaaaaaaaaaac>>caaaaaO$p$               O1p=zzzzzzzzzzzNN>>>ccaaaaaaaaaaaaaaaaaaM>>>>>>>>>>>>>>>>>>",
">>>>>>>>>>>gyyg>bb>>>>>>>>>>caaaaaaaaaaaac>>caaaaaO1=$Ap            pAOO$zzzzzzzzzzzNN>>>ccaaaaaaaaaaaaaaaaMM8>>>>>>>>>>>>>>>>>>",
">>>>>>>>>>>-gg-byb>>>>>>>>>>caaaaaaaaaaaac>>caaaaaOOOO<<pApAppppApAp54OzOzzzzzzzzzzzNN>>>xxaaaaaaaaaaaaaaaM88>>>>>>>>>>>>>>>>>>>",
">>>>>>>>>>>>-->bb->>>>>>>>>>caaaaaaaaaaaac>>caaaaa<<<<<< 11 XXXX 11 544444zzzzzzzzzzNN>>>xxaaaaaaaaaaaaaaaM88>>>>>>>>>>>>>>>>>>>",
">>>>>>>>>>>>>>>-->>>>>>>>>>>caaaaaaaaaas28>>caaaa<<<<<<< pp XXXX pp 5444444zzzzzzzzzNN>>>xxaaaaaaaaaaaaaMM8>>>>>>>>>>>>>>>>>>>>>",
">>>>>>>>>>>>>>>>>>>>>>>>>>>>8MMMMMs2MM2s;>>>8MMM55555555$pp$XXXX$pp$*6666666VVVVVVVV88>>>88MMMMMMMMMMMMM88>>>>>>>>>>>>>>>>>>>>>>",
">>>>>>>>>>>>>>>>>>>>>>>>>>>>>88888;22822>>>>>888++++++++$ee$XXXX$te$*6666666VVVVVVVV88>>>88MMMMMMMMMMMMM88>>>>>>>>>>>>>>>>>>>>>>",
">>>>>>>>>>>>>>>>>>>>>>>>>>>>>>>>>>>;222;>>>>>>>XXXXXXXXX$pp$XXXX$pp$.@@@@@@@@0000000>>>>>>>8888888888888>>>>>>>>>>>>>>>>>>>>>>>>",
">>>>>>>>>>>>>>>>>>>>>>>>>>>>>aaaaaa;22;>>>>>>>>X,,,,,,,###ee#XX#ee###XXXXXXXX>>>>>>>>>>>>>>>>>>>>>>>>>>>>>>>>>>>>>>>>>>>>>>>>>>>",
">>>>>>>>>>>>>>>>>>>>>>>>>>>>caaaaaaa;2>>>>>>>>>,,,,,,,#iu#ee#XXXee#ui#XXXXXXX>>>>>>>>>>>>>>>>>>>>>>>>>>>>>>>>>>>>>>>>>>>>>>>>>>>",
">>>>>>>>>>>>>>>>>>>>>>>>>>>>caaaaaaaaaaa>>>>>>w,,,,,,,, %#eeXXXXeeq% <<<<<<<<aaaa>>>>>>>>>>aaaaaaaaac>>>aaaaa>>>>>>>>>>>>>>>>>>>",
">>>>>>>>>>>>>>>>>>>>>>>>>>>>caaaaaaaaaaaac>>lww,,,,,,,,,o  XXXXXX  o<<<<<<<<<aaaa>>>>>>>>>>aaaaaaaaac>>>aaaaa>>>>>>>>>>>>>>>>>>>",
">>>>>>>>>>>>>>>>>>>>>>>>>>>>caaaaaaaaaaaac>>lww,,,,,,,,,,3XXXXXXX4<<<<<<<<<<<aaaaaaa>>>>>ccaaaaaaaaac>>aaaaaac>>>>>>>>>>>>>>>>>>",
">>>>>>>>>>>>>>>>>>>>>>>>>>>>caaaaaaaaaaaal>>2www,,,,,,,,,3XXXXXXX4<<<<<<<<<<aaaaaaaacc>>>ccaaaaaaacc8aaaaaaaac>>>>>>>>>>>>>>>>>>",
">>>>>aaaaaaaaaa>>>>>>>>>>>>>caaaaaaaaaaaal>sswww,,,,,,,,,3XXXXXXX4<<<<<<<<<<aaaaaaaacc>>>ccaaaaaaacc8aaaaaaaac>>>>>>>>>>>>>>>>>>",
">>>>aaaaaaaaaaac>>>>>>>>>>>>caaaaaaaaaaaal2s:wwww,,,,,,,,3XXXXXXX4<<<<<<<<<aaaaaaaaacc>>>cc222accc88>aaaaaaaac>>>>>>>>>>>>>>>>>>",
">>caaaaaaaaaaaac>>>>>>>>>>>>caaaaaaaaaaaal22lwwwwwww,,,,,3XXXXXXX4<<<<<<aaaaaaaaaaaacc>>>sssccc888>>>aaaaaaaac>>>>>>>>>>>>>>>>>>",
">>caaaaaaaaaaaac>>>>>>>>>>>>caaaaaaaaaaaac::lwwwwwwwww,,,3XXXXXXX4<<<<aaaaaaaaaaaaaacc>>>sssccc888>>>aaaaaaaac>>>>>>>>>>>>>>>>>>",
">>caaaaaaaaaaaac>>>>>>>>>>>>caaaaaaaaaaaac>>lwwwwwwwwwwww3XXXXXXX4<aaaaaaaaaaaaaaaaacc>>222:888>>>>>aaaaaaaaac>>>>>>>>>>>>>>>>>>",
">>caaaaaaaaaaaac>>>>>>>>>>>>xaaaaaaaaaaaac>>lwwwwwwwwwwwcM>>>>>>>xaaaaaaaaaaaaaaaaaacc>>222:>>>>>>aaaaaaaaaaac>>>>>>>>>>>>>>>>>>",
">>caaaaaaaaaaaac>>>>>>>>>>>>xaaaaaaaaaaaac>>cwwwwwwwwwwc88s>>>>>>xaaaaaaaaaaaaaaaaaacc>>222:>>>>>>aaaaaaaaaaac>>>>>>>>>>>>>>>>>>",
">>caaaaaaaaaaaac>>>>>>>>>>>>8MMMMMMMMMMMM8>>8Mccccccccc8>>2>>ss>>xaaaaaaaaaaaaaaaaaacc>>2::>>>>aaaaaaaaaaaaaac>>>>>>>>>>>>>>>>>>",
">>caaaaaaaaaaaac>>>>>>>>>>>>>888888888888>>>>8877777778>>>:>22s>>xaaaaaaaaaaaaaaaaaacc>>>>>>aaaaaaaaaaaaaaaaac>>>>>>>>>>>>>>>>>>",
">>caaaaaaaaaaaac>>>>>>>>>>>>>>>>>>>>>>>>>>>>-->yg>>>>>>s2:>>22:>>xaaaaaaaaaaaaaaaaaacc>>>>>>aaaaaaaaaaaaaaaaac>>>>>>>>>>>>s>>>>>",
">>caaaaaaaaaaaaM>>>>>>>>>>>>>>s>>>>>>>>>>>>>>>>-->>>>>>22bb22:2>>xaaaaaaaaaaaaaaaaaacc>>>ccaaaaaaaaaaaaaaaaaac>>>>>>>>>>>22>>2ss",
">>caaaaaaaaaMMM8>>>>>>>2ss>>>s>>>>>>>>>>>>>>>>>>>>>>>>>>byyb:22>>xaaaaaaaaaaaaaaaaaacc>>>ccaaaaaaaaaaaaaaaaaac>>>>>>>>s>>2:>22s>",
">>caaaaaaaaM888>>>>>>>>>s22>ss>>>>>>>>>>>>>>>>>>>>>>>>>>-bb-:2:>>xaaaaaaaaaaaaaaaaaacc>>>ccaaaaaaaaaaaaaaaaaac>>>>>>>>:22>:222:>",
">>8MMMMMMMM8>>2ss>>>>>>>;22>22>>>>>>>>>>>>>>>>>>>>>>>>>>>-->>gg>>xaaaaaaaaaaaaaaaaaMMM>>>ccaaaaaaaaaaaaaaaaaax>>>>>>>>:22CC22:2s",
">>>88888888>>22s>>>>>>>>>;2;2;>>>>>>>>>>>>>>>>>>>>ss2>>>>>>>gyy>>xaaaaaaaaaaaaMMM22sss>>>cchaaaaaaaaaaaaaaaaax>>>>>>>>>:CffC:22:",
">>>>>>>>>>>>>22;>>>>>>>>>>;>;>>>>>>>>>>>>>>>>>>>>>>s22>>>>>>-gg>>xaaaaaaaaaaaaMMM22sss>>>cchaaaaaaaaaaaaaaaaax>>>>>>>>>>-CC-:2:>",
">>>>>>>>2s>>>2;>>>>>aaaaaaaaaaa>>>>>>>>>>>>>>>>>>>>:22>>>>>bb-->>8MMMMMMMMMMMM88888s2222>88MMMMMMMMMMMMMMMMMM8>>>ss2>>>>>--CC>>>",
">>>>>>>>;s2>>;2s>>>aaaaaaaaaaaax>>>>>>>>>>>>>>>>>>>>::>>>>byb->>>>888888888888>>>>>:2222>>>888888888888888888>>>>>s22ZZ>>>>fC>>>",
">>>>>>>>>22>>22;>>caaaaaaaaaaaac>>>>>>>>>>>>>>>>>>>>>>>>>>bb->>>>>888888888888>>>>>:2222>>>888888888888888888>>>>>:2ZffZ>>>-->>>",
">>>>>>>>>;2;22;>>>caaaaaaaaaaaac>>>>>>>>>>>>>>>>>>>>>>>>>>-->>>>>>>>>>>>>>>-ZZ->>>>>>>>>>>>>>>>>>>>>>>>>>>>>>>>>>>>:-ZZ->>>>>>>>",
">>>>>>>>>>;;22;>>>caaaaaaaaaaaac>>>>>>>>>>>>>>>>>>>>>>>>>>>>>>>>>>>>>>>>>>>>-->>>>>>>>>>>>>>>>>>>>>>>>>>>>>>>>>>>>>>>-->>>>>>>>>",
">>>>>>>>>>>>2;>>>>caaaaaaaaaaaac>>>>>>>ss>>>>22>>>>>>>>>>>>>>>>>>>>>>>>>>>>>>>>>>>>>>>>>>>>>>>>>>>>>>>>>>>>>>>>>>>>>>>>>>>>>>>>>",
">>>>>>>>>>>>>>>>>>caaaaaaaaaaaac>>>>>>>>s2>bb2>>>>>>>>>>>>>>>>>>>ss>>>>>>>>>>>>>>>>>>>>>>>>>>>>>>>>>>>>>>>>>>>>>>>>>>>>>>>>>>>>>",
">>>>>>>>>>>>>>>>>>caaaaaaaaaaaac>>>>>>>>:22by2>>>>>>>>>>>>>>2>>22s>>>>>>>>>>>>>>>>>>>>>>>>>>>>>>>>>>>>>>>>>>>>>>>>>>>>>>>>>>>>>>",
">>>>>>>>>>>>>>>>>>caaaaaaaaaaaac>>>>>>>>:22--:>>>>>>>>>>>>>>ss:22:>>>>>>>>>>>>>>>>>>>>>>>>>>>>>>>>>>>>>>>>>>>>>>>>>>>>>>>>>>>>>>",
">>>>>>>>>>>>>>>>>>caaaaaaaaaaaac>>>>>>>>>::>>>>>>>>>>>>>>>>>s22::>>>>>>>>>>>>>>>>>>>>>>>>>>>>>>>>>>>>>>>>>>>>>>>>>>>>>>>>>>>>>>>",
">>>>>>>>>>>>>>>>>>caaaaaaaaaaaac>>>>>>>>>>>>>>>>>>>>>>>>>>>>:22>>>>>>>>>>>>>>>>>>>>>>>>>>>>>>>>>>>>>>>>>>>>>>>>>>>>>>>>>>>>>>>>>",
">>>>>>>>>>>>>>>>>>caaaaaaaMMMMM>>>>>>>>>>>>>>>>>>>>>>>>>>>>>>>>>>>>>>>>>>>>>>>>>>>>>>>>>>>>>>>>>>>>>>>>>>>>>>>>>>>>>>>>>>>>>>>>>",
">>>>>>>>>>>>>>>>>>caaaaaMM88888>>>>>>>>>>>>>>>>>>>>>>>>>>>>>>>>>>>>>>>>>>>>>>>>>>>>>>>>>>>>>>>>>>>>>>>>>>>>>>>>>>>>>>>>>>>>>>>>>",
">>>>>>>>>>>>>>>>>>8MMMMM88>>>>>>>>>>>>>>>>>>>>>>>>>>>>>>>>>>>>>>>>>>>>>>>>>>>>>>>>>>>>>>>>>>>>>>>>>>>>>>>>>>>>>>>>>>>>>>>>>>>>>>",
">>>>>>>>>>>>>>>>>>>88888>>>>>>>>>>>>>>>>>>>>>>>>>>>>>>>>>>>>>>>>>>>>>>>>>>>>>>>>>>>>>>>>>>>>>>>>>>>>>>>>>>>>>>>>>>>>>>>>>>>>>>>>",
">>>>>>>>>>>>>>>>>>>>>>>>>>>>>>>>>>>>>>>>>>>>>>>>>>>>>>>>>>>>>>>>>>>>>>>>>>>>>>>>>>>>>>>>>>>>>>>>>>>>>>>>>>>>>>>>>>>>>>>>>>>>>>>>",
">>>>>>>>>>>>>>>>>>>>>>>>>>>>>>>>>>>>>>>>>>>>>>>>>>>>>>>>>>>>>>>>>>>>>>>>>>>>>>>>>>>>>>>>>>>>>>>>>>>>>>>>>>>>>>>>>>>>>>>>>>>>>>>>",
">>>>>>>>>>>>>>>>>>>>>>>>>>>>>>>>>>>>>>>>>>>>>>>>>>>>>>>>>>>>>>>>>>>>>>>>>>>>>>>>>>>>>>>>>>>>>>>>>>>>>>>>>>>>>>>>>>>>>>>>>>>>>>>2"
};
