/* XPM */
static char *upscaled_image[] = {
/* columns rows colors chars-per-pixel */
"128 128 18 1"
"  c None"
". c #36170C"
"X c #39281B"
"o c #392A1C"
"O c #550F0A"
"+ c #45230D"
"@ c #503B2C"
"# c #773421"
"$ c #724113"
"% c #684C3C"
"& c #9B1A0A"
"* c #EF3A0C"
"= c #AB5C1C"
"- c #EF692F"
"; c #927E6A"
": c #EFAC28"
"> c #EFB775"
", c #EFD8A1"
/* pixels */
"                                                                                                                                "
"                                                                                                                                "
"                                                                                                                                "
"                                                                                                                                "
"                                                                                                                                "
"                                                                                                                                "
"                                                                                                                                "
"                                                                                                                                "
"                                                                                                                                "
"                                                                                                                                "
"                                                                                                                                "
"                                                                                                                                "
"                                                                                                                                "
"                                                                                                                                "
"                                                                                                                                "
"                                                                                                                                "
"                                                ++++++++++++++++++  ++                                                          "
"                                                ++++++++++++++++++  ++                                                          "
"                                              oo%%%%oo%%%%%%%%oo%%++%%oo                                                        "
"                                              oo%%%%oo%%%%%%%%oo%%++%%oo                                                        "
"                                            oo++%%%%oo$$%%@@oo$$%%%%%%%%++                                                      "
"                                            oo++%%%%oo$$%%@@oo$$%%%%%%%%++                                                      "
"                                          ++$$%%%%%%oo%%%%%%%%oo%%%%%%%%%%%%oo                                                  "
"                                          ++$$%%%%%%oo%%%%%%%%oo%%%%%%%%%%%%oo                                                  "
"                                        oo$$%%%%%%%%%%%%%%%%oo$$%%%%%%%%%%%%%%++                                                "
"                                        oo$$%%%%%%%%%%%%%%%%oo$$%%%%%%%%%%%%%%++                                                "
"                                      ++$$%%%%%%%%%%%%%%%%%%oo%%%%%%%%%%%%%%%%++                                                "
"                                      ++$$%%%%%%%%%%%%%%%%%%oo%%%%%%%%%%%%%%%%++                                                "
"                                    ..oo$$%%%%%%%%%%%%%%%%%%%%%%%%%%%%%%%%%%$$++                                                "
"                                    ..oo$$%%%%%%%%%%%%%%%%%%%%%%%%%%%%%%%%%%$$++                                                "
"                                  ++oooooo$$%%%%%%%%%%%%%%%%%%%%%%%%%%$$++++++$$                                                "
"                                  ++oooooo$$%%%%%%%%%%%%%%%%%%%%%%%%%%$$++++++$$                                                "
"                                  ..oooooooo$$%%$$%%%%%%%%%%%%%%%%%%++++::::>>>>%%                                              "
"                                  ..oooooooo$$%%$$%%%%%%%%%%%%%%%%%%++++::::>>>>%%                                              "
"                                ++oooooooooooooooooooo$$%%%%%%$$++++%%;;;;%%::>>%%                                              "
"                                ++oooooooooooooooooooo$$%%%%%%$$++++%%;;;;%%::>>%%                                              "
"                                ..oooooooooooooo$$$$$$oo$$++++++>>::,,,,,,,,;;::%%                                              "
"                                ..oooooooooooooo$$$$$$oo$$++++++>>::,,,,,,,,;;::%%                                              "
"                                ..oooooooooooooo::>>>>$$oo>>>>>>::;;,,,,,,,,,,%%$$                                              "
"                                ..oooooooooooooo::>>>>$$oo>>>>>>::;;,,,,,,,,,,%%$$                                              "
"                                ..oooooooooooo$$>>>>>>>>$$>>>>::%%,,,,,,,,,,....$$                                              "
"                                ..oooooooooooo$$>>>>>>>>$$>>>>::%%,,,,,,,,,,....$$                                              "
"                                ..oooooooooo$$====>>>>>>$$>>>>%%,,,,,,,,,,..,,..$$                                              "
"                                ..oooooooooo$$====>>>>>>$$>>>>%%,,,,,,,,,,..,,..$$                                              "
"                                ..oooooooooo$$::::==>>>>>>>>>>;;,,,,,,,,,,....OO$$                                              "
"                                ..oooooooooo$$::::==>>>>>>>>>>;;,,,,,,,,,,....OO$$                                              "
"                                ..oooooooooo$$>>>>====>>>>>>>>;;,,,,,,,,,,......$$                                              "
"                                ..oooooooooo$$>>>>====>>>>>>>>;;,,,,,,,,,,......$$                                              "
"                                ..oooooooooo$$>>==>>>>==>>>>>>;;,,,,,,,,,,,,....==$$                                            "
"                                ..oooooooooo$$>>==>>>>==>>>>>>;;,,,,,,,,,,,,....==$$                                            "
"                                ..oooooooooo$$>>>>>>>>>>>>>>>>%%,,,,,,,,,,,,,,;;==%%                                            "
"                                ..oooooooooo$$>>>>>>>>>>>>>>>>%%,,,,,,,,,,,,,,;;==%%                                            "
"                                ..oooooooooooo$$$$$$==>>>>>>>>==%%,,,,,,,,,,%%====>>%%                                          "
"                                ..oooooooooooo$$$$$$==>>>>>>>>==%%,,,,,,,,,,%%====>>%%                                          "
"                                ..oooooooooooooooooooo>>>>>>>>====;;%%;;;;%%==;;>>>>$$                                          "
"                                ..oooooooooooooooooooo>>>>>>>>====;;%%;;;;%%==;;>>>>$$                                          "
"                                  ..oooooooooooooooooo>>>>>>>>>>;;==========;;>>>>>>$$                                          "
"                                  ..oooooooooooooooooo>>>>>>>>>>;;==========;;>>>>>>$$                                          "
"                                  ..oooooooooooooooo>>>>>>>>>>>>>>;;>>>>>>>>>>>>>>::%%                                          "
"                                  ..oooooooooooooooo>>>>>>>>>>>>>>;;>>>>>>>>>>>>>>::%%                                          "
"                                    ..oooooooooooooo>>>>>>>>>>>>>>>>>>>>>>>>==--::$$                                            "
"                                    ..oooooooooooooo>>>>>>>>>>>>>>>>>>>>>>>>==--::$$                                            "
"                                    ..oooooooooooo>>>>>>>>>>>>>>>>>>>>>>>>>>>>::$$                                              "
"                                    ..oooooooooooo>>>>>>>>>>>>>>>>>>>>>>>>>>>>::$$                                              "
"                                      ..oooooooooo>>>>>>>>>>>>>>>>>>>>>>>>::%%$$                                                "
"                                      ..oooooooooo>>>>>>>>>>>>>>>>>>>>>>>>::%%$$                                                "
"                                        ....oooooo$$::>>>>>>>>>>>>>>%%%%%%$$                                                    "
"                                        ....oooooo$$::>>>>>>>>>>>>>>%%%%%%$$                                                    "
"                                        ++  ....%%  $$%%==========%%                                                            "
"                                        ++  ....%%  $$%%==========%%                                                            "
"                                  ++  ++++;;++        ..######==######                                                          "
"                                  ++  ++++;;++        ..######==######                                                          "
"                                ++++;;++%%%%oooo    ....==>>>>;;..>>==                                                          "
"                                ++++;;++%%%%oooo    ....==>>>>;;..>>==                                                          "
"                                ++%%%%%%oooo%%        ==>>>>>>##..,,..==                                                        "
"                                ++%%%%%%oooo%%        ==>>>>>>##..,,..==                                                        "
"                                ++oo;;%%++oo++        ==>>>>==......;;==                                                        "
"                                ++oo;;%%++oo++        ==>>>>==......;;==                                                        "
"                                ++++oo++++oo          ==>>>>==....,,....                                                        "
"                                ++++oo++++oo          ==>>>>==....,,....                                                        "
"                                  ++oo              ..==>>>>####..........                                                      "
"                                  ++oo              ..==>>>>####..........                                                      "
"                                          oooo++  ....##>>>>>>>>==..........                                                    "
"                                          oooo++  ....##>>>>>>>>==..........                                                    "
"                                    ++oo++++oo%%......##>>>>>>>>==............                                                  "
"                                    ++oo++++oo%%......##>>>>>>>>==............                                                  "
"                                  ++++%%%%++;;%%......==>>>>>>>>>>##............                                                "
"                                  ++++%%%%++;;%%......==>>>>>>>>>>##............                                                "
"                                    $$;;;;%%XX........====>>>>>>==................                                              "
"                                    $$;;;;%%XX........====>>>>>>==................                                              "
"                                  ++++oooo++++..........##>>####..................                                              "
"                                  ++++oooo++++..........##>>####..................                                              "
"                                    ++++oo++....................................,,                                              "
"                                    ++++oo++....................................,,                                              "
"                                        oo  ;;................................;;                                                "
"                                        oo  ;;................................;;                                                "
"                                            ++,,;;........................;;,,                                                  "
"                                            ++,,;;........................;;,,                                                  "
"                                      ++;;++++;;%%;;,,;;,,;;;;;;;;,,;;,,;;                                                      "
"                                      ++;;++++;;%%;;,,;;,,;;;;;;;;,,;;,,;;                                                      "
"                                      $$;;%%++oooooo        ..%%;;....                                                          "
"                                      $$;;%%++oooooo        ..%%;;....                                                          "
"                                      ++oooooo  oo          ..%%;;++..                                                          "
"                                      ++oooooo  oo          ..%%;;++..                                                          "
"                                      oo  oo                ++;;**++++                                                          "
"                                      oo  oo                ++;;**++++                                                          "
"                                                            ++;;;;++++                                                          "
"                                                            ++;;;;++++                                                          "
"                                                            OO&&&&OO++                                                          "
"                                                            OO&&&&OO++                                                          "
"                                                            OOOOOOOOOOOO                                                        "
"                                                            OOOOOOOOOOOO                                                        "
"                                                          ..%%&&****--OOOO                                                      "
"                                                          ..%%&&****--OOOO                                                      "
"                                                          oo%%%%;;;;;;oooo                                                      "
"                                                          oo%%%%;;;;;;oooo                                                      "
"                                                            oo..oooooooo                                                        "
"                                                            oo..oooooooo                                                        "
"                                                                                                                                "
"                                                                                                                                "
"                                                                                                                                "
"                                                                                                                                "
"                                                                                                                                "
"                                                                                                                                "
"                                                                                                                                "
"                                                                                                                                "
"                                                                                                                                "
"                                                                                                                                "
};
