/* XPM */
static char *upscaled_image[] = {
/* columns rows colors chars-per-pixel */
"128 128 16 1"
"  c None"
". c #36170C"
"X c #392A1C"
"o c #550F0A"
"O c #45230D"
"+ c #773421"
"@ c #724113"
"# c #684C3C"
"$ c #9B1A0A"
"% c #EF3A0C"
"& c #AB5C1C"
"* c #EF692F"
"= c #927E6A"
"- c #EFAC28"
"; c #EFB775"
": c #EFD8A1"
/* pixels */
"                                                                                                                                "
"                                                                                                                                "
"                                                                                                                                "
"                                                                                                                                "
"                                                                                                                                "
"                                                                                                                                "
"                                                                                                                                "
"                                                                                                                                "
"                                                                                                                                "
"                                                                                                                                "
"                                                                                                                                "
"                                                                                                                                "
"                                                                                                                                "
"                                                                                                                                "
"                                                    OO  OOOOOOOOOOOOOOOOOO                                                      "
"                                                    OO  OOOOOOOOOOOOOOOOOO                                                      "
"                                                  XX##OO##XX########XX####XX                                                    "
"                                                  XX##OO##XX########XX####XX                                                    "
"                                                OO########@@XX######@@XX##@@OOXX                                                "
"                                                OO########@@XX######@@XX##@@OOXX                                                "
"                                              XX############XX########XX######@@OO                                              "
"                                              XX############XX########XX######@@OO                                              "
"                                            OO##############@@XX################@@XX                                            "
"                                            OO##############@@XX################@@XX                                            "
"                                            OO################XX##################@@OO                                          "
"                                            OO################XX##################@@OO                                          "
"                                            OO@@##################################@@XX..                                        "
"                                            OO@@##################################@@XX..                                        "
"                                            @@OOOOOO@@##########################@@XXXXXXOO                                      "
"                                            @@OOOOOO@@##########################@@XXXXXXOO                                      "
"                                          ##;;;;----OO########################@@XXXXXXXX..                                      "
"                                          ##;;;;----OO########################@@XXXXXXXX..                                      "
"                                        ##;;--##====OOOOOO@@######@@XXXX@@XXXXXXXXXXXXXXOOOO                                    "
"                                        ##;;--##====OOOOOO@@######@@XXXX@@XXXXXXXXXXXXXXOOOO                                    "
"                                        ##--==::::::##--;;OOOOOO@@XX@@@@XXXXXXXXXXXXXXXX..                                      "
"                                        ##--==::::::##--;;OOOOOO@@XX@@@@XXXXXXXXXXXXXXXX..                                      "
"                                        @@##::::::::::==--;;;;;;XX@@;;;;@@XXXXXXXXXXXXXX..                                      "
"                                        @@##::::::::::==--;;;;;;XX@@;;;;@@XXXXXXXXXXXXXX..                                      "
"                                        @@....::::::::::##--;;;;@@;;;;;;--@@XXXXXXXXXXXX..                                      "
"                                        @@....::::::::::##--;;;;@@;;;;;;--@@XXXXXXXXXXXX..                                      "
"                                        @@..::..::::::::::##;;;;@@;;;;;;;;&&@@XXXXXXXXXX..                                      "
"                                        @@..::..::::::::::##;;;;@@;;;;;;;;&&@@XXXXXXXXXX..                                      "
"                                        @@oo....::::::::::==;;;;;;;;;;&&&&--@@XXXXXXXXXX..                                      "
"                                        @@oo....::::::::::==;;;;;;;;;;&&&&--@@XXXXXXXXXX..                                      "
"                                        @@......::::::::::==;;;;;;;;&&&&--;;@@XXXXXXXXXX..                                      "
"                                        @@......::::::::::==;;;;;;;;&&&&--;;@@XXXXXXXXXX..                                      "
"                                      @@&&....::::::::::::==;;;;;;&&;;;;;;;;@@XXXXXXXXXX..                                      "
"                                      @@&&....::::::::::::==;;;;;;&&;;;;;;;;@@XXXXXXXXXX..                                      "
"                                      ##&&==::::::::::::::##;;;;;;;;;;;;&&;;@@XXXXXXXXXX..                                      "
"                                      ##&&==::::::::::::::##;;;;;;;;;;;;&&;;@@XXXXXXXXXX..                                      "
"                                    ##;;&&&&##::::::::::##&&;;;;;;;;&&@@;;@@XXXXXXXXXXXX..                                      "
"                                    ##;;&&&&##::::::::::##&&;;;;;;;;&&@@;;@@XXXXXXXXXXXX..                                      "
"                                    @@;;;;==&&##====::==&&&&;;;;;;;;XXXX@@XXXXXXXXXXXXXX..                                      "
"                                    @@;;;;==&&##====::==&&&&;;;;;;;;XXXX@@XXXXXXXXXXXXXX..                                      "
"                                    @@;;;;;;==&&&&&&##&&==;;;;;;;;;;XXXXXXXXXXXXXXXXXX..                                        "
"                                    @@;;;;;;==&&&&&&##&&==;;;;;;;;;;XXXXXXXXXXXXXXXXXX..                                        "
"                                    ##--;;;;;;;;;;;;&&==;;;;;;;;;;;;;;XXXXXXXXXXXXXXXX..                                        "
"                                    ##--;;;;;;;;;;;;&&==;;;;;;;;;;;;;;XXXXXXXXXXXXXXXX..                                        "
"                                    @@--**&&;;;;;;;;;;;;;;;;;;;;;;;;;;XXXXXXXXXXXXXX..                                          "
"                                    @@--**&&;;;;;;;;;;;;;;;;;;;;;;;;;;XXXXXXXXXXXXXX..                                          "
"                                      @@--;;;;;;;;;;;;;;;;;;;;;;;;;;;;XXXXXXXXXXXX..                                            "
"                                      @@--;;;;;;;;;;;;;;;;;;;;;;;;;;;;XXXXXXXXXXXX..                                            "
"                                        @@##--;;;;;;;;;;;;;;;;;;;;;;;;XXXXXXXXXX..                                              "
"                                        @@##--;;;;;;;;;;;;;;;;;;;;;;;;XXXXXXXXXX..                                              "
"                                            @@######;;;;;;;;;;;;;;--@@##XXXX....                                                "
"                                            @@######;;;;;;;;;;;;;;--@@##XXXX....                                                "
"                                                    ##&&&&&&&&&&##@@  ##....                                                    "
"                                                    ##&&&&&&&&&&##@@  ##....                                                    "
"                                                  ++++++&&++..++..          OOOOOOOO                                            "
"                                                  ++++++&&++..++..          OOOOOOOO                                            "
"                                                  &&;;..==;;;;&&....        OO####OO==OOOO                                      "
"                                                  &&;;..==;;;;&&....        OO####OO==OOOO                                      "
"                                                &&;;..::++;;;;;;&&..      XXXX##==OO####@@                                      "
"                                                &&;;..::++;;;;;;&&..      XXXX##==OO####@@                                      "
"                                                &&;;==....&&;;;;;;&&        OOXXXX##XXXXXXOO                                    "
"                                                &&;;==....&&;;;;;;&&        OOXXXX##XXXXXXOO                                    "
"                                              &&;;;;..::....&&;;;;;;++        OOXXOOOOXXOO                                      "
"                                              &&;;;;..::....&&;;;;;;++        OOXXOOOOXXOO                                      "
"                                              ++..............&&;;;;;;;;&&          OOXX                                        "
"                                              ++..............&&;;;;;;;;&&          OOXX                                        "
"                                              ................&&++;;;;;;&&&&    XX                                              "
"                                              ................&&++;;;;;;&&&&    XX                                              "
"                                          ......................;;;;;;;;;;++++OOXXOOOOXXOO                                      "
"                                          ......................;;;;;;;;;;++++OOXXOOOOXXOO                                      "
"                                        ........................&&;;;;;;;;&&OO##==OOXX####OO                                    "
"                                        ........................&&;;;;;;;;&&OO##==OOXX####OO                                    "
"                                      ..........................&&&&;;;;++++  ##XXOO##==@@OO                                    "
"                                      ..........................&&&&;;;;++++  ##XXOO##==@@OO                                    "
"                                      ............................++++&&++..OOOOXXOO##XXXXOO                                    "
"                                      ............................++++&&++..OOOOXXOO##XXXXOO                                    "
"                                      ::......................................  XX  OOXXOO                                      "
"                                      ::......................................  XX  OOXXOO                                      "
"                                        ==................................==                                                    "
"                                        ==................................==                                                    "
"                                          ::==........................==::      OOOOOO                                          "
"                                          ::==........................==::      OOOOOO                                          "
"                                              ==::==::========::==::==          XX==@@OO==OOOO                                  "
"                                              ==::==::========::==::==          XX==@@OO==OOOO                                  "
"                                                  ..##..####..                  XXXXXXXX==@@OO                                  "
"                                                  ..##..####..                  XXXXXXXX==@@OO                                  "
"                                                    ....==##..                  XXXXXXXXXXXXOO                                  "
"                                                    ....==##..                  XXXXXXXXXXXXOO                                  "
"                                                    OOOO====OO                          XX                                      "
"                                                    OOOO====OO                          XX                                      "
"                                                    OOOO%%$$OO                                                                  "
"                                                    OOOO%%$$OO                                                                  "
"                                                    OOOO====OO                                                                  "
"                                                    OOOO====OO                                                                  "
"                                                    oooo$$$$oo                                                                  "
"                                                    oooo$$$$oo                                                                  "
"                                                oooooooooooooo                                                                  "
"                                                oooooooooooooo                                                                  "
"                                              oooo**%%%%$$##..                                                                  "
"                                              oooo**%%%%$$##..                                                                  "
"                                              XXXX======####XX                                                                  "
"                                              XXXX======####XX                                                                  "
"                                                XXXXXXXX..XX                                                                    "
"                                                XXXXXXXX..XX                                                                    "
"                                                                                                                                "
"                                                                                                                                "
"                                                                                                                                "
"                                                                                                                                "
"                                                                                                                                "
"                                                                                                                                "
"                                                                                                                                "
"                                                                                                                                "
"                                                                                                                                "
"                                                                                                                                "
};
