/* XPM */
static char *player_up[] = {
/* columns rows colors chars-per-pixel */
"128 128 21 1"
"  c None"
". c #36170C"
"X c #3E2014"
"o c #392A1C"
"O c #550F0A"
"+ c #45230D"
"@ c #4F3124"
"# c #773421"
"$ c #724113"
"% c #684C3C"
"& c #7D6553"
"* c #9B1A0A"
"= c #AB5C1C"
"- c #964C3A"
"; c #EF511D"
": c #EF692F"
"> c #927E6A"
", c #EFAC28"
"< c #E5AA68"
"1 c #EFB775"
"2 c #EFD8A1"
/* pixels */
"                                                                                                                                "
"                                                                                                                                "
"                                                                                                                                "
"                                                                                                                                "
"                                                                                                                                "
"                                                                                                                                "
"                                                                                                                                "
"                                                                                                                                "
"                                                                                                                                "
"                                                                                                                                "
"                                                                                                                                "
"                                                                                                                                "
"                                                                                                                                "
"                                                                                                                                "
"                                                                                                                                "
"                                                                                                                                "
"                                                      oo++oooo++oo                                                              "
"                                                      oo++oooo++oo                                                              "
"                                                oooo++$$%%$$$$%%$$++oooo                                                        "
"                                                oooo++$$%%$$$$%%$$++oooo                                                        "
"                                            oo++$$%%%%$$oooooooo$$%%%%$$++oo                                                    "
"                                            oo++$$%%%%$$oooooooo$$%%%%$$++oo                                                    "
"                                          ++$$%%%%%%%%%%%%$$$$%%%%%%%%%%%%$$++                                                  "
"                                          ++$$%%%%%%%%%%%%$$$$%%%%%%%%%%%%$$++                                                  "
"                                        oo$$%%%%%%%%%%%%%%$$$$%%%%%%%%%%%%%%$$oo                                                "
"                                        oo$$%%%%%%%%%%%%%%$$$$%%%%%%%%%%%%%%$$oo                                                "
"                                      ++$$%%%%%%%%%%%%oooooooooooo%%%%%%%%%%%%$$++                                              "
"                                      ++$$%%%%%%%%%%%%oooooooooooo%%%%%%%%%%%%$$++                                              "
"                                    oo$$%%%%%%%%oooooo$$%%$$$$%%$$oooooo%%%%%%%%$$oo                                            "
"                                    oo$$%%%%%%%%oooooo$$%%$$$$%%$$oooooo%%%%%%%%$$oo                                            "
"                                  ++oo%%%%%%oooo$$%%%%%%%%$$$$%%%%%%%%$$oooo%%%%%%oo++                                          "
"                                  ++oo%%%%%%oooo$$%%%%%%%%$$$$%%%%%%%%$$oooo%%%%%%oo++                                          "
"                                  oo$$%%%%oo$$%%%%%%%%%%%%$$$$%%%%%%%%%%%%$$oo%%%%$$oo                                          "
"                                  oo$$%%%%oo$$%%%%%%%%%%%%$$$$%%%%%%%%%%%%$$oo%%%%$$oo                                          "
"                                ++oooo$$%%%%%%%%%%%%%%%%%%$$$$%%%%%%%%%%%%%%%%%%$$oooo++                                        "
"                                ++oooo$$%%%%%%%%%%%%%%%%%%$$$$%%%%%%%%%%%%%%%%%%$$oooo++                                        "
"                                ..oooooo$$%%%%%%%%%%%%%%%%$$$$%%%%%%%%%%%%%%%%$$oooooo..                                        "
"                                ..oooooo$$%%%%%%%%%%%%%%%%$$$$%%%%%%%%%%%%%%%%$$oooooo..                                        "
"                              $$..oooooooo$$%%%%%%%%%%%%%%$$$$%%%%%%%%%%%%%%$$oooooooo..$$                                      "
"                              $$..oooooooo$$%%%%%%%%%%%%%%$$$$%%%%%%%%%%%%%%$$oooooooo..$$                                      "
"                            $$,,..oooooooooooo$$%%%%%%%%%%$$$$%%%%%%%%%%$$oooooooooooo..,,$$                                    "
"                            $$,,..oooooooooooo$$%%%%%%%%%%$$$$%%%%%%%%%%$$oooooooooooo..,,$$                                    "
"                          $$,,11..oooooooooooooooooo$$%%%%$$$$%%%%$$oooooooooooooooooo..11,,$$                                  "
"                          $$,,11..oooooooooooooooooo$$%%%%$$$$%%%%$$oooooooooooooooooo..11,,$$                                  "
"                          $$,,11..oooooooooooooooooooooooo$$$$oooooooooooooooooooooooo..11,,$$                                  "
"                          $$,,11..oooooooooooooooooooooooo$$$$oooooooooooooooooooooooo..11,,$$                                  "
"                          $$==,,..oooooooooooooooooooooooooooooooooooooooooooooooooooo..,,==$$                                  "
"                          $$==,,..oooooooooooooooooooooooooooooooooooooooooooooooooooo..,,==$$                                  "
"                          $$====..oooooooooooooooooooooooooooooooooooooooooooooooooooo..====$$                                  "
"                          $$====..oooooooooooooooooooooooooooooooooooooooooooooooooooo..====$$                                  "
"                          $$====..oooooooooooooooooooooooooooooooooooooooooooooooooooo..====$$                                  "
"                          $$====..oooooooooooooooooooooooooooooooooooooooooooooooooooo..====$$                                  "
"                            $$==..oooooooooooooooooooooooooooooooooooooooooooooooooooo..==$$                                    "
"                            $$==..oooooooooooooooooooooooooooooooooooooooooooooooooooo..==$$                                    "
"                              $$$$..oooooooooooooooooooooooooooooooooooooooooooooooo..$$$$                                      "
"                              $$$$..oooooooooooooooooooooooooooooooooooooooooooooooo..$$$$                                      "
"                                  ..oooooooooooooooooooooooooooooooooooooooooooooooo..                                          "
"                                  ..oooooooooooooooooooooooooooooooooooooooooooooooo..                                          "
"                                  ..oooooooooooooooooooooooooooooooooooooooooooooooo..                                          "
"                                  ..oooooooooooooooooooooooooooooooooooooooooooooooo..                                          "
"                                  ..oooooooooooooooooooooooooooooooooooooooooooooooo..                                          "
"                                  ..oooooooooooooooooooooooooooooooooooooooooooooooo..                                          "
"                                    ..oooooooooooooooooooooooooooooooooooooooooooo..                                            "
"                                    ..oooooooooooooooooooooooooooooooooooooooooooo..                                            "
"                                      ..oooooooooooooooooooooooooooooooooooooooo..                                              "
"                                      ..oooooooooooooooooooooooooooooooooooooooo..                                              "
"                                        ..oooooooooooooooooooooooooooooooooooo..                                                "
"                                        ..oooooooooooooooooooooooooooooooooooo..                                                "
"                                    ++++++  oo........oooooooooooo........++++++++                                              "
"                                    ++++++  oo........oooooooooooo........++++++++                                              "
"                                    ++>>++++      $$%%oooooooooooo%%$$    ++%%%%$$                                              "
"                                    ++>>++++      $$%%oooooooooooo%%$$    ++%%%%$$                                              "
"                                  oo%%>>%%$$      ##  ............        %%oo>>$$++                                            "
"                                  oo%%>>%%$$      ##  ............        %%oo>>$$++                                            "
"                                    %%oooo++  ##==##................====##++oooo++                                              "
"                                    %%oooo++  ##==##................====##++oooo++                                              "
"                                    ++oo++++  ==11==................========oooo++                                              "
"                                    ++oo++++  ==11==................========oooo++                                              "
"                                      oo  ##1111==  ................  ##<<11##                                                  "
"                                      oo  ##1111==  ................  ##<<11##                                                  "
"                                      oo  ==1111==  ................  ==11++oooo                                                "
"                                      oo  ==1111==  ................  ==11++oooo                                                "
"                                    ++oo++  ==1111....................==11++oo%%++                                              "
"                                    ++oo++  ==1111....................==11++oo%%++                                              "
"                                  ++%%%%%%++1111........................++%%>>%%$$                                              "
"                                  ++%%%%%%++1111........................++%%>>%%$$                                              "
"                                  ++%%>>oo++11............................%%oooo++                                              "
"                                  ++%%>>oo++11............................%%oooo++                                              "
"                                  ++oooooo++..............................++oooo++                                              "
"                                  ++oooooo++..............................++oooo++                                              "
"                                    ++oo++....................................                                                  "
"                                    ++oo++....................................                                                  "
"                                        ........................................                                                "
"                                        ........................................                                                "
"                                        ++..................................++++++                                              "
"                                        ++..................................++++++                                              "
"                                    oo++>>++..............................oo%%>>$$                                              "
"                                    oo++>>++..............................oo%%>>$$                                              "
"                                    oo%%$$++22>>........................>>22oooo++                                              "
"                                    oo%%$$++22>>........................>>22oooo++                                              "
"                                    oooooooo    >>22>>22>>>>>>>>22>>22>>    oo  oo                                              "
"                                    oooooooo    >>22>>22>>>>>>>>22>>22>>    oo  oo                                              "
"                                                ..%%%%..        ..%%%%..                                                        "
"                                                ..%%%%..        ..%%%%..                                                        "
"                                                ..>>>>..        ..>>>>..                                                        "
"                                                ..>>>>..        ..>>>>..                                                        "
"                                                ++>>>>++        ++>>>>++                                                        "
"                                                ++>>>>++        ++>>>>++                                                        "
"                                                ++****++        ++--**++                                                        "
"                                                ++****++        ++--**++                                                        "
"                                                ++>>>>++        ++>>>>++                                                        "
"                                                ++>>>>++        ++>>>>++                                                        "
"                                              OOOOOO****OO    OO****OOOOOO                                                      "
"                                              OOOOOO****OO    OO****OOOOOO                                                      "
"                                            OO::;;OO****OO      ****OO;;::OO                                                    "
"                                            OO::;;OO****OO      ****OO;;::OO                                                    "
"                                              ..@@OO****        ****&&@@..                                                      "
"                                              ..@@OO****        ****&&@@..                                                      "
"                                                XX....            ....XX                                                        "
"                                                XX....            ....XX                                                        "
"                                                                                                                                "
"                                                                                                                                "
"                                                                                                                                "
"                                                                                                                                "
"                                                                                                                                "
"                                                                                                                                "
"                                                                                                                                "
"                                                                                                                                "
};
