/* XPM */
static char *player_down[] = {
/* columns rows colors chars-per-pixel */
"128 128 20 1"
"  c None"
". c #36170C"
"X c #3D1D0C"
"o c #392A1C"
"O c #550F0A"
"+ c #45230D"
"@ c #773421"
"# c #7D3920"
"$ c #724113"
"% c #644838"
"& c #684C3C"
"* c #9B1A0A"
"= c #EF3A0C"
"- c #AB5C1C"
"; c #964C3A"
": c #EF692F"
"> c #927E6A"
", c #EFAC28"
"< c #EFB775"
"1 c #EFD8A1"
/* pixels */
"                                                                                                                                "
"                                                                                                                                "
"                                                                                                                                "
"                                                                                                                                "
"                                                                                                                                "
"                                                                                                                                "
"                                                                                                                                "
"                                                                                                                                "
"                                                                                                                                "
"                                                                                                                                "
"                                                                                                                                "
"                                                                                                                                "
"                                                                                                                                "
"                                                                                                                                "
"                                                                                                                                "
"                                                                                                                                "
"                                                      oo++oooo++oo                                                              "
"                                                      oo++oooo++oo                                                              "
"                                                oooo++$$&&$$$$&&$$++oooo                                                        "
"                                                oooo++$$&&$$$$&&$$++oooo                                                        "
"                                            oo++$$&&&&&&oooooooo&&&&&&$$++oo                                                    "
"                                            oo++$$&&&&&&oooooooo&&&&&&$$++oo                                                    "
"                                          ++$$&&&&&&&&&&&&$$$$&&&&&&&&&&&&$$++                                                  "
"                                          ++$$&&&&&&&&&&&&$$$$&&&&&&&&&&&&$$++                                                  "
"                                        oo$$&&&&&&&&&&oooooooooooo&&&&&&&&&&$$oo                                                "
"                                        oo$$&&&&&&&&&&oooooooooooo&&&&&&&&&&$$oo                                                "
"                                      ++$$&&&&&&&&oooo&&&&$$$$&&&&oooo&&&&&&&&$$++                                              "
"                                      ++$$&&&&&&&&oooo&&&&$$$$&&&&oooo&&&&&&&&$$++                                              "
"                                    oo$$&&&&&&oooo&&&&&&&&$$$$&&&&&&&&oooo&&&&&&$$oo                                            "
"                                    oo$$&&&&&&oooo&&&&&&&&$$$$&&&&&&&&oooo&&&&&&$$oo                                            "
"                                  ++oo&&&&&&oo&&&&&&&&$$oo++++oo$$&&&&&&&&oo&&&&&&oo++                                          "
"                                  ++oo&&&&&&oo&&&&&&&&$$oo++++oo$$&&&&&&&&oo&&&&&&oo++                                          "
"                                  oo$$&&&&&&&&&&&&$$oo++<<<<<<<<++oo$$&&&&&&&&&&&&$$oo                                          "
"                                  oo$$&&&&&&&&&&&&$$oo++<<<<<<<<++oo$$&&&&&&&&&&&&$$oo                                          "
"                                ++oooo&&&&&&&&&&$$++<<<<<<<<<<<<<<<<++$$&&&&&&&&&&oooo++                                        "
"                                ++oooo&&&&&&&&&&$$++<<<<<<<<<<<<<<<<++$$&&&&&&&&&&oooo++                                        "
"                                oooooooo&&&&$$++++<<<<<<<<<<<<<<<<<<<<++++$$&&&&oooooooo                                        "
"                                oooooooo&&&&$$++++<<<<<<<<<<<<<<<<<<<<++++$$&&&&oooooooo                                        "
"                              $$$$oooooooooo++oo>>&&,,<<<<<<<<<<<<,,&&>>oo++oooooooooo$$$$                                      "
"                              $$$$oooooooooo++oo>>&&,,<<<<<<<<<<<<,,&&>>oo++oooooooooo$$$$                                      "
"                            $$,,<<oooooo++++11111111>>,,<<<<<<<<,,>>11111111++++oooooo<<,,$$                                    "
"                            $$,,<<oooooo++++11111111>>,,<<<<<<<<,,>>11111111++++oooooo<<,,$$                                    "
"                          $$--<<<<<<++++&&111111111111&&,,<<<<,,&&111111111111&&++++<<<<<<--$$                                  "
"                          $$--<<<<<<++++&&111111111111&&,,<<<<,,&&111111111111&&++++<<<<<<--$$                                  "
"                          $$,,--<<<<$$>>111111......1111&&<<<<&&1111......111111>>$$<<<<--,,$$                                  "
"                          $$,,--<<<<$$>>111111......1111&&<<<<&&1111......111111>>$$<<<<--,,$$                                  "
"                          $$<<,,--<<$$>>1111......11..11>><<<<>>11......11..1111>>$$<<--,,<<$$                                  "
"                          $$<<,,--<<$$>>1111......11..11>><<<<>>11......11..1111>>$$<<--,,<<$$                                  "
"                          $$<<<<----<<>>1111....OO....11>><<<<>>11....OO....1111>><<----<<<<$$                                  "
"                          $$<<<<----<<>>1111....OO....11>><<<<>>11....OO....1111>><<----<<<<$$                                  "
"                          $$<<--<<<<<<>>1111..........11>><<<<>>11..........1111>><<<<<<--<<$$                                  "
"                          $$<<--<<<<<<>>1111..........11>><<<<>>11..........1111>><<<<<<--<<$$                                  "
"                            $$<<<<<<<<&&111111......1111&&<<<<&&1111......111111&&<<<<<<<<$$                                    "
"                            $$<<<<<<<<&&111111......1111&&<<<<&&1111......111111&&<<<<<<<<$$                                    "
"                              $$$$--<<-->>111111111111&&--,,,,--&&111111111111>>--<<--$$$$                                      "
"                              $$$$--<<-->>111111111111&&--,,,,--&&111111111111>>--<<--$$$$                                      "
"                                  $$<<>>--&&11111111>>----<<<<---->>11111111&&-->><<$$                                          "
"                                  $$<<>>--&&11111111>>----<<<<---->>11111111&&-->><<$$                                          "
"                                  $$<<<<>>--&&>>>>&&-->><<<<<<<<>>--&&>>>>&&-->><<<<$$                                          "
"                                  $$<<<<>>--&&>>>>&&-->><<<<<<<<>>--&&>>>>&&-->><<<<$$                                          "
"                                  &&,,<<<<>>-------->><<<<<<<<<<<<>>-------->><<<<,,&&                                          "
"                                  &&,,<<<<>>-------->><<<<<<<<<<<<>>-------->><<<<,,&&                                          "
"                                    $$,,<<<<<<<<<<<<<<<<--::::--<<<<<<<<<<<<<<<<,,$$                                            "
"                                    $$,,<<<<<<<<<<<<<<<<--::::--<<<<<<<<<<<<<<<<,,$$                                            "
"                                      $$,,<<<<<<<<<<<<<<<<<<<<<<<<<<<<<<<<<<<<,,$$                                              "
"                                      $$,,<<<<<<<<<<<<<<<<<<<<<<<<<<<<<<<<<<<<,,$$                                              "
"                                        $$&&,,<<<<<<<<<<<<<<<<<<<<<<<<<<<<,,&&$$                                                "
"                                        $$&&,,<<<<<<<<<<<<<<<<<<<<<<<<<<<<,,&&$$                                                "
"                                    ++++++  $$&&&&,,<<<<<<<<<<<<<<<<,,&&&&$$++++++                                              "
"                                    ++++++  $$&&&&,,<<<<<<<<<<<<<<<<,,&&&&$$++++++                                              "
"                                    ++>>&&++      $$&&&&&&&&&&&&&&&&$$    ++&&&&$$                                              "
"                                    ++>>&&++      $$&&&&&&&&&&&&&&&&$$    ++&&&&$$                                              "
"                                  oo&&>>&&$$    @@@@  ..>>---->>..  @@@@@@&&oo>>oo++                                            "
"                                  oo&&>>&&$$    @@@@  ..>>---->>..  @@@@@@&&oo>>oo++                                            "
"                                    &&oooo++@@--<<----....>>>>......--------@@oo++                                              "
"                                    &&oooo++@@--<<----....>>>>......--------@@oo++                                              "
"                                    ++oo++--<<<<<<##................  @@<<<<@@oo++                                              "
"                                    ++oo++--<<<<<<##................  @@<<<<@@oo++                                              "
"                                      oo  --<<<<--  ................  --<<<<--                                                  "
"                                      oo  --<<<<--  ................  --<<<<--                                                  "
"                                      oo  --<<<<--  ....11....11....  --<<<<--oo                                                "
"                                      oo  --<<<<--  ....11....11....  --<<<<--oo                                                "
"                                    ++oo@@<<<<<<<<@@......>>>>........--<<<<@@&&++                                              "
"                                    ++oo@@<<<<<<<<@@......>>>>........--<<<<@@&&++                                              "
"                                  ++&&&&--<<<<<<<<--....11....11....@@<<<<<<<<@@$$                                              "
"                                  ++&&&&--<<<<<<<<--....11....11....@@<<<<<<<<@@$$                                              "
"                                  ++&&>>--<<<<<<<<--................--<<<<<<<<--++                                              "
"                                  ++&&>>--<<<<<<<<--................--<<<<<<<<--++                                              "
"                                  ++++oo@@<<<<<<<<@@................--<<<<<<<<--++                                              "
"                                  ++++oo@@<<<<<<<<@@................--<<<<<<<<--++                                              "
"                                    ++oo++--@@@@--..................@@<<<<<<<<@@                                                "
"                                    ++oo++--@@@@--..................@@<<<<<<<<@@                                                "
"                                        ..............................--@@@@--..                                                "
"                                        ..............................--@@@@--..                                                "
"                                        11....................................11++                                              "
"                                        11....................................11++                                              "
"                                    oo++>>>>................................>>>>$$                                              "
"                                    oo++>>>>................................>>>>$$                                              "
"                                      &&oo++11>>........................>>11oooooo                                              "
"                                      &&oo++11>>........................>>11oooooo                                              "
"                                    oooooooo    >>11>>11>>>>>>>>11>>11>>    oo  oo                                              "
"                                    oooooooo    >>11>>11>>>>>>>>11>>11>>    oo  oo                                              "
"                                                ..%%&&..        ..&&&&..                                                        "
"                                                ..%%&&..        ..&&&&..                                                        "
"                                                ++>>&&..        ++>>>>++                                                        "
"                                                ++>>&&..        ++>>>>++                                                        "
"                                                ++>>;;XX        ++**>>++                                                        "
"                                                ++>>;;XX        ++**>>++                                                        "
"                                                ++==>>++        ++>>>>++                                                        "
"                                                ++==>>++        ++>>>>++                                                        "
"                                                ++>>****OO      OO**>>++                                                        "
"                                                ++>>****OO      OO**>>++                                                        "
"                                              OOOOOOOO**OO    ..**OOOOOOOO                                                      "
"                                              OOOOOOOO**OO    ..**OOOOOOOO                                                      "
"                                            OO::======OO..      OO======::OO                                                    "
"                                            OO::======OO..      OO======::OO                                                    "
"                                            ..>>>>>>>>..        ..>>>>>>>>..                                                    "
"                                            ..>>>>>>>>..        ..>>>>>>>>..                                                    "
"                                              ........            ........                                                      "
"                                              ........            ........                                                      "
"                                                                                                                                "
"                                                                                                                                "
"                                                                                                                                "
"                                                                                                                                "
"                                                                                                                                "
"                                                                                                                                "
"                                                                                                                                "
"                                                                                                                                "
};
