/* XPM */
static char *_c83353300fc4ebf989a470f65f6a3e8Q44VVa6ZPox7gUsX[] = {
/* columns rows colors chars-per-pixel */
"128 128 60 1 ",
"  c #36170C",
". c #3D1D0C",
"X c #383B0C",
"o c #3D3E0F",
"O c #392A1C",
"+ c #353328",
"@ c #3A382C",
"# c #550F0A",
"$ c #45230D",
"% c #773421",
"& c #7D3920",
"* c #404212",
"= c #724113",
"- c #636917",
"; c #656C17",
": c #686F16",
"> c #72751B",
", c #42423B",
"< c #44443D",
"1 c #644838",
"2 c #684C3C",
"3 c #787B21",
"4 c #464541",
"5 c #484741",
"6 c #4B4A46",
"7 c #4E4D49",
"8 c #605C48",
"9 c #64604B",
"0 c #66624D",
"q c #6C6852",
"w c #7C7B6E",
"e c #9B1A0A",
"r c #EF3A0C",
"t c #AB5C1C",
"y c #964C3A",
"u c #A2783C",
"i c #EF692F",
"p c #927E6A",
"a c #807F72",
"s c #7F8226",
"d c #EFAC28",
"f c #A2814F",
"g c #BD9842",
"h c #828175",
"j c #848377",
"k c #838178",
"l c #848279",
"z c #878679",
"x c #87857C",
"c c #88867D",
"v c #8A8A7D",
"b c #C6A740",
"n c #EFB775",
"m c #8D8B83",
"M c #8E8C83",
"N c #8E8C84",
"B c #939189",
"V c #9CA8AD",
"C c #B3B0A9",
"Z c #EFD8A1",
/* pixels */
">>>>>>>>>>>>>>>>>>>>>>>>>>>>>>>>>>>>>>>>>>>>>>>>>>>>>>>>>>>>>>>>>>>>>>>>>>>>>>>>>>>>>>>>>>>>>>>>>>>>>>>>>>>>>>>>>>>>>>>>>>>>>>>>",
">>>>>>>>>>>>>>>>>>>>>>>>>>>>>>>>>>>>>>>>>>>>>>>>>>>>>>>>>>>>>>>>>>>>>>>>>>>>>>>>>>>>>>>>>>>>s33>>>>>>>>>>>>>>>>>>>>>>>>>>>>>>>>>",
">>>>>>>>>>>>>>>>>>>>>>>>>>>>>>>>>>>>>>>>>>>>>>>>>>>>>>>>>>>>>>>>>>>>>>>>>>>>>>>>>>>>>>>>>>>>>333>>aaaaaaaaaaaa>>>>>>>>>>>>>>>>>>",
">>>>>>>>>>>>>>>>>>>>>>>>>>>>>>>>>>>>>>>>>>>>s>>>>>>>>>>>>>>>>>>>>>>>>>>>>>>>>>>>>>>>>>>>>>>>>>;;>caaaaaaaaaaaac>>>>>>>>>>>>>>>>>",
">>>>>>>>>>>>>>>>>>>>>>>>>>>>>>>>>>>>>>>>>>>>33>>>>>>>>>>>>>>>>>>>>>>>>>>>>>>>>>>>>>>>>>>>>>>>>>>>caaaaaaaaaaaac>>>>>>>>>>>>>>>>>",
">>>>>>>>>>>>>>>>>>>>>>>>>>>>>>>>>>>>>>>>ss3>;3>>>>>>>>>>>>>>>>>>>>>>>>>>>>>>>>s>>>>>>>>>>>>>>>>>>caaaaaaaaaaaac>>>>>>>>>>>>>>>>>",
">>>>>>>>>>>>>>>>>>>>>>>>>>>>>>>>>>>>>>>>>s33;;>ss3>>>>>>>>>>>>>>>>>>>>>3ss>>>s>>>>>>>>>>>>>>>>>>>caaaaaaaaaaaac>>>>>>>>>>>>>>>>>",
">>>>>>>>>>>>>>>>>>>>>>>>>>>>>>>>>>>>>>3s>;33>;33s>>>>>>>>>>>>>>>>>>>>>>>s33>ss>>>>>>>>>>>>>>>>>>>caaaaaaaaaaaac>>>>>>>>>>>>>>>>>",
">>>>>>>>>>>>>>>>>>>>>>>>>>>>>>>>>>>>>>>s33;3>333>>>>>>>>>>>>>>>>>>>>>>>>;33>CC>>>>>>>>>>>>>>>>>>>caaaaaaaaaaaac>>>>>>>>>>>>>>>>>",
">>>>>>>>>>>>>>>>>>>>>>>>>>>>>>>>>>>>>>>;33>;;33;>>>>>>>>>>>>>>>>>>>>>>>>>;3CffC>>>>>>>>>>>>>>>>>>caaaaaaaaaaaac>>>>>>>>>>>>>>>>>",
">>>>>>>>>>>>>>>>>>>CC>>>>>>>>>>>>>>>>>>>;3>>;;;>>>>>>>>>>>>>>>>>>>>>>>>>>>;-CC->>>>>>>>>>>>>>>>>>caaaaaaaaaaaac>>>>>>>>>>>>>>>>>",
">>>>>>>>>>>>>>>>>>CffC>>>>>>>>>>>>>>>>>>>;>33>>>>>>>>>>>>>>>>>>>>>>>>>>>>>>>-->>>>>>>>>>>>>>>>>>>caaaaaaaaaaaac>33>>>>>>>>>>>>>>",
">>>>>>>>>>>>>>>>>>-CC->>>>>>>>>>>>>>>>>>>>>s;>>>>>>>>>>>>>>>>>>>>>>>>>>>>>>>>>>>>>>>>>>>>>>>>>>>>mmmmmaaaaaaaacs3>>>>>>>>>>>>>>>",
">>>>>>>>>>>>>>>>>>>-->>>>>>>>>>>>>>>>>>>>>>;>>>>>>>>>>>>>>>>>>>>>>>>>>>>>>>>>>>>>>>>>>>>>>>>>>>>>>>999maaaaaaac3;>>>>>>>>>>>>>>>",
">>>>>>>>>>>>>>>>>>>>>>>>>>>>>>>>>>>>>>>>>>>>>>>>>>>>>>>>>>>>3ss>>>>>>>>>>>>>>>>>>>>>>>>>>>>>>>>>>>>>>>9maaaaaac3;>>>>>>>>>>>>>>>",
">>>>>>>>>>>>>>>>>>>>>>>>>>>>>>>>>>>>>>>>>>>>>>>>>>>>>>>>>>>33s>>>>>>>>>>>>>>>>>>>>>>>>>>>>>>>>>>>>>>>>>9mmmmmm>3;>>>>>>>>>>>>>>>",
">>>>>>>>>>>>>>>>>>>>>>>>>>>>>>>>>>>>>>>>>>>>>>>>>>>>>>>>>>>33;>>>>>>>>>>>>>>>>>>>>>>>>>>CC>>>>>>>>>>>>>>999999>;>>>>>>>>>>>>>>>>",
">>>>>>>>>>>>>>>>>>>aaaaaaaaaaaaaaaaaa>>>>>>>wwwwwwwwwwwwwwwwww>>>>>>>>>>>>>>>>>>>>>>>>>CffC>CC>>>>>>>>>>>>>>;;>>>>>>>>>>>>>>>>>s",
">>>>>>>>>>>>>>>>>>>aaaaaaaaaaaaaaaaaa>>>>>>>wwwwwwwwwwwwwwwwww>>>>>>>>>>>>>>>>>>>>>>>>>-CC-CfC>>>>>>>>>>>>>>>>>>>>>>>>>>3ss>>>s>",
">>>>>>>>>>>>>>>>>>caaaaaaaaaaaaaaaaaacc>>>llwwwwwwwwwwwwwwwwwwl>>>>>>>>>>>>>>>>>>>>>>>CC-->CC->>>>>>>>>>>>>>>>>>>>>>>>>>>sVV>ss>",
">>>>>>>>>>>>>>>>>>caaaaaaaaaaaaaaaaaacc>>>llwwwwwwwwwwwwwwwwwwl>>>>>>>>>>>>>>>>>>>>>>>fC>>>-->>>>>>>>>>>>>>>>>>>>>>>>>>>>VffV33>",
">>>>>>>>>>>>>>>>>>caaaaaaaaaaaaaaaaaacc>>>llwwwwwwwwwwwwwwwwwwl>>>>>>>>>>>>>>>>>>>>>>>-->>>>>>>>>>>>>>>>>>>>>>>>>>>>>>>>>-VV-CC>",
">>>>>>>>>>>>>>>>>>caaaaaaaaaaaaaaaaaacc>>>llwwwwwwwwwwwwwwwwwwl>>>>>>>>>>>>>>>>>>>>>>>>>>>>>>>>>>>>>>>>>>>>>>>>>>>>>>>>>>>-->fC>",
">>>>>>>>>>>>>>>>>>caaaaaaaaaaaaaaaaaacc>>>llwwwwwwwwwwwwwwwwwwl>>>>>>>>>>>>>>>>>>>>>>>>>>>>>>>>>>>>>>>>>>>>>>>>>>>>>>>>>>>>>>-->",
">>>>>>>>>>>>>>>>>>caaaaaaaaaaaaaaaaaacc>>>llwwwwwwwwwwwwwwwwwwl>>>>>>>>>>>>>>>>>>>>>>>>>>>>>>>>>>>>>>>>>>>>>>>>>>>>>>>>>>>>>>>>>",
">>>>>>>>>>>>>>>>>>caaaaaaaaaaaaaaaaaacc>>>llwwwwwwwwwwwwwwwwwwl>>>>>>>>>>>>>>>>>>>>>>>>>>>>>>>>>>>>>>>>>>>>>>>>>>>>>>>>>>>>>>>>>",
">>>>>>>>>>>>>>>>>>caaaaaaaaaaaaaaaaaacc>>>llwwwwwwwwwwwwwwwwwwl>>>>>>>>>>>>>>>>>>>>>>>>>>>>>>>>>>>>>>>>>>>>>>>>>>>>>>>>>>>>>>>>>",
">>>>>>>>>>>>>>>>>>caaaaaaaaaaaaaaaaaacc>>>llwwwwwwwwwwwwwwwwwwl>>>>>>>>>aaaaaaaaaaaa>>>>wwwwwwwwwwww>>>>>>>>>>>>>>>>>>>>>>>>>>>>",
">>>>>>>>>>>>>>>>>>caaaaaaaaaaaaaaaaaacc>>>llwwwwwwwwwwwwwwwwwwl>>>>>>>>caaaaaaaaaaaac>>lwwwwwwwwwwwwl>>>>>>>>>>>>>>>>>>>>>>>>>>>",
">>>>>>>>>>>>>>>>>>caaaaaaaaaaaaaaaaaacc>>>llwwwwwwwwwwwwwwwwwwl>>>>>>>>caaaaaaaaaaaac>>lwwwwwwwwwwwwl>>>>>>>>>>>>>>>>>>>>>>>>>>>",
">>>>>>>>>>>>>>>>>>caaaaaaaaaaaaaaaaaacc>>>llwwwwwwwwwwwwwwwwwwl>>>>>>>>caaaaaaaaaaaac>>lwwwwwwwwwwwwl>>>>>>>>>>>>>>>>>>>>>>>>>>>",
">>>>>>>>>>>>>>>>>>caaaaaaaaaaaaaaaaaacc>>>llwwwwwwwwwwwwwwwwwwl>>>>>>>>99xaaaaaaaaaac>>lwwwwwwwwwwwwl>>>>>>>>>>>>>>>>>>>>>>>>>>>",
">>>>>>>>>>>>>>>>>>caaaaaaaaaaaaaaaaaacc>>>llwwwwwwwwwwwwwwwwwwl>>>>>>>>>xaaaaaaaaaaac>>lwwwwwwwwwwwwl>>>>>>>>>>>>>>>>>>>>>>>>>>>",
">>>>>>>>>>>>>>>>>>caaaaaaaaaaaaaaaaaacc>>>llwwwwwwwwwwwwwwwwwwl>>>>>>>>>xaaaaaaaaaaac>>lwwwwwwwwwwwwl>>>>>>>>>>>>>>>>>>>>>>>>>>>",
">>>>>>>>>>>>>>>>>>caaaaaaaaaaaaaaaaaacc>>>llwwwwwwwwwwwwwwwwwwl>>>>>>>>xaaaaaaaaaaaac>>lwwwwwwwwwwwwl>>>>>>>>>>>>>>>>>>>>>>>>>>>",
">>>>>>>>>>>>>>>>>>caaaaaaaaaaaaaaaaaacc>>>llwwwwwwwwwwwwwwwwwwl>>>>>>>>xaaaaaaaaaaaac>>lwwwwwwwwwwwwl>>>>>>>>>>>>>>>>>>>>>>>>>>>",
">>>>>>>>>>>>>>>>>>caaaaaaaaaaaaaaaaaacc>>>llwwwwwwwwwwwwwwwwwwl>>>>>>>>xaaaaaaaaaaaac>>lwwwwwwwwwwwwl>>>>>>>>>>>>>>>>>>>>>>>>>>>",
">>>>>>>>>>>>>>>>>>9mmmmmmmmmmmmmmmmmm99>>>88cccccccccccccccccc9>>>>>>>>xaaaaaaaaaaaac>>lwwwwwwwwwwwwl>>>>>>>>>>>>>>>>>>>>>>>>>>>",
">>>>>>>>>>>>>>>>>>>990000000000000009>>>>>>>888888888999888899>>>s>>>>>xaaaaaaaaaaa3s>>lw33wwwwwwwwwl>>>>>>>>>>>>>>>>>>>>>>>>>>>",
">>>>>>>>>>>>>>>>>>>990000000000000009>>>>>>>888888888999888899>>>;>>>>>zaaaaaaaaaaaass>k33wwwwwwwwwwc>>>>>>>>>>>>>>>>>>>>>>>>>>>",
">>>>>>>>>>>>>>>s>>>>>>>>>>>>>>>>>>>>>>>>>>>>>>>>>>>>>>>>>>>O$OO$O;>>>>>9mmmmmmmmmmmm;33933cccccccccm>>>>>>>>>>>>>>>>>>>>>>>>>>>>",
">>>>>>>>>>ss3>>33>>zzzzzzzzzzzzzzzzzz>>>>>>>aaaaaaaaaaaaOO$=2==2=$OO>>>>999999999999;33>;;9998888899>>>>>>>>s3>>>>>>>>>>>>>>>>>>",
">>>>>>>>>>>s33>;3>MzzzzzzzzzzzzzzzzzzMM>>>jjaaaaaaaaaaO$=222OOOO222=$O>>>>>>>>>>>>>>>;;>>>>>>>>>>>>>>>>s3>>3s;>>>>>>>>>>>>>>>>>>",
">>>>>>>>>>>;333;>3MzzzzzzzzzzzzzzzzzzMM>>>jjaaaaaaaaa$=222222==222222=$>aaaaaaaaaaaa>>>>zzzzzzzzzzzz>>>;33>33>>>>>>>>>>>>>>>>>>>",
">>>>>>>>>>s3;33>CCMzzzzzzzzzzzzzzzzzzMM>>>zzaaaaaaaaO=22222OOOOOO22222=Oaaaaaaaaaaaac>>NzzzzzzzzzzzzN>>>;333;>>>>>>>>>>>>>>>>>>>",
">>>>>>>>>>;33;3CffMzzzzzzzzzzzzzzzzzzMM>>>xxaaaaaaa$=2222OO22==22OO2222=$aaaaaaaaaaac>>NzzzzzzzzzzzzN>>>;33;>>>>>>>>>>>>>>>>>>>>",
">>>>>>>>>>>;3;;-CCMzzzzzzzzzzzzzzzzzzMM>>>xxaaaaaaO=222OO2222==2222OO222=Oaaaaaaaaaac>>NzzzzzzzzzzzzN>>>>;3>>>>>>>>>>>>>>>>>>>>>",
">>>>>>>>>>>>>>>>--MzzzzzzzzzzzzzzzzzzMM>>>xxaaaaa$O222O2222=O$$O=2222O222O$aaaaaaaaac>>NzzzzzzzzzzzzN>>>>>>>>>>>>>>>>>>>>>>>>>>>",
">>>>>>>>>>>>VV>>>CMzzzzzzzzzzzzzzzzzzMM>>>xxaaaaaO=222222=O$nnnn$O=222222=Oaaaaaaaaac>>NzzzzzzzzzzzzN>>>>>>>>>>>>>>>>>>>>>>>>>>>",
">>>>>>>>>>>>fV>>CfMzzzzzzzzzzzzzzzzzzMM>>>xxaaaa$OO22222=$nnnnnnnn$=22222OO$aaaaaaaac>>NzzzzzzzzzzzzM>>>>>>>>>>>>>>>>>>>>>>>>>>>",
">>>>>>>>>>>>-->>CCMzzzzzzzzzzzzzzzzzzMM>>>ccaaaaOOOO22=$$nnnnnnnnnn$$=22OOOOaaaaaaaac>>NzzzzzzzzzzzzM>>>>>>>>>>>>>>>>>>>>>>>3ss>",
">>>>>>>>>>>>>>>>--MzzzzzzzzzzzzzzzzzzMM>>>ccaaa==OOOOO$Op2dnnnnnnd2pO$OOOOO==aaaaaaac>>NzzzzzzzzzzzzM>>>>>>>>>>>>>>>>>>>>>>33s>>",
">>>>>>>>>>>>>>>>>>MzzzzzzzzzzzzzzzzzzMM>>>ccaa=dnOOO$$ZZZZpdnnnndpZZZZ$$OOOnd=aaaaaac>>NzzzzzzzzzzzzM>>>>>>>>>>>>>>>>>>>>>>33;>>",
">>>>>>>>>>>>>>>>>>MzzzzzzzzzzzzzzzzzzMM>>>cca=tnnn$$2ZZZZZZ2dnnd2ZZZZZZ2$$nnnt=aaaaac>>NzzzzzzzzzzzzM>>>>>>>>>>>>>>>>>>>>>>;;>>>",
">>>>>>>>>>>>>>>>>>MzzzzzzzzzzzzzzzzzzMM>>>cca=dtnn=pZZZ   ZZ2nn2ZZ   ZZZp=nntd=aaaaac>>Nzzzz3zzzzzzzM>>>>>>>>>>>>>>>>>>>>>>>>>>>",
">>>>>>>>>>>>>>>>>>MzzzzzzzzzzzzzzzzzzMM>>>cca=ndtn=pZZ   Z ZpnnpZ   Z ZZp=ntdn=aaaaax>>Nzzzsszzzzzzzm>>>>>>>>>>>>>>>>>>>>>>>>>>>",
">>>>>>>>>>>>>>>>>>MzzzzzzzzzzzzzzzzzzMM>>>cca=nnttnpZZ  #  ZpnnpZ  #  ZZpnttnn=mmmmm9>>9BB3s:BBBBBBBq>>>>>>>>>>>>>>>>>>>>>>>>>>>",
">>>>>>>>>>>>>>>>>>MzzzzzzzzzzzzzzzzzzMM>>>cca=ntnnnpZZ     ZpnnpZ     ZZpnnntn=99999>>>>9q33qqqqqqqq>>>>>>>>>>>>>>>>>>>>>>>>>>>>",
">>>>>>>>>>>>>>>>>>MzzzzzzzzzzzzzzzzzzMM>>>ccaa=nnnn2ZZZ   ZZ2nn2ZZ   ZZZ2nnnn=>>>>>>>>>>>>>>>>>>>>>>>>>>>>>>>>>>>>>>>>>>>>>>>>>>",
">>>>>>>>>>>>>>>>>>MzzzzzzzzzzzzzzzzzzMM>>>ccaaa==tntpZZZZZZ2tddt2ZZZZZZptnt==>>>>>>>>>>>>>>>>>>>>>>>>>>>>>>>>>>>>>>>>>>>>>>>>>>>",
">>>>>>>>>>>>>>>>>>qBBBBBBBBBBBBBBBBBB00>>>99mmmmm=npt2ZZZZpttnnttpZZZZ2tpn=>>>>>>>>>>>>>>>>>>>>>>>>>>>>>>>>>>>>>>>>>>>>>>>>>>>>>",
">>>>>>>>>>>>>>>>>>qBBBBBBBBBBBBBBBBBB00>>>99mmmmm=nnpt2pp2tpnnnnpt2pp2tpnn=>>>>>>>>>>>>>>>>>>>>>>>>>>>>>>>>>>>>>>>>>>>>>>>>>>>>>",
">>>>>>>>>>>>>>>>>>>000qqqqqqqqqqq0000>>>>>>>999992dnnpttttpnnnnnnpttttpnnd2>>>>>>>>>>>>>>>>>>>>>>>>>>>>>>>>>>>>>>>>>>>>>>>>>>>>>",
">>>>>>>>>>>>>>>>>>>>>>>>>>>>>>>>>>>>>>>>>>>>>>>>>3=dnnnnnnnntiitnnnnnnnnd=>>>>>>>>>>>>>>>>>>>>>>>>>>>>>>>>>>>>>>>>>>>>>>>>>>>>>>",
">>>>>>>>>>>>>>>>>>>>>>>>>>>>>>>>>>>>>>>>>>>>>>>>>>s=dnnnnnnnnnnnnnnnnnnd=>>>>>>>>>>>>>>>>>>>>>:::>>>>>>>>>>>>>>>>>>>>>>>>>>>>>>>",
">>>>>>>>>>>>>>>>>>>>>>>>>>>>>>>>>>>>>>>>>>>>>>>>>>>>=2dnnnnnnnnnnnnnnd2=>>>>>>>>>>>>>>>>>>>>>>:::>>>>>>>>>>>>>>>>>>>>>>>>>>>>>>>",
">>>>>>>>>>>>>>>>>>>>>>>>>>>>>>>>>>>>>>>>>>>>>>>>>>$$$;=22dnnnnnnnnd22=$$$zzzzzzzzzzz>>>>>>>aaaaaaaaaaaaaaaaaa>>>>>>>>>>>3s>>>>ss",
">>>>>>>>>>>>>>>>>>>>>>>>>>>>>>>>>>>>>>>>>>>>>>>>>>$p2$33>=22222222=zz$22=zzzzzzzzzzzvv>>>xxaaaaaaaaaaaaaaaaaac>>>>>>>>>>>ss>>3s>",
">>>>>>>>>>>>>>>>>>>>>>>>>>>>>>>>>>>>>>>>>>>>>>>>>O2p2=3;%%> pttp m%%%2OpO$zzzzzzzzzzvv>>>xxaaaaaaaaaaaaaaaaaac>>>>>>>>>>>33>33;>",
">>>>>>>>>>>>>>>>>>>>>>>3s>>>>33>>>>>>>>>>>>>>>>>>>2OO$%tntt  pp   tttt%O$zzzzzzzzzzzmm>>>ccaaaaaaaaaaaaaaaaaac>>>>>>>>>>>bb>33;>",
">>>>>>>>>>>>>>>>>>>>>>>>ss>>33>>>>>>>>>>>>>>>>>>>>$O$tnnn&        z%nn%O$zzzzzzzzzzzmm>>>ccaaaaaaaaaaaaaaaaaac>>>>>>>>>>buub;;>>",
">>>>>>>>>>>>>>>>>>>>>>>>;33>33>>>>>>>>>>>>>>>>>>>>>O>tnnt>        ztnntzzzzzzzzzzzzzmm>>>ccaaaaaaaaaaaaaaaaaac>>>>>>>>>>-bb->>>>",
">>>>>>>>>>>>>>>>>>>>>>>>;33>>aaaaaaaaaaaa>>>>aaaaaaOatnnt>  Z  Z  ztnntOzzzzzzzzzzzzMM>>>ccaaaaaaaaaaaaaaaaaac>>>>>>>>>>>-->>>>>",
">>>>>>>>>>>>>>>>>>>>>>>>>;;>caaaaaaaaaaaac>>caaaaa$O%nnnn%   pp    tnn%2$zzzzzzzzzzzMM>>>ccaaaaaaaaaaaaaaaaaac>>>>>>>>>>>>>>>>>>",
">>>>>>>>>>>>>>>>>>>>>>>>>>>>caaaaaaaaaaaac>>caaaa$22tnnnnt  Z  Z  %nnnn%=zzzzzzzzzzzMM>>>ccaaaaaaaaaaaaaaaaaac>>>>>>>>>>>>>>>>>>",
">>>>>>>>>>>>>>>>>>>>>>>>>>>>caaaaaaaaaaaac>>caaaa$2ptnnnnt        tnnnnt$zzzzzzzzzzzMM>>>ccaaaaaaaaaaaaaaaaaac>>>>>>>>>>>>>>>>>>",
">>>>>>>>>>>>>>>>>>>>>>>>>>>>caaaaaaaaaaaac>>caaaa$$O%nnnn%        tnnnnt$zzzzzzzzzzzMM>>>ccaaaaaaaaaaaaaaaaaac>>>>>>>>>>>>>>>>>>",
">>>>>>>>>>>>>>>>>>>>>>>>>>>>caaaaaaaaaaaac>>caaaaa$O$t%%t         %nnnn%zzzzzzzzzzzzMM>>>ccaaaaaaaaaaaaaaaaaac>>>>>>>>>>>>>>>>>>",
">>>>>>>>>>>>>>>>>>>>>>>>>>>>caaaaaaaaaaaac>>caaaaaaa               t%%t zzzzzzzzzzzzMM>>>ccaaaaaaaaaaaaaaaaaac>>>>>>>>>>>>>>>>>>",
">>>>>>>>>>>>>>>>>>>>>>>>>>>>caaaaaaaaaaaac>>caaaaaaaZ                  Z$zzzzzzzzzzzMM>>>ccaaaaaaaaaaaaaaaaaam>>>>>>>>>>>>>>>>>>",
">>>>>>>>>>>>gg>>>>>>>>>>>>>>caaaaaaaaaaaac>>caaaaaO$pp                pp=zzzzzzzzzzzMM>>>ccaaaaaaaaaaaaaaaaaam>>>>>>>>>>>>>>>>>>",
">>>>>>>>>>>guug>bb>>>>>>>>>>caaaaaaaaaaaac>>caaaaaa2O$Zp            pZOOOzzzzzzzzzzzMM>>>ccaaaaaaaaaaaaaaaamm9>>>>>>>>>>>>>>>>>>",
">>>>>>>>>>>-gg-bub>>>>>>>>>>caaaaaaaaaaaac>>caaaaaOOOO<<pZpZppppZpZp65OzOzzzzzzzzzzzMM>>>xxaaaaaaaaaaaaaaam99>>>>>>>>>>>>>>>>>>>",
">>>>>>>>>>>>-->bb->>>>>>>>>>caaaaaaaaaaaac>>caaaaaa<<<<< 12 oooo 22 65555zzzzzzzzzzzMM>>>xxaaaaaaaaaaaaaaam99>>>>>>>>>>>>>>>>>>>",
">>>>>>>>>>>>>>>-->>>>>>>>>>>caaaaaaaaaas39>>caaaaa<<<<<<$p2 oooo$pp$655555zzzzzzzzzzMM>>>xxaaaaaaaaaaaaamm9>>>>>>>>>>>>>>>>>>>>>",
">>>>>>>>>>>>>>>>>>>>>>>>>>>>9mmmmms3mm3s;>>>9mmmm6666666$py.oooo$ep$*777777BBBBBBBBB99>>>99mmmmmmmmmmmmm99>>>>>>>>>>>>>>>>>>>>>>",
">>>>>>>>>>>>>>>>>>>>>>>>>>>>>99999;33933>>>>>9999+++++++$rp$oooo$pp$*777777BBBBBBBBB99>>>99mmmmmmmmmmmmm99>>>>>>>>>>>>>>>>>>>>>>",
">>>>>>>>>>>>>>>>>>>>>>>>>>>>>>>>>>>;333;>>>>>>>>oooooooo$pee#ooo#ep$X@@@@@@@qqqqqqqq>>>>>>>9999999999999>>>>>>>>>>>>>>>>>>>>>>>>",
">>>>>>>>>>>>>>>>>>>>>>>>>>>>>aaaaaa;33;>>>>>>>>>,,,,,,,####e#oo e####ooooooo>>>>>>>>>>>>>>>>>>>>>>>>>>>>>>>>>>>>>>>>>>>>>>>>>>>>",
">>>>>>>>>>>>>>>>>>>>>>>>>>>>caaaaaaa;3>>>>>>>>>w,,,,,,#irrr# ooo#rrri#oooooo>>>>>>>>>>>>>>>>>>>>>>>>>>>>>>>>>>>>>>>>>>>>>>>>>>>>",
">>>>>>>>>>>>>>>>>>>>>>>>>>>>caaaaaaaaaaa>>>>>>ww,,,,,, pppp oooo pppp <<<<<<aaaaa>>>>>>>>>>aaaaaaaaac>>>aaaaa>>>>>>>>>>>>>>>>>>>",
">>>>>>>>>>>>>>>>>>>>>>>>>>>>caaaaaaaaaaaac>>lwww,,,,,,,    oooooo    <<<<<<<aaaaa>>>>>>>>>>aaaaaaaaac>>>aaaaa>>>>>>>>>>>>>>>>>>>",
">>>>>>>>>>>>>>>>>>>>>>>>>>>>caaaaaaaaaaaac>>lwww,,,,,,,,,4ooooooo5<<<<<<<<<<aaaaaaaa>>>>>ccaaaaaaaaac>>aaaaaac>>>>>>>>>>>>>>>>>>",
">>>>>>>>>>>>>>>>>>>>>>>>>>>>caaaaaaaaaaaal>>3wwww,,,,,,,,4ooooooo5<<<<<<<<<aaaaaaaaacc>>>ccaaaaaaacc9aaaaaaaac>>>>>>>>>>>>>>>>>>",
">>>>>aaaaaaaaaa>>>>>>>>>>>>>caaaaaaaaaaaal>sswwww,,,,,,,,4ooooooo5<<<<<<<<<aaaaaaaaacc>>>ccaaaaaaacc9aaaaaaaac>>>>>>>>>>>>>>>>>>",
">>>>aaaaaaaaaaac>>>>>>>>>>>>caaaaaaaaaaaal3s:wwwww,,,,,,,4ooooooo5<<<<<<<<aaaaaaaaaacc>>>cc333accc99>aaaaaaaac>>>>>>>>>>>>>>>>>>",
">>caaaaaaaaaaaac>>>>>>>>>>>>caaaaaaaaaaaal33lwwwwwwww,,,,4ooooooo5<<<<<aaaaaaaaaaaaacc>>>sssccc999>>>aaaaaaaac>>>>>>>>>>>>>>>>>>",
">>caaaaaaaaaaaac>>>>>>>>>>>>caaaaaaaaaaaac::lwwwwwwwww,,,4ooooooo5<<<<aaaaaaaaaaaaaacc>>>sssccc999>>>aaaaaaaac>>>>>>>>>>>>>>>>>>",
">>caaaaaaaaaaaac>>>>>>>>>>>>caaaaaaaaaaaac>>lwwwwwwwwwwww4ooooooo5<aaaaaaaaaaaaaaaaacc>>333:999>>>>>aaaaaaaaac>>>>>>>>>>>>>>>>>>",
">>caaaaaaaaaaaac>>>>>>>>>>>>xaaaaaaaaaaaac>>lwwwwwwwwwwwcm>>>>>>>xaaaaaaaaaaaaaaaaaacc>>333:>>>>>>aaaaaaaaaaac>>>>>>>>>>>>>>>>>>",
">>caaaaaaaaaaaac>>>>>>>>>>>>xaaaaaaaaaaaac>>cwwwwwwwwwwc99s>>>>>>xaaaaaaaaaaaaaaaaaacc>>333:>>>>>>aaaaaaaaaaac>>>>>>>>>>>>>>>>>>",
">>caaaaaaaaaaaac>>>>>>>>>>>>9mmmmmmmmmmmm9>>9mccccccccc9>>3>>ss>>xaaaaaaaaaaaaaaaaaacc>>3::>>>>aaaaaaaaaaaaaac>>>>>>>>>>>>>>>>>>",
">>caaaaaaaaaaaac>>>>>>>>>>>>>999999999999>>>>9988888889>>>:>33s>>xaaaaaaaaaaaaaaaaaacc>>>>>>aaaaaaaaaaaaaaaaac>>>>>>>>>>>>>>>>>>",
">>caaaaaaaaaaaac>>>>>>>>>>>>>>>>>>>>>>>>>>>>-->ug>>>>>>s3:>>33:>>xaaaaaaaaaaaaaaaaaacc>>>>>>aaaaaaaaaaaaaaaaac>>>>>>>>>>>>s>>>>>",
">>caaaaaaaaaaaam>>>>>>>>>>>>>>s>>>>>>>>>>>>>>>>-->>>>>>33bb33:3>>xaaaaaaaaaaaaaaaaaacc>>>ccaaaaaaaaaaaaaaaaaac>>>>>>>>>>>33>>3ss",
">>caaaaaaaaammm9>>>>>>>3ss>>>s>>>>>>>>>>>>>>>>>>>>>>>>>>buub:33>>xaaaaaaaaaaaaaaaaaacc>>>ccaaaaaaaaaaaaaaaaaac>>>>>>>>s>>3:>33s>",
">>caaaaaaaam999>>>>>>>>>s33>ss>>>>>>>>>>>>>>>>>>>>>>>>>>-bb-:3:>>xaaaaaaaaaaaaaaaaaacc>>>ccaaaaaaaaaaaaaaaaaac>>>>>>>>:33>:333:>",
">>9mmmmmmmm9>>3ss>>>>>>>;33>33>>>>>>>>>>>>>>>>>>>>>>>>>>>-->>gg>>xaaaaaaaaaaaaaaaaammm>>>ccaaaaaaaaaaaaaaaaaax>>>>>>>>:33VV33:3s",
">>>99999999>>33s>>>>>>>>>;3;3;>>>>>>>>>>>>>>>>>>>>ss3>>>>>>>guu>>xaaaaaaaaaaaammm33sss>>>cchaaaaaaaaaaaaaaaaax>>>>>>>>>:VffV:33:",
">>>>>>>>>>>>>33;>>>>>>>>>>;>;>>>>>>>>>>>>>>>>>>>>>>s33>>>>>>-gg>>xaaaaaaaaaaaammm33sss>>>cchaaaaaaaaaaaaaaaaax>>>>>>>>>>-VV-:3:>",
">>>>>>>>3s>>>3;>>>>>aaaaaaaaaaa>>>>>>>>>>>>>>>>>>>>:33>>>>>bb-->>9mmmmmmmmmmmm99999s3333>99mmmmmmmmmmmmmmmmmm9>>>ss3>>>>>--VV>>>",
">>>>>>>>;s3>>;3s>>>aaaaaaaaaaaax>>>>>>>>>>>>>>>>>>>>::>>>>bub->>>>999999999999>>>>>:3333>>>999999999999999999>>>>>s33CC>>>>fV>>>",
">>>>>>>>>33>>33;>>caaaaaaaaaaaac>>>>>>>>>>>>>>>>>>>>>>>>>>bb->>>>>999999999999>>>>>:3333>>>999999999999999999>>>>>:3CffC>>>-->>>",
">>>>>>>>>;3;33;>>>caaaaaaaaaaaac>>>>>>>>>>>>>>>>>>>>>>>>>>-->>>>>>>>>>>>>>>-CC->>>>>>>>>>>>>>>>>>>>>>>>>>>>>>>>>>>>:-CC->>>>>>>>",
">>>>>>>>>>;;33;>>>caaaaaaaaaaaac>>>>>>>>>>>>>>>>>>>>>>>>>>>>>>>>>>>>>>>>>>>>-->>>>>>>>>>>>>>>>>>>>>>>>>>>>>>>>>>>>>>>-->>>>>>>>>",
">>>>>>>>>>>>3;>>>>caaaaaaaaaaaac>>>>>>>ss>>>>33>>>>>>>>>>>>>>>>>>>>>>>>>>>>>>>>>>>>>>>>>>>>>>>>>>>>>>>>>>>>>>>>>>>>>>>>>>>>>>>>>",
">>>>>>>>>>>>>>>>>>caaaaaaaaaaaac>>>>>>>>s3>bb3>>>>>>>>>>>>>>>>>>>ss>>>>>>>>>>>>>>>>>>>>>>>>>>>>>>>>>>>>>>>>>>>>>>>>>>>>>>>>>>>>>",
">>>>>>>>>>>>>>>>>>caaaaaaaaaaaac>>>>>>>>:33bu3>>>>>>>>>>>>>>3>>33s>>>>>>>>>>>>>>>>>>>>>>>>>>>>>>>>>>>>>>>>>>>>>>>>>>>>>>>>>>>>>>",
">>>>>>>>>>>>>>>>>>caaaaaaaaaaaac>>>>>>>>:33--:>>>>>>>>>>>>>>ss:33:>>>>>>>>>>>>>>>>>>>>>>>>>>>>>>>>>>>>>>>>>>>>>>>>>>>>>>>>>>>>>>",
">>>>>>>>>>>>>>>>>>caaaaaaaaaaaac>>>>>>>>>::>>>>>>>>>>>>>>>>>s33::>>>>>>>>>>>>>>>>>>>>>>>>>>>>>>>>>>>>>>>>>>>>>>>>>>>>>>>>>>>>>>>",
">>>>>>>>>>>>>>>>>>caaaaaaaaaaaac>>>>>>>>>>>>>>>>>>>>>>>>>>>>:33>>>>>>>>>>>>>>>>>>>>>>>>>>>>>>>>>>>>>>>>>>>>>>>>>>>>>>>>>>>>>>>>>",
">>>>>>>>>>>>>>>>>>caaaaaaammmmm>>>>>>>>>>>>>>>>>>>>>>>>>>>>>>>>>>>>>>>>>>>>>>>>>>>>>>>>>>>>>>>>>>>>>>>>>>>>>>>>>>>>>>>>>>>>>>>>>",
">>>>>>>>>>>>>>>>>>caaaaamm99999>>>>>>>>>>>>>>>>>>>>>>>>>>>>>>>>>>>>>>>>>>>>>>>>>>>>>>>>>>>>>>>>>>>>>>>>>>>>>>>>>>>>>>>>>>>>>>>>>",
">>>>>>>>>>>>>>>>>>9mmmmm99>>>>>>>>>>>>>>>>>>>>>>>>>>>>>>>>>>>>>>>>>>>>>>>>>>>>>>>>>>>>>>>>>>>>>>>>>>>>>>>>>>>>>>>>>>>>>>>>>>>>>>",
">>>>>>>>>>>>>>>>>>>99999>>>>>>>>>>>>>>>>>>>>>>>>>>>>>>>>>>>>>>>>>>>>>>>>>>>>>>>>>>>>>>>>>>>>>>>>>>>>>>>>>>>>>>>>>>>>>>>>>>>>>>>>",
">>>>>>>>>>>>>>>>>>>>>>>>>>>>>>>>>>>>>>>>>>>>>>>>>>>>>>>>>>>>>>>>>>>>>>>>>>>>>>>>>>>>>>>>>>>>>>>>>>>>>>>>>>>>>>>>>>>>>>>>>>>>>>>>",
">>>>>>>>>>>>>>>>>>>>>>>>>>>>>>>>>>>>>>>>>>>>>>>>>>>>>>>>>>>>>>>>>>>>>>>>>>>>>>>>>>>>>>>>>>>>>>>>>>>>>>>>>>>>>>>>>>>>>>>>>>>>>>>>",
">>>>>>>>>>>>>>>>>>>>>>>>>>>>>>>>>>>>>>>>>>>>>>>>>>>>>>>>>>>>>>>>>>>>>>>>>>>>>>>>>>>>>>>>>>>>>>>>>>>>>>>>>>>>>>>>>>>>>>>>>>>>>>>3"
};
