/* XPM */
static char *_1b44ce5ab4d4e688353cc9f6cb8a7efaf4u0m2PX6NcguHj[] = {
/* columns rows colors chars-per-pixel */
"128 128 58 1 ",
"  c #36170C",
". c #383B0C",
"X c #3D3E0F",
"o c #39281B",
"O c #392A1C",
"+ c #353328",
"@ c #3A382C",
"# c #550F0A",
"$ c #45230D",
"% c #503B2C",
"& c #773421",
"* c #404212",
"= c #724113",
"- c #636917",
"; c #656C17",
": c #686F16",
"> c #72751B",
", c #42423B",
"< c #44443D",
"1 c #684C3C",
"2 c #787B21",
"3 c #464541",
"4 c #484743",
"5 c #4B4A46",
"6 c #4E4D49",
"7 c #605C48",
"8 c #64604B",
"9 c #66624D",
"0 c #6C6852",
"q c #7C7B6E",
"w c #9B1A0A",
"e c #EF3A0C",
"r c #AB5C1C",
"t c #A2783C",
"y c #EF692F",
"u c #927E6A",
"i c #807F72",
"p c #7F8226",
"a c #EFAC28",
"s c #A2814F",
"d c #BD9842",
"f c #828175",
"g c #848377",
"h c #838279",
"j c #848279",
"k c #878679",
"l c #87857C",
"z c #88867D",
"x c #8A8A7D",
"c c #C6A740",
"v c #EFB775",
"b c #8D8B83",
"n c #8E8C83",
"m c #8E8C84",
"M c #939189",
"N c #9CA8AD",
"B c #B3B0A9",
"V c #EFD8A1",
/* pixels */
">>>>>>>>>>>>>>>>>>>>>>>>>>>>>>>>>>>>>>>>>>>>>>>>>>>>>>>>>>>>>>>>>>>>>>>>>>>>>>>>>>>>>>>>>>>>>>>>>>>>>>>>>>>>>>>>>>>>>>>>>>>>>>>>",
">>>>>>>>>>>>>>>>>>>>>>>>>>>>>>>>>>>>>>>>>>>>>>>>>>>>>>>>>>>>>>>>>>>>>>>>>>>>>>>>>>>>>>>>>>>>p22>>>>>>>>>>>>>>>>>>>>>>>>>>>>>>>>>",
">>>>>>>>>>>>>>>>>>>>>>>>>>>>>>>>>>>>>>>>>>>>>>>>>>>>>>>>>>>>>>>>>>>>>>>>>>>>>>>>>>>>>>>>>>>>>222>>iiiiiiiiiiii>>>>>>>>>>>>>>>>>>",
">>>>>>>>>>>>>>>>>>>>>>>>>>>>>>>>>>>>>>>>>>>>p>>>>>>>>>>>>>>>>>>>>>>>>>>>>>>>>>>>>>>>>>>>>>>>>>;;>ziiiiiiiiiiiiz>>>>>>>>>>>>>>>>>",
">>>>>>>>>>>>>>>>>>>>>>>>>>>>>>>>>>>>>>>>>>>>22>>>>>>>>>>>>>>>>>>>>>>>>>>>>>>>>>>>>>>>>>>>>>>>>>>>ziiiiiiiiiiiiz>>>>>>>>>>>>>>>>>",
">>>>>>>>>>>>>>>>>>>>>>>>>>>>>>>>>>>>>>>>pp2>;2>>>>>>>>>>>>>>>>>>>>>>>>>>>>>>>>p>>>>>>>>>>>>>>>>>>ziiiiiiiiiiiiz>>>>>>>>>>>>>>>>>",
">>>>>>>>>>>>>>>>>>>>>>>>>>>>>>>>>>>>>>>>>p22;;>pp2>>>>>>>>>>>>>>>>>>>>>2pp>>>p>>>>>>>>>>>>>>>>>>>ziiiiiiiiiiiiz>>>>>>>>>>>>>>>>>",
">>>>>>>>>>>>>>>>>>>>>>>>>>>>>>>>>>>>>>2p>;22>;22p>>>>>>>>>>>>>>>>>>>>>>>p22>pp>>>>>>>>>>>>>>>>>>>ziiiiiiiiiiiiz>>>>>>>>>>>>>>>>>",
">>>>>>>>>>>>>>>>>>>>>>>>>>>>>>>>>>>>>>>p22;2>222>>>>>>>>>>>>>>>>>>>>>>>>;22>BB>>>>>>>>>>>>>>>>>>>ziiiiiiiiiiiiz>>>>>>>>>>>>>>>>>",
">>>>>>>>>>>>>>>>>>>>>>>>>>>>>>>>>>>>>>>;22>;;22;>>>>>>>>>>>>>>>>>>>>>>>>>;2BssB>>>>>>>>>>>>>>>>>>ziiiiiiiiiiiiz>>>>>>>>>>>>>>>>>",
">>>>>>>>>>>>>>>>>>>BB>>>>>>>>>>>>>>>>>>>;2>>;;;>>>>>>>>>>>>>>>>>>>>>>>>>>>;-BB->>>>>>>>>>>>>>>>>>ziiiiiiiiiiiiz>>>>>>>>>>>>>>>>>",
">>>>>>>>>>>>>>>>>>BssB>>>>>>>>>>>>>>>>>>>;>22>>>>>>>>>>>>>>>>>>>>>>>>>>>>>>>-->>>>>>>>>>>>>>>>>>>ziiiiiiiiiiiiz>22>>>>>>>>>>>>>>",
">>>>>>>>>>>>>>>>>>-BB->>>>>>>>>>>>>>>>>>>>>p;>>>>>>>>>>>>>>>>>>>>>>>>>>>>>>>>>>>>>>>>>>>>>>>>>>>>bbbbbiiiiiiiizp2>>>>>>>>>>>>>>>",
">>>>>>>>>>>>>>>>>>>-->>>>>>>>>>>>>>>>>>>>>>;>>>>>>>>>>>>>>>>>>>>>>>>>>>>>>>>>>>>>>>>>>>>>>>>>>>>>>>888biiiiiiiz2;>>>>>>>>>>>>>>>",
">>>>>>>>>>>>>>>>>>>>>>>>>>>>>>>>>>>>>>>>>>>>>>>>>>>>>>>>>>>>2pp>>>>>>>>>>>>>>>>>>>>>>>>>>>>>>>>>>>>>>>8biiiiiiz2;>>>>>>>>>>>>>>>",
">>>>>>>>>>>>>>>>>>>>>>>>>>>>>>>>>>>>>>>>>>>>>>>>>>>>>>>>>>>22p>>>>>>>>>>>>>>>>>>>>>>>>>>>>>>>>>>>>>>>>>8bbbbbb>2;>>>>>>>>>>>>>>>",
">>>>>>>>>>>>>>>>>>>>>>>>>>>>>>>>>>>>>>>>>>>>>>>>>>>>>>>>>>>22;>>>>>>>>>>>>>>>>>>>>>>>>>>BB>>>>>>>>>>>>>>888888>;>>>>>>>>>>>>>>>>",
">>>>>>>>>>>>>>>>>>>iiiiiiiiiiiiiiiiii>>>>>>>qqqqqqqqqqqqqqqqqq>>>>>>>>>>>>>>>>>>>>>>>>>BssB>BB>>>>>>>>>>>>>>;;>>>>>>>>>>>>>>>>>p",
">>>>>>>>>>>>>>>>>>>iiiiiiiiiiiiiiiiii>>>>>>>qqqqqqqqqqqqqqqqqq>>>>>>>>>>>>>>>>>>>>>>>>>-BB-BsB>>>>>>>>>>>>>>>>>>>>>>>>>>2pp>>>p>",
">>>>>>>>>>>>>>>>>>ziiiiiiiiiiiiiiiiiizz>>>jjqqqqqqqqqqqqqqqqqqj>>>>>>>>>>>>>>>>>>>>>>>BB-->BB->>>>>>>>>>>>>>>>>>>>>>>>>>>pNN>pp>",
">>>>>>>>>>>>>>>>>>ziiiiiiiiiiiiiiiiiizz>>>jjqqqqqqqqqqqqqqqqqqj>>>>>>>>>>>>>>>>>>>>>>>sB>>>-->>>>>>>>>>>>>>>>>>>>>>>>>>>>NssN22>",
">>>>>>>>>>>>>>>>>>ziiiiiiiiiiiiiiiiiizz>>>jjqqqqqqqqqqqqqqqqqqj>>>>>>>>>>>>>>>>>>>>>>>-->>>>>>>>>>>>>>>>>>>>>>>>>>>>>>>>>-NN-BB>",
">>>>>>>>>>>>>>>>>>ziiiiiiiiiiiiiiiiiizz>>>jjqqqqqqqqqqqqqqqqqqj>>>>>>>>>>>>>>>>>>>>>>>>>>>>>>>>>>>>>>>>>>>>>>>>>>>>>>>>>>>-->sB>",
">>>>>>>>>>>>>>>>>>ziiiiiiiiiiiiiiiiiizz>>>jjqqqqqqqqqqqqqqqqqqj>>>>>>>>>>>>>>>>>>>>>>>>>>>>>>>>>>>>>>>>>>>>>>>>>>>>>>>>>>>>>>-->",
">>>>>>>>>>>>>>>>>>ziiiiiiiiiiiiiiiiiizz>>>jjqqqqqqqqqqqqqqqqqqj>>>>>>>>>>>>>>>>>>>>>>>>>>>>>>>>>>>>>>>>>>>>>>>>>>>>>>>>>>>>>>>>>",
">>>>>>>>>>>>>>>>>>ziiiiiiiiiiiiiiiiiizz>>>jjqqqqqqqqqqqqqqqqqqj>>>>>>>>>>>>>>>>>>>>>>>>>>>>>>>>>>>>>>>>>>>>>>>>>>>>>>>>>>>>>>>>>",
">>>>>>>>>>>>>>>>>>ziiiiiiiiiiiiiiiiiizz>>>jjqqqqqqqqqqqqqqqqqqj>>>>>>>>>>>>>>>>>>>>>>>>>>>>>>>>>>>>>>>>>>>>>>>>>>>>>>>>>>>>>>>>>",
">>>>>>>>>>>>>>>>>>ziiiiiiiiiiiiiiiiiizz>>>jjqqqqqqqqqqqqqqqqqqj>>>>>>>>>iiiiiiiiiiii>>>>qqqqqqqqqqqq>>>>>>>>>>>>>>>>>>>>>>>>>>>>",
">>>>>>>>>>>>>>>>>>ziiiiiiiiiiiiiiiiiizz>>>jjqqqqqqqqqqqqqqqqqqj>>>>>>>>ziiiiiiiiiiiiz>>jqqqqqqqqqqqqj>>>>>>>>>>>>>>>>>>>>>>>>>>>",
">>>>>>>>>>>>>>>>>>ziiiiiiiiiiiiiiiiiizz>>>jjqqqqqqqqqqqqqqqqqqj>>>>>>>>ziiiiiiiiiiiiz>>jqqqqqqqqqqqqj>>>>>>>>>>>>>>>>>>>>>>>>>>>",
">>>>>>>>>>>>>>>>>>ziiiiiiiiiiiiiiiiiizz>>>jjqqqqqqqqqqqqqqqqqqj>>>>>>>>ziiiiiiiiiiiiz>>jqqqqqqqqqqqqj>>>>>>>>>>>>>>>>>>>>>>>>>>>",
">>>>>>>>>>>>>>>>>>ziiiiiiiiiiiiiiiiiizz>>>jjqqqqqqqqqqqqqqqqqqj>>>>>>>>88liiiiiiiiiiz>>jqqqqqqqqqqqqj>>>>>>>>>>>>>>>>>>>>>>>>>>>",
">>>>>>>>>>>>>>>>>>ziiiiiiiiiiiiiiiiiizz>>>jjqqqqqqqqqqqqqqqqqqj>>>>>>>>>liiiiiiiiiiiz>>jqqqqqqqqqqqqj>>>>>>>>>>>>>>>>>>>>>>>>>>>",
">>>>>>>>>>>>>>>>>>ziiiiiiiiiiiiiiiiiizz>>>jjqqqqqqqqqqqqqqqqqqj>>>>>>>>>liiiiiiiiiiiz>>jqqqqqqqqqqqqj>>>>>>>>>>>>>>>>>>>>>>>>>>>",
">>>>>>>>>>>>>>>>>>ziiiiiiiiiiiiiiiiiizz>>>jjqqqqqqqqqqqqqqqqqqj>>>>>>>>liiiiiiiiiiiiz>>jqqqqqqqqqqqqj>>>>>>>>>>>>>>>>>>>>>>>>>>>",
">>>>>>>>>>>>>>>>>>ziiiiiiiiiiiiiiiiiizz>>>jjqqqqqqqqqqqqqqqqqqj>>>>>>>>liiiiiiiiiiiiz>>jqqqqqqqqqqqqj>>>>>>>>>>>>>>>>>>>>>>>>>>>",
">>>>>>>>>>>>>>>>>>ziiiiiiiiiiiiiiiiiizz>>>jjqqqqqqqqqqqqqqqqqqj>>>>>>>>liiiiiiiiiiiiz>>jqqqqqqqqqqqqj>>>>>>>>>>>>>>>>>>>>>>>>>>>",
">>>>>>>>>>>>>>>>>>8bbbbbbbbbbbbbbbbbb88>>>77zzzzzzzzzzzzzzzzzz8>>>>>>>>liiiiiiiiiiiiz>>jqqqqqqqqqqqqj>>>>>>>>>>>>>>>>>>>>>>>>>>>",
">>>>>>>>>>>>>>>>>>>889999999999999998>>>>>>>777777777888777788>>>p>>>>>liiiiiiiiiii2p>>jq22qqqqqqqqqj>>>>>>>>>>>>>>>>>>>>>>>>>>>",
">>>>>>>>>>>>>>>>>>>889999999999999998>>>>>>>777777777888777788>>>;>>>>>kiiiiiiiiiiiipp>h22qqqqqqqqqqz>>>>>>>>>>>>>>>>>>>>>>>>>>>",
">>>>>>>>>>>>>>>p>>>>>>>>>>>>>>>>>>>>>>>>>>>>>>>>>>>>>>>>$$$$$$$$$;$>>>>8bbbbbbbbbbbb;22822zzzzzzzzzb>>>>>>>>>>>>>>>>>>>>>>>>>>>>",
">>>>>>>>>>pp2>>22>>kkkkkkkkkkkkkkkkkk>>>>>>>iiiiiiiiiiiO11O1111O1$1O>>>>888888888888;22>;;8887777788>>>>>>>>p2>>>>>>>>>>>>>>>>>>",
">>>>>>>>>>>p22>;2>nkkkkkkkkkkkkkkkkkknn>>>ggiiiiiiiiiiO$11O=1%O=1111$>>>>>>>>>>>>>>>>;;>>>>>>>>>>>>>>>>p2>>2p;>>>>>>>>>>>>>>>>>>",
">>>>>>>>>>>;222;>2nkkkkkkkkkkkkkkkkkknn>>>ggiiiiiiiii$=111O1111O111111O>iiiiiiiiiiii>>>>kkkkkkkkkkkk>>>;22>22>>>>>>>>>>>>>>>>>>>",
">>>>>>>>>>p2;22>BBnkkkkkkkkkkkkkkkkkknn>>>kkiiiiiiiiO=11111111O=1111111$iiiiiiiiiiiiz>>mkkkkkkkkkkkkm>>>;222;>>>>>>>>>>>>>>>>>>>",
">>>>>>>>>>;22;2Bssnkkkkkkkkkkkkkkkkkknn>>>lliiiiiii$=111111111O11111111$iiiiiiiiiiiiz>>mkkkkkkkkkkkkm>>>;22;>>>>>>>>>>>>>>>>>>>>",
">>>>>>>>>>>;2;;-BBnkkkkkkkkkkkkkkkkkknn>>>lliiiiii O=11111111111111111=$iiiiiiiiiiiiz>>mkkkkkkkkkkkkm>>>>;2>>>>>>>>>>>>>>>>>>>>>",
">>>>>>>>>>>>>>>>--nkkkkkkkkkkkkkkkkkknn>>>lliiiii$OOO=1111111111111=$$$=iiiiiiiiiiiiz>>mkkkkkkkkkkkkm>>>>>>>>>>>>>>>>>>>>>>>>>>>",
">>>>>>>>>>>>NN>>>Bnkkkkkkkkkkkkkkkkkknn>>>lliiiii OOOO=1=111111111$$aavv1iiiiiiiiiiiz>>mkkkkkkkkkkkkm>>>>>>>>>>>>>>>>>>>>>>>>>>>",
">>>>>>>>>>>>sN>>Bsnkkkkkkkkkkkkkkkkkknn>>>lliiii$OOOOOOOOOO=111=$$1uu1av1iiiiiiiiiiiz>>mkkkkkkkkkkkkn>>>>>>>>>>>>>>>>>>>>>>>>>>>",
">>>>>>>>>>>>-->>BBnkkkkkkkkkkkkkkkkkknn>>>zziiii OOOOOOO===O=$$$vaVVVVua1iiiiiiiiiiiz>>mkkkkkkkkkkkkn>>>>>>>>>>>>>>>>>>>>>>>2pp>",
">>>>>>>>>>>>>>>>--nkkkkkkkkkkkkkkkkkknn>>>zziiii OOOOOOOavv=OvvvauVVVVV1=iiiiiiiiiiiz>>mkkkkkkkkkkkkn>>>>>>>>>>>>>>>>>>>>>>22p>>",
">>>>>>>>>>>>>>>>>>nkkkkkkkkkkkkkkkkkknn>>>zziiii OOOOOO=vvvv=vva1VVVVV  =iiiiiiiiiiiz>>mkkkkkkkkkkkkn>>>>>>>>>>>>>>>>>>>>>>22;>>",
">>>>>>>>>>>>>>>>>>nkkkkkkkkkkkkkkkkkknn>>>zziiii OOOOO=rrvvv=vv1VVVVV V =iiiiiiiiiiiz>>mkkkkkkkkkkkkn>>>>>>>>>>>>>>>>>>>>>>;;>>>",
">>>>>>>>>>>>>>>>>>nkkkkkkkkkkkkkkkkkknn>>>zziiii OOOOO=aarvvvvvuVVVVV  #=iiiiiiiiiiiz>>mkkkk2kkkkkkkn>>>>>>>>>>>>>>>>>>>>>>>>>>>",
">>>>>>>>>>>>>>>>>>nkkkkkkkkkkkkkkkkkknn>>>zziiii OOOOO=vvrrvvvvuVVVVV   =iiiiiiiiiiil>>mkkkppkkkkkkkb>>>>>>>>>>>>>>>>>>>>>>>>>>>",
">>>>>>>>>>>>>>>>>>nkkkkkkkkkkkkkkkkkknn>>>zziiii OOOOO=vrvvrvvvuVVVVVV  r=bbbbbbbbbb8>>8MM2p:MMMMMMM0>>>>>>>>>>>>>>>>>>>>>>>>>>>",
">>>>>>>>>>>>>>>>>>nkkkkkkkkkkkkkkkkkknn>>>zziiii OOOOO=vvvvvvvv1VVVVVVVur18888888888>>>>802200000000>>>>>>>>>>>>>>>>>>>>>>>>>>>>",
">>>>>>>>>>>>>>>>>>nkkkkkkkkkkkkkkkkkknn>>>zziiii OOOOOO===rvvvvr1VVVVV1rrv1>>>>>>>>>>>>>>>>>>>>>>>>>>>>>>>>>>>>>>>>>>>>>>>>>>>>>",
">>>>>>>>>>>>>>>>>>nkkkkkkkkkkkkkkkkkknn>>>zziiii OOOOOOOOOOvvvvrru1uu1ruvv=>>>>>>>>>>>>>>>>>>>>>>>>>>>>>>>>>>>>>>>>>>>>>>>>>>>>>",
">>>>>>>>>>>>>>>>>>0MMMMMMMMMMMMMMMMMM99>>>88bbbbb OOOOOOOOOvvvvvurrrrruvvv=>>>>>>>>>>>>>>>>>>>>>>>>>>>>>>>>>>>>>>>>>>>>>>>>>>>>>",
">>>>>>>>>>>>>>>>>>0MMMMMMMMMMMMMMMMMM99>>>88bbbbb OOOOOOOOvvvvvvvuvvvvvvva1>>>>>>>>>>>>>>>>>>>>>>>>>>>>>>>>>>>>>>>>>>>>>>>>>>>>>",
">>>>>>>>>>>>>>>>>>>999000000000009999>>>>>>>888888 OOOOOOOvvvvvvvvvvvvrya=>>>>>>>>>>>>>>>>>>>>>>>>>>>>>>>>>>>>>>>>>>>>>>>>>>>>>>",
">>>>>>>>>>>>>>>>>>>>>>>>>>>>>>>>>>>>>>>>>>>>>>>>>2 OOOOOOvvvvvvvvvvvvvva=>>>>>>>>>>>>>>>>>>>>>>>>>>>>>>>>>>>>>>>>>>>>>>>>>>>>>>>",
">>>>>>>>>>>>>>>>>>>>>>>>>>>>>>>>>>>>>>>>>>>>>>>>>>p OOOOOvvvvvvvvvvvva1=>>>>>>>>>>>>>>>>>>>>>>:::>>>>>>>>>>>>>>>>>>>>>>>>>>>>>>>",
">>>>>>>>>>>>>>>>>>>>>>>>>>>>>>>>>>>>>>>>>>>>>>>>>>>>  OOO=avvvvvvv111=>>>>>>>>>>>>>>>>>>>>>>>>:::>>>>>>>>>>>>>>>>>>>>>>>>>>>>>>>",
">>>>>>>>>>>>>>>>>>>>>>>>>>>>>>>>>>>>>>>>>>>>>>>>>>;2$;  1p=1rrrrr1kkkkkkkkkkkkkkkkkk>>>>>>>iiiiiiiiiiiiiiiiii>>>>>>>>>>>2p>>>>pp",
">>>>>>>>>>>>>>>>>>>>>>>>>>>>>>>>>>>>>>>>>>>>>>>>>$>$$u$2>>> &&&r&&&kkkkkkkkkkkkkkkkkxx>>>lliiiiiiiiiiiiiiiiiiz>>>>>>>>>>>pp>>2p>",
">>>>>>>>>>>>>>>>>>>>>>>>>>>>>>>>>>>>>>>>>>>>>>>>$$u$11OO>>  rvvu vrkkkkkkkkkkkkkkkkkxx>>>lliiiiiiiiiiiiiiiiiiz>>>>>>>>>>>22>22;>",
">>>>>>>>>>>>>>>>>>>>>>>2p>>>>22>>>>>>>>>>>>>>>>>$111OO1>>>>rvvv& V rkkkkkkkkkkkkkkkkbb>>>zziiiiiiiiiiiiiiiiiiz>>>>>>>>>>>cc>22;>",
">>>>>>>>>>>>>>>>>>>>>>>>pp>>22>>>>>>>>>>>>>>>>>>$Ou1$O$>>>>rvvr   urkkkkkkkkkkkkkkkkbb>>>zziiiiiiiiiiiiiiiiiiz>>>>>>>>>>cttc;;>>",
">>>>>>>>>>>>>>>>>>>>>>>>;22>22>>>>>>>>>>>>>>>>>>$$O$$O>>>>>rvvr  V  kkkkkkkkkkkkkkkkbb>>>zziiiiiiiiiiiiiiiiiiz>>>>>>>>>>-cc->>>>",
">>>>>>>>>>>>>>>>>>>>>>>>;22>>iiiiiiiiiiii>>>>iiii$Oiiiiii> rvv&&     kkkkkkkkkkkkkkknn>>>zziiiiiiiiiiiiiiiiiiz>>>>>>>>>>>-->>>>>",
">>>>>>>>>>>>>>>>>>>>>>>>>;;>ziiiiiiiiiiiiz>>ziiiiiiiiOO$i  &vvvvr     kkkkkkkkkkkkkknn>>>zziiiiiiiiiiiiiiiiiiz>>>>>>>>>>>>>>>>>>",
">>>>>>>>>>>>>>>>>>>>>>>>>>>>ziiiiiiiiiiiiz>>ziiiii$O$$O1   &vvvvr      kkkkkkkkkkkkknn>>>zziiiiiiiiiiiiiiiiiiz>>>>>>>>>>>>>>>>>>",
">>>>>>>>>>>>>>>>>>>>>>>>>>>>ziiiiiiiiiiiiz>>ziiii$$11$u1   rvvvvv&      kkkkkkkkkkkknn>>>zziiiiiiiiiiiiiiiiiiz>>>>>>>>>>>>>>>>>>",
">>>>>>>>>>>>>>>>>>>>>>>>>>>>ziiiiiiiiiiiiz>>ziiiii=uu1o    rrvvvr        kkkkkkkkkkknn>>>zziiiiiiiiiiiiiiiiiiz>>>>>>>>>>>>>>>>>>",
">>>>>>>>>>>>>>>>>>>>>>>>>>>>ziiiiiiiiiiiiz>>ziiii$$OO$$     &v&&         kkkkkkkkkkknn>>>zziiiiiiiiiiiiiiiiiiz>>>>>>>>>>>>>>>>>>",
">>>>>>>>>>>>>>>>>>>>>>>>>>>>ziiiiiiiiiiiiz>>ziiiii$$O$                  Vkkkkkkkkkkknn>>>zziiiiiiiiiiiiiiiiiiz>>>>>>>>>>>>>>>>>>",
">>>>>>>>>>>>>>>>>>>>>>>>>>>>ziiiiiiiiiiiiz>>ziiiiiiiOiu                ukkkkkkkkkkkknn>>>zziiiiiiiiiiiiiiiiiib>>>>>>>>>>>>>>>>>>",
">>>>>>>>>>>>dd>>>>>>>>>>>>>>ziiiiiiiiiiiiz>>ziiiiiiiii$Vu            uVkkkkkkkkkkkkknn>>>zziiiiiiiiiiiiiiiiiib>>>>>>>>>>>>>>>>>>",
">>>>>>>>>>>dttd>cc>>>>>>>>>>ziiiiiiiiiiiiz>>ziiiiii$u$$u1uVuVuuuuVuVu4kkkkkkkkkkkkkknn>>>zziiiiiiiiiiiiiiiibb8>>>>>>>>>>>>>>>>>>",
">>>>>>>>>>>-dd-ctc>>>>>>>>>>ziiiiiiiiiiiiz>>ziiiiii=u1$OOOXXXX 1u  X54444kkkkkkkkkkknn>>>lliiiiiiiiiiiiiiib88>>>>>>>>>>>>>>>>>>>",
">>>>>>>>>>>>-->cc->>>>>>>>>>ziiiiiiiiiiiiz>>ziiiii<$OOO<O4XXXX 1u$ X544444kkkkkkkkkknn>>>lliiiiiiiiiiiiiiib88>>>>>>>>>>>>>>>>>>>",
">>>>>>>>>>>>>>>-->>>>>>>>>>>ziiiiiiiiiip28>>ziiii<<O<O<<<4XXXX$ue$$X5444444kkkkkkkkknn>>>lliiiiiiiiiiiiibb8>>>>>>>>>>>>>>>>>>>>>",
">>>>>>>>>>>>>>>>>>>>>>>>>>>>8bbbbbp2bb2p;>>>8bbbb555555555XXXX$uu$$**666666MMMMMMMMM88>>>88bbbbbbbbbbbbb88>>>>>>>>>>>>>>>>>>>>>>",
">>>>>>>>>>>>>>>>>>>>>>>>>>>>>88888;22822>>>>>888++++++++++XXXX#ww#$**6666666MMMMMMMM88>>>88bbbbbbbbbbbbb88>>>>>>>>>>>>>>>>>>>>>>",
">>>>>>>>>>>>>>>>>>>>>>>>>>>>>>>>>>>;222;>>>>>>>>XXXXXXXXXXXXXX######.@@@@@@@00000000>>>>>>>8888888888888>>>>>>>>>>>>>>>>>>>>>>>>",
">>>>>>>>>>>>>>>>>>>>>>>>>>>>>iiiiii;22;>>>>>>>>>,,,,,,,,,XXXX 1weey##XXXXXXX>>>>>>>>>>>>>>>>>>>>>>>>>>>>>>>>>>>>>>>>>>>>>>>>>>>>",
">>>>>>>>>>>>>>>>>>>>>>>>>>>>ziiiiiii;2>>>>>>>>>q,,,,,,,,,3XXXO11uuuOOXXXXXXX>>>>>>>>>>>>>>>>>>>>>>>>>>>>>>>>>>>>>>>>>>>>>>>>>>>>",
">>>>>>>>>>>>>>>>>>>>>>>>>>>>ziiiiiiiiiii>>>>>>qq,,,,,,,,,3XXXXO OOOO<<<<<<<<iiiii>>>>>>>>>>iiiiiiiiiz>>>iiiii>>>>>>>>>>>>>>>>>>>",
">>>>>>>>>>>>>>>>>>>>>>>>>>>>ziiiiiiiiiiiiz>>jqqq,,,,,,,,,3XXXXXXXX<<<<<<<<<<iiiii>>>>>>>>>>iiiiiiiiiz>>>iiiii>>>>>>>>>>>>>>>>>>>",
">>>>>>>>>>>>>>>>>>>>>>>>>>>>ziiiiiiiiiiiiz>>jqqqq,,,,,,,,3XXXXXXX4<<<<<<<<<iiiiiiiii>>>>>zziiiiiiiiiz>>iiiiiiz>>>>>>>>>>>>>>>>>>",
">>>>>>>>>>>>>>>>>>>>>>>>>>>>ziiiiiiiiiiiij>>2qqqq,,,,,,,,3XXXXXXX4<<<<<<<<<iiiiiiiiizz>>>zziiiiiiizz8iiiiiiiiz>>>>>>>>>>>>>>>>>>",
">>>>>iiiiiiiiii>>>>>>>>>>>>>ziiiiiiiiiiiij>ppqqqqq,,,,,,,3XXXXXXX4<<<<<<<<iiiiiiiiiizz>>>zziiiiiiizz8iiiiiiiiz>>>>>>>>>>>>>>>>>>",
">>>>iiiiiiiiiiiz>>>>>>>>>>>>ziiiiiiiiiiiij2p:qqqqqqqq,,,,3XXXXXXX4<<<<<iiiiiiiiiiiiizz>>>zz222izzz88>iiiiiiiiz>>>>>>>>>>>>>>>>>>",
">>ziiiiiiiiiiiiz>>>>>>>>>>>>ziiiiiiiiiiiij22jqqqqqqqq,,,,3XXXXXXX4<<<iiiiiiiiiiiiiiizz>>>pppzzz888>>>iiiiiiiiz>>>>>>>>>>>>>>>>>>",
">>ziiiiiiiiiiiiz>>>>>>>>>>>>ziiiiiiiiiiiiz::jqqqqqqqqqqq,3XXXXXXX4iiiiiiiiiiiiiiiiiizz>>>pppzzz888>>>iiiiiiiiz>>>>>>>>>>>>>>>>>>",
">>ziiiiiiiiiiiiz>>>>>>>>>>>>ziiiiiiiiiiiiz>>jqqqqqqqqqqqqh>>>>>>>liiiiiiiiiiiiiiiiiizz>>222:888>>>>>iiiiiiiiiz>>>>>>>>>>>>>>>>>>",
">>ziiiiiiiiiiiiz>>>>>>>>>>>>liiiiiiiiiiiiz>>jqqqqqqqqqqqzb>>>>>>>liiiiiiiiiiiiiiiiiizz>>222:>>>>>>iiiiiiiiiiiz>>>>>>>>>>>>>>>>>>",
">>ziiiiiiiiiiiiz>>>>>>>>>>>>liiiiiiiiiiiiz>>zqqqqqqqqqqz88p>>>>>>liiiiiiiiiiiiiiiiiizz>>222:>>>>>>iiiiiiiiiiiz>>>>>>>>>>>>>>>>>>",
">>ziiiiiiiiiiiiz>>>>>>>>>>>>8bbbbbbbbbbbb8>>8bzzzzzzzzz8>>2>>pp>>liiiiiiiiiiiiiiiiiizz>>2::>>>>iiiiiiiiiiiiiiz>>>>>>>>>>>>>>>>>>",
">>ziiiiiiiiiiiiz>>>>>>>>>>>>>888888888888>>>>8877777778>>>:>22p>>liiiiiiiiiiiiiiiiiizz>>>>>>iiiiiiiiiiiiiiiiiz>>>>>>>>>>>>>>>>>>",
">>ziiiiiiiiiiiiz>>>>>>>>>>>>>>>>>>>>>>>>>>>>-->td>>>>>>p2:>>22:>>liiiiiiiiiiiiiiiiiizz>>>>>>iiiiiiiiiiiiiiiiiz>>>>>>>>>>>>p>>>>>",
">>ziiiiiiiiiiiib>>>>>>>>>>>>>>p>>>>>>>>>>>>>>>>-->>>>>>22cc22:2>>liiiiiiiiiiiiiiiiiizz>>>zziiiiiiiiiiiiiiiiiiz>>>>>>>>>>>22>>2pp",
">>ziiiiiiiiibbb8>>>>>>>2pp>>>p>>>>>>>>>>>>>>>>>>>>>>>>>>cttc:22>>liiiiiiiiiiiiiiiiiizz>>>zziiiiiiiiiiiiiiiiiiz>>>>>>>>p>>2:>22p>",
">>ziiiiiiiib888>>>>>>>>>p22>pp>>>>>>>>>>>>>>>>>>>>>>>>>>-cc-:2:>>liiiiiiiiiiiiiiiiiizz>>>zziiiiiiiiiiiiiiiiiiz>>>>>>>>:22>:222:>",
">>8bbbbbbbb8>>2pp>>>>>>>;22>22>>>>>>>>>>>>>>>>>>>>>>>>>>>-->>dd>>liiiiiiiiiiiiiiiiibbb>>>zziiiiiiiiiiiiiiiiiil>>>>>>>>:22NN22:2p",
">>>88888888>>22p>>>>>>>>>;2;2;>>>>>>>>>>>>>>>>>>>>pp2>>>>>>>dtt>>liiiiiiiiiiiibbb22ppp>>>zzfiiiiiiiiiiiiiiiiil>>>>>>>>>:NssN:22:",
">>>>>>>>>>>>>22;>>>>>>>>>>;>;>>>>>>>>>>>>>>>>>>>>>>p22>>>>>>-dd>>liiiiiiiiiiiibbb22ppp>>>zzfiiiiiiiiiiiiiiiiil>>>>>>>>>>-NN-:2:>",
">>>>>>>>2p>>>2;>>>>>iiiiiiiiiii>>>>>>>>>>>>>>>>>>>>:22>>>>>cc-->>8bbbbbbbbbbbb88888p2222>88bbbbbbbbbbbbbbbbbb8>>>pp2>>>>>--NN>>>",
">>>>>>>>;p2>>;2p>>>iiiiiiiiiiiil>>>>>>>>>>>>>>>>>>>>::>>>>ctc->>>>888888888888>>>>>:2222>>>888888888888888888>>>>>p22BB>>>>sN>>>",
">>>>>>>>>22>>22;>>ziiiiiiiiiiiiz>>>>>>>>>>>>>>>>>>>>>>>>>>cc->>>>>888888888888>>>>>:2222>>>888888888888888888>>>>>:2BssB>>>-->>>",
">>>>>>>>>;2;22;>>>ziiiiiiiiiiiiz>>>>>>>>>>>>>>>>>>>>>>>>>>-->>>>>>>>>>>>>>>-BB->>>>>>>>>>>>>>>>>>>>>>>>>>>>>>>>>>>>:-BB->>>>>>>>",
">>>>>>>>>>;;22;>>>ziiiiiiiiiiiiz>>>>>>>>>>>>>>>>>>>>>>>>>>>>>>>>>>>>>>>>>>>>-->>>>>>>>>>>>>>>>>>>>>>>>>>>>>>>>>>>>>>>-->>>>>>>>>",
">>>>>>>>>>>>2;>>>>ziiiiiiiiiiiiz>>>>>>>pp>>>>22>>>>>>>>>>>>>>>>>>>>>>>>>>>>>>>>>>>>>>>>>>>>>>>>>>>>>>>>>>>>>>>>>>>>>>>>>>>>>>>>>",
">>>>>>>>>>>>>>>>>>ziiiiiiiiiiiiz>>>>>>>>p2>cc2>>>>>>>>>>>>>>>>>>>pp>>>>>>>>>>>>>>>>>>>>>>>>>>>>>>>>>>>>>>>>>>>>>>>>>>>>>>>>>>>>>",
">>>>>>>>>>>>>>>>>>ziiiiiiiiiiiiz>>>>>>>>:22ct2>>>>>>>>>>>>>>2>>22p>>>>>>>>>>>>>>>>>>>>>>>>>>>>>>>>>>>>>>>>>>>>>>>>>>>>>>>>>>>>>>",
">>>>>>>>>>>>>>>>>>ziiiiiiiiiiiiz>>>>>>>>:22--:>>>>>>>>>>>>>>pp:22:>>>>>>>>>>>>>>>>>>>>>>>>>>>>>>>>>>>>>>>>>>>>>>>>>>>>>>>>>>>>>>",
">>>>>>>>>>>>>>>>>>ziiiiiiiiiiiiz>>>>>>>>>::>>>>>>>>>>>>>>>>>p22::>>>>>>>>>>>>>>>>>>>>>>>>>>>>>>>>>>>>>>>>>>>>>>>>>>>>>>>>>>>>>>>",
">>>>>>>>>>>>>>>>>>ziiiiiiiiiiiiz>>>>>>>>>>>>>>>>>>>>>>>>>>>>:22>>>>>>>>>>>>>>>>>>>>>>>>>>>>>>>>>>>>>>>>>>>>>>>>>>>>>>>>>>>>>>>>>",
">>>>>>>>>>>>>>>>>>ziiiiiiibbbbb>>>>>>>>>>>>>>>>>>>>>>>>>>>>>>>>>>>>>>>>>>>>>>>>>>>>>>>>>>>>>>>>>>>>>>>>>>>>>>>>>>>>>>>>>>>>>>>>>",
">>>>>>>>>>>>>>>>>>ziiiiibb88888>>>>>>>>>>>>>>>>>>>>>>>>>>>>>>>>>>>>>>>>>>>>>>>>>>>>>>>>>>>>>>>>>>>>>>>>>>>>>>>>>>>>>>>>>>>>>>>>>",
">>>>>>>>>>>>>>>>>>8bbbbb88>>>>>>>>>>>>>>>>>>>>>>>>>>>>>>>>>>>>>>>>>>>>>>>>>>>>>>>>>>>>>>>>>>>>>>>>>>>>>>>>>>>>>>>>>>>>>>>>>>>>>>",
">>>>>>>>>>>>>>>>>>>88888>>>>>>>>>>>>>>>>>>>>>>>>>>>>>>>>>>>>>>>>>>>>>>>>>>>>>>>>>>>>>>>>>>>>>>>>>>>>>>>>>>>>>>>>>>>>>>>>>>>>>>>>",
">>>>>>>>>>>>>>>>>>>>>>>>>>>>>>>>>>>>>>>>>>>>>>>>>>>>>>>>>>>>>>>>>>>>>>>>>>>>>>>>>>>>>>>>>>>>>>>>>>>>>>>>>>>>>>>>>>>>>>>>>>>>>>>>",
">>>>>>>>>>>>>>>>>>>>>>>>>>>>>>>>>>>>>>>>>>>>>>>>>>>>>>>>>>>>>>>>>>>>>>>>>>>>>>>>>>>>>>>>>>>>>>>>>>>>>>>>>>>>>>>>>>>>>>>>>>>>>>>>",
">>>>>>>>>>>>>>>>>>>>>>>>>>>>>>>>>>>>>>>>>>>>>>>>>>>>>>>>>>>>>>>>>>>>>>>>>>>>>>>>>>>>>>>>>>>>>>>>>>>>>>>>>>>>>>>>>>>>>>>>>>>>>>>2"
};
